<?xml version="1.0" encoding="utf-8"?>
<!-- Generator: Adobe Illustrator 26.5.0, SVG Export Plug-In . SVG Version: 6.00 Build 0)  -->
<svg version="1.1" id="Layer_1" xmlns="http://www.w3.org/2000/svg" xmlns:xlink="http://www.w3.org/1999/xlink" x="0px" y="0px"
	 viewBox="0 0 152.6 177.5" style="enable-background:new 0 0 152.6 177.5;" xml:space="preserve">
<style type="text/css">
	.st0{fill:#FFFFFF;}
	.st1{fill:#1891CB;}
	.st2{fill:#F7CE17;}
</style>
<g transform="translate(-2.0076 -.97543)">
	<path class="st0" d="M63.9,156.9c-1.1,0.3-2.9,0.7-4.2,1v0.6c2,0.2,2,0.1,2,1.9v14.2c0,1.6-0.1,1.7-1.9,1.9v0.7h6v-0.7
		c-1.7-0.2-1.9-0.3-1.9-1.9v-7.3c0.7-0.8,1.8-1.3,2.9-1.3c2.1,0,2.8,1.3,2.8,3.4v5.2c0,1.6-0.1,1.7-1.9,1.9v0.7h6v-0.7
		c-1.7-0.1-1.9-0.3-1.9-1.9v-6c0-2.5-1.5-4.2-3.9-4.1c-1.5,0.1-3.1,1-4,2L63.9,156.9L63.9,156.9z M46.8,157.7
		c-0.8,0-1.5,0.7-1.5,1.6c0,0.9,0.7,1.5,1.5,1.5c0.8,0,1.5-0.7,1.5-1.5C48.3,158.4,47.6,157.7,46.8,157.7L46.8,157.7z M118.6,157.7
		c-0.8,0-1.5,0.7-1.5,1.6c0,0.9,0.7,1.5,1.5,1.5c0.8,0,1.5-0.7,1.5-1.5C120.1,158.4,119.4,157.7,118.6,157.7L118.6,157.7z
		 M13.6,158.2c-3.7,0-5.9,2.4-5.9,5.2c0,3.4,3.8,4.8,4.8,5.2c1.8,0.9,3.7,1.9,3.7,4.3c0,2.2-1.4,3.7-3.5,3.7c-3,0-4.5-3.2-4.9-4.5
		L7,172.2c0.3,1.5,0.6,3.6,0.8,4.3c0.3,0.1,0.9,0.4,1.6,0.6c0.7,0.2,1.7,0.4,2.7,0.4c3.6,0,6.3-2.4,6.3-5.7c0-3.5-3-4.7-4.9-5.5
		c-2.2-1-3.7-1.9-3.7-4c0-1.7,1.1-3.2,3.1-3.2c2.6,0,3.4,2,3.9,3.7l0.7-0.1c-0.2-1.7-0.4-2.8-0.5-3.8c-0.3-0.1-0.7-0.2-1.1-0.3
		C15.4,158.3,14.4,158.2,13.6,158.2L13.6,158.2z M54.8,161.1L53,163v1.8h-1.4l-0.8,0.8l0.1,0.3H53v8.2c0,2.3,1,3.4,2.8,3.4
		c0.2,0,0.6-0.1,0.9-0.2l2.3-1.2l-0.3-0.6c-0.5,0.3-1.2,0.5-1.7,0.5c-0.8,0-1.8-0.4-1.8-2.6l0,0v-7.5h3.1c0.3-0.3,0.4-0.8,0.2-1.1
		h-3.3v-3.7L54.8,161.1L54.8,161.1z M24.4,164.4c-1.5,0.5-2.8,0.9-4.2,1.1v0.5c1.9,0.2,1.9,0.3,1.9,2h0v6.6c0,1.6-0.1,1.7-2.1,1.9
		v0.7h6.2v-0.7c-1.7-0.2-1.9-0.3-1.9-1.9v-7.2c0.9-0.7,2.1-1.3,3.2-1.3c2,0,2.6,1.3,2.6,3v5.6c0,1.6-0.1,1.7-2,1.9v0.7h6v-0.7
		c-1.7-0.2-1.8-0.3-1.8-1.9v-6.4c0-0.3,0-0.5-0.1-0.8c1.1-0.9,2.2-1.4,3.2-1.4c2.1,0,2.6,1.4,2.6,3.1v5.5c0,1.6-0.1,1.7-2,1.9v0.7h6
		v-0.7c-1.7-0.2-1.8-0.3-1.8-1.9v-6.4c0-2.2-1.3-3.8-3.6-3.8c-0.9,0-1.7,0.3-2.5,0.8c-0.5,0.3-1.3,0.8-2.1,1.4
		c-0.5-1.4-1.8-2.2-3.2-2.2c-1,0-1.7,0.3-2.6,0.8c-0.8,0.5-1.4,0.9-1.9,1.3L24.4,164.4L24.4,164.4z M47.9,164.4
		c-1.5,0.5-2.8,0.9-4.2,1.1v0.5c1.9,0.2,1.9,0.3,1.9,2v6.6c0,1.6-0.1,1.7-2,1.9v0.7h6.3v-0.7c-1.9-0.2-2-0.3-2-1.9v0V164.4
		L47.9,164.4z M104.2,164.4c-1.5,0.5-2.8,0.9-4.2,1.1v0.5c1.9,0.2,1.9,0.3,1.9,2v6.6c0,1.6-0.1,1.7-2.1,1.9v0.7h6.1v-0.7
		c-1.7-0.2-1.8-0.3-1.8-1.9v-7.2c0.9-0.7,2-1.3,3.1-1.3c2.1,0,2.6,1.4,2.6,3.1v5.5c0,1.6-0.1,1.7-2,1.9v0.7h6v-0.7
		c-1.7-0.2-1.8-0.3-1.8-1.9v-6.4c0-2.2-1.3-3.8-3.6-3.8c-0.9,0-1.6,0.3-2.4,0.8c-0.7,0.5-1.4,0.9-1.9,1.3l0,0L104.2,164.4
		L104.2,164.4z M119.7,164.4c-1.5,0.5-2.8,0.9-4.2,1.1v0.5c1.9,0.2,1.9,0.3,1.9,2v6.6c0,1.6-0.1,1.7-2,1.9v0.7h6.3v-0.7
		c-1.9-0.2-2-0.3-2-1.9l0,0V164.4L119.7,164.4z M139.7,164.4c-1.5,0.5-2.8,0.9-4.2,1.1v0.5c1.9,0.2,1.9,0.3,1.9,2v6.6
		c0,1.6-0.1,1.7-2.1,1.9v0.7h6.2v-0.7c-1.7-0.2-1.8-0.3-1.8-1.9v-7.2c0.9-0.7,2-1.3,3.1-1.3c2.1,0,2.6,1.4,2.6,3.1v5.5
		c0,1.6-0.1,1.7-2,1.9v0.7h6v-0.7c-1.7-0.2-1.8-0.3-1.8-1.9v-6.4c0-2.2-1.3-3.8-3.6-3.8c-0.9,0-1.6,0.3-2.4,0.8
		c-0.7,0.5-1.4,0.9-1.9,1.3v0L139.7,164.4L139.7,164.4z M80.1,164.4c-2.5,0-4.2,1.7-4.2,3.7c0,1.9,1.6,2.8,3.4,3.7
		c1.6,0.7,2.2,1.5,2.2,2.7c0,1.4-1,2.1-2,2.1c-1.7,0-3-1.8-3.4-3.5v0l-0.7,0.2c0,1.1,0.2,2.7,0.3,3.1c0.5,0.5,1.9,1.1,3.3,1.1
		c2.2,0,4.6-1.3,4.6-3.9c0-1.9-1.4-3-3.4-3.9c-1.3-0.5-2.5-1.3-2.5-2.5c0-0.9,0.6-1.9,1.9-1.9c1.1,0,2,0.7,2.8,2.5l0.7-0.2
		c-0.1-0.5-0.3-2.1-0.6-2.7C81.9,164.6,81.1,164.4,80.1,164.4L80.1,164.4z M91.8,164.4c-2.6,0-6.3,2.1-6.3,6.9c0,3,2.3,6.2,6.3,6.2
		c2.9,0,6.2-2.3,6.2-6.7C98,167.2,95.4,164.4,91.8,164.4L91.8,164.4z M128.8,164.4c-2,0.4-3.7,1.5-4.4,2c-0.6,0.5-1,0.9-1,1.2
		c0,0.5,0.8,1,1.2,1c0.3,0,0.6-0.2,0.7-0.5c0.3-1.2,0.9-2.4,2.3-2.4c1.5,0,2.3,0.9,2.3,2.7v1c-0.9,0.6-3.2,1.4-4.6,2
		c-1.5,0.6-2.2,1.6-2.2,2.9c0,1.6,1.3,3.3,3.4,3.3c0.6,0,2.1-1.1,3.3-1.9c0.2,0.7,0.6,1.7,1.6,1.9l0,0l2.9-1.4l-0.3-0.6
		c-0.5,0.3-1,0.4-1.2,0.4c-0.4,0-0.8-0.5-0.8-1.5v-6.4c0-1-0.1-2-1.1-2.8C130.5,164.7,129.6,164.4,128.8,164.4L128.8,164.4z
		 M91.5,165.3c2.6,0,4,2.9,4,6.1c0,3.8-1.5,5.2-3.3,5.2c-2.5,0-4-2.8-4-6.4C88.1,167.2,89.5,165.3,91.5,165.3z M130,170.2v4.6
		c-0.8,0.6-1.8,1.1-2.5,1.1c-0.9,0-1.9-0.7-1.9-2.2c0-1,0.5-1.6,1.5-2.1C127.7,171.2,129.4,170.5,130,170.2z"/>
	<path class="st1" d="M107.1,146.9c38.4-15.9,56.7-60,40.7-98.4C132,10.1,87.9-8.2,49.5,7.7c-38.4,15.9-56.7,60-40.7,98.4
		C24.7,144.5,68.7,162.8,107.1,146.9"/>
	<path class="st2" d="M130.8,94.9c-5.6-9.7-14.5-9.8-15.6-9.8v0l37.5-7.8l-37.5-7.8v0c0.4-0.4,7.7-6.8,18.6-7
		c8.3-0.1,15.4-10.2,10.8-18c0,0-1.3,12.2-16.8,8.1c-10.8-2.9-17.2,3.4-18,4.2c0,0,0,0,0,0l21-32.1l-32.1,21c0,0,0,0,0,0
		c0-0.5,0.6-10.2,8.3-18.1c5.8-5.9,3.7-18.1-5.1-20.4c0,0,7.7,9.6-6.1,17.6c-9.7,5.6-9.8,14.5-9.8,15.6h0L78.3,2.9l-7.8,37.5
		c0,0,0,0,0,0c-0.3-0.3-6.8-7.7-7-18.6c-0.1-8.3-10.2-15.4-18-10.8c0,0,12.2,1.4,8.1,16.8c-2.9,10.9,3.4,17.2,4.2,18c0,0,0,0,0,0
		l-32.1-21l17.1,26.1l3.9,5.9c0,0,0,0,0,0c-0.3,0-10.2-0.6-18.1-8.3c-5.9-5.7-18.1-3.7-20.4,5.1c0,0,9.6-7.7,17.6,6.1
		c5.7,9.7,14.6,9.8,15.6,9.8c0,0,0,0,0,0L3.9,77.3l37.5,7.8v0c-0.2,0.2-7.6,6.8-18.6,7c-8.3,0.1-15.4,10.2-10.8,18
		c0,0,1.4-12.2,16.8-8.1c10.9,2.9,17.2-3.4,18-4.2c0,0,0,0,0,0l-21,32.1l32.1-21c0,0.3-0.6,10.2-8.3,18.1c-5.8,5.9-3.7,18.1,5,20.4
		c0,0-7.7-9.6,6.1-17.6c9.7-5.7,9.8-14.6,9.8-15.6c0,0,0,0,0,0l7.8,37.5l7.8-37.5v0c0.3,0.3,6.8,7.6,7,18.6
		c0.1,8.3,10.2,15.4,18,10.8c0,0-12.2-1.4-8.1-16.8c2.9-10.9-3.4-17.2-4.2-18c0,0,0,0,0,0l32.1,21L119.8,113l-9.9-15.1
		c0.4,0,10.2,0.6,18.1,8.3c5.9,5.7,18.1,3.7,20.4-5.1C148.3,101,138.8,108.7,130.8,94.9"/>
</g>
</svg>
