<?xml version="1.0" encoding="utf-8"?>
<!-- Generator: Adobe Illustrator 26.4.1, SVG Export Plug-In . SVG Version: 6.00 Build 0)  -->
<svg version="1.1" id="Layer_1" xmlns="http://www.w3.org/2000/svg" xmlns:xlink="http://www.w3.org/1999/xlink" x="0px" y="0px"
	 viewBox="0 0 250 252" style="enable-background:new 0 0 250 252;" xml:space="preserve">
<style type="text/css">
	.st0{fill:#FFFFFF;}
	.st1{fill:#C41230;}
	.st2{fill:#C0C2C4;}
	.st3{fill:#005288;}
	.st4{fill:#0078AE;}
	.st5{fill:#5E9732;}
</style>
<g>
	<g>
		<ellipse class="st0" cx="125" cy="125" rx="125" ry="125"/>
		<g>
			<path class="st1" d="M200.9,80.1c-1.4,0.5-2.8,0.9-4.2,1.2c7.8,12.7,12.3,27.7,12.3,43.7c0,46.4-37.6,84-84,84
				c-46.4,0-84-37.6-84-84c0-16.7,4.9-32.3,13.3-45.4c-1.3-0.4-2.7-0.9-4-1.5c-8.6,13.6-13.5,29.7-13.5,46.9
				c0,48.7,39.5,88.2,88.2,88.2s88.2-39.5,88.2-88.2C213.2,108.6,208.7,93.2,200.9,80.1z"/>
			<path class="st1" d="M76.2,56.6C89.9,46.8,106.8,41,125,41c20.4,0,39,7.2,53.6,19.3c1.6-0.5,3.2-0.9,4.9-1.3
				c-15.6-13.8-36-22.1-58.4-22.1c-20.1,0-38.6,6.7-53.5,18c0.7,0.2,1.4,0.5,2.1,0.8C74.5,56,75.4,56.3,76.2,56.6z"/>
		</g>
		<path class="st2" d="M125,0C56,0,0,56,0,125s56,125,125,125c69,0,125-56,125-125S194,0,125,0z M125,242.3
			C60.2,242.3,7.7,189.8,7.7,125S60.2,7.8,125,7.8c64.8,0,117.2,52.5,117.2,117.2C242.3,189.8,189.8,242.3,125,242.3z"/>
		<g>
			<path class="st3" d="M94.8,99.9c-1.8-0.9-3.3-2-5-3.5c-5.4-4.9-6.6-10-5.1-15.9c0.9-3.5,2.4-5.3,1.9-8.9
				c-0.3-2.1-1.8-3.8-3.2-5.2c-3.6-3.5-7.8-5.6-14.1-7.7c-3.9-1.3-15.2-4.8-20.1-9.3c-1.1,3.3,1.3,7.7,4.2,8.3
				c-2.5,0.3-4.7,1.6-5.7,3c1.9,2.2,5.7,4.5,8.9,4.6c-1.5,1-3.2,3.1-3.8,4.2c2.7,1.4,7.1,2.7,10.4,2.4c-1.4,1.1-2.6,2.6-3.4,3.9
				c2.3,1,6.7,2.5,10.9,2.8c-1.6,0.8-3.8,3.4-4.9,5c2.4,1.1,7.5,1.7,10.6,2c-2.3,1.2-4.6,3.6-5.9,5.7c2.3,1.1,6.6,2.3,10.2,2.2
				c-1.7,1.7-2.9,3.7-3.6,5.7c2.7,0.6,5.5,0.6,8.7,0.1c-2,2.5-2.8,5.8-3.1,8.2c2.7-0.1,6.2-0.7,8.7-2.2c-0.5,2-0.4,4.8,0.4,6.7
				c1-0.2,2.2-0.7,3.6-1.4C95.1,107,94.9,103.1,94.8,99.9z"/>
			<path class="st3" d="M202.6,55.4c-5,4.5-12.9,5.7-21.3,8.5c-6.3,2.1-10.2,3.3-15.8,7.8c-1.6,1.3-3.1,3.2-3,6.4
				c0.2,3.6,0.8,5.2,0.9,10.2c0.1,3.6-1.2,6.5-2.7,8.2c-1.6,1.8-3.7,3.4-5.5,4.3c-0.1,3.1-0.2,6.1-0.4,9.7c1.3,0.7,3,1.4,4,1.6
				c0.9-1.9,1-4.7,0.4-6.7c2.5,1.5,6,2.1,8.6,2.2c-0.3-2.4-1.1-5.7-3.1-8.2c3.2,0.4,6.1,0.4,8.7-0.1c-0.7-2-1.8-4-3.6-5.7
				c3.5,0.1,7.9-1.1,10.2-2.2c-1.3-2.2-3.7-4.5-5.9-5.7c3.2-0.3,8.4-0.9,10.8-2c-1.1-1.6-3.5-4.3-5-5.1c4.2-0.3,8.6-1.8,10.9-2.8
				c-0.8-1.3-2-2.7-3.4-3.9c3.9-0.3,7.7-1,10.4-2.4c-0.6-1.2-2.4-3.2-3.8-4.2C202.4,62.9,202.5,58.7,202.6,55.4z"/>
			<path class="st3" d="M167.1,64.3C155.2,56,140.7,51.2,125,51.2c-14.3,0-27.6,4-38.9,11c2.9,2.3,4.7,4.7,5.1,7.2
				c0.4,2.2,0.6,4.8-0.6,8.7c-1.3,4.1-2.1,8.3,0.9,12.6c3,4.2,6.9,6.1,10.1,6.7l0,0c4.2-0.7,8.9-1.3,13.6-1.7l0,0
				c0.6-2,2.4-3.7,4.2-5.1c2.6-2,2.1-3.8,1.4-5.2c-0.5-1.1-1.4-2-2.8-2.7c-1.2-0.6-5.5-1.1-5.4,1.7c-0.7-1-1.3-2.4-0.9-4.1
				c0.6-2.4,4.5-3,5.5-3c-0.8-0.6-0.3-1.7,1.4-2.2c2.1-0.6,4.1-0.7,6-0.6c4,0.1,4.6,1.1,6.6,2.8c2.4,2.2,5.6,2.9,6.9,1.6
				c-0.9,2.1-3.8,3.2-5.6,2.8c0.9,2.8,1.2,5.3,1.5,8.3c0.1,1.4,0.4,3.7,0.8,5.5c5.3,0.4,10.6,1.2,15.3,2.1l0,0
				c1.9-0.6,3.9-1.7,5.7-3.8c1.7-2,3.3-4.4,2.6-10.7c-0.2-1.8-1.1-6.3-0.9-8.4C157.9,70,161.5,66.9,167.1,64.3z"/>
			<path class="st3" d="M118,77.5c0.7,0.6,1.2,0.6,1.4,0.6c0,0.1,0.3,0.3,0.3,0.4c0.2,0.1,0.2,0.3,0.3,0.4c0.3-0.1,1.2-0.5,2-0.8
				c0.8-0.3,1.9-0.6,1.9-0.6C120.5,76.7,120,77.8,118,77.5z"/>
		</g>
		<g>
			<g>
				<g>
					<path class="st0" d="M125,162.1h-0.8c-0.4-2.5-2.2-4-4.8-4.8c-2-0.6-4.9-1.6-11.1-3.5c-7.2-2.2-10.9-8-11.4-15.3
						c-0.7-10.3-1.7-28.3-2.1-39.8c8.1-2,20.1-3.6,30.2-3.6c10.1,0,22.1,1.6,30.2,3.6c-0.4,11.5-1.4,29.5-2.1,39.8
						c-0.5,7.3-4.2,13.1-11.4,15.3c-6.2,1.9-9.1,2.8-11.1,3.5c-2.6,0.8-4.4,2.4-4.8,4.8H125"/>
				</g>
				<path class="st4" d="M122.9,135.9l-1.5-0.7l-0.9-2.5l-2.2-0.9l-2.4-2.2l-1.4,1.6l-2.2,0.5l-1.1,1.8l-1.7,1.8l-2.4,1.2l-1.6,2.8
					l-0.9,1.2l-1.6,1.2l-0.9-0.9l-0.9,0.9l-1.2,2.2c-0.6-1.6-1-2.9-1.2-5.5c-0.3-4.8-0.7-10.9-1-17.1c8-1.7,18.1-2.9,26.3-2.9v18.8
					C123.7,137,123.3,136.8,122.9,135.9z"/>
				<path class="st5" d="M124.1,145h-23.7c0.3,0.7,0.8,1.4,1.2,2.1c1.7,2.4,4.1,4.2,7.2,5.1c4.2,1.3,6.8,2.1,8.8,2.7l2.3,0.7
					c1.9,0.6,3.2,1.4,4.2,2.4L124.1,145L124.1,145z"/>
				<path class="st3" d="M149.1,135.8c0.6-0.5,1.4-1.1,2.4-1.5c0.1-2.2,0.3-4.6,0.4-7c-0.3,0.2-0.5,0.4-0.9,0.7c-1.1,0.9-2.5,2-5,2
					c-2.3,0-3.8-0.9-5.1-1.7c-1-0.6-1.8-1.1-2.9-1.1c-1.3,0-2.4,0.7-3.6,1.4c-1.2,0.8-2.7,1.6-4.4,1.6c-1.8,0-3.1-0.5-4.1-1.1v6.6
					c0.2,0.1,0.5,0.3,0.7,0.4c1.1,0.6,2,1.2,3.4,1.2c0.9,0,1.8-0.5,2.9-1.2c1.4-0.8,3-1.8,5.1-1.8c2,0,3.4,0.8,4.5,1.5
					c1.1,0.7,2,1.2,3.4,1.2C147.4,137.2,148.2,136.6,149.1,135.8z"/>
				<path class="st3" d="M130.1,151c-1.8,0-3.1-0.5-4.1-1.1v8.1c0.9-0.9,2.3-1.8,4.1-2.4l2.3-0.7c1.9-0.6,4.6-1.4,8.8-2.7
					c1.2-0.4,2.3-0.9,3.4-1.5c-1.5-0.3-2.6-1-3.6-1.5c-1-0.6-1.8-1.1-2.9-1.1c-1.3,0-2.4,0.7-3.6,1.4
					C133.2,150.1,131.8,151,130.1,151z"/>
				<path class="st4" d="M149.1,125.6c0.8-0.6,1.7-1.4,3-1.7c0.1-0.8,0.1-1.7,0.1-2.6c-8-1.7-18.1-2.8-26.3-2.9v7.1
					c0.2,0.1,0.5,0.3,0.7,0.4c1.1,0.7,2,1.2,3.4,1.2c0.9,0,1.8-0.5,2.9-1.2c1.4-0.8,3-1.8,5.1-1.8c2,0,3.4,0.8,4.5,1.6
					c1.1,0.7,2,1.2,3.4,1.2C147.4,127,148.2,126.3,149.1,125.6z"/>
				<path class="st4" d="M125.9,139.3v6.9c0.2,0.1,0.5,0.3,0.7,0.4c1.1,0.7,2,1.2,3.4,1.2c0.9,0,1.8-0.5,2.9-1.2
					c1.4-0.8,3-1.8,5.1-1.8c2,0,3.4,0.8,4.5,1.6c1.1,0.6,2,1.2,3.4,1.2c1.1,0,1.8-0.4,2.6-1c1.5-2.2,2.4-5,2.6-8.3
					c0-0.1,0-0.3,0-0.4c-0.1,0.1-0.1,0.1-0.2,0.2c-1.1,0.9-2.5,2.1-5,2.1c-2.3,0-3.8-0.9-5.1-1.7c-1-0.6-1.8-1.1-2.9-1.1
					c-1.3,0-2.4,0.7-3.6,1.4c-1.2,0.8-2.7,1.6-4.4,1.6C128.3,140.5,127,139.9,125.9,139.3z"/>
			</g>
			<g>
				<path class="st3" d="M97.6,119.5c-0.4-6.9-0.7-13.9-0.9-19.4c8.4-1.9,19.5-3.2,28.3-3.2s19.9,1.2,28.3,3.2
					c-0.2,5.5-0.5,12.5-0.9,19.4c-7.9-1.7-18.4-2.9-27.4-2.9S105.6,117.9,97.6,119.5z"/>
				<polygon class="st0" points="103.2,104.7 103.5,103.2 102.1,102.6 103.6,102.4 103.7,100.9 104.3,102.3 105.8,102 104.7,103 
					105.5,104.4 104.2,103.6 				"/>
				<polygon class="st0" points="112.4,103.5 111.1,102.7 110,103.8 110.4,102.3 109.1,101.6 110.6,101.5 110.8,100 111.3,101.4 
					112.8,101.2 111.7,102.2 				"/>
				<polygon class="st0" points="119.3,103 118.1,102.1 116.9,103.1 117.4,101.7 116.1,100.9 117.6,100.9 117.9,99.4 118.4,100.8 
					119.9,100.7 118.7,101.6 				"/>
				<polygon class="st0" points="126.2,102.8 125,101.9 123.8,102.8 124.4,101.4 123.1,100.6 124.6,100.6 125,99.2 125.4,100.6 
					126.9,100.6 125.7,101.4 				"/>
				<polygon class="st0" points="145.9,103.6 144.6,104.4 145.3,103.1 144.2,102 145.7,102.3 146.3,100.9 146.5,102.5 148,102.6 
					146.6,103.2 146.9,104.7 				"/>
				<polygon class="st0" points="138.4,102.2 137.2,101.2 138.7,101.4 139.2,100 139.5,101.5 141,101.6 139.6,102.3 140,103.8 
					138.9,102.7 137.7,103.5 				"/>
				<polygon class="st0" points="131.4,101.6 130.2,100.7 131.7,100.8 132.2,99.4 132.5,100.9 134,100.9 132.7,101.7 133.1,103.1 
					132,102.1 130.8,103 				"/>
				<polygon class="st0" points="104.2,115.9 104.5,114.4 103.1,113.8 104.6,113.7 104.8,112.1 105.4,113.5 106.8,113.2 
					105.7,114.2 106.5,115.6 105.2,114.8 				"/>
				<polygon class="st0" points="113.1,114.8 111.9,113.9 110.8,115 111.2,113.6 109.8,112.9 111.3,112.8 111.6,111.3 112.1,112.7 
					113.6,112.5 112.4,113.4 				"/>
				<polygon class="st0" points="119.8,114.3 118.6,113.4 117.4,114.4 117.9,113 116.6,112.2 118.1,112.2 118.4,110.7 118.9,112.2 
					120.4,112 119.2,112.9 				"/>
				<polygon class="st0" points="126.4,114.2 125.2,113.2 124.1,114.2 124.6,112.8 123.4,111.9 124.9,112 125.2,110.5 125.7,112 
					127.2,111.9 125.9,112.8 				"/>
				<polygon class="st0" points="145.3,114.9 144,115.7 144.8,114.3 143.7,113.3 145.1,113.6 145.8,112.2 145.9,113.7 147.4,113.9 
					146,114.5 146.4,116 				"/>
				<polygon class="st0" points="138.1,113.5 136.9,112.5 138.4,112.8 138.9,111.3 139.2,112.8 140.7,112.9 139.3,113.6 
					139.7,115.1 138.7,114 137.4,114.8 				"/>
				<polygon class="st0" points="131.4,112.9 130.1,112 131.6,112.2 132.1,110.8 132.4,112.2 133.9,112.3 132.6,113 133.1,114.5 
					132,113.4 130.7,114.3 				"/>
				<polygon class="st0" points="107.5,109.3 107.8,107.8 106.4,107.2 108,107.1 108.2,105.5 108.7,106.9 110.2,106.7 109.1,107.7 
					109.8,109 108.5,108.2 				"/>
				<polygon class="st0" points="100.8,110.4 101.1,108.9 99.8,108.2 101.3,108.1 101.4,106.6 102,107.9 103.5,107.6 102.4,108.7 
					103.2,110 101.8,109.2 				"/>
				<polygon class="st0" points="116.4,108.4 115.2,107.5 114.1,108.6 114.5,107.1 113.2,106.4 114.7,106.3 114.9,104.8 
					115.4,106.3 116.9,106.1 115.8,107 				"/>
				<polygon class="st0" points="123,108.1 121.8,107.1 120.7,108.1 121.2,106.7 119.9,105.9 121.4,105.9 121.7,104.4 122.2,105.9 
					123.7,105.8 122.4,106.7 				"/>
				<polygon class="st0" points="129.7,108.2 128.5,107.2 127.3,108.1 127.9,106.7 126.7,105.8 128.2,105.9 128.6,104.5 
					128.9,105.9 130.5,105.9 129.2,106.7 				"/>
				<polygon class="st0" points="148.5,109.3 147.2,110 148,108.7 146.9,107.7 148.3,108 149,106.6 149.1,108.1 150.6,108.3 
					149.2,108.9 149.5,110.4 				"/>
				<polygon class="st0" points="141.3,107.7 140.1,106.7 141.6,107 142.2,105.6 142.4,107.1 143.9,107.2 142.5,107.9 142.9,109.4 
					141.9,108.2 140.6,109.1 				"/>
				<polygon class="st0" points="134.6,107 133.4,106.1 134.9,106.3 135.4,104.9 135.7,106.4 137.2,106.4 135.9,107.1 136.3,108.6 
					135.2,107.5 133.9,108.4 				"/>
			</g>
		</g>
		<path class="st3" d="M204.5,135.2l-6.1,1.9l1.4,0.6l-2.1,1.4c0.2-1.2,0.4-2.5,0.6-3.8l3.4-2.8l0.1,1.5l3.8-5.2l-5.8,2.7l1.4,0.4
			l-2.7,2.2c0.2-1.5,0.3-3.1,0.4-4.7l3.3-3.7l0.3,1.5l3.1-5.6L200,125l1.5,0.2l-2.6,2.8c0-1,0.1-1.9,0.1-2.9
			c0-7.4-1.1-14.5-3.1-21.2c-3.4,0.3-6.7-0.8-8.3-1.1c4.3,2.5,5.8,5.2,6.4,8.3c-3.4,0.8-8-0.4-10.5-2.3c2.5,2.2,4,5.5,4.1,9
			c-3.5,0.2-6.8-1.5-9.2-3.9c1.5,1.7,3.5,6.1,3,9.1c-2.9-0.3-6.4-2.2-8.3-4.6c1.6,3.5,2.3,6.2,2.1,9.3c-2.9-0.6-5.2-1.4-7.8-3.9
			c1.3,3.2,1.7,6.3,1.4,8.9c-3.4-1.2-5.6-2.5-7.6-5.7c1,2.8,1.7,6.5,1,8.7c-2.9-0.9-4.8-2.6-6.2-5.5c1.5,3.1,1.3,6.7,0.8,8.6
			c-1.2-0.2-2.8-1.1-3.6-2c0,0.6-0.1,1.1-0.1,1.6c-0.1,2.1-0.6,4.1-1.2,5.9c0.2,0.3,0.8,0.9,0.8,1c1.5,1.6,3.6,3.2,5.2,3.7
			c-0.7,0.1-1.7,0.7-2.6,0.8c1.1,1.2,3.3,1.5,4.6,2.9c-1.1,0.1-1.3,0.9-2.6,0.8c2.4,1.9,4.7,1.9,5.9,2.1c0.5,0.1,2.1,0.2,3.2,0.1
			c1.5-0.2,3,0.5,3.6,0.9c0.9,0.5,0.9,1.8,0.7,2.4c-0.1,0.4-0.3,0.8-0.9,1.2c-0.4,0.1-0.6,0.1-0.2-0.1c0.4-0.3,0.7-1.8-0.1-2.4
			c-0.6-0.4-1.4-0.8-2.4-0.8c-1.1,0.1-2.8,0.1-3.6,0.1c-0.8-0.1-1.2,0.9-1.3,1.3c-0.3,1-0.6,2.2-2,1.6c-1.7-1-4.2-0.9-7.1-2.1
			c0.4,0.9,0.2,1.6,0.7,2.6c-2.5-0.6-3.2-1.9-5.6-2.8c0.4,0.9,0.3,1.6,0.8,2.4c-2-0.4-3.9-2.2-6.8-2.9c-0.1,0-0.2,0.1-0.3,0.1
			c-1,0.3-2,0.6-2.8,0.9c2,2.3,3.7,5.1,4.4,8.4c0,0-1.4,0-3.5-0.7c0.6,1.8,1,3.8,1,5.9c0,0-1.6-0.3-3.8-1.6c0.2,2,0.1,4.1-0.3,6.2
			c0,0-1.8-0.8-4-3c-0.2,2.1-0.8,4.2-1.7,6.2c0,0-1.7-1.1-3.4-3.8c-0.7,2.1-1.7,4.1-3.1,6.1c0,0-1.8-1.9-3.1-5.8
			c-1.7,2.5-3.2,3.6-3.2,3.6c-0.9-2.1-1.4-4.2-1.7-6.2c-2.2,2.2-4,3-4,3c-0.4-2.1-0.5-4.2-0.3-6.2c-2.2,1.4-3.8,1.6-3.8,1.6
			c0-2.1,0.4-4.1,1-5.9c-2.1,0.7-3.5,0.7-3.5,0.7c0.8-3.4,3.1-7,4.6-8.6l0,0c-0.7-0.2-1.5-0.5-2.4-0.7c-0.1,0-0.2-0.1-0.3-0.1
			c-2.8,0.8-4.7,2.6-6.8,2.9c0.5-0.8,0.4-1.5,0.8-2.4c-2.4,0.9-3.1,2.1-5.6,2.8c0.4-1,0.3-1.7,0.7-2.6c-2.3,1.1-5.6,1.9-7,2.2
			c-1.6,0.3-1.7-2-2.2-2.5c-0.2-0.2-1.5-0.3-2-0.2c-0.8,0.1-2.3,0.1-3.4,0c-1.1,0-1.9,0.3-2.5,0.8c-0.8,0.6-0.4,2.2-0.1,2.5
			c0.4,0.3,0.2,0.3-0.2,0.1c-0.7-0.4-0.8-0.8-0.9-1.2c-0.2-0.6-0.2-1.9,0.7-2.4c0.6-0.3,2.1-1.1,3.6-0.9c1,0.2,2.7,0,3.2-0.1
			c0.5-0.1,4.2-0.7,6.6-2.6c-1.3,0.1-1.5-0.6-2.6-0.8c1.4-1.4,3.6-1.6,4.6-2.9c-1-0.1-1.8-0.9-2.5-1c2.1-1.2,3.6-1.9,5.1-3.5
			c0,0,0.6-0.7,0.8-0.9c-0.7-1.8-1.1-3.8-1.2-5.9c0-0.5-0.1-1-0.1-1.6c-0.5,0.6-1.6,1.2-3.4,1.8c-0.8-2-0.4-5.7,0.6-8.6
			c-1.5,2.9-3.2,4.8-6.1,5.7c-0.7-2.1-0.3-5.9,0.7-8.7c-1.9,3.2-3.9,4.8-7.3,6c-0.3-2.6,0-6,1.2-9.2c-2.6,2.5-4.8,3.3-7.8,3.9
			c-0.2-3.1,0.6-5.9,2.1-9.3c-1.9,2.3-5.8,3.9-8.7,4.2c0.2-2.7,2.1-6.3,3.2-8.5c-2.8,2-5.7,3.4-8.9,3.6c0.4-3,1.8-6.3,4.1-9
			c-2.8,2-7,3.2-10.1,2.7c0.8-3.3,2.8-6.6,5.6-8.3c-1.6,0.3-4.5,1-7.9,0.7c-2,6.6-3.1,13.6-3.1,20.9c-1.7-1.3-2.8-1.7-4-2.8
			c0.2,1.6,0.4,2.4,0.6,4.4c0.3,3.5,1.6,5.5,3.8,6.7c0.1,1,0.2,2,0.4,3c-1.6-1-3.8-1.7-6.7-1.6c1.8,5.7,4.2,6.1,7.6,6.6
			c0.1,0.5,0.2,1,0.4,1.6c-1.8-0.5-3.9-0.5-6.4,0.2c1.7,2.6,4,4.2,7.8,4.8c0,0,0,0,0,0.1c-2.3-0.2-4.8,0.1-6.8,1.2
			c2.8,2.4,5.6,3.4,8.3,3.1c0.1,0.4,0.3,0.7,0.4,1c-2.1,0.6-3.9,1.6-5,2.7c2.2,0.7,4.5,1.1,6.5,0.9c0,0.1,0,0.1,0.1,0.1
			c-1.2,0.9-2.2,2.4-2.9,4.7c1.6-0.4,3.2-0.5,4.8-1c0.3,0.6,0.7,1.2,1,1.8c-0.8,1.6-1.1,3.6-0.6,5.9c1.3-0.3,2.5-0.8,3.4-1.5
			c0.3,0.5,0.6,0.9,1,1.4c-0.3,2.6,0.3,5.2,1.8,6.9c0.6-0.7,1.1-1.4,1.5-2c3.3-5.1,1.3-8.8,1.4-12.1c0-0.1,0.1-0.1,0.1-0.2
			c0.3,3.9,3.7,7.8-0.3,12.6c-0.1,0.1-0.2,0.2-0.2,0.3C82.6,189,102.6,199,125,199c31.8,0,58.9-20.1,69.3-48.3l3.4-1.5l-0.2,1.5
			l4.8-4.2l-6.3,1.3l1.3,0.7l-2.6,1.1c0.5-1.3,0.9-2.6,1.3-3.9l3.7-2l-0.1,1.5l4.4-4.6l-6.1,1.9l1.4,0.6l-2.9,1.6
			c0.4-1.4,0.7-2.9,1.1-4.4l2.8-1.8l-0.1,1.5L204.5,135.2z"/>
		<path class="st0" d="M86.1,162.2c6,4.5,9.4,10.8,10.3,15.9c-0.8-0.6-2.2-1.1-3.1-1c-0.8-5.3-3.6-9.7-7.9-13.2
			C85.6,163.1,85.8,162.5,86.1,162.2z"/>
		<g>
			<path class="st0" d="M81.5,166.9c1.4,0.6,2.2,0.4,2.5-0.1c0.8-1.1,0.4-2.5-0.1-2.8c0.1,0.4,0.1,0.9,0,1.4c-0.1,0.4-0.3,1.1-1.1,1
				c-0.4-0.1-1.2-0.2-1.7-0.6c-0.3-0.2-0.3-0.8-0.1-1.3c0.1-0.2,0.2-0.6,0.5-0.8c-0.5,0.1-0.8,0.4-1.2,0.7c-0.4,0.3-0.9,0.4-1.3,0
				c-0.4-0.4-0.7-0.8-0.8-1.1c-0.3-0.8,0.7-1.4,1.2-1.6c-1,0-1.2,0.4-2,0.2s-1-1.4-1-1.9c0-0.3,0.4-0.6,0.9-0.7c0.4-0.1,1-0.1,1.3,0
				c0-0.2-0.1-0.4-0.1-0.7c-0.8-0.2-2.4,0.1-2.7,0.5c-0.4,0.6-0.3,0.9,0,1.9c0.3,1,0.5,1.3,1.2,1.4c0.2,0,0.5,0.1,0.9-0.1
				c-0.2,0.1-0.3,0.2-0.4,0.5c-0.1,0.3-0.3,0.7,0.5,1.6c0.7,0.8,1.3,1.1,1.9,0.8c0.3-0.2,0.4-0.4,0.6-0.5c-0.1,0.2-0.2,0.4-0.2,0.7
				C80.1,166.3,80.7,166.6,81.5,166.9z"/>
			<g>
				<path class="st0" d="M80.4,160.6c0.4-0.5,1.4-0.6,2-0.2c-0.4,0.7-0.4,1.9-0.2,2.5C80.8,162.7,80.5,161.3,80.4,160.6z"/>
				<path class="st0" d="M82.6,160.5c0.8-0.1,1.1-0.5,1.3-0.9c0.2-0.4,0.6-0.6,0.6,0s0,0.9-0.3,1.1
					C83.9,160.8,83.2,160.9,82.6,160.5z"/>
				<path class="st0" d="M83.1,161.9c-0.1,0.4-0.2,0.9-0.5,1.3c-0.2,0.3-0.5,0.5-0.7,0.7c0.4,0.3,0.9,0.5,1.4,0.4s0.5-0.1,0.4-0.3
					C83.5,163.2,83.2,162.1,83.1,161.9z"/>
			</g>
		</g>
		<g>
			<path class="st0" d="M167,159.9c0.4,0.7,0.4,1.9,0.2,2.5c1.4-0.2,1.7-1.6,1.8-2.3C168.5,159.6,167.5,159.5,167,159.9z"/>
			<path class="st0" d="M166.7,160c-0.8-0.1-1.1-0.5-1.3-0.9c-0.2-0.4-0.6-0.6-0.6,0s0,0.9,0.3,1.1
				C165.5,160.3,166.1,160.4,166.7,160z"/>
			<path class="st0" d="M166.8,162.6c-0.3-0.4-0.4-0.8-0.5-1.3c-0.2,0.3-0.5,1.4-0.6,2.1c0,0.2,0,0.2,0.4,0.3c0.4,0,1-0.1,1.4-0.4
				C167.3,163.1,167,162.9,166.8,162.6z"/>
			<g>
				<path class="st0" d="M191.5,140l1.4,0.4l-21.6,17.1l0,0l-0.5,0.4c0,0-0.1,0-0.1,0c0,0.2,0,0.5,0,0.7c0.3,0,0.7,0,1.1,0.1
					c0.5,0.1,0.9,0.4,0.8,0.8c0,0.4-0.2,1.7-1.1,1.9c-0.8,0.1-1-0.3-2-0.3c0.6,0.3,1.6,0.9,1.2,1.7c-0.1,0.3-0.4,0.6-0.8,1.1
					c-0.3,0.3-0.9,0.3-1.3,0c-0.4-0.3-0.7-0.6-1.1-0.7c0.3,0.2,0.4,0.6,0.5,0.8c0.2,0.5,0.2,1.1-0.2,1.3c-0.5,0.3-1.2,0.5-1.7,0.5
					c-0.8,0.1-1-0.6-1.1-1.1c-0.1-0.5-0.1-1,0-1.4c-0.5,0.2-0.9,1.7-0.2,2.8c0.3,0.5,1.1,0.7,2.5,0.2c0.8-0.3,1.4-0.6,1.2-1.4
					c0-0.2-0.1-0.5-0.2-0.7c0.1,0.2,0.2,0.4,0.6,0.5c0.6,0.3,1.2,0,1.9-0.8c0.8-0.9,0.6-1.4,0.5-1.6c-0.1-0.3-0.2-0.4-0.4-0.5
					c0.4,0.1,0.7,0.1,0.9,0.1c0.6-0.1,0.9-0.4,1.2-1.4c0.3-1,0.4-1.3,0.1-1.9c-0.1-0.2-0.7-0.4-1.2-0.6l21.5-16.9l0.1,1.5l3.9-5.1
					L191.5,140z"/>
				<path class="st0" d="M180,145.3l15.2-19.3l0.4,1.4l2.6-5.9l-5.1,3.9l1.5,0.1L180.8,143c-1.1,1.6-2.2,3.4-3.3,5l0,0
					C178.3,147.1,179.1,146.2,180,145.3z"/>
				<path class="st0" d="M178.2,151c1.3-1,2.6-2.1,3.9-3.1l12.7-11.8l0.2,1.5l3.4-5.4l-5.6,3l1.5,0.3l-12.7,11.8
					C180.4,148.6,179.2,149.9,178.2,151z"/>
				<path class="st0" d="M192.3,148.2l-17.9,9c-0.3,0.2-0.6,0.4-0.7,0.6c0.1,0.1,0.2,0.2,0.3,0.3c0,0.1,0.1,0.1,0.1,0.2l18.6-9.3
					l-0.2,1.5l4.8-4.2l-6.3,1.3L192.3,148.2z"/>
				<path class="st0" d="M165.2,167.2c-0.3-0.1-0.5-0.2-0.7-0.4l-3.2,6.6l0,0l-1.2,0.4l-3.8,7.3l1.8-0.6l0.7,1.8l3.6-7.4l-0.4-1.2
					L165.2,167.2z"/>
				<path class="st0" d="M177.7,154.6c1.2-0.6,2.6-1.3,4.1-2.1l11.9-7.8l-0.1,1.5l4.3-4.7l-6.1,2l1.4,0.5l-12.9,8.5
					C179.4,153.3,178.5,153.9,177.7,154.6z"/>
				<path class="st0" d="M163.8,165.4c-0.1-0.4-0.1-0.7-0.1-1.1l-4.2,4.6l-1.2,0.1l-0.1,0.1l0,0l-5.9,5.9l0.3,0l0,0l0.1,0l1.5-0.1
					l0.3,1.4l4.9-6.4l0.9-0.2L163.8,165.4z"/>
				<path class="st0" d="M171.6,156.2c0.5-0.4,1.3-1,2.2-1.7l20.9-22.8l0.3,1.5l3-5.7l-5.4,3.5l1.5,0.2L172.2,155
					C172,155.4,171.8,155.8,171.6,156.2z"/>
				<path class="st0" d="M152.9,171.8l7.8-5.5c0.9-1,1.9-2,2.2-2.4l-9.7,6.4l0,0l-1.2-0.2l-0.7,0.4l-6.2,3.9l1.8,0.4l0.2,1.3l5-4.3
					L152.9,171.8z"/>
				<path class="st0" d="M146.5,172.5l3.1-1.9l2.9-2l1,0.2c0,0,7.1-4.4,8.8-5.5c0.1-0.1,0.1-0.1,0.1-0.1l0,0c0,0,0,0,0.1,0l-9.3,4.6
					l-1.2-0.4l-7.4,3.5l1.7,0.6L146.5,172.5z"/>
			</g>
			<g>
				<path class="st0" d="M181.6,129.6l1.5-0.3l-13.4,27.1c0.1,0.1,0.2,0.1,0.3,0.1c0.2,0.1,0.3,0.2,0.4,0.3l13.4-27.2l0.7,1.3
					l1.3-6.3L181.6,129.6z"/>
			</g>
			<path class="st0" d="M183.2,134.1l1.5-0.1l-8.4,12.7c-1,2-1.9,3.9-2.8,5.6c0-0.1,0.1-0.1,0.1-0.1l11.7-17.8l0.5,1.4l2.1-6.1
				L183.2,134.1z"/>
		</g>
		<path class="st0" d="M60.2,150.2C60.4,150.2,60.3,150.2,60.2,150.2c-2.3-1.3-3.9-1.7-7-1.3C56.1,149.1,58.1,149.4,60.2,150.2z"/>
		<path class="st0" d="M61.5,165.9c0.3-2.1,1.8-4.7,3.8-6.4c1.5-1.2,2.3-1.6,1.1-0.4C64.6,161,62.5,164.1,61.5,165.9z"/>
		<path class="st0" d="M66.1,171.7c-0.8-2-0.1-5.2,0.8-7.4c0.6-1.5,2.1-3.7,2.6-3.9C67.8,163,66,169.8,66.1,171.7z"/>
		<path class="st0" d="M59.4,143.6c-0.2-0.8-0.9-1.2-1.7-1.1s-1.3,0.9-1.1,1.7c0.2,0.8,0.9,1.3,1.7,1.1
			C59.1,145.1,59.6,144.4,59.4,143.6z"/>
		<path class="st0" d="M71.7,145.6c0.1-2.1-0.3-4.3,0-6.7c-4.2,3.1-5.6,8.4-3.9,12.2c-0.2,0-0.3,0-0.5,0c-0.8,0.2-1.3,0.9-1.1,1.7
			c0.2,0.8,0.9,1.3,1.7,1.1s1.3-0.9,1.1-1.7c-0.1-0.4-0.3-0.7-0.6-0.9c-0.7-3.3-0.1-7.5,1.6-9.2c-0.5,2.1-1.5,6.4-0.9,10.4
			c0.7-0.8,1.2-1.5,1.6-2.3c0.1,0.6,0.2,1.3,0.5,2c0.1-3.2,1.2-6.4,4.5-8.6c-2.4,3.1-3.8,6.7-4.1,9.4c1.8-2.2,5.8-2.9,6.1-11.7
			C75.5,141.9,73.1,143.4,71.7,145.6z"/>
		<path class="st0" d="M74.4,154.6c-0.2-0.8-1-1.4-1.8-1.2s-1.4,1-1.2,1.8c0.2,0.8,1,1.4,1.8,1.2C74.1,156.2,74.6,155.4,74.4,154.6z
			"/>
		<path class="st0" d="M73.9,159.2c-0.2-0.8-1-1.4-1.8-1.2c-0.8,0.2-1.4,1-1.2,1.8c0.2,0.8,1,1.4,1.8,1.2
			C73.6,160.8,74.1,160,73.9,159.2z"/>
		<path class="st0" d="M65.1,136.7c-3.1,2.6-4,5.8-3.6,8.7c-0.1,0-0.2,0-0.4,0c-0.6,0.1-1.1,0.8-0.9,1.4c0.1,0.6,0.8,1.1,1.4,0.9
			c0.2,0,0.3-0.1,0.4-0.2c0.3,0.8,0.7,1.6,1.1,2.2c-0.3-1-0.5-2-0.6-3.1c0-0.1,0-0.2,0-0.4c0,0,0-0.1,0-0.1
			c-0.2-2.4,0.2-4.9,1.6-6.7c-0.4,2.6-1,7.8-0.5,10.9C64.5,147,69.3,145.5,65.1,136.7z"/>
		<path class="st0" d="M77.5,156.6c-0.1-0.6-0.8-1.1-1.4-0.9c-0.6,0.1-1.1,0.8-0.9,1.4s0.8,1.1,1.4,0.9S77.6,157.3,77.5,156.6z"/>
		<path class="st0" d="M70.9,156.4c-0.1-0.6-0.7-1-1.3-0.9s-1,0.7-0.9,1.3c0.1,0.6,0.7,1,1.3,0.9C70.7,157.6,71,157,70.9,156.4z"/>
		<path class="st0" d="M56,141.4c-0.1-0.5-0.5-0.8-1-0.8c-1.5-2.1-3.7-4.3-7.4-4.7c2,1,5,2.8,7.2,4.7c-0.5,0.1-0.8,0.6-0.7,1.1
			c0.1,0.6,0.6,0.9,1.2,0.8C55.7,142.4,56.1,141.9,56,141.4z"/>
		<path class="st0" d="M56,134.4c-0.1-0.7-0.8-1.1-1.5-1c0,0-0.1,0-0.1,0c-0.8-3.3-1.6-5.8-5.3-8.3c1.9,2.4,4,5.8,5.2,8.4
			c-0.6,0.2-0.9,0.8-0.8,1.4c0.1,0.7,0.8,1.1,1.5,1C55.7,135.8,56.2,135.1,56,134.4z"/>
		<path class="st0" d="M59.8,147.2c-0.1-0.6-0.6-0.9-1.2-0.8c-0.3,0.1-0.5,0.2-0.6,0.4c-3.3-2.9-5.5-2.9-7.3-3
			c1,0.4,4.8,1.4,7.2,3.1c-0.1,0.2-0.1,0.4-0.1,0.6c0.1,0.6,0.6,0.9,1.2,0.8C59.5,148.3,59.9,147.8,59.8,147.2z"/>
		<path class="st0" d="M62.5,151.3c-0.2-0.8-0.9-1.3-1.7-1.1s-1.3,0.9-1.1,1.7c0.2,0.8,0.9,1.3,1.7,1.1
			C62.2,152.9,62.7,152.1,62.5,151.3z"/>
		<path class="st0" d="M64.6,153.8c-0.1-0.6-0.6-0.9-1.2-0.8c-0.3,0.1-0.6,0.3-0.8,0.6c-2.8-0.4-6,0-8.6,1.5c2.9-0.7,6-1.3,8.5-1.3
			h0c0,0.1,0,0.3,0,0.4c0.1,0.6,0.6,0.9,1.2,0.8C64.4,154.9,64.7,154.4,64.6,153.8z"/>
		<path class="st0" d="M67.6,155.5c-0.2-0.7-0.8-1.2-1.6-1c-0.7,0.1-1.2,0.8-1,1.5c0,0-0.1,0-0.1,0c-2.1-0.1-5.6,0.5-7.8,3
			c2.2-1.3,5.7-2.6,7.8-2.9c0,0,0,0,0.1,0c0.2,0.7,0.8,1.1,1.5,0.9C67.2,156.9,67.7,156.2,67.6,155.5z"/>
		<g>
			<g>
				<path class="st3" d="M217.6,80.1c3.4-1.5,7.4-0.8,8.4,1.5c1,2.3-1.2,5.7-4.6,7.2c-3.5,1.5-7.4,0.8-8.4-1.5
					C212,85,214.2,81.6,217.6,80.1z M222.8,91.9c4.4-1.9,6.3-6.8,4.5-11c-1.8-4.2-6.8-6-11.1-4.1c-4.4,1.9-6.4,6.8-4.5,11
					C213.5,92,218.5,93.8,222.8,91.9z"/>
				<path class="st3" d="M216.8,103.3l-1.7-6.6l1-0.3l0.5,1.8l13.9-3.5l-0.5-1.8l1-0.3l2.5,9.9l0.7-0.2l0.3,1.3l-3.8,1l-0.3-1.3
					l1.7-0.4l-1.3-5l-5.7,1.4l1,3.9l1.6-0.4l0.4,1.3l-4.8,1.2l-0.4-1.3l1.7-0.4l-1-3.9l-6.4,1.6l0.4,1.6L216.8,103.3z"/>
			</g>
			<g>
				<path class="st3" d="M22.3,85.7l-0.6,2l9,2.7c2.7,0.8,4.1,2.2,4.5,4.6c0.2,1.2,0.1,2.4-0.3,3.7c-1.2,3.9-4,5.7-7.3,4.8l-9.6-2.9
					l-0.5,1.8l-1-0.3l2-6.7l1,0.3l-0.5,1.8l8.9,2.7c2.4,0.7,3.6,0.6,4.7-0.4c0.5-0.5,0.8-1.1,1-1.8c0.8-2.9-0.3-5-3.3-5.9l-8.9-2.7
					l-0.6,2l-1-0.3l1.6-5.5L22.3,85.7z"/>
				<path class="st3" d="M38.1,89.5c-0.4,0.8-1.3,1.2-2.2,0.9s-1.2-1.3-0.9-2.2s1.3-1.2,2.2-0.9C38,87.7,38.4,88.7,38.1,89.5z"/>
				<path class="st3" d="M41.2,82.4l-0.7,1.2l-3.9-2.2l0.7-1.2l1.6,0.9c1.3-0.5,2-1.1,2.6-2.2c0.8-1.3,0.5-2.8-0.6-3.4
					c-1-0.6-2-0.3-4.5,1c-2.5,1.4-2.9,1.5-3.9,1.7c-0.9,0.2-2,0-2.9-0.6c-2.4-1.3-3-4-1.5-6.6c0.5-0.8,1-1.4,1.8-2.1l-0.6-0.4
					l0.7-1.2l3.7,2.1L33,70.7l-1.5-0.8c-1.1,0.6-1.6,1-2.1,1.8c-0.6,1.1-0.3,2.4,0.7,3c0.9,0.5,1.7,0.3,4.2-1c1.2-0.6,2-1,2.3-1.2
					c0.6-0.3,1.4-0.5,2.2-0.5c0.9,0,1.7,0.2,2.6,0.7c2.5,1.4,3.2,4.2,1.8,6.7c-0.7,1.3-1.5,2-2.6,2.7L41.2,82.4z"/>
				<path class="st3" d="M47.7,71.1c0,0.9-0.7,1.6-1.6,1.6s-1.6-0.7-1.6-1.6c0-0.9,0.7-1.6,1.6-1.6C47,69.5,47.7,70.2,47.7,71.1z"/>
			</g>
			<g>
				<path class="st3" d="M86.2,39.1l-10.5,5.4l-0.5-0.9l1.7-0.9L70.3,30l-1.7,0.9l-0.5-0.9l9.1-4.7L77,24.6l1.2-0.6l1.8,3.5
					l-1.2,0.6L78,26.5l-4.6,2.4l2.7,5.2l3.5-1.8l-0.8-1.5l1.2-0.6l2.2,4.4l-1.2,0.6l-0.8-1.5l-3.5,1.8l2.8,5.5l4.8-2.5l-0.8-1.6
					l1.2-0.6L86.2,39.1z"/>
				<path class="st3" d="M96.4,35.4l-6.9,2.3l-0.3-1l1.8-0.6l-4.5-13.6l-1.8,0.6l-0.3-1l7.2-2.4c2.9-1,5.4,0.2,6.3,2.9
					c0.8,2.6-0.7,5.5-3.5,6.4c-0.4,0.1-0.7,0.2-1.3,0.3l-0.4-1.2c0.3,0,0.4-0.1,0.7-0.1c1.6-0.5,2.1-2,1.4-4.1
					c-0.7-2.2-2-3.1-3.7-2.5l-1.4,0.5L94,35.1l2-0.7L96.4,35.4z"/>
				<path class="st3" d="M104.5,26.4l1.4-6.6l3.4,5.7L104.5,26.4z M116.6,29.9l-1,0.2l-8.8-14.6l-1.5,0.3l-3.6,16.8l-1.5,0.3l0.2,1
					l5.1-0.9l-0.2-1l-2,0.3l0.9-4.2l6-1l2.2,3.7l-1.7,0.3l0.2,1l6-1L116.6,29.9z"/>
				<path class="st3" d="M123.7,15.9h1.6c1.8,0,2.8,1.1,2.8,3.1c0,2-1.2,3.3-2.9,3.3l-1.5,0L123.7,15.9z M133.8,29.9h-1
					c-0.5,0-0.8-0.2-1.4-1.1l-3.5-5.4c2.3-0.7,3.5-2.2,3.5-4.4c0-1.3-0.4-2.4-1.2-3.2c-0.9-0.9-2.1-1.2-4.2-1.2l-7.3,0v1.1h1.9
					l0,14.4l-1.9,0v1l7,0v-1h-1.9l0-6.3h0.7l3.7,5.9c0.9,1.3,1.1,1.5,2.6,1.5l3.2,0L133.8,29.9z"/>
				<path class="st3" d="M145.1,33l-7.9-1.3l0.2-1l2.4,0.4l2.3-13.7l-4.2-0.7l-0.3,2l-1.4-0.2l0.7-4.2l1.4,0.2l-0.1,0.7l11.6,2
					l0.1-0.7l1.4,0.2l-0.7,4.2l-1.4-0.2l0.4-2l-4.2-0.7l-2.3,13.7l2.4,0.4L145.1,33z"/>
				<path class="st3" d="M168.4,40.8l-6.9-2.7l0.4-1l1.9,0.8l3.9-10l-9.5,9.3L156.9,24l-3.8,9.8l1.9,0.8l-0.4,1l-5.4-2.1l0.4-1
					l1.9,0.8l5.2-13.4l-1.9-0.8l0.4-1l4.1,1.6l1.3,12.9l9-8.9l4.6,1.8l-0.4,1l-1.9-0.7l-5.2,13.4l1.9,0.8L168.4,40.8z"/>
				<path class="st3" d="M180.5,48.8l-10-6.4l0.6-0.9l1.6,1l7.7-12.1l-1.6-1l0.6-0.9L188,34l0.4-0.6l1.1,0.7l-2.1,3.3l-1.1-0.7
					l1-1.5l-4.4-2.8l-3.2,5l3.4,2.2l0.9-1.4l1.1,0.7l-2.6,4.1l-1.1-0.7l0.9-1.5l-3.4-2.1l-3.3,5.2l4.6,2.9l1-1.5l1.1,0.7L180.5,48.8
					z"/>
				<path class="st3" d="M70,38.6c-2.7-3.7-7.8-4.4-11.6-1.7l-6.3,4.6l0.6,0.8l1.5-1.1l8.5,11.5c0.4,0.2,0.8,0.3,1.2,0.5l4.1-3
					c2-1.5,3-3,3.4-5.2C71.9,42.7,71.4,40.4,70,38.6z M66.8,49.5l-1.6,1.2l-8.1-11l1.7-1.2c2.3-1.7,6.2-0.7,8.4,2.3
					C69.5,43.8,69.4,47.6,66.8,49.5z"/>
				<path class="st3" d="M201.7,45.3l-0.7,0.8l1.4,1.3l-7,7.7l1.8-13.9l-3.7-3.3l-0.7,0.8l1.3,1.2l-0.3,1.5l-8.8,9.7l-1.5-1.4
					l-0.7,0.8l4.2,3.8l0.7-0.8l-1.4-1.3l7.3-8L192,56.8c1.5-0.4,3.1-0.8,4.9-1.3c0.1,0,0.3-0.1,0.4-0.1l6.3-6.9l1.6,1.4l0.7-0.8
					L201.7,45.3z"/>
				<path class="st3" d="M218.5,63.5l-0.6,0.4l-7.2-9.4l0.6-0.4l-0.8-1.1l-3.4,2.6l0.8,1.1l1.6-1.2l2.6,3.4l-11.1,8.4l-0.6-0.8
					c-0.3,0.2-0.6,0.3-1,0.5l4.1,5.4l0.8-0.6l-1.4-1.9l11.1-8.5l2.6,3.4l-1.6,1.3l0.8,1.1l3.4-2.6L218.5,63.5z"/>
			</g>
			<g>
				<path class="st3" d="M145.7,234.5l-1.3,0.3l-1-4.4l1.3-0.3l0.4,1.8c1.3,0.6,2.2,0.8,3.4,0.5c1.5-0.3,2.4-1.5,2.1-2.7
					c-0.2-1.1-1.1-1.7-3.7-2.7c-2.7-1-3.1-1.2-3.9-1.8c-0.8-0.6-1.3-1.5-1.5-2.5c-0.6-2.7,1-4.9,4-5.5c0.9-0.2,1.7-0.2,2.7,0
					l-0.2-0.7l1.3-0.3l0.9,4.2l-1.3,0.3l-0.4-1.7c-1.2-0.4-1.9-0.5-2.8-0.3c-1.3,0.3-2.1,1.4-1.8,2.5c0.2,1,0.9,1.5,3.6,2.4
					c1.3,0.5,2.1,0.8,2.4,0.9c0.6,0.3,1.3,0.7,1.8,1.3c0.6,0.7,1,1.4,1.2,2.4c0.6,2.8-1,5.2-3.8,5.8c-1.4,0.3-2.5,0.2-3.8-0.2
					L145.7,234.5z"/>
				<path class="st3" d="M171,226.5l-11,4.3l-0.4-1l1.8-0.7l-5.2-13.4l-1.8,0.7l-0.4-1l9.6-3.8l-0.3-0.6l1.2-0.5l1.4,3.7l-1.2,0.5
					l-0.6-1.7l-4.8,1.9l2.1,5.5l3.7-1.5l-0.6-1.6l1.2-0.5l1.8,4.6l-1.2,0.5l-0.6-1.6l-3.7,1.5l2.2,5.7l5-2l-0.7-1.7l1.2-0.5
					L171,226.5z"/>
				<path class="st3" d="M187.6,216.4c-1.4,1.8-2.4,2.7-4,3.7c-4.5,2.7-9.5,1.6-12.1-2.6c-2.5-4.2-1.2-9.3,3-11.9
					c1.4-0.8,2.4-1.2,4-1.4l-0.5-0.9l1.2-0.7l2.3,3.8l-1.2,0.7l-0.8-1.4c-1.7-0.1-2.6,0.1-3.7,0.8c-3,1.8-3.5,5.5-1.4,9.1
					c2.1,3.4,6,4.8,8.9,3c1.1-0.6,1.7-1.3,2.3-2.6l-1-1.6l1.2-0.7L187.6,216.4z"/>
				<path class="st3" d="M195.1,190.7l-1.5,1.4l6.3,6.9c1.9,2.1,2.4,4,1.5,6.2c-0.5,1.1-1.2,2.1-2.1,3c-3,2.7-6.4,2.9-8.7,0.3
					l-6.8-7.4l-1.4,1.3l-0.7-0.8l5.1-4.7l0.7,0.8l-1.4,1.3l6.3,6.9c1.7,1.9,2.8,2.4,4.2,2c0.6-0.2,1.3-0.5,1.9-1.1
					c2.2-2,2.3-4.5,0.3-6.7l-6.2-6.9l-1.5,1.4l-0.7-0.8l4.3-3.9L195.1,190.7z"/>
				<path class="st3" d="M223.1,176.2l-3.3,6.1l-0.9-0.5l0.9-1.7l-12.6-6.8l-0.9,1.7l-0.9-0.5l3.3-6.1l0.9,0.5l-0.9,1.6l12.6,6.8
					l0.9-1.6L223.1,176.2z"/>
				<path class="st3" d="M229.4,161.3l-2.8,7.5l-1-0.4l0.9-2.3l-13-4.9l-1.5,4l1.9,0.7l-0.5,1.3l-4-1.5l0.5-1.3l0.6,0.2l4.2-11.1
					l-0.6-0.2l0.5-1.3l4,1.5l-0.5,1.3l-1.9-0.7l-1.5,4l13,4.9l0.8-2.2L229.4,161.3z"/>
				<path class="st3" d="M233.8,142.9l-1.3,6.9l-1-0.2l0.4-1.8l-6.8-1.3l-8.3,3.4l-0.3,1.5l-1-0.2l1.3-6.8l1,0.2l-0.4,1.8l6-2.4
					l-4.7-4.3l-0.4,2.1l-1-0.2l1.1-5.7l1,0.2l-0.3,1.8l5.9,5.4l7.4,1.4l0.4-1.9L233.8,142.9z"/>
				<path class="st3" d="M217.1,185.1l-0.6,0.8c-0.3,0.4-0.6,0.5-1.7,0.4l-6.5-0.4c0.8-2.3,0.3-4.1-1.5-5.4
					c-1.1-0.8-2.2-1.1-3.3-0.9c-1.3,0.2-2.2,0.9-3.5,2.7l-4.4,5.9l0.8,0.6l1.1-1.5l11.5,8.6l-1.1,1.5l0.8,0.6l4.2-5.6l-0.8-0.6
					l-1.1,1.5l-5-3.8l0.4-0.5l6.9,0.5c1.6,0.1,1.8,0,2.7-1.2l1.9-2.5L217.1,185.1z M199.8,185l0.9-1.3c1.1-1.4,2.6-1.6,4.2-0.4
					c1.6,1.2,2,2.9,1,4.3l-0.9,1.2L199.8,185z"/>
			</g>
			<g>
				<path class="st3" d="M19.7,158.4l-1.7-6.8l1-0.2l0.4,1.8l6.4-1.6l-1.9-7.9l-6.4,1.6l0.5,1.8l-1,0.2l-1.7-6.8l1-0.2l0.5,1.8
					l13.9-3.4l-0.5-1.8l1-0.2l1.7,6.8l-1,0.2l-0.4-1.8l-6.1,1.5l1.9,7.9l6.1-1.5l-0.4-1.8l1-0.2l1.7,6.8l-1,0.2l-0.5-1.8l-13.9,3.4
					l0.5,1.8L19.7,158.4z"/>
				<path class="st3" d="M29.2,162.1c3.4-1.6,7.4-0.9,8.4,1.3c1,2.3-1.1,5.7-4.5,7.2c-3.5,1.6-7.4,0.9-8.4-1.4
					C23.6,167.1,25.7,163.7,29.2,162.1z M34.5,173.9c4.3-2,6.2-6.9,4.3-11c-1.9-4.2-6.8-5.9-11.2-3.9s-6.3,6.9-4.4,11
					C25.2,174.1,30.2,175.9,34.5,173.9z"/>
				<path class="st3" d="M40.9,197.6l-4.3-6l0.8-0.6l1.2,1.7l8.7-6.3l-13,2.6l6-11.8l-8.5,6.2l1.2,1.7l-0.8,0.6l-3.4-4.7l0.9-0.6
					l1.2,1.7l11.6-8.4l-1.2-1.7l0.8-0.6l2.6,3.6l-5.9,11.6l12.4-2.6l2.9,4l-0.8,0.6l-1.2-1.7l-11.6,8.4l1.2,1.7L40.9,197.6z"/>
				<path class="st3" d="M53.8,210.3l-8.7-8l0.7-0.8l1.4,1.3l9.7-10.6l-1.4-1.3l0.7-0.8l7.5,7l0.5-0.5l1,0.9l-2.7,2.9l-1-0.9
					l1.2-1.3l-3.8-3.5l-4,4.3l2.9,2.7l1.2-1.2l1,0.9l-3.3,3.6l-1-0.9l1.2-1.3l-2.9-2.7l-4.2,4.5l4,3.7l1.2-1.4l1,0.9L53.8,210.3z"/>
				<path class="st3" d="M68.7,220.5l-9.8-6.6l0.6-0.9l1.6,1.1l8-11.9l-1.6-1.1l0.6-0.9l5.8,3.9l-0.6,0.9l-1.6-1L64,215.6l4.4,3
					l1-1.5l1.1,0.8L68.7,220.5z"/>
				<path class="st3" d="M78.6,218.4l4.9-4.6l-0.4,6.6L78.6,218.4z M86.6,228.1l-0.9-0.4l1-17l-1.4-0.6l-12.4,11.8l-1.4-0.6
					l-0.4,0.9l4.7,2.1l0.4-1l-1.8-0.8l3.1-3l5.5,2.5l-0.3,4.3l-1.6-0.7l-0.4,0.9l5.5,2.5L86.6,228.1z"/>
				<path class="st3" d="M103.8,234l-1.7-0.4l-5.6-13.9L94,230.3l1.9,0.5l-0.2,1l-5.5-1.3l0.2-1l2,0.5l3.1-12.7l-0.5-1.4l-1.7-0.4
					l0.2-1l4.8,1.2l5.2,13l2.4-10.1l-1.9-0.5l0.2-1l5.5,1.3l-0.2,1l-2-0.5L103.8,234z"/>
				<path class="st3" d="M120,218.8l-7.8-0.3l0,1.1l1.9,0.1l-0.5,14.3l0,0l-1.9-0.1l0,1.1l7.7,0.3h0h0c2.4,0.1,4.2-0.5,5.8-2
					c1.8-1.6,2.8-3.7,2.8-6C128.3,222.7,124.7,219,120,218.8z M124.6,227.2c-0.1,3.9-2.6,6.8-5.8,6.7l-2-0.1l0.5-13.7l2.1,0.1
					C122.3,220.3,124.7,223.5,124.6,227.2z"/>
			</g>
		</g>
		<path class="st0" d="M62.2,129.6c-4.8,2.1-7,8-4.5,12.4C59.9,138.8,64.1,138.1,62.2,129.6z M57.7,141.8c-0.6-2.4,0.9-8.8,3-10.1
			C59.3,134.8,58.8,137.7,57.7,141.8z"/>
		<path class="st0" d="M57.4,120.8c-1.5,0.6-3.7,2.7-4.7,5.5c0.4,0.4,0.7,0.9,1,1.4c0.5-2,1.7-4.4,2.8-5.4c-0.8,1.3-1.8,4.2-2.3,6.4
			c0.5,1.3,0.8,2.6,0.7,3.8C57.8,129.8,58.8,125.2,57.4,120.8z"/>
	</g>
</g>
</svg>
