<svg viewBox="0 0 825 899" xmlns="http://www.w3.org/2000/svg"><path d="m404.81 204.375c-40.045.416-77.746 16.663-105.813 46.344-18.379 19.436-29.905 40.912-36.156 67.344-2.884 12.193-3.668 41.965-1.438 54.813 3.475 20.018 12.387 41.891 23.469 57.687 8.047 11.471 7.662 11.05 18.625 22 22.028 22.002 50.034 35.93 82.375 40.969 17.026 2.653 40.157 1.436 57.625-3.063 53.863-13.87 94.64-55.548 107.094-109.406 6.434-27.827 3.315-61.273-8.219-87.906-8.274-19.107-17.47-32.099-34.156-48.281-20.814-20.185-46.618-33.262-75.375-38.219-9.4-1.621-18.79-2.379-28.031-2.282zm2.5 67.75c4.633.039 9.206.571 12.25 1.594 8.529 2.865 17.334 10.18 22.313 18.531 2.997 5.028 5.372 16.935 4.531 22.719-2.471 16.976-14.455 30.315-30.219 33.656-17.65 3.74-33.135-2.098-42-15.813-5.851-9.052-7.585-15.189-6.938-24.625 1.096-16 12.25-30.01 27.563-34.656 3.197-.97 7.868-1.446 12.5-1.406zm-247.219 139.937c-1.682 0-.33 9.596 3.5 24.75 7.558 29.902 19.098 56.477 35.938 82.781 9.648 15.071 16.943 23.976 32.438 39.594 12.856 12.958 22.841 21.347 33.781 28.375 3.424 2.2 6.245 4.294 6.25 4.625.005.332-6.413.866-14.25 1.188-22.841.936-46.418 5.319-69.75 13-14.384 4.735-31.088 11.893-30.719 13.156.975 3.339 30.375 20.315 48.219 27.844 20.208 8.526 46.181 15.401 71 18.781 13.462 1.834 48.64 1.55 62-.5 16.287-2.498 37.693-7.177 48.719-10.656 5.348-1.688 10.185-2.786 10.75-2.438.631.391 1.031 6.575 1.031 16.063v15.438h18v-16c0-12.664.288-16 1.344-16 .732 0 5.475 1.344 10.531 2.969 9.668 3.108 38.013 9.135 51.719 11 12.742 1.735 49.009 1.493 61.719-.406 28.615-4.276 50.512-10.513 74.688-21.281 12.646-5.633 28.535-14.654 37.25-21.156l4.781-3.563-3.281-1.656c-11.602-5.907-36.366-14.414-53.656-18.438-13.455-3.131-31.126-5.571-44.844-6.156-7.838-.334-14.234-.855-14.219-1.188.016-.331 2.565-2.159 5.656-4.031 10.938-6.622 27.72-21.107 41.344-35.688 25.251-27.024 46.328-64.502 57.438-102.156 3.593-12.179 8.915-37.178 8.094-38-.576-.575-33.129 6.305-40.063 8.469-27.357 8.539-42.997 14.927-62.688 25.625-44.392 24.119-80.195 58.614-106.531 102.656-9.491 15.871-20.663 39.811-26.375 56.5l-2.406 7-.5-53-.5-53h-18l-.188 52c-.097 28.601-.213 52.45-.281 53-.069.55-1.84-3.725-3.938-9.5-8.45-23.252-18.676-43.501-32.594-64.563-35.419-53.595-84.814-90.829-149.5-112.719-14.221-4.812-46.471-12.719-51.907-12.719zm469.626 25c1.261 0-.681 7.662-5 19.625-21.464 59.438-60.434 104.518-112.344 129.938-18.642 9.129-41.243 16.762-58.875 19.906-4.95.883-10.013 1.826-11.25 2.094-1.238.269-2.25.099-2.25-.375 0-3.011 13.608-33.066 19.781-43.688 36.602-62.98 86.124-101.765 158.781-124.375 5.526-1.719 10.534-3.125 11.157-3.125zm-445.344.312c.256-.256 5.996 1.22 12.781 3.281 65.143 19.799 113.974 55.816 149.907 110.594 9.232 14.074 24.14 43.738 27.406 54.563.623 2.067.351 2.265-3.156 2.188-2.1-.046-8.088-1.106-13.313-2.344-41.85-9.908-73.925-25.81-101.938-50.531-28.338-25.009-48.327-53.88-63.031-91.031-4.632-11.703-9.286-26.09-8.656-26.72z" fill="#00abe8"/><path d="m399 842.657c0-7.339-.294-18.814-.653-25.5l-.655-12.157h15.253c16.997 0 20.983 1.028 23.599 6.085 1.933 3.737 1.849 9.91-.175 12.798-.896 1.281-3.241 3.002-5.211 3.824l-3.58 1.496 2.961 1.245c4.388 1.845 5.132 3.225 6.771 12.552.821 4.675 1.81 9.287 2.198 10.25.621 1.54.047 1.75-4.792 1.75-6.223 0-6.088.193-7.345-10.499-1.008-8.573-3.397-10.69-11.623-10.299l-6.248.298.264 10.75.265 10.75h-11.029zm23.279-16.573c6.148-2.338 7.701-8.381 3.086-12.012-2.085-1.64-4.069-2.072-9.5-2.072h-6.865v15h5.435c2.989 0 6.519-.412 7.844-.916zm-74.838 25.235c-2.006-.397-2.028-.646-.858-9.614.661-5.063 2.017-16.521 3.013-25.462l1.811-16.258 3.047.51c1.676.279 7.097.98 12.047 1.556 10.628 1.237 15.121 3.186 18.334 7.949 1.992 2.955 2.283 4.375 1.869 9.123-.897 10.293-6.009 14.265-18.067 14.042-3.818-.07-7.72-.374-8.67-.676-1.479-.47-1.823.423-2.4 6.231-1.294 13.006-1.402 13.296-4.927 13.144-1.728-.075-4.067-.32-5.199-.545zm26.536-27.267c3.38-2.597 3.525-9.417.256-12.064-2.114-1.712-11.81-3.746-12.857-2.697-.814.813-2.469 14.023-1.934 15.42.815 2.121 11.551 1.634 14.535-.659zm93.523 25.811c-3.726-1.377-9.159-6.386-11.241-10.363-3.955-7.555-5.439-20.671-3.123-27.601 2.766-8.274 12.097-13.874 23.147-13.89 8.452-.012 12.355 1.58 16.907 6.898 6.843 7.994 9.486 25.338 5.121 33.592-2.671 5.049-5.787 7.966-10.708 10.021-4.891 2.045-16.168 2.797-20.103 1.343zm16.533-8.38c4.243-2.195 6.311-6.865 6.192-13.983-.11-6.576-2.045-13.033-5.255-17.541-4.457-6.26-15.605-6.085-20.17.316-5.162 7.236-1.669 26.395 5.625 30.842 3.72 2.268 9.623 2.427 13.608.366zm-195.033-4.164c-7.975-2.468-14.853-4.824-15.283-5.236-.615-.589 13.625-46.417 14.906-47.971.176-.214 2.397.193 4.936.904 5.45 1.525 5.534-.126-1.025 19.983-6.83 20.94-7.41 22.964-6.686 23.358.359.196 4.815 1.616 9.902 3.156 7.895 2.391 9.24 3.107 9.18 4.893-.192 5.721-.359 5.731-15.93.913zm239.107-9.586c-1.747-5.078-4.808-14.184-6.803-20.233s-3.755-11.162-3.91-11.36-3.095.589-6.533 1.75c-3.438 1.16-6.782 2.11-7.435 2.11-1.147 0-4.087-5.7-3.312-6.423.212-.197 4.885-1.811 10.385-3.588 5.5-1.776 13.911-4.525 18.691-6.109 4.779-1.584 9.095-2.88 9.589-2.88.866 0 3.22 4.286 3.22 5.864 0 .424-3.15 1.804-7 3.065-4.889 1.604-7 2.79-7 3.935 0 .902 2.483 8.839 5.519 17.638 7.885 22.853 7.792 22.434 5.164 23.4-7.379 2.718-7.113 2.898-10.575-7.169zm-275.827-2.842c-3.816-1.755-4.175-2.225-3.75-4.915 1.527-9.663 2.492-8.229-9.099-13.53l-10.472-4.791-3.364 3.673c-1.851 2.021-3.94 3.673-4.643 3.673-1.775 0-8.951-3.239-8.951-4.04 0-.571 10.157-10.333 32.909-31.626l6.409-5.998 3.855 1.861c2.12 1.024 5 2.299 6.401 2.831s2.309 1.352 2.019 1.821-1.232 9.357-2.094 19.752c-.862 10.394-1.759 19.573-1.995 20.398-.235.825-.522 4.088-.637 7.25-.123 3.382-.653 5.715-1.288 5.666-.595-.047-2.979-.958-5.3-2.025zm-.363-31.641c.641-5.362 1.407-10.987 1.703-12.5s.156-2.75-.312-2.75-4.842 4.01-9.72 8.911l-8.87 8.911 7.391 3.502c4.065 1.926 7.672 3.541 8.017 3.589s1.151-4.301 1.791-9.663zm308.69 5.965-11.4-22.785 14.541-6.965c7.998-3.831 14.826-7.082 15.176-7.225.349-.142 1.464 1.147 2.479 2.864 1.529 2.589 1.61 3.273.472 3.994-.756.48-1.661.878-2.011.886-.351.009-4.495 2.067-9.21 4.576l-8.572 4.561 2.668 5.439c1.467 2.991 3.137 5.418 3.709 5.392.573-.025 5.092-1.994 10.042-4.374l9-4.326 1.743 2.624c.959 1.443 1.747 2.949 1.75 3.346.004.397-4.269 2.83-9.493 5.407-5.225 2.576-9.5 5.063-9.5 5.524 0 .463 1.237 3.563 2.75 6.89 1.905 4.191 3.211 5.916 4.25 5.615.825-.239 5.885-2.494 11.243-5.011l9.743-4.575 1.58 3.057c.87 1.682 1.367 3.271 1.107 3.531-.858.857-28.843 14.34-29.765 14.34-.496 0-6.031-10.253-12.302-22.785zm51.628-6.965c-5.286-2.861-11.713-9.793-15.273-16.473-7.312-13.717-2.887-26.336 11.497-32.792 6.893-3.094 15.467-2.389 19.647 1.616 1.592 1.525 2.894 3.056 2.894 3.401 0 .346-1.74 1.606-3.867 2.803l-3.868 2.173-3.925-2.149c-4.943-2.708-8.383-1.986-13.121 2.752-3.245 3.245-3.436 3.795-3.025 8.741.319 3.842 1.455 6.926 4.17 11.326 7.748 12.553 17.428 15.398 25.107 7.382 2.462-2.569 2.738-3.479 2.284-7.517-.482-4.266-.289-4.768 2.708-7.053 4.38-3.341 5.257-3.127 6.682 1.626 2.488 8.307-2.333 17.083-12.644 23.017-6.02 3.464-14.097 3.945-19.266 1.147zm-423.892-1.999-4.066-2.614 12.358-18.356 12.358-18.356-6.497-4.074c-3.573-2.24-6.497-4.423-6.497-4.851s.814-1.783 1.81-3.013c1.745-2.154 1.924-2.176 4.988-.591 2.996 1.549 26.706 16.98 30.423 19.8 1.608 1.22 1.573 1.484-.532 4.048l-2.252 2.743-5.968-3.965c-3.282-2.181-6.288-3.978-6.68-3.993-.392-.016-5.914 7.826-12.272 17.427-6.358 9.6-11.908 17.669-12.333 17.932-.426.262-2.604-.7-4.84-2.137zm-31.969-22.614c-.619-.707-2.836-2.696-4.928-4.42-4.383-3.613-4.449-2.646 1.527-22.217 6.131-20.08 6.922-25.085 3.208-20.307-4.396 5.656-22.798 25.292-23.682 25.269-.55-.015-2.27-1.144-3.822-2.509l-2.823-2.482 3.823-4.328c9.879-11.186 20.304-22.659 25.315-27.86l5.507-5.717 5.358 4.755 5.358 4.754-3.165 10.463c-5.927 19.59-7.031 23.46-7.688 26.962l-.657 3.5 2.396-2.566c6.305-6.752 19.895-21.677 21.545-23.66l1.852-2.227 3.442 2.857 3.442 2.858-2.942 3.529c-1.618 1.941-6.542 7.513-10.942 12.381a2153.659 2153.659 0 0 0 -13.945 15.589c-3.27 3.706-6.195 6.721-6.5 6.7-.304-.02-1.059-.616-1.679-1.324zm509.588-14.037c-8.422-9.868-22.261-25.06-23.171-25.438-.449-.185-3.473 1.963-6.719 4.775l-5.9 5.112-2.254-3.166c-2.137-3-2.162-3.232-.479-4.463.977-.715 3.418-2.789 5.425-4.609 2.006-1.821 8.258-7.274 13.893-12.117l10.244-8.805 2.469 2.805c2.342 2.661 2.378 2.883.699 4.306a1907.4 1907.4 0 0 0 -5.979 5.106l-4.211 3.604 10.69 11.896c5.88 6.542 12.457 13.849 14.617 16.237l3.927 4.343-3.302 3.407c-1.816 1.874-3.569 3.407-3.895 3.407s-3.05-2.88-6.054-6.4zm29.538-25.281c-2.75-2.521-10.279-9.509-16.731-15.526-6.452-6.018-12.752-11.782-14-12.812l-2.269-1.87 3.686-3.726 3.687-3.725 6.813 6.522c3.747 3.588 12.101 11.38 18.564 17.315 6.463 5.936 11.75 11.089 11.75 11.451s-1.463 2.075-3.25 3.808l-3.25 3.148zm-586.395-5.288c-2.732-3.283-6.524-7.67-8.427-9.75-1.902-2.08-4.575-5.131-5.938-6.781l-2.479-3 14.931-12.5c22.494-18.832 24.065-20.085 24.796-19.781 1.184.492 21.011 23.599 21.011 24.486 0 1.165-3.976 4.482-4.917 4.103-.418-.169-4.024-4.021-8.014-8.559l-7.253-8.25-4.866 3.75c-2.676 2.063-4.885 4.146-4.908 4.629-.024.482 3.078 4.583 6.891 9.111l6.934 8.233-3.035 2.243-3.035 2.244-3.132-3.856c-1.722-2.12-5.005-5.861-7.294-8.315l-4.163-4.46-5.604 4.788c-3.083 2.633-5.593 5.09-5.58 5.46s2.301 3.148 5.084 6.173 6.199 6.961 7.591 8.746l2.531 3.246-2.366 1.971c-1.301 1.084-2.687 1.985-3.079 2.004-.39.019-2.947-2.651-5.679-5.935zm596.15-19.987c-11.84-5.602-20.255-15.958-20.255-24.931 0-7.424 7.926-18.952 15.502-22.547 1.814-.861 5.607-1.566 8.428-1.566 10.937 0 25.753 11.137 29.506 22.179 1.75 5.149 1.766 5.781.255 10.218-3.769 11.062-13.717 19.604-22.826 19.603-2.758-.001-6.665-1.09-10.61-2.956zm21.212-10.577c3.074-3.075 3.533-4.164 3.533-8.392 0-3.995-.578-5.569-3.25-8.857-4.082-5.022-11.261-9.831-16.908-11.328-5.604-1.484-10.924.556-13.816 5.299-3.807 6.245-1.987 13.104 5.095 19.207 6.509 5.609 10.68 7.509 16.597 7.56 4.665.039 5.589-.329 8.749-3.489zm-648.9-7.973c-1.039-1.929-1.704-3.688-1.478-3.909.226-.222 8.736-5.429 18.911-11.571 21.544-13.007 23.252-14.267 16.399-12.095-1.595.505-5.6 1.687-8.899 2.625-3.3.939-9.6 2.823-14 4.189-7.556 2.343-18.147 5.154-19.714 5.232-.919.045-5.795-7.107-5.757-8.447.033-1.159 5.474-7.132 21.232-23.305 6.048-6.209 10.725-11.561 10.393-11.893-.333-.333-1.339.004-2.236.748s-2.471 1.821-3.498 2.392-8.97 5.34-17.651 10.596l-15.785 9.558-2.282-3.437c-1.255-1.891-2.151-3.823-1.992-4.295.16-.472 9.935-6.67 21.722-13.773 24.371-14.688 21.259-14.291 27.76-3.543l3.065 5.067-14.317 14.912c-7.874 8.202-14.162 15.066-13.973 15.256.189.189 4.999-1.088 10.688-2.839 12.835-3.948 27.014-7.923 28.347-7.945 1.23-.021 9.607 12.997 8.998 13.982-.914 1.48-41.511 26.001-43.046 26.001-.55 0-1.849-1.578-2.887-3.506zm321.433-15.935c0-9.486-.397-15.686-1.027-16.075-.564-.35-5.402.746-10.75 2.434-11.025 3.479-32.436 8.165-48.723 10.663-13.359 2.05-48.538 2.333-62 .499-24.819-3.38-50.792-10.248-71-18.774-17.844-7.528-47.248-24.508-48.223-27.846-.37-1.265 16.339-8.416 30.723-13.151 23.331-7.681 46.909-12.081 69.75-13.018 7.837-.321 14.246-.855 14.241-1.186-.005-.332-2.811-2.403-6.235-4.604-10.94-7.028-20.926-15.416-33.782-28.375-15.495-15.618-22.813-24.55-32.46-39.621-16.839-26.306-28.365-52.859-35.922-82.762-3.83-15.154-5.189-24.742-3.507-24.742 5.436 0 37.695 7.898 51.916 12.71 64.685 21.89 114.075 59.132 149.494 112.728 13.918 21.062 24.14 41.31 32.589 64.563 2.099 5.775 3.875 10.05 3.947 9.5.073-.55.208-24.4.301-53l.169-52h18l.5 53 .5 53 2.395-7c14.302-41.783 38.903-81.331 69.605-111.891 40.255-40.068 88.057-65.207 148.795-78.248 9.236-1.983 17.005-3.395 17.264-3.136.822.822-4.509 25.834-8.102 38.013-11.109 37.654-32.185 75.144-57.437 102.169-13.623 14.58-30.404 29.066-41.342 35.689-3.092 1.872-5.634 3.675-5.649 4.007-.016.331 6.384.876 14.222 1.211 13.718.585 31.384 3 44.838 6.131 17.291 4.023 42.071 12.542 53.674 18.449l3.262 1.661-4.762 3.553c-8.714 6.502-24.615 15.535-37.262 21.168-24.175 10.768-46.065 17.007-74.681 21.284-12.71 1.9-48.997 2.134-61.74.4-13.705-1.866-42.051-7.898-51.719-11.005-5.057-1.625-9.794-2.955-10.527-2.955-1.055 0-1.333 3.335-1.333 16v16h-18v-15.443zm54.5-62.103c23.881-4.265 54.471-16.03 76.222-29.317 34.055-20.804 62.979-52.61 81.564-89.693 10.634-21.221 21.314-50.446 18.434-50.446-.619 0-5.647 1.407-11.173 3.126-72.656 22.61-122.166 61.393-158.77 124.374-6.172 10.62-19.777 40.666-19.777 43.677 0 .474 1.013.642 2.25.374s6.3-1.21 11.25-2.095zm-79.044-.706c-3.267-10.824-18.157-40.488-27.39-54.561-35.932-54.777-84.759-90.803-149.902-110.602-6.785-2.063-12.546-3.539-12.802-3.283-.63.63 4.04 15.02 8.672 26.722 14.704 37.151 34.696 66.022 63.035 91.031 28.013 24.722 60.082 40.618 101.93 50.526 5.225 1.237 11.218 2.287 13.317 2.333 3.509.077 3.764-.099 3.14-2.166zm377.544 52.812c-21.066-10.46-41-20.808-41-21.282 0-.317 1.461-3.453 3.247-6.969l3.247-6.392 5.003.507c11.204 1.136 37.974 1.699 37.003.779-.55-.521-8.277-4.718-17.171-9.326l-16.171-8.378 2.104-3.75c1.158-2.063 2.467-3.75 2.907-3.75 1.753 0 44.83 22.755 44.83 23.68 0 .297-1.421 3.207-3.158 6.465l-3.157 5.926-9.593-.528c-23.316-1.284-33.092-1.522-33.087-.81.003.422 7.597 4.613 16.875 9.313l16.869 8.546-2.124 4.102-2.125 4.103zm-710.341-37.312c-.765-1.513-1.947-4.469-2.626-6.57l-1.234-3.82 7.298-7.68a5414.331 5414.331 0 0 1 14.736-15.43c4.09-4.263 6.804-7.75 6.03-7.75-.773 0-8.811 2.925-17.862 6.5s-16.721 6.5-17.043 6.5c-.649 0-3.958-6.59-3.958-7.882 0-.448 2.138-1.526 4.75-2.396s13.291-4.988 23.73-9.152c10.439-4.163 19.225-7.57 19.523-7.57.299 0 1.598 3.098 2.887 6.884 2.289 6.723 2.3 6.928.477 8.8-7.426 7.628-25.928 27.685-26.192 28.395-.179.48 1.846-.003 4.5-1.074 2.654-1.07 10.225-4.037 16.825-6.593 6.6-2.555 12.503-4.843 13.119-5.085.96-.377 4.98 7.491 4.173 8.168-.161.135-7.942 3.277-17.292 6.983-9.35 3.707-18.35 7.302-20 7.99-10.504 4.381-10.035 4.349-11.841.782zm747.296-38.168c-1.399-.87-11.449-7.867-22.332-15.549-22.022-15.545-20.37-13.33-17.605-23.6l.99-3.676 9.246-.673c5.085-.369 15.321-1.308 22.746-2.085 21.462-2.247 22.001-2.26 21.994-.526-.003.84-.459 3.158-1.013 5.153-.979 3.521-1.169 3.641-6.493 4.082-3.018.251-5.717.686-5.998.967-.559.56-5.442 18.703-5.47 20.324-.009.55 2.007 2.279 4.482 3.842 4.941 3.122 5.017 3.341 3.232 9.24-1.227 4.059-1.249 4.073-3.779 2.501zm-8.895-27.242c1.048-4.037 1.914-7.739 1.923-8.227.018-.868-16.107-.125-22.792 1.05-3.295.579-3.264.612 7.5 7.836 5.945 3.989 10.956 7.125 11.136 6.968.179-.157 1.184-3.59 2.233-7.627zm-750.241 8.58c-11.158-3.434-18.101-20.599-12.933-31.976 4.129-9.091 15.22-14.778 28.907-14.825 10.917-.037 15.286 2.5 20.458 11.881 1.789 3.244 2.209 5.635 2.227 12.654.021 8.194-.142 8.857-3.073 12.5-4.002 4.973-9.276 7.914-17.602 9.815-8.104 1.852-11.841 1.841-17.984-.049zm15.565-9.53c6.193-1.67 8.791-2.99 12.366-6.286 2.879-2.654 3.25-3.599 3.25-8.284 0-4.357-.484-5.828-2.75-8.357-3.556-3.969-9.514-5.384-16.911-4.017-15.372 2.841-21.684 10.853-16.588 21.054 3.094 6.192 11.07 8.469 20.633 5.89zm731.429-29.777c-10.685-2.254-18.928-10.333-20.167-19.767-1.923-14.651 5.144-26.346 15.921-26.346 3.313 0 3.608.216 3.063 2.25-.331 1.237-.608 3.487-.616 5-.012 2.322-.441 2.755-2.764 2.782-5.174.06-8.252 4.223-8.246 11.152.008 9.486 7.254 14.883 20.36 15.163 8.263.177 12.869-1.871 15.905-7.069 1.802-3.085 2.913-13.42 1.586-14.753-.354-.357-3.131-.904-6.169-1.219l-5.524-.569-.694 4.631c-.676 4.502-.794 4.632-4.22 4.632h-3.524l.666-6.75c.366-3.713.938-8.26 1.27-10.105l.602-3.354 7.619.65c4.19.358 10.027 1.122 12.972 1.697l5.353 1.047-.353 11.73c-.322 10.708-.615 12.242-3.368 17.624-4.077 7.972-9.295 11.238-18.984 11.885-3.851.256-8.66.117-10.688-.311zm-767.341-16.413c-1.199-6.389-.646-7.033 7.54-8.795 12.414-2.672 13.063-3.371 12.229-13.168l-.491-5.764-8.125.576c-4.469.316-9.091.769-10.271 1.006-2.537.51-3.354-1.107-3.354-6.637v-3.918l5.25-.031c2.888-.017 8.4-.427 12.25-.912s13.124-1.197 20.609-1.582l13.609-.701.715 13.499c.855 16.137-.012 20.215-5.029 23.652-4.755 3.259-12.084 2.603-15.808-1.415-1.428-1.541-2.597-3.187-2.597-3.656s-.45-.854-1-.854-1 .83-1 1.845c0 3.02-3.038 4.871-11.5 7.011-4.4 1.112-8.984 2.32-10.186 2.684-1.889.57-2.273.187-2.841-2.84zm40.778-12.897c1.329-1.537 1.75-3.816 1.75-9.474v-7.45l-7.25.69c-3.987.38-7.51.835-7.827 1.013-.988.554.961 13.573 2.268 15.148 3 3.615 7.968 3.647 11.059.073zm341.425-1.787c-19.133-2.424-34.524-6.919-49.965-14.59-13.373-6.645-22.528-12.927-34.439-23.632-27.014-24.28-44.798-60.398-46.935-95.322l-.631-10.312 67.896-.2c37.344-.11 73.298-.219 79.897-.243 6.6-.024 42.263.056 79.25.178l67.25.222-.02 4.691c-.044 10.43-4.076 30.793-8.557 43.215-1.368 3.791-4.723 11.3-7.454 16.685-4.474 8.819-5.847 11.29-8.185 14.737-2.16 3.186-14.577 18.422-16.75 20.555-20.373 19.998-42.846 33.219-67.225 39.547-16.481 4.278-40.185 6.235-54.132 4.469zm367.982-33.018c-.361-3.46-.657-11.176-.657-17.144v-10.854h3.364c3.244 0 3.387.166 4 4.64.35 2.552.636 7.727.636 11.5v6.86h13.649l-.453-11-.453-11h8.19l.283 10.75.284 10.75 7.25.06 7.25.06v-24.62h3.369c3.116 0 3.416.281 3.989 3.75.341 2.063.624 9.938.631 17.5l.011 13.75h-13.343c-7.339 0-18.743.29-25.343.646l-11.999.645zm-735.907-6.746-16.75-.301v-9.951l11.75.004c6.462.002 18.163.297 26 .655l14.25.653v9.688l-9.25-.225c-5.087-.123-16.788-.358-26-.523zm24.25-21.855a3951.022 3951.022 0 0 0 -20.984-11.164c-17.779-9.391-18.035-9.555-17.553-11.233.237-.825.718-3.126 1.069-5.113.715-4.041-1.219-3.351 28.968-10.332 6.05-1.399 14.074-3.26 17.831-4.135s6.97-1.44 7.14-1.255c.17.184.081 2.658-.199 5.497-.496 5.024-.606 5.178-4.141 5.798-1.997.351-9.707 1.922-17.131 3.49-7.425 1.569-15.244 3.153-17.375 3.52-3.542.61-3.713.78-2 1.977 1.031.721 9.53 5.161 18.887 9.869l17.012 8.559-.363 4.564c-.205 2.573-.864 4.556-1.512 4.546-.632-.011-4.974-2.075-9.649-4.588zm709.66-12.042c-.298-1.02-.813-4.329-1.145-7.355l-.604-5.5 11.575-8c20.228-13.981 22.625-15.722 22.215-16.132-.32-.32-18.994 2.552-34.847 5.36-2.424.43-2.703.128-3.332-3.593-.844-4.995-.207-6.135 3.43-6.135 1.559 0 6.145-.648 10.19-1.441 8.932-1.75 32.993-5.559 35.112-5.559 1.608 0 2.184 1.601 3.259 9.06l.656 4.559-6.835 4.71c-22.192 15.292-28.112 19.56-27.699 19.972.253.254 2.126.087 4.162-.37 6.397-1.436 33.211-5.256 33.672-4.796.241.242.732 2.269 1.089 4.504l.649 4.064-3.854.667c-2.12.366-8.13 1.317-13.354 2.112-13.887 2.113-27.05 4.283-30.649 5.053-2.55.547-3.251.322-3.69-1.18zm-693.765-40.793c-.279-.279-7.682-2.576-16.451-5.103-27.463-7.918-29.444-8.592-29.444-10.017 0-.75.767-3.853 1.704-6.896 1.581-5.133 1.96-5.574 5.25-6.1 1.951-.312 5.571-.951 8.046-1.42 2.475-.47 10.125-1.637 17-2.595s12.86-2.054 13.299-2.436c.44-.382-3.61-1.927-9-3.434-11.212-3.133-26.646-7.755-27.119-8.121-.758-.585 2.24-8.44 3.222-8.44 1.027 0 22.233 6.154 40.403 11.724 4.869 1.493 8.134 3.007 7.893 3.661-.227.613-1.024 3.525-1.772 6.472-.985 3.886-1.967 5.588-3.572 6.199-2.005.762-8.827 1.91-31.523 5.303-4.218.631-7.943 1.42-8.277 1.754-.334.335 2.217 1.381 5.669 2.326 3.453.945 10.552 2.986 15.777 4.536s10.691 3.086 12.146 3.415c2.612.589 2.63.653 1.391 4.854-1.118 3.79-3.217 5.743-4.642 4.318zm691.445-13.997c-6.308-1.972-9.955-5.074-12.747-10.839-5.092-10.511-4.315-20.128 2.076-25.74 4.324-3.796 5.865-3.762 7.233.164 1.563 4.484 1.402 5.455-1.361 8.219-3.455 3.455-4.077 6.938-2.146 11.997 2.759 7.225 9.455 9.188 20.446 5.993 10.809-3.144 16.159-7.992 16.159-14.647 0-6.953-4.048-11.712-9.962-11.712-3.508 0-3.722-.203-5.255-5l-1.6-5h5.258c6.561 0 12.098 3.65 16.229 10.701 2.447 4.177 2.806 5.822 2.816 12.948.012 7.641-.186 8.409-3.084 12.007-3.676 4.563-12.414 9.163-20.846 10.973-7.355 1.58-7.971 1.577-13.216-.064zm-676.09-37.596c-1.237-.497-2.25-1.429-2.25-2.071s2.025-5.441 4.5-10.666 4.5-9.631 4.5-9.792-2.558-1.464-5.685-2.896c-6.816-3.121-6.563-3.305-11.752 8.579l-3.766 8.623-3.148-1.527c-1.731-.839-3.287-1.633-3.457-1.764s1.746-4.634 4.256-10.006c2.511-5.372 4.449-9.872 4.308-10-.141-.127-3.322-1.615-7.069-3.306l-6.813-3.074-5.066 10.869-5.066 10.869-2.872-1.002c-1.58-.55-3.086-1.348-3.348-1.771s.787-3.417 2.33-6.651c1.543-3.235 4.544-9.707 6.667-14.381 2.124-4.675 4.188-8.89 4.588-9.367.621-.741 43.931 18.346 46.196 20.359.441.392-1.61 5.842-4.559 12.11-2.949 6.269-5.952 12.86-6.674 14.647-1.377 3.408-2.138 3.698-5.82 2.218zm651.631-6.3-2.539-5.426 7.309-9.871c4.021-5.429 7.318-10.208 7.33-10.621.011-.413-5.77-.75-12.848-.75h-12.866l-2.094-5.038-2.094-5.038 3.211.524c1.766.288 9.844.982 17.951 1.542l14.741 1.018 9.156-4.523c5.036-2.488 9.202-4.402 9.259-4.254s1.122 2.171 2.369 4.496l2.267 4.227-6.267 3.252c-3.446 1.789-7.616 3.85-9.267 4.581-2.133.945-5.392 4.999-11.271 14.021-4.55 6.981-9.067 13.726-10.04 14.99l-1.77 2.297zm-629.306-68.807c-3.348-.896-7.206-4.288-9.17-8.062-4.574-8.792 2.939-20.069 13.476-20.226 4.088-.061 5.587.458 8.775 3.037 7.313 5.915 8.105 14.407 1.971 21.101-3.555 3.877-9.717 5.577-15.052 4.15zm598.825-3.29c-6.759-2.942-10.148-14.73-6.038-21.002 3.965-6.052 13.179-8.411 19.692-5.042 3.763 1.946 7.945 8.522 7.945 12.492 0 4.391-3.555 10.738-7.29 13.016-3.715 2.265-9.812 2.494-14.309.536zm-53.515-44.898c-5.027-1.871-9.191-5.01-12.965-9.775-5.063-6.392-5.525-14.139-1.168-19.584l1.748-2.185 3.784 3.213c3.77 3.202 3.778 3.225 2.213 6.363-2.07 4.149-1.128 7.533 3.143 11.283 2.514 2.208 4.434 3.011 7.194 3.011 7.506 0 8.039-4.155 1.845-14.373-7.378-12.17-8.22-16.643-4.061-21.586 3.612-4.293 7.423-6.041 13.168-6.041 4.117 0 5.782.641 10.563 4.064 3.354 2.402 6.487 5.657 7.662 7.96 2.563 5.021 2.552 11.72-.023 14.81l-1.944 2.334-3.638-3.433c-3.176-2.995-3.493-3.704-2.498-5.563 1.65-3.084.33-6.889-3.371-9.711-3.768-2.875-6.197-3.088-9.424-.828-3.197 2.239-2.453 5.805 3.305 15.835 5.645 9.836 6.437 13.386 3.938 17.653-3.924 6.702-11.876 9.379-19.471 6.553zm-489.885-2.839c-3.403-.958-17.678-14.628-26.78-25.647l-3.562-4.312 3.499-3.499 3.499-3.5 10.825 12.101c13.929 15.572 15.681 17.022 20.561 17.022 7.96 0 14.12-9.103 10.575-15.628-.857-1.58-6.748-8.477-13.088-15.328-6.341-6.851-11.496-12.701-11.456-13s1.665-1.87 3.613-3.491l3.541-2.947 4.637 4.968c19.64 21.041 23.136 25.915 23.136 32.253 0 7.321-9.849 18.835-18.145 21.215-3.994 1.145-6.198 1.103-10.855-.207zm448.466-29.46c-7.681-5.338-14.125-9.827-14.319-9.977-.194-.149 2.088-3.563 5.072-7.585 2.985-4.022 9.395-12.938 14.246-19.813s9.19-12.913 9.644-13.417c.913-1.014 26.804 16.075 27.65 18.25.285.733-.404 2.257-1.533 3.386l-2.052 2.052-3.837-2.332c-2.11-1.283-6.181-4.044-9.044-6.135-2.864-2.092-5.565-3.79-6-3.774-.437.017-2.468 2.34-4.514 5.163l-3.722 5.134 8.972 6.072c4.934 3.339 8.956 6.528 8.938 7.087-.019.558-.905 2.061-1.971 3.339l-1.938 2.325-8.87-6.075c-4.878-3.341-9.129-6.075-9.446-6.075-.603 0-8.986 12.21-8.514 12.399.149.059 1.621 1.044 3.271 2.188s5.813 3.994 9.25 6.335 6.24 4.778 6.227 5.417c-.012.639-.814 2.192-1.784 3.452l-1.762 2.29zm-418.467-17.177c-7.425-11.2-13.628-20.915-13.786-21.588-.235-1.007 4.379-4.521 10.474-7.978.655-.371 9.289 4.237 19.25 10.276 9.934 6.022 18.062 10.513 18.062 9.98s-.859-2.188-1.908-3.679c-1.05-1.49-5.57-8.27-10.044-15.067-7.56-11.482-8.009-12.452-6.342-13.694 2.755-2.053 6.254-3.832 6.619-3.367.377.482 12.505 19.039 21.45 32.822l6.103 9.404-2.188 1.661c-1.204.914-3.854 2.668-5.89 3.897-3.566 2.154-3.821 2.174-7 .55-1.814-.927-4.495-2.526-5.956-3.553-1.46-1.026-5.286-3.376-8.5-5.222-3.214-1.845-8.873-5.22-12.576-7.499s-6.95-4.144-7.216-4.144.787 1.913 2.34 4.25c10.606 15.959 18.107 27.743 18.1 28.437-.004.447-1.692 1.727-3.751 2.843l-3.742 2.03zm384.21-3.955-4.291-2.439 2.169-3.652c6.711-11.301 18.915-34.34 18.524-34.972-.251-.406-3.216-2.058-6.59-3.67-5.6-2.677-6.078-3.152-5.506-5.471 1.076-4.365 2.197-4.684 7.266-2.065 5.117 2.643 31.558 17.089 31.973 17.469.342.312-2.794 6.557-3.293 6.557-.216 0-3.364-1.634-6.996-3.63-3.723-2.046-6.966-3.247-7.433-2.75-.456.484-5.18 8.755-10.497 18.38-5.318 9.625-9.977 17.766-10.352 18.091s-2.614-.507-4.974-1.848zm-330.438-13.493c-7.917-15.021-17.771-34.514-17.771-35.154 0-1.126 8.264-4.73 9.003-3.927.804.873 22.997 44.191 22.997 44.888 0 .421-7.582 4.443-8.374 4.443-.249 0-2.884-4.612-5.855-10.25zm312.229 3.582c-7.52-2.56-8-3.113-8-9.207v-5.782l-9.392-3.671c-5.165-2.019-10.057-3.671-10.871-3.671s-2.55 1.568-3.858 3.484c-3.074 4.502-4.074 4.812-9.158 2.833-5.105-1.986-5.435-2.233-4.182-3.122.539-.383 6.791-7.221 13.892-15.196 7.103-7.975 14.635-16.258 16.74-18.406s3.828-4.286 3.828-4.75c0-1.367 3.15-.975 8.5 1.056l5 1.898.266 27.601c.147 15.18-.078 27.565-.5 27.521-.42-.043-1.44-.308-2.265-.588zm-6.536-35.406c.397-6.641.481-12.313.19-12.605-.552-.551-2.81 1.879-11.523 12.398l-5.152 6.219 3.012 1.558c3.363 1.739 9.911 4.21 11.631 4.388.737.076 1.367-4.012 1.842-11.958zm-277.766 9.464c-4.234-10.597-7.698-19.745-7.698-20.329 0-1.456-.317-1.4-8.211 1.447-3.824 1.379-7.322 2.28-7.772 2.002-.451-.278-1.257-1.762-1.792-3.297l-.973-2.791 19.624-7.552 19.625-7.551 1.655 3.09c.91 1.699 1.486 3.362 1.281 3.695-.206.333-3.2 1.62-6.655 2.861s-6.626 2.574-7.049 2.963c-.422.389 2.653 9.227 6.833 19.64 4.181 10.413 7.676 19.529 7.768 20.259.091.73-1.882 2.115-4.386 3.079l-4.553 1.751zm37.71 4.86c-.347-1.513-3.056-12.31-6.019-23.996-2.964-11.685-5.389-21.697-5.389-22.25 0-.552.715-1.004 1.589-1.004s8.096-1.628 16.048-3.619c7.952-1.99 14.705-3.372 15.006-3.072s.617 1.993.702 3.761l.155 3.214-10.75 2.57c-5.912 1.413-10.75 3.067-10.75 3.676 0 2.886 3.216 11.467 4.289 11.444.666-.014 5.486-1.095 10.711-2.403s9.572-2.309 9.661-2.225c.088.085.461 1.761.828 3.726l.667 3.573-10.328 2.478c-11.587 2.78-10.981 1.936-8.694 12.127.745 3.32 1.564 4.75 2.719 4.75.908 0 6.142-1.112 11.629-2.471 5.487-1.358 10.265-2.146 10.616-1.75.35.396.896 2.104 1.21 3.795l.572 3.074-10.69 2.342c-5.879 1.288-12.434 2.942-14.565 3.675-6.169 2.124-8.487 1.768-9.217-1.415zm181.092-.963c-3.517-.846-3.683-1.873-1.6-9.908 4.773-18.417 8.333-33.474 7.979-33.753-.209-.165-3.493-1.049-7.299-1.965-3.805-.916-7.11-1.857-7.345-2.092-.768-.768.898-6.569 1.887-6.569.53 0 9.177 2.025 19.216 4.5 10.038 2.475 19.066 4.5 20.063 4.5 1.246 0 1.621.497 1.2 1.593-.336.876-.871 2.628-1.188 3.893-.574 2.287-.609 2.291-6.745.877-3.393-.782-6.878-1.639-7.744-1.905-1.293-.395-2.431 2.976-6.336 18.78-2.617 10.594-4.977 20.05-5.241 21.012-.474 1.723-2.636 2.05-6.847 1.037zm-141.855-30.416c-1.496-13.821-2.516-25.333-2.266-25.583.793-.792 14.852-2.33 22.121-2.419 4.493-.055 8.53.533 11.272 1.641 13.741 5.552 18.824 28.033 9.026 39.919-4.604 5.586-10.773 8.173-23.804 9.985-6.278.873-11.913 1.587-12.523 1.587-.708-.001-2.086-9.043-3.826-25.13zm27.489 13.061c4.097-2.09 7.866-8.591 7.866-13.566 0-5.142-2.829-12.829-5.727-15.563-3.629-3.424-9.441-4.918-16.092-4.136l-5.364.63.564 4.102c.31 2.256 1.029 8.827 1.599 14.602.568 5.775 1.285 12.011 1.593 13.857l.558 3.357 5.674-.709c3.121-.391 7.319-1.549 9.329-2.574zm65.534 9.634c-8.607-2.313-12.626-6.719-12.653-13.871l-.015-3.804 4.75.305c4.223.271 4.783.582 5.048 2.805.581 4.873 3.47 7.275 9.325 7.755 4.428.363 5.862.058 8.127-1.729 3.148-2.486 3.58-6.018 1-8.188-.963-.81-5.575-3.161-10.25-5.224s-9.499-4.687-10.721-5.83c-6.728-6.294-4.339-17.599 4.707-22.277 6.537-3.38 19.607-1.559 25.417 3.542 3.149 2.765 5.476 8.72 4.208 10.771-.268.432-2.647.537-5.287.233-3.773-.435-4.88-.981-5.166-2.553-1.138-6.241-10.872-8.644-15.652-3.863-2.047 2.047-1.896 5.7.318 7.705 1.004.908 5.383 3.199 9.732 5.089 4.349 1.891 9.358 4.596 11.132 6.011 5.763 4.599 5.645 13.197-.261 18.933-5.605 5.441-13.755 6.879-23.759 4.19z" fill="#034dcd"/><path d="m399 668.559c0-9.486-.397-15.686-1.027-16.075-.564-.35-5.402.746-10.75 2.434-11.025 3.479-32.436 8.165-48.723 10.663-13.359 2.05-48.538 2.333-62 .499-24.819-3.38-50.792-10.248-71-18.774-17.844-7.528-47.248-24.508-48.223-27.846-.37-1.265 16.339-8.416 30.723-13.151 23.331-7.681 46.909-12.081 69.75-13.018 7.837-.321 14.246-.855 14.241-1.186-.005-.332-2.811-2.403-6.235-4.604-10.94-7.028-20.926-15.416-33.782-28.375-15.495-15.618-22.813-24.55-32.46-39.621-16.839-26.306-28.365-52.859-35.922-82.762-3.83-15.154-5.189-24.742-3.507-24.742 5.436 0 37.695 7.898 51.916 12.71 64.685 21.89 114.075 59.132 149.494 112.728 13.918 21.062 24.14 41.31 32.589 64.563 2.099 5.775 3.875 10.05 3.947 9.5.073-.55.208-24.4.301-53l.169-52h18l.5 53 .5 53 2.395-7c14.302-41.783 38.903-81.331 69.605-111.891 40.255-40.068 88.057-65.207 148.795-78.248 9.236-1.983 17.005-3.395 17.264-3.136.822.822-4.509 25.834-8.102 38.013-11.109 37.654-32.185 75.144-57.437 102.169-13.623 14.58-30.404 29.066-41.342 35.689-3.092 1.872-5.634 3.675-5.649 4.007-.016.331 6.384.876 14.222 1.211 13.718.585 31.384 3 44.838 6.131 17.291 4.023 42.071 12.542 53.674 18.449l3.262 1.661-4.762 3.553c-8.714 6.502-24.615 15.535-37.262 21.168-24.175 10.768-46.065 17.007-74.681 21.284-12.71 1.9-48.997 2.134-61.74.4-13.705-1.866-42.051-7.898-51.719-11.005-5.057-1.625-9.794-2.955-10.527-2.955-1.055 0-1.333 3.335-1.333 16v16h-18v-15.443zm54.5-62.103c23.881-4.265 54.471-16.03 76.222-29.317 34.055-20.804 62.979-52.61 81.564-89.693 10.634-21.221 21.314-50.446 18.434-50.446-.619 0-5.647 1.407-11.173 3.126-72.656 22.61-122.166 61.393-158.77 124.374-6.172 10.62-19.777 40.666-19.777 43.677 0 .474 1.013.642 2.25.374s6.3-1.21 11.25-2.095zm-79.044-.706c-3.267-10.824-18.157-40.488-27.39-54.561-35.932-54.777-84.759-90.803-149.902-110.602-6.785-2.063-12.546-3.539-12.802-3.283-.63.63 4.04 15.02 8.672 26.722 14.704 37.151 34.696 66.022 63.035 91.031 28.013 24.722 60.082 40.618 101.93 50.526 5.225 1.237 11.218 2.287 13.317 2.333 3.509.077 3.764-.099 3.14-2.166zm-81.956-207.637c-4.431-.829-7.658-2.663-15.156-8.613-4.842-3.842-11.344-11.984-11.344-14.206 0-1.635-2.716-6.501-4.109-7.362-.766-.474-1.411-4.018-1.686-9.27l-.446-8.503 67.871-.2c37.329-.11 73.271-.219 79.871-.243s42.263.056 79.25.178l67.25.222v3.795c0 6.82-1.282 16.25-2.042 15.02-.518-.84-1.088-.559-1.886.933-.629 1.174-.893 2.135-.587 2.135.499 0-2.395 5.727-4.995 9.886-1.578 2.524-6.771 7.318-11.592 10.701-8.503 5.967-20.918 8.103-28.553 4.913-1.975-.825-4.574-1.5-5.776-1.5-2.175 0-16.267-12.636-15.239-13.664.277-.277-.303-1.31-1.288-2.295s-2.045-2.41-2.354-3.167c-.434-1.061-.91-.919-2.091.625-.841 1.1-1.894 2.45-2.34 3s-1.842 2.462-3.102 4.25c-1.261 1.788-2.936 3.25-3.724 3.25-.787 0-1.432.591-1.432 1.315 0 1.49-6.303 5.098-13 7.44-2.674.935-7.746 1.566-12.5 1.555-6.916-.016-8.813-.432-14-3.066-6.398-3.251-14.908-11.159-19.214-17.855-1.176-1.829-1.271-1.82-3 .294-.982 1.2-3.091 4.065-4.686 6.368-1.65 2.383-6.031 6.229-10.17 8.931-6.619 4.321-7.978 4.808-15.169 5.436-6.662.581-8.982.343-14.83-1.524-3.813-1.218-8.281-3.211-9.932-4.43-4.733-3.496-10.5-9.223-10.5-10.427 0-.604-.658-1.351-1.462-1.66-.804-.308-1.734-1.419-2.067-2.468-.875-2.758-1.572-2.39-5.43 2.873-5.675 7.743-9.393 11.078-15.832 14.196-6.613 3.205-15.664 4.455-22.708 3.137z" fill="#01972e"/></svg>