<?xml version="1.0" encoding="utf-8"?>
<!-- Generator: Adobe Illustrator 24.1.1, SVG Export Plug-In . SVG Version: 6.00 Build 0)  -->
<svg version="1.1" id="svg1923" xmlns:svg="http://www.w3.org/2000/svg"
	 xmlns="http://www.w3.org/2000/svg" xmlns:xlink="http://www.w3.org/1999/xlink" x="0px" y="0px" viewBox="0 0 825 899"
	 enable-background="new 0 0 825 899" xml:space="preserve">
<path id="path1994" fill="#00ABE8" d="M404.81,204.375c-40.045,0.416-77.746,16.663-105.813,46.344
	c-18.379,19.436-29.905,40.912-36.156,67.344c-2.884,12.193-3.668,41.965-1.438,54.813c3.475,20.018,12.387,41.891,23.469,57.687
	c8.047,11.471,7.662,11.05,18.625,22c22.028,22.002,50.034,35.93,82.375,40.969c17.026,2.653,40.157,1.436,57.625-3.063
	c53.863-13.87,94.64-55.548,107.094-109.406c6.434-27.827,3.315-61.273-8.219-87.906c-8.274-19.107-17.47-32.099-34.156-48.281
	c-20.814-20.185-46.618-33.262-75.375-38.219C423.441,205.036,414.051,204.278,404.81,204.375z M407.31,272.125
	c4.633,0.039,9.206,0.571,12.25,1.594c8.529,2.865,17.334,10.18,22.313,18.531c2.997,5.028,5.372,16.935,4.531,22.719
	c-2.471,16.976-14.455,30.315-30.219,33.656c-17.65,3.74-33.135-2.098-42-15.813c-5.851-9.052-7.585-15.189-6.938-24.625
	c1.096-16,12.25-30.01,27.563-34.656C398.007,272.561,402.678,272.085,407.31,272.125z M160.091,412.062
	c-1.682,0-0.33,9.596,3.5,24.75c7.558,29.902,19.098,56.477,35.938,82.781c9.648,15.071,16.943,23.976,32.438,39.594
	c12.856,12.958,22.841,21.347,33.781,28.375c3.424,2.2,6.245,4.294,6.25,4.625c0.005,0.332-6.413,0.866-14.25,1.188
	c-22.841,0.936-46.418,5.319-69.75,13c-14.384,4.735-31.088,11.893-30.719,13.156c0.975,3.339,30.375,20.315,48.219,27.844
	c20.208,8.526,46.181,15.401,71,18.781c13.462,1.834,48.64,1.55,62-0.5c16.287-2.498,37.693-7.177,48.719-10.656
	c5.348-1.688,10.185-2.786,10.75-2.438c0.631,0.391,1.031,6.575,1.031,16.063v15.438h9h9v-16c0-12.664,0.288-16,1.344-16
	c0.732,0,5.475,1.344,10.531,2.969c9.668,3.108,38.013,9.135,51.719,11c12.742,1.735,49.009,1.493,61.719-0.406
	c28.615-4.276,50.512-10.513,74.688-21.281c12.646-5.633,28.535-14.654,37.25-21.156l4.781-3.563l-3.281-1.656
	c-11.602-5.907-36.366-14.414-53.656-18.438c-13.455-3.131-31.126-5.571-44.844-6.156c-7.838-0.334-14.234-0.855-14.219-1.188
	c0.016-0.331,2.565-2.159,5.656-4.031c10.938-6.622,27.72-21.107,41.344-35.688c25.251-27.024,46.328-64.502,57.438-102.156
	c3.593-12.179,8.915-37.178,8.094-38c-0.576-0.575-33.129,6.305-40.063,8.469c-27.357,8.539-42.997,14.927-62.688,25.625
	c-44.392,24.119-80.195,58.614-106.531,102.656c-9.491,15.871-20.663,39.811-26.375,56.5l-2.406,7l-0.5-53l-0.5-53h-9h-9l-0.188,52
	c-0.097,28.601-0.213,52.45-0.281,53c-0.069,0.55-1.84-3.725-3.938-9.5c-8.45-23.252-18.676-43.501-32.594-64.563
	c-35.419-53.595-84.814-90.829-149.5-112.719C197.777,419.969,165.527,412.062,160.091,412.062z M629.717,437.062
	c1.261,0-0.681,7.662-5,19.625c-21.464,59.438-60.434,104.518-112.344,129.938c-18.642,9.129-41.243,16.762-58.875,19.906
	c-4.95,0.883-10.013,1.826-11.25,2.094c-1.238,0.269-2.25,0.099-2.25-0.375c0-3.011,13.608-33.066,19.781-43.688
	c36.602-62.98,86.124-101.765,158.781-124.375C624.086,438.468,629.094,437.062,629.717,437.062z M184.373,437.374
	c0.256-0.256,5.996,1.22,12.781,3.281c65.143,19.799,113.974,55.816,149.907,110.594c9.232,14.074,24.14,43.738,27.406,54.563
	c0.623,2.067,0.351,2.265-3.156,2.188c-2.1-0.046-8.088-1.106-13.313-2.344c-41.85-9.908-73.925-25.81-101.938-50.531
	c-28.338-25.009-48.327-53.88-63.031-91.031C188.397,452.391,183.743,438.004,184.373,437.374z"/>
<path id="path1992" fill="#034DCD" d="M399,842.657c0-7.339-0.294-18.814-0.653-25.5L397.692,805h15.253
	c16.997,0,20.983,1.028,23.599,6.085c1.933,3.737,1.849,9.91-0.175,12.798c-0.896,1.281-3.241,3.002-5.211,3.824l-3.58,1.496
	l2.961,1.245c4.388,1.845,5.132,3.225,6.771,12.552c0.821,4.675,1.81,9.287,2.198,10.25c0.621,1.54,0.047,1.75-4.792,1.75
	c-6.223,0-6.088,0.193-7.345-10.499c-1.008-8.573-3.397-10.69-11.623-10.299L409.5,834.5l0.264,10.75l0.265,10.75h-5.515H399
	V842.657z M422.279,826.084c6.148-2.338,7.701-8.381,3.086-12.012c-2.085-1.64-4.069-2.072-9.5-2.072H409v7.5v7.5h5.435
	C417.424,827,420.954,826.588,422.279,826.084z M347.441,851.319c-2.006-0.397-2.028-0.646-0.858-9.614
	c0.661-5.063,2.017-16.521,3.013-25.462l1.811-16.258l3.047,0.51c1.676,0.279,7.097,0.98,12.047,1.556
	c10.628,1.237,15.121,3.186,18.334,7.949c1.992,2.955,2.283,4.375,1.869,9.123c-0.897,10.293-6.009,14.265-18.067,14.042
	c-3.818-0.07-7.72-0.374-8.67-0.676c-1.479-0.47-1.823,0.423-2.4,6.231c-1.294,13.006-1.402,13.296-4.927,13.144
	C350.912,851.789,348.573,851.544,347.441,851.319z M373.977,824.052c3.38-2.597,3.525-9.417,0.256-12.064
	c-2.114-1.712-11.81-3.746-12.857-2.697c-0.814,0.813-2.469,14.023-1.934,15.42C360.257,826.832,370.993,826.345,373.977,824.052z
	 M467.5,849.863c-3.726-1.377-9.159-6.386-11.241-10.363c-3.955-7.555-5.439-20.671-3.123-27.601
	c2.766-8.274,12.097-13.874,23.147-13.89c8.452-0.012,12.355,1.58,16.907,6.898c6.843,7.994,9.486,25.338,5.121,33.592
	c-2.671,5.049-5.787,7.966-10.708,10.021C482.712,850.565,471.435,851.317,467.5,849.863z M484.033,841.483
	c4.243-2.195,6.311-6.865,6.192-13.983c-0.11-6.576-2.045-13.033-5.255-17.541c-4.457-6.26-15.605-6.085-20.17,0.316
	c-5.162,7.236-1.669,26.395,5.625,30.842C474.145,843.385,480.048,843.544,484.033,841.483z M289,837.319
	c-7.975-2.468-14.853-4.824-15.283-5.236c-0.615-0.589,13.625-46.417,14.906-47.971c0.176-0.214,2.397,0.193,4.936,0.904
	c5.45,1.525,5.534-0.126-1.025,19.983c-6.83,20.94-7.41,22.964-6.686,23.358c0.359,0.196,4.815,1.616,9.902,3.156
	c7.895,2.391,9.24,3.107,9.18,4.893C304.738,842.127,304.571,842.137,289,837.319z M528.107,827.733
	c-1.747-5.078-4.808-14.184-6.803-20.233s-3.755-11.162-3.91-11.36c-0.155-0.198-3.095,0.589-6.533,1.75
	c-3.438,1.16-6.782,2.11-7.435,2.11c-1.147,0-4.087-5.7-3.312-6.423c0.212-0.197,4.885-1.811,10.385-3.588
	c5.5-1.776,13.911-4.525,18.691-6.109c4.779-1.584,9.095-2.88,9.589-2.88c0.866,0,3.22,4.286,3.22,5.864c0,0.424-3.15,1.804-7,3.065
	c-4.889,1.604-7,2.79-7,3.935c0,0.902,2.483,8.839,5.519,17.638c7.885,22.853,7.792,22.434,5.164,23.4
	C531.303,837.62,531.569,837.8,528.107,827.733z M252.28,824.891c-3.816-1.755-4.175-2.225-3.75-4.915
	c1.527-9.663,2.492-8.229-9.099-13.53l-10.472-4.791l-3.364,3.673c-1.851,2.021-3.94,3.673-4.643,3.673
	c-1.775,0-8.951-3.239-8.951-4.04c0-0.571,10.157-10.333,32.909-31.626l6.409-5.998l3.855,1.861c2.12,1.024,5,2.299,6.401,2.831
	c1.401,0.532,2.309,1.352,2.019,1.821c-0.29,0.469-1.232,9.357-2.094,19.752c-0.862,10.394-1.759,19.573-1.995,20.398
	c-0.235,0.825-0.522,4.088-0.637,7.25c-0.123,3.382-0.653,5.715-1.288,5.666C256.985,826.869,254.601,825.958,252.28,824.891z
	 M251.917,793.25c0.641-5.362,1.407-10.987,1.703-12.5c0.296-1.513,0.156-2.75-0.312-2.75s-4.842,4.01-9.72,8.911l-8.87,8.911
	l7.391,3.502c4.065,1.926,7.672,3.541,8.017,3.589C250.471,802.961,251.277,798.612,251.917,793.25z M560.607,799.215l-11.4-22.785
	l14.541-6.965c7.998-3.831,14.826-7.082,15.176-7.225c0.349-0.142,1.464,1.147,2.479,2.864c1.529,2.589,1.61,3.273,0.472,3.994
	c-0.756,0.48-1.661,0.878-2.011,0.886c-0.351,0.009-4.495,2.067-9.21,4.576l-8.572,4.561l2.668,5.439
	c1.467,2.991,3.137,5.418,3.709,5.392c0.573-0.025,5.092-1.994,10.042-4.374l9-4.326l1.743,2.624
	c0.959,1.443,1.747,2.949,1.75,3.346c0.004,0.397-4.269,2.83-9.493,5.407c-5.225,2.576-9.5,5.063-9.5,5.524
	c0,0.463,1.237,3.563,2.75,6.89c1.905,4.191,3.211,5.916,4.25,5.615c0.825-0.239,5.885-2.494,11.243-5.011l9.743-4.575l1.58,3.057
	c0.87,1.682,1.367,3.271,1.107,3.531c-0.858,0.857-28.843,14.34-29.765,14.34C572.413,822,566.878,811.747,560.607,799.215z
	 M612.235,792.25c-5.286-2.861-11.713-9.793-15.273-16.473c-7.312-13.717-2.887-26.336,11.497-32.792
	c6.893-3.094,15.467-2.389,19.647,1.616c1.592,1.525,2.894,3.056,2.894,3.401c0,0.346-1.74,1.606-3.867,2.803l-3.868,2.173
	l-3.925-2.149c-4.943-2.708-8.383-1.986-13.121,2.752c-3.245,3.245-3.436,3.795-3.025,8.741c0.319,3.842,1.455,6.926,4.17,11.326
	c7.748,12.553,17.428,15.398,25.107,7.382c2.462-2.569,2.738-3.479,2.284-7.517c-0.482-4.266-0.289-4.768,2.708-7.053
	c4.38-3.341,5.257-3.127,6.682,1.626c2.488,8.307-2.333,17.083-12.644,23.017C625.481,794.567,617.404,795.048,612.235,792.25z
	 M188.343,790.251l-4.066-2.614l12.358-18.356l12.358-18.356l-6.497-4.074c-3.573-2.24-6.497-4.423-6.497-4.851
	c0-0.428,0.814-1.783,1.81-3.013c1.745-2.154,1.924-2.176,4.988-0.591c2.996,1.549,26.706,16.98,30.423,19.8
	c1.608,1.22,1.573,1.484-0.532,4.048l-2.252,2.743l-5.968-3.965c-3.282-2.181-6.288-3.978-6.68-3.993
	c-0.392-0.016-5.914,7.826-12.272,17.427c-6.358,9.6-11.908,17.669-12.333,17.932C192.757,792.65,190.579,791.688,188.343,790.251z
	 M156.374,767.637c-0.619-0.707-2.836-2.696-4.928-4.42c-4.383-3.613-4.449-2.646,1.527-22.217
	c6.131-20.08,6.922-25.085,3.208-20.307c-4.396,5.656-22.798,25.292-23.682,25.269c-0.55-0.015-2.27-1.144-3.822-2.509l-2.823-2.482
	l3.823-4.328c9.879-11.186,20.304-22.659,25.315-27.86l5.507-5.717l5.358,4.755l5.358,4.754l-3.165,10.463
	c-5.927,19.59-7.031,23.46-7.688,26.962l-0.657,3.5l2.396-2.566c6.305-6.752,19.895-21.677,21.545-23.66l1.852-2.227l3.442,2.857
	l3.442,2.858l-2.942,3.529c-1.618,1.941-6.542,7.513-10.942,12.381c-4.4,4.868-10.675,11.883-13.945,15.589
	c-3.27,3.706-6.195,6.721-6.5,6.7C157.749,768.941,156.994,768.345,156.374,767.637z M665.962,753.6
	c-8.422-9.868-22.261-25.06-23.171-25.438c-0.449-0.185-3.473,1.963-6.719,4.775l-5.9,5.112l-2.254-3.166
	c-2.137-3-2.162-3.232-0.479-4.463c0.977-0.715,3.418-2.789,5.425-4.609c2.006-1.821,8.258-7.274,13.893-12.117l10.244-8.805
	l2.469,2.805c2.342,2.661,2.378,2.883,0.699,4.306c-0.974,0.825-3.664,3.122-5.979,5.106l-4.211,3.604l10.69,11.896
	c5.88,6.542,12.457,13.849,14.617,16.237l3.927,4.343l-3.302,3.407c-1.816,1.874-3.569,3.407-3.895,3.407
	S668.966,757.12,665.962,753.6z M695.5,728.319c-2.75-2.521-10.279-9.509-16.731-15.526c-6.452-6.018-12.752-11.782-14-12.812
	l-2.269-1.87l3.686-3.726l3.687-3.725l6.813,6.522c3.747,3.588,12.101,11.38,18.564,17.315c6.463,5.936,11.75,11.089,11.75,11.451
	s-1.463,2.075-3.25,3.808l-3.25,3.148L695.5,728.319z M109.105,723.031c-2.732-3.283-6.524-7.67-8.427-9.75
	c-1.902-2.08-4.575-5.131-5.938-6.781l-2.479-3l14.931-12.5c22.494-18.832,24.065-20.085,24.796-19.781
	c1.184,0.492,21.011,23.599,21.011,24.486c0,1.165-3.976,4.482-4.917,4.103c-0.418-0.169-4.024-4.021-8.014-8.559l-7.253-8.25
	l-4.866,3.75c-2.676,2.063-4.885,4.146-4.908,4.629c-0.024,0.482,3.078,4.583,6.891,9.111l6.934,8.233l-3.035,2.243l-3.035,2.244
	l-3.132-3.856c-1.722-2.12-5.005-5.861-7.294-8.315l-4.163-4.46l-5.604,4.788c-3.083,2.633-5.593,5.09-5.58,5.46
	c0.013,0.37,2.301,3.148,5.084,6.173c2.783,3.025,6.199,6.961,7.591,8.746l2.531,3.246l-2.366,1.971
	c-1.301,1.084-2.687,1.985-3.079,2.004C114.394,728.985,111.837,726.315,109.105,723.031z M705.255,703.044
	C693.415,697.442,685,687.086,685,678.113c0-7.424,7.926-18.952,15.502-22.547c1.814-0.861,5.607-1.566,8.428-1.566
	c10.937,0,25.753,11.137,29.506,22.179c1.75,5.149,1.766,5.781,0.255,10.218c-3.769,11.062-13.717,19.604-22.826,19.603
	C713.107,705.999,709.2,704.91,705.255,703.044z M726.467,692.467c3.074-3.075,3.533-4.164,3.533-8.392
	c0-3.995-0.578-5.569-3.25-8.857c-4.082-5.022-11.261-9.831-16.908-11.328c-5.604-1.484-10.924,0.556-13.816,5.299
	c-3.807,6.245-1.987,13.104,5.095,19.207c6.509,5.609,10.68,7.509,16.597,7.56C722.383,695.995,723.307,695.627,726.467,692.467z
	 M77.567,684.494c-1.039-1.929-1.704-3.688-1.478-3.909c0.226-0.222,8.736-5.429,18.911-11.571
	c21.544-13.007,23.252-14.267,16.399-12.095c-1.595,0.505-5.6,1.687-8.899,2.625c-3.3,0.939-9.6,2.823-14,4.189
	c-7.556,2.343-18.147,5.154-19.714,5.232c-0.919,0.045-5.795-7.107-5.757-8.447c0.033-1.159,5.474-7.132,21.232-23.305
	c6.048-6.209,10.725-11.561,10.393-11.893c-0.333-0.333-1.339,0.004-2.236,0.748c-0.897,0.744-2.471,1.821-3.498,2.392
	c-1.027,0.571-8.97,5.34-17.651,10.596l-15.785,9.558l-2.282-3.437c-1.255-1.891-2.151-3.823-1.992-4.295
	c0.16-0.472,9.935-6.67,21.722-13.773c24.371-14.688,21.259-14.291,27.76-3.543l3.065,5.067L89.44,643.545
	c-7.874,8.202-14.162,15.066-13.973,15.256c0.189,0.189,4.999-1.088,10.688-2.839c12.835-3.948,27.014-7.923,28.347-7.945
	c1.23-0.021,9.607,12.997,8.998,13.982C122.586,663.479,81.989,688,80.454,688C79.904,688,78.605,686.422,77.567,684.494z
	 M399,668.559c0-9.486-0.397-15.686-1.027-16.075c-0.564-0.35-5.402,0.746-10.75,2.434c-11.025,3.479-32.436,8.165-48.723,10.663
	c-13.359,2.05-48.538,2.333-62,0.499c-24.819-3.38-50.792-10.248-71-18.774c-17.844-7.528-47.248-24.508-48.223-27.846
	c-0.37-1.265,16.339-8.416,30.723-13.151c23.331-7.681,46.909-12.081,69.75-13.018c7.837-0.321,14.246-0.855,14.241-1.186
	c-0.005-0.332-2.811-2.403-6.235-4.604c-10.94-7.028-20.926-15.416-33.782-28.375c-15.495-15.618-22.813-24.55-32.46-39.621
	c-16.839-26.306-28.365-52.859-35.922-82.762c-3.83-15.154-5.189-24.742-3.507-24.742c5.436,0,37.695,7.898,51.916,12.71
	c64.685,21.89,114.075,59.132,149.494,112.728c13.918,21.062,24.14,41.31,32.589,64.563c2.099,5.775,3.875,10.05,3.947,9.5
	c0.073-0.55,0.208-24.4,0.301-53l0.169-52h9h9l0.5,53l0.5,53l2.395-7c14.302-41.783,38.903-81.331,69.605-111.891
	c40.255-40.068,88.057-65.207,148.795-78.248c9.236-1.983,17.005-3.395,17.264-3.136c0.822,0.822-4.509,25.834-8.102,38.013
	c-11.109,37.654-32.185,75.144-57.437,102.169c-13.623,14.58-30.404,29.066-41.342,35.689c-3.092,1.872-5.634,3.675-5.649,4.007
	c-0.016,0.331,6.384,0.876,14.222,1.211c13.718,0.585,31.384,3,44.838,6.131c17.291,4.023,42.071,12.542,53.674,18.449l3.262,1.661
	l-4.762,3.553c-8.714,6.502-24.615,15.535-37.262,21.168c-24.175,10.768-46.065,17.007-74.681,21.284
	c-12.71,1.9-48.997,2.134-61.74,0.4c-13.705-1.866-42.051-7.898-51.719-11.005c-5.057-1.625-9.794-2.955-10.527-2.955
	c-1.055,0-1.333,3.335-1.333,16v16h-9h-9V668.559z M453.5,606.456c23.881-4.265,54.471-16.03,76.222-29.317
	c34.055-20.804,62.979-52.61,81.564-89.693C621.92,466.225,632.6,437,629.72,437c-0.619,0-5.647,1.407-11.173,3.126
	c-72.656,22.61-122.166,61.393-158.77,124.374C453.605,575.12,440,605.166,440,608.177c0,0.474,1.013,0.642,2.25,0.374
	C443.487,608.283,448.55,607.341,453.5,606.456z M374.456,605.75c-3.267-10.824-18.157-40.488-27.39-54.561
	c-35.932-54.777-84.759-90.803-149.902-110.602c-6.785-2.063-12.546-3.539-12.802-3.283c-0.63,0.63,4.04,15.02,8.672,26.722
	c14.704,37.151,34.696,66.022,63.035,91.031c28.013,24.722,60.082,40.618,101.93,50.526c5.225,1.237,11.218,2.287,13.317,2.333
	C374.825,607.993,375.08,607.817,374.456,605.75z M752,658.562c-21.066-10.46-41-20.808-41-21.282c0-0.317,1.461-3.453,3.247-6.969
	l3.247-6.392l5.003,0.507c11.204,1.136,37.974,1.699,37.003,0.779c-0.55-0.521-8.277-4.718-17.171-9.326l-16.171-8.378l2.104-3.75
	c1.158-2.063,2.467-3.75,2.907-3.75c1.753,0,44.83,22.755,44.83,23.68c0,0.297-1.421,3.207-3.158,6.465l-3.157,5.926l-9.593-0.528
	c-23.316-1.284-33.092-1.522-33.087-0.81c0.003,0.422,7.597,4.613,16.875,9.313l16.869,8.546l-2.124,4.102l-2.125,4.103L752,658.562
	z M41.659,621.25c-0.765-1.513-1.947-4.469-2.626-6.57l-1.234-3.82l7.298-7.68c4.014-4.224,10.646-11.167,14.736-15.43
	c4.09-4.263,6.804-7.75,6.03-7.75c-0.773,0-8.811,2.925-17.862,6.5S31.28,593,30.958,593c-0.649,0-3.958-6.59-3.958-7.882
	c0-0.448,2.138-1.526,4.75-2.396c2.612-0.87,13.291-4.988,23.73-9.152c10.439-4.163,19.225-7.57,19.523-7.57
	c0.299,0,1.598,3.098,2.887,6.884c2.289,6.723,2.3,6.928,0.477,8.8c-7.426,7.628-25.928,27.685-26.192,28.395
	c-0.179,0.48,1.846-0.003,4.5-1.074c2.654-1.07,10.225-4.037,16.825-6.593c6.6-2.555,12.503-4.843,13.119-5.085
	c0.96-0.377,4.98,7.491,4.173,8.168c-0.161,0.135-7.942,3.277-17.292,6.983c-9.35,3.707-18.35,7.302-20,7.99
	C42.996,624.849,43.465,624.817,41.659,621.25z M788.955,583.082c-1.399-0.87-11.449-7.867-22.332-15.549
	c-22.022-15.545-20.37-13.33-17.605-23.6l0.99-3.676l9.246-0.673c5.085-0.369,15.321-1.308,22.746-2.085
	c21.462-2.247,22.001-2.26,21.994-0.526c-0.003,0.84-0.459,3.158-1.013,5.153c-0.979,3.521-1.169,3.641-6.493,4.082
	c-3.018,0.251-5.717,0.686-5.998,0.967c-0.559,0.56-5.442,18.703-5.47,20.324c-0.009,0.55,2.007,2.279,4.482,3.842
	c4.941,3.122,5.017,3.341,3.232,9.24C791.507,584.64,791.485,584.654,788.955,583.082z M780.06,555.84
	c1.048-4.037,1.914-7.739,1.923-8.227c0.018-0.868-16.107-0.125-22.792,1.05c-3.295,0.579-3.264,0.612,7.5,7.836
	c5.945,3.989,10.956,7.125,11.136,6.968C778.006,563.31,779.011,559.877,780.06,555.84z M29.819,564.42
	c-11.158-3.434-18.101-20.599-12.933-31.976c4.129-9.091,15.22-14.778,28.907-14.825c10.917-0.037,15.286,2.5,20.458,11.881
	c1.789,3.244,2.209,5.635,2.227,12.654c0.021,8.194-0.142,8.857-3.073,12.5c-4.002,4.973-9.276,7.914-17.602,9.815
	C39.699,566.321,35.962,566.31,29.819,564.42z M45.384,554.89c6.193-1.67,8.791-2.99,12.366-6.286
	c2.879-2.654,3.25-3.599,3.25-8.284c0-4.357-0.484-5.828-2.75-8.357c-3.556-3.969-9.514-5.384-16.911-4.017
	C25.967,530.787,19.655,538.799,24.751,549C27.845,555.192,35.821,557.469,45.384,554.89z M776.813,525.113
	c-10.685-2.254-18.928-10.333-20.167-19.767C754.723,490.695,761.79,479,772.567,479c3.313,0,3.608,0.216,3.063,2.25
	c-0.331,1.237-0.608,3.487-0.616,5c-0.012,2.322-0.441,2.755-2.764,2.782c-5.174,0.06-8.252,4.223-8.246,11.152
	c0.008,9.486,7.254,14.883,20.36,15.163c8.263,0.177,12.869-1.871,15.905-7.069c1.802-3.085,2.913-13.42,1.586-14.753
	c-0.354-0.357-3.131-0.904-6.169-1.219l-5.524-0.569l-0.694,4.631c-0.676,4.502-0.794,4.632-4.22,4.632h-3.524l0.666-6.75
	c0.366-3.713,0.938-8.26,1.27-10.105l0.602-3.354l7.619,0.65c4.19,0.358,10.027,1.122,12.972,1.697l5.353,1.047l-0.353,11.73
	c-0.322,10.708-0.615,12.242-3.368,17.624c-4.077,7.972-9.295,11.238-18.984,11.885C783.65,525.68,778.841,525.541,776.813,525.113z
	 M9.472,508.7c-1.199-6.389-0.646-7.033,7.54-8.795c12.414-2.672,13.063-3.371,12.229-13.168l-0.491-5.764l-8.125,0.576
	c-4.469,0.316-9.091,0.769-10.271,1.006C7.817,483.065,7,481.448,7,475.918V472l5.25-0.031c2.888-0.017,8.4-0.427,12.25-0.912
	c3.85-0.485,13.124-1.197,20.609-1.582l13.609-0.701l0.715,13.499c0.855,16.137-0.012,20.215-5.029,23.652
	c-4.755,3.259-12.084,2.603-15.808-1.415c-1.428-1.541-2.597-3.187-2.597-3.656c0-0.469-0.45-0.854-1-0.854s-1,0.83-1,1.845
	c0,3.02-3.038,4.871-11.5,7.011c-4.4,1.112-8.984,2.32-10.186,2.684C10.424,512.11,10.04,511.727,9.472,508.7z M50.25,495.803
	c1.329-1.537,1.75-3.816,1.75-9.474v-7.45l-7.25,0.69c-3.987,0.38-7.51,0.835-7.827,1.013c-0.988,0.554,0.961,13.573,2.268,15.148
	C42.191,499.345,47.159,499.377,50.25,495.803z M391.675,494.016c-19.133-2.424-34.524-6.919-49.965-14.59
	c-13.373-6.645-22.528-12.927-34.439-23.632c-27.014-24.28-44.798-60.398-46.935-95.322l-0.631-10.312l67.896-0.2
	c37.344-0.11,73.298-0.219,79.897-0.243c6.6-0.024,42.263,0.056,79.25,0.178l67.25,0.222l-0.02,4.691
	c-0.044,10.43-4.076,30.793-8.557,43.215c-1.368,3.791-4.723,11.3-7.454,16.685c-4.474,8.819-5.847,11.29-8.185,14.737
	c-2.16,3.186-14.577,18.422-16.75,20.555c-20.373,19.998-42.846,33.219-67.225,39.547
	C429.326,493.825,405.622,495.782,391.675,494.016z M759.657,460.998c-0.361-3.46-0.657-11.176-0.657-17.144V433h3.364
	c3.244,0,3.387,0.166,4,4.64c0.35,2.552,0.636,7.727,0.636,11.5V456h6.825h6.824l-0.453-11l-0.453-11h4.095h4.095l0.283,10.75
	l0.284,10.75l7.25,0.06l7.25,0.06v-12.31V431h3.369c3.116,0,3.416,0.281,3.989,3.75c0.341,2.063,0.624,9.938,0.631,17.5L811,466
	h-13.343c-7.339,0-18.743,0.29-25.343,0.646l-11.999,0.645L759.657,460.998z M23.75,454.252L7,453.951v-4.976V444l11.75,0.004
	c6.462,0.002,18.163,0.297,26,0.655L59,445.312v4.844V455l-9.25-0.225C44.663,454.652,32.962,454.417,23.75,454.252z M48,432.397
	c-4.675-2.514-14.118-7.538-20.984-11.164C9.237,411.842,8.981,411.678,9.463,410c0.237-0.825,0.718-3.126,1.069-5.113
	c0.715-4.041-1.219-3.351,28.968-10.332c6.05-1.399,14.074-3.26,17.831-4.135c3.757-0.875,6.97-1.44,7.14-1.255
	c0.17,0.184,0.081,2.658-0.199,5.497c-0.496,5.024-0.606,5.178-4.141,5.798c-1.997,0.351-9.707,1.922-17.131,3.49
	c-7.425,1.569-15.244,3.153-17.375,3.52c-3.542,0.61-3.713,0.78-2,1.977c1.031,0.721,9.53,5.161,18.887,9.869l17.012,8.559
	l-0.363,4.564c-0.205,2.573-0.864,4.556-1.512,4.546C57.017,436.974,52.675,434.91,48,432.397z M757.66,420.355
	c-0.298-1.02-0.813-4.329-1.145-7.355l-0.604-5.5l11.575-8c20.228-13.981,22.625-15.722,22.215-16.132
	c-0.32-0.32-18.994,2.552-34.847,5.36c-2.424,0.43-2.703,0.128-3.332-3.593c-0.844-4.995-0.207-6.135,3.43-6.135
	c1.559,0,6.145-0.648,10.19-1.441c8.932-1.75,32.993-5.559,35.112-5.559c1.608,0,2.184,1.601,3.259,9.06l0.656,4.559l-6.835,4.71
	c-22.192,15.292-28.112,19.56-27.699,19.972c0.253,0.254,2.126,0.087,4.162-0.37c6.397-1.436,33.211-5.256,33.672-4.796
	c0.241,0.242,0.732,2.269,1.089,4.504l0.649,4.064l-3.854,0.667c-2.12,0.366-8.13,1.317-13.354,2.112
	c-13.887,2.113-27.05,4.283-30.649,5.053C758.8,422.082,758.099,421.857,757.66,420.355z M63.895,379.562
	c-0.279-0.279-7.682-2.576-16.451-5.103C19.981,366.541,18,365.867,18,364.442c0-0.75,0.767-3.853,1.704-6.896
	c1.581-5.133,1.96-5.574,5.25-6.1c1.951-0.312,5.571-0.951,8.046-1.42c2.475-0.47,10.125-1.637,17-2.595
	c6.875-0.958,12.86-2.054,13.299-2.436c0.44-0.382-3.61-1.927-9-3.434c-11.212-3.133-26.646-7.755-27.119-8.121
	C26.422,332.855,29.42,325,30.402,325c1.027,0,22.233,6.154,40.403,11.724c4.869,1.493,8.134,3.007,7.893,3.661
	c-0.227,0.613-1.024,3.525-1.772,6.472c-0.985,3.886-1.967,5.588-3.572,6.199c-2.005,0.762-8.827,1.91-31.523,5.303
	c-4.218,0.631-7.943,1.42-8.277,1.754c-0.334,0.335,2.217,1.381,5.669,2.326c3.453,0.945,10.552,2.986,15.777,4.536
	s10.691,3.086,12.146,3.415c2.612,0.589,2.63,0.653,1.391,4.854C67.419,379.034,65.32,380.987,63.895,379.562z M755.34,365.565
	c-6.308-1.972-9.955-5.074-12.747-10.839c-5.092-10.511-4.315-20.128,2.076-25.74c4.324-3.796,5.865-3.762,7.233,0.164
	c1.563,4.484,1.402,5.455-1.361,8.219c-3.455,3.455-4.077,6.938-2.146,11.997c2.759,7.225,9.455,9.188,20.446,5.993
	C779.65,352.215,785,347.367,785,340.712c0-6.953-4.048-11.712-9.962-11.712c-3.508,0-3.722-0.203-5.255-5l-1.6-5h5.258
	c6.561,0,12.098,3.65,16.229,10.701c2.447,4.177,2.806,5.822,2.816,12.948c0.012,7.641-0.186,8.409-3.084,12.007
	c-3.676,4.563-12.414,9.163-20.846,10.973C761.201,367.209,760.585,367.206,755.34,365.565z M79.25,327.969
	c-1.237-0.497-2.25-1.429-2.25-2.071c0-0.642,2.025-5.441,4.5-10.666c2.475-5.225,4.5-9.631,4.5-9.792
	c0-0.161-2.558-1.464-5.685-2.896c-6.816-3.121-6.563-3.305-11.752,8.579l-3.766,8.623l-3.148-1.527
	c-1.731-0.839-3.287-1.633-3.457-1.764c-0.17-0.131,1.746-4.634,4.256-10.006c2.511-5.372,4.449-9.872,4.308-10
	c-0.141-0.127-3.322-1.615-7.069-3.306l-6.813-3.074l-5.066,10.869l-5.066,10.869l-2.872-1.002c-1.58-0.55-3.086-1.348-3.348-1.771
	c-0.262-0.423,0.787-3.417,2.33-6.651c1.543-3.235,4.544-9.707,6.667-14.381c2.124-4.675,4.188-8.89,4.588-9.367
	c0.621-0.741,43.931,18.346,46.196,20.359c0.441,0.392-1.61,5.842-4.559,12.11c-2.949,6.269-5.952,12.86-6.674,14.647
	C83.693,329.159,82.932,329.449,79.25,327.969z M730.881,321.669l-2.539-5.426l7.309-9.871c4.021-5.429,7.318-10.208,7.33-10.621
	c0.011-0.413-5.77-0.75-12.848-0.75h-12.866l-2.094-5.038l-2.094-5.038l3.211,0.524c1.766,0.288,9.844,0.982,17.951,1.542
	l14.741,1.018l9.156-4.523c5.036-2.488,9.202-4.402,9.259-4.254c0.057,0.148,1.122,2.171,2.369,4.496l2.267,4.227l-6.267,3.252
	c-3.446,1.789-7.616,3.85-9.267,4.581c-2.133,0.945-5.392,4.999-11.271,14.021c-4.55,6.981-9.067,13.726-10.04,14.99l-1.77,2.297
	L730.881,321.669z M101.575,252.862c-3.348-0.896-7.206-4.288-9.17-8.062c-4.574-8.792,2.939-20.069,13.476-20.226
	c4.088-0.061,5.587,0.458,8.775,3.037c7.313,5.915,8.105,14.407,1.971,21.101C113.072,252.589,106.91,254.289,101.575,252.862z
	 M700.4,249.572c-6.759-2.942-10.148-14.73-6.038-21.002c3.965-6.052,13.179-8.411,19.692-5.042
	c3.763,1.946,7.945,8.522,7.945,12.492c0,4.391-3.555,10.738-7.29,13.016C710.994,251.301,704.897,251.53,700.4,249.572z
	 M646.885,204.674c-5.027-1.871-9.191-5.01-12.965-9.775c-5.063-6.392-5.525-14.139-1.168-19.584l1.748-2.185l3.784,3.213
	c3.77,3.202,3.778,3.225,2.213,6.363c-2.07,4.149-1.128,7.533,3.143,11.283c2.514,2.208,4.434,3.011,7.194,3.011
	c7.506,0,8.039-4.155,1.845-14.373c-7.378-12.17-8.22-16.643-4.061-21.586c3.612-4.293,7.423-6.041,13.168-6.041
	c4.117,0,5.782,0.641,10.563,4.064c3.354,2.402,6.487,5.657,7.662,7.96c2.563,5.021,2.552,11.72-0.023,14.81l-1.944,2.334
	l-3.638-3.433c-3.176-2.995-3.493-3.704-2.498-5.563c1.65-3.084,0.33-6.889-3.371-9.711c-3.768-2.875-6.197-3.088-9.424-0.828
	c-3.197,2.239-2.453,5.805,3.305,15.835c5.645,9.836,6.437,13.386,3.938,17.653C662.432,204.823,654.48,207.5,646.885,204.674z
	 M157,201.835c-3.403-0.958-17.678-14.628-26.78-25.647l-3.562-4.312l3.499-3.499l3.499-3.5l10.825,12.101
	C158.41,192.55,160.162,194,165.042,194c7.96,0,14.12-9.103,10.575-15.628c-0.857-1.58-6.748-8.477-13.088-15.328
	c-6.341-6.851-11.496-12.701-11.456-13c0.04-0.299,1.665-1.87,3.613-3.491l3.541-2.947l4.637,4.968
	C182.504,169.615,186,174.489,186,180.827c0,7.321-9.849,18.835-18.145,21.215C163.861,203.187,161.657,203.145,157,201.835z
	 M605.466,172.375c-7.681-5.338-14.125-9.827-14.319-9.977c-0.194-0.149,2.088-3.563,5.072-7.585
	c2.985-4.022,9.395-12.938,14.246-19.813c4.851-6.875,9.19-12.913,9.644-13.417c0.913-1.014,26.804,16.075,27.65,18.25
	c0.285,0.733-0.404,2.257-1.533,3.386l-2.052,2.052l-3.837-2.332c-2.11-1.283-6.181-4.044-9.044-6.135
	c-2.864-2.092-5.565-3.79-6-3.774c-0.437,0.017-2.468,2.34-4.514,5.163l-3.722,5.134l8.972,6.072
	c4.934,3.339,8.956,6.528,8.938,7.087c-0.019,0.558-0.905,2.061-1.971,3.339l-1.938,2.325l-8.87-6.075
	c-4.878-3.341-9.129-6.075-9.446-6.075c-0.603,0-8.986,12.21-8.514,12.399c0.149,0.059,1.621,1.044,3.271,2.188
	c1.65,1.144,5.813,3.994,9.25,6.335s6.24,4.778,6.227,5.417c-0.012,0.639-0.814,2.192-1.784,3.452l-1.762,2.29L605.466,172.375z
	 M186.999,155.198c-7.425-11.2-13.628-20.915-13.786-21.588c-0.235-1.007,4.379-4.521,10.474-7.978
	c0.655-0.371,9.289,4.237,19.25,10.276c9.934,6.022,18.062,10.513,18.062,9.98c0-0.533-0.859-2.188-1.908-3.679
	c-1.05-1.49-5.57-8.27-10.044-15.067c-7.56-11.482-8.009-12.452-6.342-13.694c2.755-2.053,6.254-3.832,6.619-3.367
	c0.377,0.482,12.505,19.039,21.45,32.822l6.103,9.404l-2.188,1.661c-1.204,0.914-3.854,2.668-5.89,3.897
	c-3.566,2.154-3.821,2.174-7,0.55c-1.814-0.927-4.495-2.526-5.956-3.553c-1.46-1.026-5.286-3.376-8.5-5.222
	c-3.214-1.845-8.873-5.22-12.576-7.499c-3.703-2.279-6.95-4.144-7.216-4.144c-0.266,0,0.787,1.913,2.34,4.25
	c10.606,15.959,18.107,27.743,18.1,28.437c-0.004,0.447-1.692,1.727-3.751,2.843l-3.742,2.03L186.999,155.198z M571.209,151.243
	l-4.291-2.439l2.169-3.652c6.711-11.301,18.915-34.34,18.524-34.972c-0.251-0.406-3.216-2.058-6.59-3.67
	c-5.6-2.677-6.078-3.152-5.506-5.471c1.076-4.365,2.197-4.684,7.266-2.065c5.117,2.643,31.558,17.089,31.973,17.469
	c0.342,0.312-2.794,6.557-3.293,6.557c-0.216,0-3.364-1.634-6.996-3.63c-3.723-2.046-6.966-3.247-7.433-2.75
	c-0.456,0.484-5.18,8.755-10.497,18.38c-5.318,9.625-9.977,17.766-10.352,18.091C575.808,153.416,573.569,152.584,571.209,151.243z
	 M240.771,137.75C232.854,122.729,223,103.236,223,102.596c0-1.126,8.264-4.73,9.003-3.927C232.807,99.542,255,142.86,255,143.557
	c0,0.421-7.582,4.443-8.374,4.443C246.377,148,243.742,143.388,240.771,137.75z M553,141.332c-7.52-2.56-8-3.113-8-9.207v-5.782
	l-9.392-3.671c-5.165-2.019-10.057-3.671-10.871-3.671c-0.814,0-2.55,1.568-3.858,3.484c-3.074,4.502-4.074,4.812-9.158,2.833
	c-5.105-1.986-5.435-2.233-4.182-3.122c0.539-0.383,6.791-7.221,13.892-15.196c7.103-7.975,14.635-16.258,16.74-18.406
	c2.105-2.148,3.828-4.286,3.828-4.75c0-1.367,3.15-0.975,8.5,1.056l5,1.898l0.266,27.601c0.147,15.18-0.078,27.565-0.5,27.521
	C554.845,141.877,553.825,141.612,553,141.332z M546.464,105.926c0.397-6.641,0.481-12.313,0.19-12.605
	c-0.552-0.551-2.81,1.879-11.523,12.398l-5.152,6.219l3.012,1.558c3.363,1.739,9.911,4.21,11.631,4.388
	C545.359,117.96,545.989,113.872,546.464,105.926z M268.698,115.39C264.464,104.793,261,95.645,261,95.061
	c0-1.456-0.317-1.4-8.211,1.447c-3.824,1.379-7.322,2.28-7.772,2.002c-0.451-0.278-1.257-1.762-1.792-3.297l-0.973-2.791
	l19.624-7.552l19.625-7.551l1.655,3.09c0.91,1.699,1.486,3.362,1.281,3.695c-0.206,0.333-3.2,1.62-6.655,2.861
	c-3.455,1.241-6.626,2.574-7.049,2.963c-0.422,0.389,2.653,9.227,6.833,19.64c4.181,10.413,7.676,19.529,7.768,20.259
	c0.091,0.73-1.882,2.115-4.386,3.079l-4.553,1.751L268.698,115.39z M306.408,120.25c-0.347-1.513-3.056-12.31-6.019-23.996
	C297.425,84.569,295,74.557,295,74.004c0-0.552,0.715-1.004,1.589-1.004c0.874,0,8.096-1.628,16.048-3.619
	c7.952-1.99,14.705-3.372,15.006-3.072c0.301,0.3,0.617,1.993,0.702,3.761l0.155,3.214l-10.75,2.57
	C311.838,77.267,307,78.921,307,79.53c0,2.886,3.216,11.467,4.289,11.444c0.666-0.014,5.486-1.095,10.711-2.403
	c5.225-1.308,9.572-2.309,9.661-2.225c0.088,0.085,0.461,1.761,0.828,3.726l0.667,3.573l-10.328,2.478
	c-11.587,2.78-10.981,1.936-8.694,12.127c0.745,3.32,1.564,4.75,2.719,4.75c0.908,0,6.142-1.112,11.629-2.471
	c5.487-1.358,10.265-2.146,10.616-1.75c0.35,0.396,0.896,2.104,1.21,3.795l0.572,3.074l-10.69,2.342
	c-5.879,1.288-12.434,2.942-14.565,3.675C309.456,123.789,307.138,123.433,306.408,120.25z M487.5,119.287
	c-3.517-0.846-3.683-1.873-1.6-9.908c4.773-18.417,8.333-33.474,7.979-33.753c-0.209-0.165-3.493-1.049-7.299-1.965
	c-3.805-0.916-7.11-1.857-7.345-2.092c-0.768-0.768,0.898-6.569,1.887-6.569c0.53,0,9.177,2.025,19.216,4.5
	c10.038,2.475,19.066,4.5,20.063,4.5c1.246,0,1.621,0.497,1.2,1.593c-0.336,0.876-0.871,2.628-1.188,3.893
	c-0.574,2.287-0.609,2.291-6.745,0.877c-3.393-0.782-6.878-1.639-7.744-1.905c-1.293-0.395-2.431,2.976-6.336,18.78
	c-2.617,10.594-4.977,20.05-5.241,21.012C493.873,119.973,491.711,120.3,487.5,119.287z M345.645,88.871
	c-1.496-13.821-2.516-25.333-2.266-25.583c0.793-0.792,14.852-2.33,22.121-2.419c4.493-0.055,8.53,0.533,11.272,1.641
	c13.741,5.552,18.824,28.033,9.026,39.919c-4.604,5.586-10.773,8.173-23.804,9.985c-6.278,0.873-11.913,1.587-12.523,1.587
	C348.763,114,347.385,104.958,345.645,88.871z M373.134,101.932c4.097-2.09,7.866-8.591,7.866-13.566
	c0-5.142-2.829-12.829-5.727-15.563c-3.629-3.424-9.441-4.918-16.092-4.136l-5.364,0.63l0.564,4.102
	c0.31,2.256,1.029,8.827,1.599,14.602c0.568,5.775,1.285,12.011,1.593,13.857l0.558,3.357l5.674-0.709
	C366.926,104.115,371.124,102.957,373.134,101.932z M438.668,111.566c-8.607-2.313-12.626-6.719-12.653-13.871L426,93.891
	l4.75,0.305c4.223,0.271,4.783,0.582,5.048,2.805c0.581,4.873,3.47,7.275,9.325,7.755c4.428,0.363,5.862,0.058,8.127-1.729
	c3.148-2.486,3.58-6.018,1-8.188c-0.963-0.81-5.575-3.161-10.25-5.224s-9.499-4.687-10.721-5.83
	c-6.728-6.294-4.339-17.599,4.707-22.277c6.537-3.38,19.607-1.559,25.417,3.542c3.149,2.765,5.476,8.72,4.208,10.771
	c-0.268,0.432-2.647,0.537-5.287,0.233c-3.773-0.435-4.88-0.981-5.166-2.553c-1.138-6.241-10.872-8.644-15.652-3.863
	c-2.047,2.047-1.896,5.7,0.318,7.705c1.004,0.908,5.383,3.199,9.732,5.089c4.349,1.891,9.358,4.596,11.132,6.011
	c5.763,4.599,5.645,13.197-0.261,18.933C456.822,112.817,448.672,114.255,438.668,111.566z"/>
<path id="path1990" fill="#01972E" d="M399,668.559c0-9.486-0.397-15.686-1.027-16.075c-0.564-0.35-5.402,0.746-10.75,2.434
	c-11.025,3.479-32.436,8.165-48.723,10.663c-13.359,2.05-48.538,2.333-62,0.499c-24.819-3.38-50.792-10.248-71-18.774
	c-17.844-7.528-47.248-24.508-48.223-27.846c-0.37-1.265,16.339-8.416,30.723-13.151c23.331-7.681,46.909-12.081,69.75-13.018
	c7.837-0.321,14.246-0.855,14.241-1.186c-0.005-0.332-2.811-2.403-6.235-4.604c-10.94-7.028-20.926-15.416-33.782-28.375
	c-15.495-15.618-22.813-24.55-32.46-39.621c-16.839-26.306-28.365-52.859-35.922-82.762c-3.83-15.154-5.189-24.742-3.507-24.742
	c5.436,0,37.695,7.898,51.916,12.71c64.685,21.89,114.075,59.132,149.494,112.728c13.918,21.062,24.14,41.31,32.589,64.563
	c2.099,5.775,3.875,10.05,3.947,9.5c0.073-0.55,0.208-24.4,0.301-53l0.169-52h9h9l0.5,53l0.5,53l2.395-7
	c14.302-41.783,38.903-81.331,69.605-111.891c40.255-40.068,88.057-65.207,148.795-78.248c9.236-1.983,17.005-3.395,17.264-3.136
	c0.822,0.822-4.509,25.834-8.102,38.013c-11.109,37.654-32.185,75.144-57.437,102.169c-13.623,14.58-30.404,29.066-41.342,35.689
	c-3.092,1.872-5.634,3.675-5.649,4.007c-0.016,0.331,6.384,0.876,14.222,1.211c13.718,0.585,31.384,3,44.838,6.131
	c17.291,4.023,42.071,12.542,53.674,18.449l3.262,1.661l-4.762,3.553c-8.714,6.502-24.615,15.535-37.262,21.168
	c-24.175,10.768-46.065,17.007-74.681,21.284c-12.71,1.9-48.997,2.134-61.74,0.4c-13.705-1.866-42.051-7.898-51.719-11.005
	c-5.057-1.625-9.794-2.955-10.527-2.955c-1.055,0-1.333,3.335-1.333,16v16h-9h-9V668.559z M453.5,606.456
	c23.881-4.265,54.471-16.03,76.222-29.317c34.055-20.804,62.979-52.61,81.564-89.693C621.92,466.225,632.6,437,629.72,437
	c-0.619,0-5.647,1.407-11.173,3.126c-72.656,22.61-122.166,61.393-158.77,124.374C453.605,575.12,440,605.166,440,608.177
	c0,0.474,1.013,0.642,2.25,0.374C443.487,608.283,448.55,607.341,453.5,606.456z M374.456,605.75
	c-3.267-10.824-18.157-40.488-27.39-54.561c-35.932-54.777-84.759-90.803-149.902-110.602c-6.785-2.063-12.546-3.539-12.802-3.283
	c-0.63,0.63,4.04,15.02,8.672,26.722c14.704,37.151,34.696,66.022,63.035,91.031c28.013,24.722,60.082,40.618,101.93,50.526
	c5.225,1.237,11.218,2.287,13.317,2.333C374.825,607.993,375.08,607.817,374.456,605.75z M292.5,398.113
	c-4.431-0.829-7.658-2.663-15.156-8.613C272.502,385.658,266,377.516,266,375.294c0-1.635-2.716-6.501-4.109-7.362
	c-0.766-0.474-1.411-4.018-1.686-9.27l-0.446-8.503l67.871-0.2c37.329-0.11,73.271-0.219,79.871-0.243
	c6.6-0.024,42.263,0.056,79.25,0.178l67.25,0.222v3.795c0,6.82-1.282,16.25-2.042,15.02c-0.518-0.84-1.088-0.559-1.886,0.933
	c-0.629,1.174-0.893,2.135-0.587,2.135c0.499,0-2.395,5.727-4.995,9.886c-1.578,2.524-6.771,7.318-11.592,10.701
	c-8.503,5.967-20.918,8.103-28.553,4.913c-1.975-0.825-4.574-1.5-5.776-1.5c-2.175,0-16.267-12.636-15.239-13.664
	c0.277-0.277-0.303-1.31-1.288-2.295c-0.985-0.985-2.045-2.41-2.354-3.167c-0.434-1.061-0.91-0.919-2.091,0.625
	c-0.841,1.1-1.894,2.45-2.34,3c-0.446,0.55-1.842,2.462-3.102,4.25c-1.261,1.788-2.936,3.25-3.724,3.25
	c-0.787,0-1.432,0.591-1.432,1.315c0,1.49-6.303,5.098-13,7.44c-2.674,0.935-7.746,1.566-12.5,1.555
	c-6.916-0.016-8.813-0.432-14-3.066c-6.398-3.251-14.908-11.159-19.214-17.855c-1.176-1.829-1.271-1.82-3,0.294
	c-0.982,1.2-3.091,4.065-4.686,6.368c-1.65,2.383-6.031,6.229-10.17,8.931c-6.619,4.321-7.978,4.808-15.169,5.436
	c-6.662,0.581-8.982,0.343-14.83-1.524c-3.813-1.218-8.281-3.211-9.932-4.43c-4.733-3.496-10.5-9.223-10.5-10.427
	c0-0.604-0.658-1.351-1.462-1.66c-0.804-0.308-1.734-1.419-2.067-2.468c-0.875-2.758-1.572-2.39-5.43,2.873
	c-5.675,7.743-9.393,11.078-15.832,14.196C308.595,398.181,299.544,399.431,292.5,398.113z"/>
</svg>
