<svg viewBox="0 0 576 576" xmlns="http://www.w3.org/2000/svg"><path d="m576 288c0 159.058-128.942 288-288 288s-288-128.942-288-288 128.942-288 288-288 288 128.941 288 288z" fill="#00295a" opacity=".99"/><path d="m386.664 97.87-5.568-2.784-5.636-2.648-5.772-2.513-5.84-2.309-5.976-2.173-5.975-1.969-6.111-1.833-6.18-1.63-6.179-1.426-6.315-1.29-6.383-1.087-6.45-.882-6.451-.679-6.52-.476-6.586-.339-6.655-.068c-118.491 0-214.303 95.948-214.303 214.236 0 118.221 95.812 214.236 214.304 214.236 118.288 0 214.168-96.016 214.168-214.236 0-68.719-32.322-129.968-82.707-169.148z" fill="#00295a"/><path d="m386.664 97.87-5.568-2.784-5.636-2.648-5.772-2.513-5.84-2.309-5.976-2.173-5.975-1.969-6.111-1.833-6.18-1.63-6.179-1.426-6.315-1.29-6.383-1.087-6.45-.882-6.451-.679-6.52-.476-6.586-.339-6.655-.068c-118.491 0-214.303 95.948-214.303 214.236 0 118.221 95.812 214.236 214.304 214.236 118.288 0 214.168-96.016 214.168-214.236 0-68.719-32.322-129.968-82.707-169.148" fill="#00295a" stroke="#c6a400" stroke-linecap="square" stroke-miterlimit="10.433" stroke-width=".002"/><g fill="#b19100"><path d="m442.82 351.082-.339.137-.407.067-.476.136-.543.137-.544.203-.679.203-.679.204-.747.204-.815.203-.815.204-.883.204-.951.203-.95.203-.95.205-1.019.203-1.02.203-1.019.137-1.086.135-1.019.137-1.086.067-1.087.068h-2.173l-1.087-.068-1.086-.067-1.019-.137-1.087-.203-1.018-.203-1.019-.272-.95-.34-.951-.408-.95-.407c-23.767-12.63-28.045-11.747-32.865-12.833-5.228-1.291-14.871-2.037-32.866 3.87-17.994 5.771-17.451-2.037-17.451-2.037 0-1.833.951-8.895-2.24-8.895-5.568-.203-2.988-4.277-2.988-4.277l-.339-.951c-4.278-.747-1.834-4.414-1.834-4.414-.95-6.518-3.191-3.734-6.179-5.771-2.921-1.834-3.871-5.229-1.291-8.148 7.063-7.809 3.328-13.92 3.328-13.92-6.111-31.236 58.329-50.521 81.552-73.744 23.224-23.155-2.987-42.304-2.987-42.304s2.037 21.322-25.057 36.192c-27.094 14.871-50.724 33.273-56.836 36.057-4.82 2.173-15.957 14.463-15.957 21.322 0 0-5.229 17.994-3.87 21.118 1.223 3.396 2.58 7.266 0 10.457l-6.587 6.994s-4.414 2.104 0 6.518c0 0 6.587 0 7.81 1.901 1.357 2.037-1.088 5.568 2.036 8.692 1.561 1.493-.136 1.697.611 4.277.544 2.58 0 2.58 3.735 5.771 3.87 3.124 1.222 3.124.678 5.704-.678 2.648-4.413 11.001 10.255 13.038 14.87 1.833 28.044-3.735 32.321-3.328 22.477 2.58 25.804 6.451 30.285 11.68 4.414 5.16 36.193 20.575 52.897-.747 16.707-21.184 12.293-13.58 12.293-13.58z"/><path d="m442.82 351.082-.339.137-.407.067-.476.136-.543.137-.544.203-.679.203-.679.204-.747.204-.815.203-.815.204-.883.204-.951.203-.95.203-.95.205-1.019.203-1.02.203-1.019.137-1.086.135-1.019.137-1.086.067-1.087.068h-2.173l-1.087-.068-1.086-.067-1.019-.137-1.087-.203-1.018-.203-1.019-.272-.95-.34-.951-.408-.95-.407c-23.767-12.63-28.045-11.747-32.865-12.833-5.228-1.291-14.871-2.037-32.866 3.87-17.994 5.771-17.451-2.037-17.451-2.037 0-1.833.951-8.895-2.24-8.895-5.568-.203-2.988-4.277-2.988-4.277l-.339-.951c-4.278-.747-1.834-4.414-1.834-4.414-.95-6.518-3.191-3.734-6.179-5.771-2.921-1.834-3.871-5.229-1.291-8.148 7.063-7.809 3.328-13.92 3.328-13.92-6.111-31.236 58.329-50.521 81.552-73.744 23.224-23.155-2.987-42.304-2.987-42.304s2.037 21.322-25.057 36.192c-27.094 14.871-50.724 33.273-56.836 36.057-4.82 2.173-15.957 14.463-15.957 21.322 0 0-5.229 17.994-3.87 21.118 1.223 3.396 2.58 7.266 0 10.457l-6.587 6.994s-4.414 2.104 0 6.518c0 0 6.587 0 7.81 1.901 1.357 2.037-1.088 5.568 2.036 8.692 1.561 1.493-.136 1.697.611 4.277.544 2.58 0 2.58 3.735 5.771 3.87 3.124 1.222 3.124.678 5.704-.678 2.648-4.413 11.001 10.255 13.038 14.87 1.833 28.044-3.735 32.321-3.328 22.477 2.58 25.804 6.451 30.285 11.68 4.414 5.16 36.193 20.575 52.897-.747 16.707-21.184 12.293-13.58 12.293-13.58zm-153.597-335.037 5.16-5.228 5.228 5.228zm-75.238 250.565v.544l-.068.408-.068.543-.068.611-.136.679-.136.679-.204.815-.272.883-.339.883-.339.951-.476.951-.475.951-.611.951-.679 1.019-.747.951-.883.95-.476.476-.475.407-.544.476-.543.407-.544.408-.611.407-.611.407-.679.408-.679.339-.747.34-.747.339-.747.272-.814.339-.883.272-.883.204-.883.204-1.019.204-.951.136-1.019.136-1.086.136-1.086.068-1.154.068h-2.445l-1.222-.068-1.358-.068-1.358-.136-1.358-.204c-30.285-3.87-68.379-6.043-57.446 24.717 5.228-13.717 35.514-5.772 57.243-2.037 16.365 0 20.235.543 31.168-3.734 35.649-23.766 4.685-64.373 60.57-99.479 41.625-30.624 86.713-55.341 132.412-86.509 48.823-41.014 9.303-57.039 9.303-57.039s10.729 23.427-26.754 44.205c-52.965 41.761-124.604 73.54-151.018 100.09-5.161 5.772-14.871 14.871-16.705 31.167z"/><path d="m213.985 266.61v.544l-.068.408-.068.543-.068.611-.136.679-.136.679-.204.815-.272.883-.339.883-.339.951-.476.951-.475.951-.611.951-.679 1.019-.747.951-.883.95-.476.476-.475.407-.544.476-.543.407-.544.408-.611.407-.611.407-.679.408-.679.339-.747.34-.747.339-.747.272-.814.339-.883.272-.883.204-.883.204-1.019.204-.951.136-1.019.136-1.086.136-1.086.068-1.154.068h-2.445l-1.222-.068-1.358-.068-1.358-.136-1.358-.204c-30.285-3.87-68.379-6.043-57.446 24.717 5.228-13.717 35.514-5.772 57.243-2.037 16.365 0 20.235.543 31.168-3.734 35.649-23.766 4.685-64.373 60.57-99.479 41.625-30.624 86.713-55.341 132.412-86.509 48.823-41.014 9.303-57.039 9.303-57.039s10.729 23.427-26.754 44.205c-52.965 41.761-124.604 73.54-151.018 100.09-5.161 5.772-14.871 14.871-16.705 31.167zm-85.219 48.687 7.266 2.648 7.062 2.784 6.926 2.784 6.791 2.784 6.654 2.852 6.587 2.92 12.902 5.976 12.901 6.111 6.451 3.123 6.586 3.192 6.587 3.259 6.722 3.26 6.858 3.327 6.994 3.396c11.34 5.568 39.045 22.883 37.754 39.045-7.062 13.513-18.402 15.006-26.007 21.525-12.63 10.729-10.39 15.55-7.81 30.557 4.482 16.229 19.692 16.907 25.804 18.063-11.136 9.234-27.297 13.716-41.625 7.944-12.766-9.1-17.451-17.384-12.019-34.291 5.568-14.464 19.149-17.248 30.421-29.335 13.784-26.754-35.989-41.014-42.712-47.939-18.198-7.742-81.484-51.064-110.683-36.736.002-.001-3.665-26.959 39.59-17.249z"/><path d="m128.766 315.297 7.266 2.648 7.062 2.784 6.926 2.784 6.791 2.784 6.654 2.852 6.587 2.92 12.902 5.976 12.901 6.111 6.451 3.123 6.586 3.192 6.587 3.259 6.722 3.26 6.858 3.327 6.994 3.396c11.34 5.568 39.045 22.883 37.754 39.045-7.062 13.513-18.402 15.006-26.007 21.525-12.63 10.729-10.39 15.55-7.81 30.557 4.482 16.229 19.692 16.907 25.804 18.063-11.136 9.234-27.297 13.716-41.625 7.944-12.766-9.1-17.451-17.384-12.019-34.291 5.568-14.464 19.149-17.248 30.421-29.335 13.784-26.754-35.989-41.014-42.712-47.939-18.198-7.742-81.484-51.064-110.683-36.736.002-.001-3.665-26.959 39.59-17.249z"/><path d="m318.014 444.519-1.087 1.154-1.086 1.086-1.155 1.087-1.153.95-1.223.951-1.223.883-1.29.814-1.222.815-1.358.68-1.29.679-1.358.611-1.426.543-1.426.476-1.426.407-1.427.407-1.493.272-1.494.204-1.494.204-1.561.136h-3.124l-1.629-.068-1.629-.136-1.63-.204-1.63-.271-1.697-.339-1.698-.476-1.697-.476-1.698-.543-1.697-.611-1.766-.679-1.766-.747c0-.204-15.414-7.809-5.364-31.235 12.63-18.334 41.218-16.705 44.409-38.977-8.556-29.131-57.242 4.48-49.569-28.588-2.648-5.229-5.976-4.278-6.519-7.266-.543-2.037 2.241-3.328.747-5.025 0 0-3.327-2.783-3.531-4.82 1.29-2.377 1.63-5.908 1.63-8.896-13.717-2.783-13.92-7.266-7.402-13.512 2.988-5.025 15.075-15.619 10.05-22.885l-2.037-2.987c5.161-86.849 104.912-90.583 149.999-147.555l2.648-12.97c8.691 1.833 10.186 11.272 12.97 17.995-2.377 23.019-23.224 28.927-38.842 41.557-29.47 29.945-88.749 39.18-98.799 85.966-8.692 9.507-4.957 16.501-3.124 23.223.543 2.581.543 3.531 0 5.908.407-2.58-3.735 5.771-9.643 16.161-.747 3.191 7.063 3.735 8.895 5.567 1.697 2.988-.204 4.685.951 8.557 0 3.871 2.581.203 3.87 3.871-.203 1.154-1.629-.137-.543 4.142 4.482 2.92 3.124 4.957 4.074 8.353-1.833 5.567 1.29 7.74 1.29 8.691 2.58 13.92 61.316-6.52 48.686 32.322-17.655 16.161-52.218 9.846-46.785 41.421 9.846 14.666 18.538 10.524 28.792 13.173zm-13.037-427.931 5.567-4.82 4.821 5.364zm15.821 1.495 5.771-4.482 4.414 5.568zm15.618 2.376 5.907-4.278 4.279 5.976zm15.414 3.328 6.111-3.871 3.87 6.111zm15.21 4.142 6.315-3.396 3.532 6.315zm14.803 4.957 6.722-2.92 3.124 6.451zm14.667 5.975 6.926-2.58 2.581 6.654zm14.328 6.858 6.858-2.376 2.242 6.994zm13.784 7.605 6.995-2.036 1.901 7.062zm13.378 8.353 7.197-1.494 1.494 7.062zm12.969 9.099 7.062-1.154 1.087 7.265zm12.222 9.846 7.267-.543.543 7.197zm11.748 10.593 7.198-.204.204 7.266zm11.136 11.136 7.198.136-.135 7.469zm10.39 11.883 7.265.747-.747 7.198zm9.642 12.427 7.266 1.086-1.154 7.266zm8.895 12.969 7.267 1.494-1.495 7.062zm8.217 13.581 7.062 1.833-1.901 7.062zm7.401 13.92 7.063 2.241-2.446 6.859zm6.723 14.328 6.654 2.58-2.58 6.859zm5.704 14.667 6.518 3.124-2.987 6.519zm4.821 15.007 6.383 3.327-3.396 6.519zm3.938 15.21 6.315 3.939-3.87 6.111zm3.124 15.414 5.975 4.278-4.074 5.976zm2.241 15.619 5.771 4.617-4.685 5.772zm1.358 15.753 5.365 4.821-4.822 5.365zm.339 15.754 5.026 5.228-5.026 5.026zm-.611 15.821 4.889 5.364-5.432 4.822zm-1.426 15.55 4.482 5.771-5.772 4.686zm-2.444 15.618 4.277 6.111-5.976 4.142zm-3.327 15.414 3.87 6.316-6.112 3.937zm-4.075 15.21 3.531 6.52-6.519 3.531zm-5.025 15.075 2.988 6.519-6.518 3.123zm-5.976 14.667 2.785 6.655-6.859 2.784zm-6.654 14.124 2.241 7.062-6.927 2.174zm-7.605 13.92 1.834 7.063-7.063 1.833zm-8.352 13.378 1.493 6.993-7.061 1.699zm-9.1 12.766 1.087 7.265-7.198 1.087zm-9.845 12.426.543 7.266-7.266.543zm-10.593 11.679.203 7.266-7.266.204zm-11.137 11.137-.204 7.266-7.266-.205zm-11.883 10.457-.544 7.197-7.265-.543zm-12.426 9.643-.951 7.197-7.266-1.086zm-13.037 9.098-1.291 7.063-7.265-1.494zm-13.377 8.149-1.834 7.062-7.062-1.834zm-13.921 7.401-2.241 6.927-7.062-2.241zm-14.327 6.519-2.785 6.858-6.654-2.784zm-14.668 5.772-3.124 6.654-6.518-3.124zm-15.006 5.024-3.532 6.316-6.315-3.396zm-15.211 3.871-3.939 6.315-6.111-3.87zm-15.414 3.192-4.279 5.907-5.975-4.074zm-15.822 2.173-4.414 5.771-5.84-4.414zm-15.618 1.357-4.821 5.366-5.567-4.822zm-15.754.34-5.228 5.229-5.16-5.229zm-15.821-.543-5.364 4.821-4.822-5.364zm-15.753-1.29-5.569 4.413-4.617-5.703zm-15.415-2.444-6.111 4.074-4.074-5.908zm-15.618-3.328-6.111 3.871-3.871-6.112zm-15.21-4.075-6.315 3.532-3.531-6.519zm-14.871-5.024-6.654 3.123-2.988-6.654zm-14.667-5.976-6.654 2.785-2.785-6.655zm-14.26-6.654-6.926 2.444-2.241-7.062zm-13.784-7.401-7.063 1.833-1.833-7.062zm-13.378-8.353-7.197 1.426-1.494-7.197zm-12.969-9.099-7.266 1.087-.883-7.266zm-12.291-9.846-7.198.543-.747-7.266zm-11.679-10.593-7.402.204-.203-7.266zm-11.136-11.137-7.402-.203.136-7.198zm-10.593-11.882-7.198-.543.679-7.266zm-9.643-12.426-7.265-.951 1.154-7.199zm-8.895-12.834-7.266-1.494 1.426-7.199zm-8.352-13.513-7.13-1.901 1.901-7.063zm-7.47-13.921-6.858-2.24 2.241-6.858zm-6.654-14.327-6.723-2.58 2.58-6.859zm-5.772-14.668-6.519-2.987 2.988-6.655zm-4.821-14.871-6.519-3.53 3.531-6.451zm-4.142-15.414-6.111-3.666 3.734-6.18zm-3.123-15.414-5.908-4.074 4.074-5.908zm-2.242-15.55-5.771-4.481 4.685-5.772zm-1.29-15.618-5.364-4.82 4.821-5.569zm-.339-15.753-5.229-5.229 5.229-5.229zm.543-15.822-5.025-5.365 5.568-5.024zm1.29-15.754-4.481-5.568 5.567-4.617zm2.377-15.617-4.21-5.908 5.907-4.074zm3.191-15.414-3.87-6.112 6.315-3.87zm4.074-15.211-3.531-6.315 6.519-3.531zm5.025-14.871-3.192-6.654 6.724-3.124zm5.908-14.667-2.784-6.858 6.723-2.581zm6.722-14.26-2.444-6.858 6.926-2.445zm7.47-13.92-1.901-7.062 7.061-1.834zm8.352-13.377-1.494-7.062 7.062-1.494zm9.099-12.834-1.155-7.198 7.267-1.154zm9.778-12.426-.679-7.266 7.198-.679zm10.457-11.68-.204-7.265 7.267-.34zm11.137-11.136.135-7.266 7.47.204zm11.883-10.389.543-7.402 7.266.679zm12.426-9.847.95-7.265 7.199 1.154zm12.834-9.098 1.493-7.063 7.199 1.494zm13.512-8.217 1.902-6.994 6.994 1.833zm13.921-7.401 2.241-6.859 6.926 2.241zm14.328-6.655 2.58-6.654 6.723 2.58zm14.463-5.772 3.192-6.654 6.654 3.124zm15.075-5.025 3.531-6.315 6.315 3.396zm15.21-4.074 3.939-6.111 6.111 3.734zm15.415-3.123 4.277-5.976 5.976 4.074zm15.617-2.241 4.618-5.772 5.772 4.481zm15.754-1.291 4.821-5.567 5.433 4.821zm-72.929 478.043-.747 1.29c-3.191-1.629-4.278-.95-6.858 3.531l-8.963 15.754c-2.377 4.481-2.377 5.975.747 7.808l-.747 1.29-11.136-6.111c-3.327-2.037-6.654-4.074-9.099-8.896-2.241-4.82-1.494-10.05 1.086-14.667 5.433-9.846 15.278-11.543 24.717-6.179zm-11.543 2.581.204-.408.204-.407.204-.34.204-.407.136-.339.136-.34.136-.271.136-.34.068-.272.136-.271.068-.272v-.271l.068-.272v-.882l-.068-.204-.068-.204-.068-.203-.136-.204-.068-.136-.136-.204-.204-.203-.136-.136-.204-.204-.204-.136-.204-.203-.271-.137-.271-.203-.272-.136-.339-.204c-8.149-4.617-14.463.543-18.538 7.81-4.074 7.266-4.889 14.667 3.531 19.148 3.463 2.037 4.482 1.426 6.858-2.784zm-45.292-26.144 1.086.679c-3.734 4.686-.747 7.47 2.241 9.507l1.494 1.154 6.655-8.42c2.241-2.92 2.444-4.074-.951-6.654-5.908-4.617-8.148-3.871-15.414-2.241l-.543-1.086 8.013-4.821 19.692 15.346-.951 1.154c-2.988-2.24-4.074-1.697-7.266 2.377l-11.272 14.328c-2.988 4.074-3.395 5.364-.407 7.605l-.951 1.291-19.081-14.871 2.241-8.353 1.291.204c0 6.858.204 9.099 5.568 13.173 3.667 2.988 4.278 2.58 7.062-.883l5.364-6.926-1.494-1.223c-3.531-2.648-6.315-3.939-9.643 0l-.951-.95zm-17.112-19.692.339-.339.339-.272.272-.34.271-.272.271-.271.271-.272.204-.272.204-.271.204-.203.204-.272.136-.204.136-.271.136-.204.068-.203.068-.204.068-.204.068-.203v-.815l-.068-.203-.068-.272-.068-.204-.136-.204-.136-.203-.136-.204-.136-.271-.204-.203-.204-.273-.204-.203-.204-.271.883-1.154 9.303 9.71-1.087 1.086c-2.648-2.783-3.938-2.444-7.605 1.291l-13.038 12.63c-3.735 3.531-4.278 4.821-1.494 7.605l-1.086.95-11.34-11.544c-3.735-3.87-5.229-9.506-.747-13.716 5.229-5.025 11.34-1.494 15.958 3.327l2.784 2.987zm-6.858 6.655-1.29-1.29c-4.074-4.278-8.353-7.063-13.241-2.445-3.667 3.6-2.716 7.47.611 10.797 2.92 3.191 4.414 1.901 7.198-.747zm-41.625-23.019 15.618-21.525c1.087-1.494 3.531-4.821 3.871-6.518.407-1.291 0-2.173-.543-3.328l1.155-.882 7.944 11.136-1.086.883c-1.154-1.087-2.444-3.87-4.481-2.377-.543.34-1.494 1.63-1.833 2.377l-3.531 4.821 6.858 9.71 1.698-.611c1.426-.339 5.161-1.493 6.315-2.173 1.834-1.357.747-3.531-.407-5.024l1.29-.951 6.926 9.642-1.358.95c-2.173-3.327-6.111-2.037-9.439-1.154l-25.464 8.013zm5.975-.34 15.754-4.821-6.111-8.556zm-6.722-36.193 7.809-3.939c4.481-2.377 5.229-3.531 3.531-6.654l1.494-.747 5.976 11.68-1.358.746c-1.629-3.327-2.92-3.327-7.605-.95l-16.161 8.217c-3.327 1.833-5.704 2.783-3.667 6.858l-1.494.747-6.179-12.29c-2.581-4.821-4.074-11.883 1.901-14.803 4.278-2.241 9.099.135 11.543 3.87l6.994-10.593c1.901-2.988 3.191-3.871 1.29-7.266l1.358-.68 3.531 6.858-10.457 15.958zm-1.29.748-1.086-2.241c-1.834-4.278-6.315-7.809-11.136-5.433-4.142 2.241-4.278 6.927-2.445 10.594 1.901 3.53 3.191 2.784 6.315 1.29zm-7.062-42.916.475-.135.408-.204.407-.136.339-.136.408-.136.271-.137.339-.135.272-.137.271-.203.271-.136.204-.136.204-.136.204-.136.204-.204.136-.136.136-.203.136-.204.068-.136.068-.204.068-.204.068-.271.068-.203v-.746l-.068-.272-.068-.272v-.339l-.136-.339-.068-.34-.068-.34-.136-.407 1.494-.34 4.414 13.581-1.426.543c-1.291-4.074-2.648-4.277-7.605-2.784l-18.402 5.907c-2.241.748-5.229 1.154-4.142 4.074 1.358 4.482 5.976 7.063 10.457 7.81l-.204 1.29-9.099-.543-8.148-25.397 6.994-5.771.951.951c-3.124 3.123-5.364 7.944-3.871 12.426.883 2.988 3.327 1.63 5.568.883zm-8.692-54.798h.476l.407-.067.408-.068.407-.068.339-.067.408-.067.271-.068.339-.068.272-.067.271-.067.271-.137.271-.067.204-.136.204-.068.136-.136.204-.136.136-.136.136-.136.136-.203.136-.137.068-.203.068-.204.068-.207.068-.203.068-.204v-.543l.068-.271v-.272l-.068-.339v-.678l1.426-.137 1.494 13.377-1.494.137c-.339-3.667-1.629-4.278-6.858-3.667l-22.272 2.376v.204l31.372 8.148.204 1.698-29.131 14.667v.204l22.612-2.445c5.025-.543 6.111-1.29 5.772-5.025l1.698-.203 1.086 10.797-1.494.203c-.543-3.734-1.629-4.277-6.858-3.734l-17.995 2.037c-5.229.543-6.315 1.291-5.976 5.025l-1.494.203-1.086-10.049 25.804-12.971-28.044-7.266-1.154-10.049 1.698-.137c.407 3.667 1.697 4.278 6.654 3.667zm-2.648-33.409v1.358c-5.908-.408-6.451 3.463-6.247 7.198l-.204 1.833 10.729.543c3.735.272 4.685-.136 4.889-4.414.339-7.605-1.494-9.099-7.13-13.92l.611-1.086 8.556 3.871-1.154 24.853-1.494-.204c.204-3.667-.883-4.21-6.111-4.617l-18.198-.747c-5.229-.136-6.315.407-6.519 4.142l-1.698-.204 1.154-24.174 8.148-2.92.544 1.29c-5.5 3.735-7.198 5.161-7.606 12.019-.136 4.685.544 5.025 5.025 5.228l8.76.34v-1.833c.339-4.414-.34-7.401-5.433-8.013v-1.222zm8.759-42.1-16.908-3.531c-5.025-1.154-6.519-.747-7.198 2.784l-1.494-.204 2.173-10.593 1.494.408c-.747 3.531.407 4.413 5.432 5.364l25.6 5.365-.339 1.494-31.779 13.92 19.896 4.278c4.957.951 6.247.747 7.062-2.988l1.63.407-2.241 10.593-1.494-.408c.747-3.734-.339-4.414-5.364-5.568l-17.791-3.667c-5.093-1.154-6.383-.747-7.062 2.92l-1.697-.339 1.697-7.809zm10.933-28.995.476.204.407.136.339.204.408.136.339.136.339.136.34.068.339.136.271.068.272.068h.271l.271.068h.747l.204-.068.204-.068.204-.068.204-.068.204-.136.204-.136.136-.136.204-.204.204-.204.136-.204.136-.204.204-.271.136-.271.136-.271.204-.34.136-.339.136-.408 1.29.747-5.364 13.173-1.494-.747c1.698-3.871.747-4.821-4.074-6.858l-17.858-7.402c-2.173-.951-4.414-2.648-5.704.34-1.901 4.278 0 9.303 2.92 12.63l-.883.951-6.723-6.315 10.254-24.717 9.303.408v1.086c-4.482.407-9.303 2.784-11.204 7.062-1.086 2.784 1.697 3.327 3.938 4.278l17.788 7.4zm29.198-39.724-.543.679-.543.679-.611.611-.611.544-.611.543-.679.476-.679.407-.679.407-.679.272-.747.339-.679.204-.747.204-.747.204-.814.136-.747.068-.747.068h-.816l-.747-.068-.815-.068-.747-.068-.815-.136-.747-.204-.747-.204-.815-.204-.747-.271-.747-.339-.747-.34-.747-.339-.679-.408-.747-.407-.679-.476-.679-.475c-7.198-4.957-10.932-14.667-5.364-22.408 5.772-7.809 16.161-6.926 23.223-1.698 7.402 5.228 10.797 14.464 5.025 22.272zm-19.895-2.58.476.339.475.339.476.34.543.339.543.339.543.272.611.339.611.339.611.272.611.272.679.271.611.272.679.204.679.204.611.204.679.136.679.136.679.136.679.068h1.29l.611-.068.611-.068.611-.136.611-.204.543-.204.271-.136.339-.136.204-.136.271-.204.271-.204.271-.136.272-.272.204-.204.271-.271.204-.204.204-.271.204-.34c4.685-6.451-2.241-13.716-7.198-17.248-5.025-3.531-14.124-7.809-18.606-1.494-4.41 6.318 2.244 13.788 7.066 17.115zm35.31-28.248.271.339.34.34.271.271.339.271.271.271.272.272.271.204.204.204.271.204.272.136.204.136.271.136.204.068.204.136.271.068h.204l.204.068h.476l.204-.068.204-.068.271-.068.204-.068.271-.136.204-.136.271-.136.272-.204.271-.136.271-.204.271-.271.272-.204.339-.271 1.086 1.087-10.185 9.643-1.086-1.086c2.581-2.648 2.376-3.938-1.358-7.605l-12.427-13.173c-3.531-3.735-4.821-4.142-7.605-1.698l-1.086-1.086 17.79-16.908 7.809 3.666-.339 1.29c-6.723-1.087-9.303-1.087-14.532 3.938-2.987 2.784-2.037 4.278 1.155 7.605l5.568 5.568 1.29-1.29c3.124-2.988 4.821-5.568 1.494-9.506l.883-.883 9.303 9.642-.951.951c-4.074-4.278-7.198-1.697-9.643.883l-1.494 1.291zm39.723-46.243-3.938-6.451c-2.58-4.481-3.667-5.229-6.858-3.191l-.747-1.494 11.34-6.654.747 1.29c-3.191 1.833-3.191 3.395-.34 7.605l9.235 15.618c2.648 4.414 3.938 5.161 7.062 3.124l.815 1.29-11.408 6.926-.747-1.358c3.191-1.834 2.988-3.123.408-7.605l-4.482-7.198-12.223 7.402 4.278 7.266c2.784 4.414 3.871 5.161 7.062 3.123l.679 1.494-11.272 6.655-.747-1.291c3.123-1.833 2.988-3.123.34-7.605l-9.235-15.55c-2.852-4.482-3.938-5.229-7.062-3.191l-.747-1.426 11.272-6.722.747 1.29c-3.124 1.834-2.92 3.327-.34 7.605l3.871 6.519zm38.637-12.019-1.29.544c-2.241-5.568-5.976-4.278-9.303-2.581l-1.833.543 4.278 9.982c1.29 3.395 2.377 3.938 6.315 2.309 7.062-3.056 7.198-5.093 9.235-12.155h1.358l.136 9.507-23.02 9.438-.543-1.29c3.327-1.494 3.531-2.716 1.494-7.605l-6.926-16.84c-2.037-4.685-3.123-5.568-6.451-4.142l-.543-1.426 22.477-9.303 5.907 6.111-.747 1.154c-5.908-3.599-7.945-4.482-14.26-1.901-4.278 1.901-4.278 2.581-2.648 6.858l3.395 8.013 1.834-.747c3.871-1.698 6.315-3.531 4.821-8.352l1.086-.407zm25.057-33.612 15.075 21.865c1.086 1.562 2.92 5.093 4.617 6.179.951.544 2.037.544 3.124.339l.611 1.494-13.241 3.734-.339-1.494c1.494-.543 4.481-.951 3.734-3.191-.204-.679-1.154-1.969-1.494-2.784l-3.327-4.821-11.544 3.191v1.833c-.204 1.291-.543 5.229-.204 6.519.611 2.173 3.191 1.834 5.025 1.494l.407 1.494-11.544 3.124-.339-1.494c3.87-1.086 4.074-5.229 4.074-8.556l1.494-26.686zm-1.697 5.772-.679 16.093 9.982-2.784zm55.205 10.593-1.698 8.895-23.767 3.871-.204-1.494c3.735-.543 4.074-1.833 3.396-6.994l-2.988-17.859c-.747-5.025-1.698-6.315-5.433-5.568l-.136-1.494 13.173-2.241.339 1.494c-3.87.543-4.278 2.037-3.531 7.062l3.191 18.742c.543 4.074 1.494 5.229 5.908 4.481 6.111-1.154 8.216-3.531 10.389-9.303zm20.982 1.63-.067.271v1.901l.067.34v.678l.067.34.068.271.068.271.068.204.067.272.067.204.136.204.068.204.136.136.136.204.204.136.135.136.204.068.204.136.203.068.271.136.204.068.272.068.339.068h.272l.34.067h.339l.408.068h.34v1.494l-14.328-.407v-1.494c4.277 0 5.024-1.086 5.228-6.247l.543-19.353c.204-2.376.747-5.161-2.377-5.161-4.685-.204-8.759 3.123-10.796 7.062l-1.291-.611 3.667-8.352 26.822.951 2.92 8.556-1.086.543c-1.834-4.074-5.771-7.605-10.39-8.013-3.191 0-2.784 2.784-2.784 5.228zm44.545-4.821 1.494-7.402c.95-5.025.543-6.315-2.988-7.062l.408-1.494 12.969 2.444-.339 1.63c-3.734-.747-4.482.407-5.568 5.364l-3.531 17.859c-.95 4.957-.611 6.315 3.124 7.062l-.204 1.494-13.173-2.648.407-1.494c3.531.815 4.482-.339 5.364-5.364l1.698-8.352-14.124-2.784-1.698 8.352c-1.086 5.025-.543 6.315 2.987 7.062l-.339 1.494-13.038-2.377.408-1.698c3.53.747 4.413-.204 5.364-5.364l3.531-17.859c1.086-5.024.746-6.315-2.988-7.062l.408-1.494 12.969 2.648-.339 1.494c-3.531-.747-4.482.339-5.433 5.364l-1.494 7.402zm42.508 14.87v-.951l.067-.407v-1.359l.068-.475v-.408l.068-.475.067-.407.136-.476.068-.407.067-.204.068-.204.068-.204.067-.271.136-.204.067-.204.068-.204.136-.204c2.241-4.481 6.858-5.908 11.34-3.734 3.124 1.494 5.568 5.229 3.87 8.556-2.037 3.939-8.148 3.667-12.086 3.667.407 5.568.543 11 1.901 16.161 2.919-1.494 5.567-3.667 6.994-6.654 1.357-2.445-.34-3.667-2.581-4.821l.747-1.087 10.594 5.161-.544 1.29c-3.327-1.494-4.074-.747-6.519 1.494-2.377 2.241-5.161 4.617-8.353 6.179.34 1.63 1.697 3.667 3.191 4.414 1.834.883 3.871.543 5.704.34l.204 1.154c-2.988 1.086-6.52 1.494-9.439.136-2.241-1.086-2.988-2.784-3.938-4.957-3.327.136-6.315-.204-9.303-1.698-4.618-2.173-14.057-5.025-6.112-12.97 3.396-3.327 6.858-5.024 11.001-5.364zm-7.741 5.568-.203.408-.204.407-.136.408-.136.475-.136.408-.068.407-.067.476-.068.475v1.29l.068.476.067.475.068.407.136.476.067.407.137.408.203.407.136.408.204.407.203.407.272.408.271.339.272.408.271.339.272.339.34.272.339.272.407.339.34.204.407.272.408.204c1.833.747 3.87 1.29 5.772.747-1.29-5.568-1.901-11.34-2.037-17.315-3.191-.341-6.179 1.153-7.605 4.14zm20.779-8.759.067-.204.136-.204.068-.204.067-.204.068-.271.067-.204v-.204l.068-.272v-.204l.067-.271v-.408l-.067-.271v-.408l-.068-.272-.067-.204-.068-.204-.067-.204-.068-.204-.067-.204-.136-.204-.137-.204-.136-.204-.136-.204-.136-.136-.136-.204-.203-.136-.204-.136-.136-.136-.271-.136-.204-.136c-2.377-1.154-4.821.136-5.772 2.376-1.087 2.037-1.426 5.025-1.29 7.266 3.193.21 7.063.006 8.761-3.185zm64.44 56.836 5.025-5.772c3.531-3.735 3.87-5.025 1.087-7.401l.95-1.358 10.05 8.963-1.154 1.087c-2.784-2.58-4.074-2.037-7.401 1.901l-12.087 13.513c-3.531 3.938-3.734 5.229-.951 7.809l-1.086 1.086-9.846-8.895.95-1.086c2.784 2.376 4.074 2.037 7.401-1.901l5.772-6.315-10.797-9.643-5.704 6.315c-3.396 3.938-3.734 5.229-1.018 7.605l-1.086 1.154-9.847-8.76 1.154-1.086c2.58 2.377 3.87 2.037 7.401-1.901l12.087-13.716c3.327-3.735 3.734-5.161.951-7.605l.883-1.087 10.05 8.692-1.087 1.29c-2.648-2.376-4.074-2.037-7.47 1.901l-5.024 5.568zm35.31 30.42.136-.136.204-.136.34-.272.339-.204.34-.271.272-.271.271-.204.272-.204.204-.271.203-.204.204-.204.204-.204.136-.204.136-.204.136-.204.067-.204.136-.204v-.204l.068-.204.067-.136v-.408l-.067-.204v-.204l-.068-.204-.067-.204-.068-.272-.136-.204-.136-.204-.136-.271-.136-.204-.136-.272-.204-.271 1.29-.883 6.315 8.488-1.29.951c-2.241-2.988-3.531-2.784-7.81.204l-11.543 8.556c-6.654 4.821-12.019 4.074-16.841-2.648-4.277-5.704-3.938-11.679 1.834-15.957l12.63-9.099c4.074-2.988 4.821-4.278 2.784-7.062l1.29-.883 7.605 10.525-1.086.951c-2.445-3.124-3.735-2.784-7.81.204l-10.593 7.605c-5.025 3.531-8.691 7.809-4.481 13.716 4.481 6.315 9.71 3.531 14.871-.136zm8.488 55.545-.204.068-.204.136-.203.068-.203.136-.204.068-.204.136-.203.068-.204.068-.34.204-.339.204-.272.136-.272.204-.271.204-.203.136-.271.204-.204.136-.136.204-.204.204-.136.136-.067.204-.136.204-.068.136-.068.204v.204l-.067.204v.679l.067.204.068.272.068.204.067.271.136.271.136.272.136.339.136.271-1.493.543-5.568-12.019 1.29-.747c1.698 3.531 2.987 3.531 7.605 1.494l20.438-9.506v-.204l-32.458 2.241-.746-1.494 23.019-23.155v-.204l-20.643 9.439c-4.617 2.241-5.568 3.395-3.87 6.723l-1.494.543-4.481-9.846 1.29-.543c1.697 3.327 2.987 3.531 7.605 1.29l16.568-7.605c4.617-2.241 5.568-3.192 3.87-6.723l1.494-.544 4.074 9.1-20.235 20.439 28.791-2.037 4.278 9.303-1.29.543c-1.698-3.327-2.988-3.531-7.605-1.29zm35.106 21.186-22.068 14.803c-1.697 1.154-5.024 3.327-5.976 4.821-.747 1.154-.747 2.241-.543 3.395l-1.494.339-3.531-13.173 1.494-.407c.544 1.494.747 4.481 3.124 3.938.815-.408 2.105-1.154 2.648-1.698l5.024-3.327-3.191-11.34-1.833-.204c-1.494 0-5.229-.34-6.52-.136-2.376.747-2.037 3.124-1.493 5.025l-1.494.34-3.124-11.476 1.494-.407c1.086 3.871 5.161 4.074 8.488 4.278l26.754 1.291zm-5.772-1.697-16.5-.951 2.784 10.253zm-12.425 54.187 17.451-1.698c5.024-.339 6.314-1.086 5.975-4.753l1.427-.204.95 10.728-1.494.204c-.339-3.734-1.629-4.278-6.654-3.734l-26.007 2.444-.204-1.494 26.211-22.884-20.235 2.105c-5.024.543-6.314 1.086-5.975 4.957v-.136l-1.426.136-1.154-10.729 1.697-.204c.34 3.735 1.494 4.278 6.655 3.871l18.198-1.766c5.024-.611 6.111-1.358 5.771-5.025h1.63l.747 7.945zm14.124 51.403-.544-1.494c3.871-1.629 8.353-4.617 8.896-9.234.544-3.531-1.833-6.52-5.229-6.859-4.074-.61-6.315 3.531-7.605 6.451-2.58 5.568-4.821 11.34-12.019 10.39-5.975-.747-9.303-5.704-8.556-11.476.339-2.784 2.037-5.229 2.24-7.063.136-.95-.407-2.24-.95-2.987l9.303-2.241.543 1.494c-4.074 2.444-9.099 5.976-9.643 10.797-.407 3.531 1.494 7.063 5.365 7.605 10.593 1.289 7.605-18.199 20.031-16.705 5.772.747 8.76 5.161 8.013 10.933-.204 1.494-.544 2.241-1.154 3.531-.543 1.154-.679 1.494-.883 2.444 0 .883 0 1.834.543 2.377zm-21.934 26.754.407-1.29c5.772 1.697 7.063-2.037 7.809-5.568l.543-1.833-10.39-2.988c-3.53-.95-4.684-.746-5.771 3.328-2.037 7.4-.543 9.099 3.871 15.21l-.747.95-7.605-5.771 6.723-23.97 1.494.407c-1.155 3.531 0 4.481 4.82 5.908l17.587 4.889c4.89 1.29 6.315.883 7.266-2.648l1.494.543-6.519 23.427-8.352.951-.339-1.29c6.315-2.445 8.352-3.531 9.982-10.051 1.358-4.685.747-5.024-3.666-6.314l-8.353-2.24-.543 1.833c-1.154 4.142-1.154 7.266 3.463 8.963l-.34 1.087zm-3.53 26.754-7.945-3.531c-4.685-2.037-6.111-1.833-7.605 1.494l-1.358-.746 5.229-12.088 1.493.543c-1.493 3.397-.543 4.482 4.074 6.52l16.501 7.266c3.531 1.63 5.976 2.92 7.809-1.29l1.358.543-5.433 12.63c-2.24 4.957-6.654 10.594-12.766 7.945-4.277-2.037-5.568-7.198-4.277-11.477l-12.631 1.291c-3.53.34-5.024.203-6.519 3.734l-1.29-.747 3.123-7.061 18.945-2.037zm1.493.543-1.086 2.241c-2.037 4.074-2.037 9.847 2.784 12.087 4.277 1.63 8.148-1.154 9.846-4.821 1.494-3.53.204-4.278-3.191-5.771zm-35.242 25.601 28.181 7.673c2.037.543 3.531 1.086 4.821.543 1.154-.543 2.104-1.901 2.783-2.987l1.358.747-8.013 11.883-1.29-.951c.883-1.29 2.241-3.123.543-4.277-.95-.543-2.987-1.087-3.87-1.29l-19.353-5.161 10.389 14.057c.951 1.154 2.988 3.938 4.143 4.685 1.833 1.29 2.92-.747 4.074-2.037l1.29.883-6.519 9.711-1.29-.951c.543-1.086 1.29-2.037 1.086-3.327-.136-2.037-2.376-5.228-3.666-6.723l-15.415-21.118zm-12.833 29.945-.204-.204-.136-.136-.204-.136-.136-.136-.203-.136-.137-.136-.339-.271-.272-.204-.34-.203-.272-.204-.271-.204-.272-.136-.204-.136-.271-.136-.204-.067-.271-.136h-.203l-.204-.068-.204-.068h-.407l-.203.068h-.204l-.204.068-.203.067-.204.136-.203.068-.204.136-.136.136-.204.203-.203.136-.204.204-.272.271-.204.204-.203.271-1.29-.951 8.691-10.186 1.154.883c-2.444 2.784-1.901 4.074 2.037 7.47l13.92 11.68c3.871 3.327 5.161 3.734 7.605.747l1.29 1.086-8.691 10.254-1.154-1.154c2.444-2.784 1.833-4.074-2.037-7.401zm-16.501 42.101.543-1.087c4.074.543 10.186.543 13.377-2.58 5.568-5.229 1.29-12.834-2.987-17.315-4.617-4.821-13.377-8.896-19.15-3.531-3.53 3.531-3.53 8.217-2.376 12.834l-1.154.203c-2.038-5.636-1.494-11.883 2.987-16.161 6.518-6.315 15.958-5.024 21.934 1.291a22.358 22.358 0 0 1 5.567 11.34c.951 4.277.204 9.099-3.192 12.426-1.087 1.087-2.173 1.63-3.327 2.037-.883.544-1.833.883-2.58 1.698-.747.679-1.154 1.629-1.494 2.783zm-33.681 7.265 1.154-.747c3.531 4.821 6.858 2.58 9.643.339l1.63-1.086-6.247-8.76c-2.241-2.92-3.191-3.463-6.723-1.086-6.111 4.413-5.907 6.857-6.315 14.26l-1.086.407-2.444-9.303 20.1-14.464.95 1.154c-2.987 2.173-2.852 3.531.136 7.741l10.797 14.667c2.988 4.074 4.278 4.89 7.266 2.58l.883 1.358-19.692 14.26-7.401-4.617.543-1.154c6.52 1.901 8.692 2.444 14.26-1.63 3.938-2.784 3.6-3.531.951-7.266l-4.957-7.063-1.697 1.154c-3.531 2.581-5.433 4.957-2.784 9.235l-.951.747zm-26.55 32.866.95-1.154c3.734 2.037 8.692 4.074 12.834 1.901 3.124-1.698 4.277-5.229 2.58-8.42-1.833-3.464-6.518-2.92-9.846-2.174-5.907 1.087-12.087 2.377-15.414-4.074-2.784-5.228-.544-10.796 4.481-13.58 2.58-1.29 5.364-1.29 7.063-2.241.883-.543 1.63-1.63 1.833-2.58l7.266 6.518-.951 1.087c-4.277-1.834-10.049-3.871-14.327-1.494-3.124 1.697-4.821 5.229-3.124 8.76 5.228 9.438 19.285-4.278 25.261 6.654 2.58 5.229.747 10.185-4.278 12.97-1.29.747-2.24.747-3.734 1.154-1.086.204-1.494.204-2.377.543-.747.34-1.493 1.087-1.697 1.834zm-127.93 3.123.068-.475.136-.408.067-.407.068-.407.068-.407.068-.34v-.34l.068-.339v-1.425l-.068-.204-.068-.271-.068-.204-.068-.203-.067-.204-.136-.136-.068-.136-.136-.204-.136-.136-.204-.136-.136-.136-.204-.067-.204-.136-.204-.068-.272-.136-.271-.068-.272-.067-.272-.136-.271-.068.136-1.426 10.457 2.173-.204 1.494c-3.734-.747-4.685.407-5.568 5.433l-2.988 14.056c-1.698 8.013-6.315 11.136-14.328 9.507-6.858-1.494-10.729-6.111-9.235-13.174l3.124-15.414c1.154-4.821.747-6.314-2.581-7.061l.34-1.494 12.833 2.784-.339 1.493c-3.735-.746-4.686.34-5.568 5.365l-2.784 12.63c-1.358 6.111-1.358 11.68 5.907 13.173 7.47 1.698 9.506-3.87 10.797-9.981zm35.648.544-1.289.543c-2.445-3.463-5.976-7.605-10.594-7.401-3.53 0-6.111 2.784-6.111 6.111 0 4.074 4.414 5.568 7.605 6.518 5.977 1.833 11.883 3.327 12.087 10.593 0 5.908-4.482 10.05-10.253 10.05-2.987.136-5.568-1.154-7.401-1.154-.951 0-2.037.747-2.784 1.29l-3.531-8.896 1.494-.747c2.784 3.735 7.061 8.148 11.883 8.013 3.531 0 6.858-2.444 6.858-6.314-.204-10.797-19.149-5.025-19.285-17.451-.204-5.772 3.87-9.507 9.642-9.643 1.494 0 2.173.34 3.667.679 1.154.407 1.494.611 2.444.611s1.833-.407 2.377-.95zm23.768-11.68 11.34 23.97c.95 1.834 2.58 5.568 3.938 6.654.883.747 2.036.951 3.123.951l.204 1.494-13.581 1.629-.204-1.493c1.494-.34 4.482-.136 4.278-2.581-.136-.746-.747-2.24-1.086-2.987l-2.581-5.364-11.747 1.494-.34 1.697c-.407 1.494-1.29 5.16-1.086 6.451.136 2.444 2.58 2.444 4.617 2.24l.203 1.494-11.882 1.494-.272-1.698c3.939-.339 4.889-4.413 5.433-7.808l5.567-25.94zm-2.377 5.364-3.531 16.161 10.39-1.29zm39.383 3.735h.34l.203-.067h.136l.204-.068h.204l.136-.067.203-.068.136-.067.204-.068.136-.067.136-.136.136-.068.136-.068.136-.136.136-.136.137-.067.136-.136.067-.136.136-.136.068-.136.136-.204.067-.136.068-.136.067-.204.068-.136v-.203l.068-.137.067-.203v-.545c0-2.037-1.63-3.735-3.667-3.735-2.104 0-3.734 1.698-3.734 3.735s1.63 3.531 3.734 3.531z"/><path d="m357.397 520.231h.34l.203-.067h.136l.204-.068h.204l.136-.067.203-.068.136-.067.204-.068.136-.067.136-.136.136-.068.136-.068.136-.136.136-.136.137-.067.136-.136.067-.136.136-.136.068-.136.136-.204.067-.136.068-.136.067-.204.068-.136v-.203l.068-.137.067-.203v-.545c0-2.037-1.63-3.735-3.667-3.735-2.104 0-3.734 1.698-3.734 3.735s1.63 3.531 3.734 3.531zm-144.499 0h.34l.204-.067h.204l.136-.068h.204l.204-.067.136-.068.136-.067.204-.068.136-.067.136-.136.136-.068.136-.068.136-.136.136-.136.136-.067.136-.136.136-.136.068-.136.068-.136.136-.204.068-.136.068-.136.068-.204.068-.136.068-.203v-.137l.068-.203v-.545c0-2.037-1.63-3.735-3.667-3.735s-3.531 1.698-3.531 3.735 1.489 3.531 3.526 3.531z"/></g></svg>