<?xml version="1.0" encoding="utf-8"?>
<!-- Generator: Adobe Illustrator 24.1.1, SVG Export Plug-In . SVG Version: 6.00 Build 0)  -->
<svg version="1.1"
	 id="svg18447" inkscape:export-filename="/Users/lindberg/Projects/Wiki/seals/HHSSeal.png" inkscape:export-xdpi="90" inkscape:export-ydpi="90" inkscape:output_extension="org.inkscape.output.svg.inkscape" inkscape:version="0.45.1" sodipodi:docbase="/Users/lindberg/Projects/Wiki/seals" sodipodi:docname="HHSSeal.svg" sodipodi:version="0.32" xmlns:cc="http://web.resource.org/cc/" xmlns:dc="http://purl.org/dc/elements/1.1/" xmlns:inkscape="http://www.inkscape.org/namespaces/inkscape" xmlns:rdf="http://www.w3.org/1999/02/22-rdf-syntax-ns#" xmlns:sodipodi="http://sodipodi.sourceforge.net/DTD/sodipodi-0.dtd" xmlns:svg="http://www.w3.org/2000/svg"
	 xmlns="http://www.w3.org/2000/svg" xmlns:xlink="http://www.w3.org/1999/xlink" x="0px" y="0px" viewBox="0 0 576 576"
	 enable-background="new 0 0 576 576" xml:space="preserve">
<sodipodi:namedview  bordercolor="#666666" borderopacity="1.0" gridtolerance="10.0" guidetolerance="10.0" id="base" inkscape:current-layer="svg18447" inkscape:cx="336.47578" inkscape:cy="318.47619" inkscape:pageopacity="0.0" inkscape:pageshadow="2" inkscape:showpageshadow="false" inkscape:window-height="711" inkscape:window-width="878" inkscape:window-x="316" inkscape:window-y="22" inkscape:zoom="0.74246212" objecttolerance="10.0" pagecolor="#ffffff">
	</sodipodi:namedview>
<title  id="title18449">SVG drawing</title>
<desc  id="desc18451">This was produced by version 4.1 of GNU libplot, a free library for exporting 2-D vector graphics.</desc>
<g id="g62958">
	
		<path id="path36487" sodipodi:cx="-0.051587302" sodipodi:cy="0.1574074" sodipodi:rx="0.0092592593" sodipodi:ry="0.0066137565" sodipodi:type="arc" opacity="0.99" fill="#00295A" enable-background="new    " d="
		M576,288c0,159.058-128.942,288-288,288C128.942,576,0,447.058,0,288S128.942,0,288,0C447.058,0,576,128.941,576,288z"/>
	<path id="path21041" fill="#00295A" d="M386.664,97.87l-5.568-2.784l-5.636-2.648l-5.772-2.513l-5.84-2.309l-5.976-2.173
		l-5.975-1.969l-6.111-1.833l-6.18-1.63l-6.179-1.426l-6.315-1.29l-6.383-1.087l-6.45-0.882l-6.451-0.679l-6.52-0.476l-6.586-0.339
		l-6.655-0.068C169.576,73.764,73.764,169.712,73.764,288c0,118.221,95.812,214.236,214.304,214.236
		c118.288,0,214.168-96.016,214.168-214.236c0-68.719-32.322-129.968-82.707-169.148L386.664,97.87z"/>
	
		<path id="path21043" fill="#00295A" stroke="#C6A400" stroke-width="0.0023" stroke-linecap="square" stroke-miterlimit="10.433" d="
		M386.664,97.87l-5.568-2.784l-5.636-2.648l-5.772-2.513l-5.84-2.309l-5.976-2.173l-5.975-1.969l-6.111-1.833l-6.18-1.63
		l-6.179-1.426l-6.315-1.29l-6.383-1.087l-6.45-0.882l-6.451-0.679l-6.52-0.476l-6.586-0.339l-6.655-0.068
		C169.576,73.764,73.764,169.712,73.764,288c0,118.221,95.812,214.236,214.304,214.236c118.288,0,214.168-96.016,214.168-214.236
		c0-68.719-32.322-129.968-82.707-169.148"/>
	<path id="path21045" fill="#B19100" d="M442.82,351.082l-0.339,0.137l-0.407,0.067l-0.476,0.136l-0.543,0.137l-0.544,0.203
		l-0.679,0.203l-0.679,0.204l-0.747,0.204l-0.815,0.203l-0.815,0.204l-0.883,0.204l-0.951,0.203l-0.95,0.203l-0.95,0.205
		l-1.019,0.203l-1.02,0.203l-1.019,0.137l-1.086,0.135l-1.019,0.137l-1.086,0.067l-1.087,0.068h-1.087h-1.086l-1.087-0.068
		l-1.086-0.067l-1.019-0.137l-1.087-0.203l-1.018-0.203l-1.019-0.272l-0.95-0.34l-0.951-0.408l-0.95-0.407
		c-23.767-12.63-28.045-11.747-32.865-12.833c-5.228-1.291-14.871-2.037-32.866,3.87c-17.994,5.771-17.451-2.037-17.451-2.037
		c0-1.833,0.951-8.895-2.24-8.895c-5.568-0.203-2.988-4.277-2.988-4.277l-0.339-0.951c-4.278-0.747-1.834-4.414-1.834-4.414
		c-0.95-6.518-3.191-3.734-6.179-5.771c-2.921-1.834-3.871-5.229-1.291-8.148c7.063-7.809,3.328-13.92,3.328-13.92
		c-6.111-31.236,58.329-50.521,81.552-73.744c23.224-23.155-2.987-42.304-2.987-42.304s2.037,21.322-25.057,36.192
		c-27.094,14.871-50.724,33.273-56.836,36.057c-4.82,2.173-15.957,14.463-15.957,21.322c0,0-5.229,17.994-3.87,21.118
		c1.223,3.396,2.58,7.266,0,10.457l-6.587,6.994c0,0-4.414,2.104,0,6.518c0,0,6.587,0,7.81,1.901
		c1.357,2.037-1.088,5.568,2.036,8.692c1.561,1.493-0.136,1.697,0.611,4.277c0.544,2.58,0,2.58,3.735,5.771
		c3.87,3.124,1.222,3.124,0.678,5.704c-0.678,2.648-4.413,11.001,10.255,13.038c14.87,1.833,28.044-3.735,32.321-3.328
		c22.477,2.58,25.804,6.451,30.285,11.68c4.414,5.16,36.193,20.575,52.897-0.747C447.234,343.478,442.82,351.082,442.82,351.082z"/>
	<path id="path21047" fill="#B19100" d="M442.82,351.082l-0.339,0.137l-0.407,0.067l-0.476,0.136l-0.543,0.137l-0.544,0.203
		l-0.679,0.203l-0.679,0.204l-0.747,0.204l-0.815,0.203l-0.815,0.204l-0.883,0.204l-0.951,0.203l-0.95,0.203l-0.95,0.205
		l-1.019,0.203l-1.02,0.203l-1.019,0.137l-1.086,0.135l-1.019,0.137l-1.086,0.067l-1.087,0.068h-1.087h-1.086l-1.087-0.068
		l-1.086-0.067l-1.019-0.137l-1.087-0.203l-1.018-0.203l-1.019-0.272l-0.95-0.34l-0.951-0.408l-0.95-0.407
		c-23.767-12.63-28.045-11.747-32.865-12.833c-5.228-1.291-14.871-2.037-32.866,3.87c-17.994,5.771-17.451-2.037-17.451-2.037
		c0-1.833,0.951-8.895-2.24-8.895c-5.568-0.203-2.988-4.277-2.988-4.277l-0.339-0.951c-4.278-0.747-1.834-4.414-1.834-4.414
		c-0.95-6.518-3.191-3.734-6.179-5.771c-2.921-1.834-3.871-5.229-1.291-8.148c7.063-7.809,3.328-13.92,3.328-13.92
		c-6.111-31.236,58.329-50.521,81.552-73.744c23.224-23.155-2.987-42.304-2.987-42.304s2.037,21.322-25.057,36.192
		c-27.094,14.871-50.724,33.273-56.836,36.057c-4.82,2.173-15.957,14.463-15.957,21.322c0,0-5.229,17.994-3.87,21.118
		c1.223,3.396,2.58,7.266,0,10.457l-6.587,6.994c0,0-4.414,2.104,0,6.518c0,0,6.587,0,7.81,1.901
		c1.357,2.037-1.088,5.568,2.036,8.692c1.561,1.493-0.136,1.697,0.611,4.277c0.544,2.58,0,2.58,3.735,5.771
		c3.87,3.124,1.222,3.124,0.678,5.704c-0.678,2.648-4.413,11.001,10.255,13.038c14.87,1.833,28.044-3.735,32.321-3.328
		c22.477,2.58,25.804,6.451,30.285,11.68c4.414,5.16,36.193,20.575,52.897-0.747C447.234,343.478,442.82,351.082,442.82,351.082z"/>
	<polygon id="polygon21049" fill="#B19100" points="289.223,16.045 294.383,10.817 299.611,16.045 	"/>
	<path id="path21051" fill="#B19100" d="M213.985,266.61L213.985,266.61v0.068v0.068v0.136v0.136v0.136l-0.068,0.408l-0.068,0.543
		l-0.068,0.611l-0.136,0.679l-0.136,0.679l-0.204,0.815l-0.272,0.883l-0.339,0.883l-0.339,0.951l-0.476,0.951l-0.475,0.951
		l-0.611,0.951l-0.679,1.019l-0.747,0.951l-0.883,0.95l-0.476,0.476l-0.475,0.407l-0.544,0.476l-0.543,0.407l-0.544,0.408
		l-0.611,0.407l-0.611,0.407l-0.679,0.408l-0.679,0.339l-0.747,0.34l-0.747,0.339l-0.747,0.272l-0.814,0.339l-0.883,0.272
		l-0.883,0.204l-0.883,0.204l-1.019,0.204l-0.951,0.136l-1.019,0.136l-1.086,0.136l-1.086,0.068l-1.154,0.068h-1.222h-1.223
		l-1.222-0.068l-1.358-0.068l-1.358-0.136l-1.358-0.204c-30.285-3.87-68.379-6.043-57.446,24.717
		c5.228-13.717,35.514-5.772,57.243-2.037c16.365,0,20.235,0.543,31.168-3.734c35.649-23.766,4.685-64.373,60.57-99.479
		c41.625-30.624,86.713-55.341,132.412-86.509c48.823-41.014,9.303-57.039,9.303-57.039s10.729,23.427-26.754,44.205
		c-52.965,41.761-124.604,73.54-151.018,100.09c-5.161,5.772-14.871,14.871-16.705,31.167L213.985,266.61z"/>
	<path id="path21053" fill="#B19100" d="M213.985,266.61L213.985,266.61v0.068v0.068v0.136v0.136v0.136l-0.068,0.408l-0.068,0.543
		l-0.068,0.611l-0.136,0.679l-0.136,0.679l-0.204,0.815l-0.272,0.883l-0.339,0.883l-0.339,0.951l-0.476,0.951l-0.475,0.951
		l-0.611,0.951l-0.679,1.019l-0.747,0.951l-0.883,0.95l-0.476,0.476l-0.475,0.407l-0.544,0.476l-0.543,0.407l-0.544,0.408
		l-0.611,0.407l-0.611,0.407l-0.679,0.408l-0.679,0.339l-0.747,0.34l-0.747,0.339l-0.747,0.272l-0.814,0.339l-0.883,0.272
		l-0.883,0.204l-0.883,0.204l-1.019,0.204l-0.951,0.136l-1.019,0.136l-1.086,0.136l-1.086,0.068l-1.154,0.068h-1.222h-1.223
		l-1.222-0.068l-1.358-0.068l-1.358-0.136l-1.358-0.204c-30.285-3.87-68.379-6.043-57.446,24.717
		c5.228-13.717,35.514-5.772,57.243-2.037c16.365,0,20.235,0.543,31.168-3.734c35.649-23.766,4.685-64.373,60.57-99.479
		c41.625-30.624,86.713-55.341,132.412-86.509c48.823-41.014,9.303-57.039,9.303-57.039s10.729,23.427-26.754,44.205
		c-52.965,41.761-124.604,73.54-151.018,100.09c-5.161,5.772-14.871,14.871-16.705,31.167L213.985,266.61z"/>
	<path id="path21055" fill="#B19100" d="M128.766,315.297l7.266,2.648l7.062,2.784l6.926,2.784l6.791,2.784l6.654,2.852l6.587,2.92
		l12.902,5.976l12.901,6.111l6.451,3.123l6.586,3.192l6.587,3.259l6.722,3.26l6.858,3.327l6.994,3.396
		c11.34,5.568,39.045,22.883,37.754,39.045c-7.062,13.513-18.402,15.006-26.007,21.525c-12.63,10.729-10.39,15.55-7.81,30.557
		c4.482,16.229,19.692,16.907,25.804,18.063c-11.136,9.234-27.297,13.716-41.625,7.944c-12.766-9.1-17.451-17.384-12.019-34.291
		c5.568-14.464,19.149-17.248,30.421-29.335c13.784-26.754-35.989-41.014-42.712-47.939c-18.198-7.742-81.484-51.064-110.683-36.736
		C89.178,332.545,85.511,305.587,128.766,315.297z"/>
	<path id="path21057" fill="#B19100" d="M128.766,315.297l7.266,2.648l7.062,2.784l6.926,2.784l6.791,2.784l6.654,2.852l6.587,2.92
		l12.902,5.976l12.901,6.111l6.451,3.123l6.586,3.192l6.587,3.259l6.722,3.26l6.858,3.327l6.994,3.396
		c11.34,5.568,39.045,22.883,37.754,39.045c-7.062,13.513-18.402,15.006-26.007,21.525c-12.63,10.729-10.39,15.55-7.81,30.557
		c4.482,16.229,19.692,16.907,25.804,18.063c-11.136,9.234-27.297,13.716-41.625,7.944c-12.766-9.1-17.451-17.384-12.019-34.291
		c5.568-14.464,19.149-17.248,30.421-29.335c13.784-26.754-35.989-41.014-42.712-47.939c-18.198-7.742-81.484-51.064-110.683-36.736
		C89.178,332.545,85.511,305.587,128.766,315.297z"/>
	<path id="path21059" fill="#B19100" d="M318.014,444.519l-1.087,1.154l-1.086,1.086l-1.155,1.087l-1.153,0.95l-1.223,0.951
		l-1.223,0.883l-1.29,0.814l-1.222,0.815l-1.358,0.68l-1.29,0.679l-1.358,0.611l-1.426,0.543l-1.426,0.476l-1.426,0.407
		l-1.427,0.407l-1.493,0.272l-1.494,0.204l-1.494,0.204l-1.561,0.136h-1.561h-1.563l-1.629-0.068l-1.629-0.136l-1.63-0.204
		l-1.63-0.271l-1.697-0.339l-1.698-0.476l-1.697-0.476l-1.698-0.543l-1.697-0.611l-1.766-0.679l-1.766-0.747
		c0-0.204-15.414-7.809-5.364-31.235c12.63-18.334,41.218-16.705,44.409-38.977c-8.556-29.131-57.242,4.48-49.569-28.588
		c-2.648-5.229-5.976-4.278-6.519-7.266c-0.543-2.037,2.241-3.328,0.747-5.025c0,0-3.327-2.783-3.531-4.82
		c1.29-2.377,1.63-5.908,1.63-8.896c-13.717-2.783-13.92-7.266-7.402-13.512c2.988-5.025,15.075-15.619,10.05-22.885l-2.037-2.987
		c5.161-86.849,104.912-90.583,149.999-147.555l2.648-12.97c8.691,1.833,10.186,11.272,12.97,17.995
		c-2.377,23.019-23.224,28.927-38.842,41.557c-29.47,29.945-88.749,39.18-98.799,85.966c-8.692,9.507-4.957,16.501-3.124,23.223
		c0.543,2.581,0.543,3.531,0,5.908c0.407-2.58-3.735,5.771-9.643,16.161c-0.747,3.191,7.063,3.735,8.895,5.567
		c1.697,2.988-0.204,4.685,0.951,8.557c0,3.871,2.581,0.203,3.87,3.871c-0.203,1.154-1.629-0.137-0.543,4.142
		c4.482,2.92,3.124,4.957,4.074,8.353c-1.833,5.567,1.29,7.74,1.29,8.691c2.58,13.92,61.316-6.52,48.686,32.322
		c-17.655,16.161-52.218,9.846-46.785,41.421C299.068,446.012,307.76,441.87,318.014,444.519z"/>
	<polygon id="polygon21061" fill="#B19100" points="304.977,16.588 310.544,11.768 315.365,17.132 	"/>
	<polygon id="polygon21063" fill="#B19100" points="320.798,18.083 326.569,13.601 330.983,19.169 	"/>
	<polygon id="polygon21065" fill="#B19100" points="336.416,20.459 342.323,16.181 346.602,22.157 	"/>
	<polygon id="polygon21067" fill="#B19100" points="351.83,23.787 357.941,19.916 361.811,26.027 	"/>
	<polygon id="polygon21069" fill="#B19100" points="367.04,27.929 373.355,24.533 376.887,30.848 	"/>
	<polygon id="polygon21071" fill="#B19100" points="381.843,32.886 388.565,29.966 391.689,36.417 	"/>
	<polygon id="polygon21073" fill="#B19100" points="396.51,38.861 403.436,36.281 406.017,42.935 	"/>
	<polygon id="polygon21075" fill="#B19100" points="410.838,45.719 417.696,43.343 419.938,50.337 	"/>
	<polygon id="polygon21077" fill="#B19100" points="424.622,53.324 431.617,51.288 433.518,58.35 	"/>
	<polygon id="polygon21079" fill="#B19100" points="438,61.677 445.197,60.183 446.691,67.245 	"/>
	<polygon id="polygon21081" fill="#B19100" points="450.969,70.776 458.031,69.622 459.118,76.887 	"/>
	<polygon id="polygon21083" fill="#B19100" points="463.191,80.622 470.458,80.079 471.001,87.276 	"/>
	<polygon id="polygon21085" fill="#B19100" points="474.939,91.215 482.137,91.011 482.341,98.277 	"/>
	<polygon id="polygon21087" fill="#B19100" points="486.075,102.351 493.273,102.487 493.138,109.956 	"/>
	<polygon id="polygon21089" fill="#B19100" points="496.465,114.234 503.73,114.981 502.983,122.179 	"/>
	<polygon id="polygon21091" fill="#B19100" points="506.107,126.661 513.373,127.747 512.219,135.013 	"/>
	<polygon id="polygon21093" fill="#B19100" points="515.002,139.63 522.269,141.124 520.774,148.186 	"/>
	<polygon id="polygon21095" fill="#B19100" points="523.219,153.211 530.281,155.044 528.38,162.106 	"/>
	<polygon id="polygon21097" fill="#B19100" points="530.62,167.131 537.683,169.372 535.237,176.231 	"/>
	<polygon id="polygon21099" fill="#B19100" points="537.343,181.459 543.997,184.039 541.417,190.898 	"/>
	<polygon id="polygon21101" fill="#B19100" points="543.047,196.126 549.565,199.25 546.578,205.769 	"/>
	<polygon id="polygon21103" fill="#B19100" points="547.868,211.133 554.251,214.46 550.855,220.979 	"/>
	<polygon id="polygon21105" fill="#B19100" points="551.806,226.343 558.121,230.282 554.251,236.393 	"/>
	<polygon id="polygon21107" fill="#B19100" points="554.93,241.757 560.905,246.035 556.831,252.011 	"/>
	<polygon id="polygon21109" fill="#B19100" points="557.171,257.376 562.942,261.993 558.257,267.765 	"/>
	<polygon id="polygon21111" fill="#B19100" points="558.529,273.129 563.894,277.95 559.072,283.315 	"/>
	<polygon id="polygon21113" fill="#B19100" points="558.868,288.883 563.894,294.111 558.868,299.137 	"/>
	<polygon id="polygon21115" fill="#B19100" points="558.257,304.704 563.146,310.068 557.714,314.89 	"/>
	<polygon id="polygon21117" fill="#B19100" points="556.831,320.254 561.313,326.025 555.541,330.711 	"/>
	<polygon id="polygon21119" fill="#B19100" points="554.387,335.872 558.664,341.983 552.688,346.125 	"/>
	<polygon id="polygon21121" fill="#B19100" points="551.06,351.286 554.93,357.602 548.818,361.539 	"/>
	<polygon id="polygon21123" fill="#B19100" points="546.985,366.496 550.516,373.016 543.997,376.547 	"/>
	<polygon id="polygon21125" fill="#B19100" points="541.96,381.571 544.948,388.09 538.43,391.213 	"/>
	<polygon id="polygon21127" fill="#B19100" points="535.984,396.238 538.769,402.893 531.91,405.677 	"/>
	<polygon id="polygon21129" fill="#B19100" points="529.33,410.362 531.571,417.424 524.644,419.598 	"/>
	<polygon id="polygon21131" fill="#B19100" points="521.725,424.282 523.559,431.345 516.496,433.178 	"/>
	<polygon id="polygon21133" fill="#B19100" points="513.373,437.66 514.866,444.653 507.805,446.352 	"/>
	<polygon id="polygon21135" fill="#B19100" points="504.273,450.426 505.36,457.691 498.162,458.778 	"/>
	<polygon id="polygon21137" fill="#B19100" points="494.428,462.852 494.971,470.118 487.705,470.661 	"/>
	<polygon id="polygon21139" fill="#B19100" points="483.835,474.531 484.038,481.797 476.772,482.001 	"/>
	<polygon id="polygon21141" fill="#B19100" points="472.698,485.668 472.494,492.934 465.228,492.729 	"/>
	<polygon id="polygon21143" fill="#B19100" points="460.815,496.125 460.271,503.322 453.006,502.779 	"/>
	<polygon id="polygon21145" fill="#B19100" points="448.389,505.768 447.438,512.965 440.172,511.879 	"/>
	<polygon id="polygon21147" fill="#B19100" points="435.352,514.866 434.061,521.929 426.796,520.435 	"/>
	<polygon id="polygon21149" fill="#B19100" points="421.975,523.015 420.141,530.077 413.079,528.243 	"/>
	<polygon id="polygon21151" fill="#B19100" points="408.054,530.416 405.813,537.343 398.751,535.102 	"/>
	<polygon id="polygon21153" fill="#B19100" points="393.727,536.935 390.942,543.793 384.288,541.009 	"/>
	<polygon id="polygon21155" fill="#B19100" points="379.059,542.707 375.935,549.361 369.417,546.237 	"/>
	<polygon id="polygon21157" fill="#B19100" points="364.053,547.731 360.521,554.047 354.206,550.651 	"/>
	<polygon id="polygon21159" fill="#B19100" points="348.842,551.602 344.903,557.917 338.792,554.047 	"/>
	<polygon id="polygon21161" fill="#B19100" points="333.428,554.794 329.149,560.701 323.174,556.627 	"/>
	<polygon id="polygon21163" fill="#B19100" points="317.606,556.967 313.192,562.738 307.352,558.324 	"/>
	<polygon id="polygon21165" fill="#B19100" points="301.988,558.324 297.167,563.69 291.6,558.868 	"/>
	<polygon id="polygon21167" fill="#B19100" points="286.234,558.664 281.006,563.893 275.846,558.664 	"/>
	<polygon id="polygon21169" fill="#B19100" points="270.413,558.121 265.049,562.942 260.227,557.578 	"/>
	<polygon id="polygon21171" fill="#B19100" points="254.66,556.831 249.091,561.244 244.474,555.541 	"/>
	<polygon id="polygon21173" fill="#B19100" points="239.245,554.387 233.134,558.461 229.06,552.553 	"/>
	<polygon id="polygon21175" fill="#B19100" points="223.627,551.059 217.516,554.93 213.645,548.818 	"/>
	<polygon id="polygon21177" fill="#B19100" points="208.417,546.984 202.102,550.516 198.571,543.997 	"/>
	<polygon id="polygon21179" fill="#B19100" points="193.546,541.96 186.892,545.083 183.904,538.429 	"/>
	<polygon id="polygon21181" fill="#B19100" points="178.879,535.984 172.225,538.769 169.44,532.114 	"/>
	<polygon id="polygon21183" fill="#B19100" points="164.619,529.33 157.693,531.774 155.452,524.712 	"/>
	<polygon id="polygon21185" fill="#B19100" points="150.835,521.929 143.772,523.762 141.939,516.7 	"/>
	<polygon id="polygon21187" fill="#B19100" points="137.457,513.576 130.26,515.002 128.766,507.805 	"/>
	<polygon id="polygon21189" fill="#B19100" points="124.488,504.477 117.222,505.564 116.339,498.298 	"/>
	<polygon id="polygon21191" fill="#B19100" points="112.197,494.631 104.999,495.174 104.252,487.908 	"/>
	<polygon id="polygon21193" fill="#B19100" points="100.518,484.038 93.116,484.242 92.913,476.976 	"/>
	<polygon id="polygon21195" fill="#B19100" points="89.382,472.901 81.98,472.698 82.116,465.5 	"/>
	<polygon id="polygon21197" fill="#B19100" points="78.789,461.019 71.591,460.476 72.27,453.21 	"/>
	<polygon id="polygon21199" fill="#B19100" points="69.146,448.593 61.881,447.642 63.035,440.443 	"/>
	<polygon id="polygon21201" fill="#B19100" points="60.251,435.759 52.985,434.265 54.411,427.066 	"/>
	<polygon id="polygon21203" fill="#B19100" points="51.899,422.246 44.769,420.345 46.67,413.282 	"/>
	<polygon id="polygon21205" fill="#B19100" points="44.429,408.325 37.571,406.085 39.812,399.227 	"/>
	<polygon id="polygon21207" fill="#B19100" points="37.775,393.998 31.052,391.418 33.632,384.559 	"/>
	<polygon id="polygon21209" fill="#B19100" points="32.003,379.33 25.484,376.343 28.472,369.688 	"/>
	<polygon id="polygon21211" fill="#B19100" points="27.182,364.459 20.663,360.929 24.194,354.478 	"/>
	<polygon id="polygon21213" fill="#B19100" points="23.04,349.045 16.929,345.379 20.663,339.199 	"/>
	<polygon id="polygon21215" fill="#B19100" points="19.917,333.631 14.009,329.557 18.083,323.649 	"/>
	<polygon id="polygon21217" fill="#B19100" points="17.675,318.081 11.904,313.6 16.589,307.828 	"/>
	<polygon id="polygon21219" fill="#B19100" points="16.385,302.463 11.021,297.643 15.842,292.074 	"/>
	<polygon id="polygon21221" fill="#B19100" points="16.046,286.71 10.817,281.481 16.046,276.252 	"/>
	<polygon id="polygon21223" fill="#B19100" points="16.589,270.888 11.564,265.523 17.132,260.499 	"/>
	<polygon id="polygon21225" fill="#B19100" points="17.879,255.134 13.398,249.566 18.965,244.949 	"/>
	<polygon id="polygon21227" fill="#B19100" points="20.256,239.517 16.046,233.609 21.953,229.535 	"/>
	<polygon id="polygon21229" fill="#B19100" points="23.447,224.103 19.577,217.991 25.892,214.121 	"/>
	<polygon id="polygon21231" fill="#B19100" points="27.521,208.892 23.99,202.577 30.509,199.046 	"/>
	<polygon id="polygon21233" fill="#B19100" points="32.546,194.021 29.354,187.367 36.078,184.243 	"/>
	<polygon id="polygon21235" fill="#B19100" points="38.454,179.354 35.67,172.496 42.393,169.915 	"/>
	<polygon id="polygon21237" fill="#B19100" points="45.176,165.094 42.732,158.236 49.658,155.791 	"/>
	<polygon id="polygon21239" fill="#B19100" points="52.646,151.174 50.745,144.112 57.806,142.278 	"/>
	<polygon id="polygon21241" fill="#B19100" points="60.998,137.797 59.504,130.735 66.566,129.241 	"/>
	<polygon id="polygon21243" fill="#B19100" points="70.097,124.963 68.942,117.765 76.209,116.611 	"/>
	<polygon id="polygon21245" fill="#B19100" points="79.875,112.537 79.196,105.271 86.394,104.592 	"/>
	<polygon id="polygon21247" fill="#B19100" points="90.332,100.857 90.128,93.592 97.395,93.252 	"/>
	<polygon id="polygon21249" fill="#B19100" points="101.469,89.721 101.604,82.455 109.074,82.659 	"/>
	<polygon id="polygon21251" fill="#B19100" points="113.352,79.332 113.895,71.93 121.161,72.609 	"/>
	<polygon id="polygon21253" fill="#B19100" points="125.778,69.485 126.728,62.22 133.927,63.374 	"/>
	<polygon id="polygon21255" fill="#B19100" points="138.612,60.387 140.105,53.324 147.304,54.818 	"/>
	<polygon id="polygon21257" fill="#B19100" points="152.124,52.17 154.026,45.176 161.02,47.009 	"/>
	<polygon id="polygon21259" fill="#B19100" points="166.045,44.769 168.286,37.91 175.212,40.151 	"/>
	<polygon id="polygon21261" fill="#B19100" points="180.373,38.114 182.953,31.46 189.676,34.04 	"/>
	<polygon id="polygon21263" fill="#B19100" points="194.836,32.342 198.028,25.688 204.682,28.812 	"/>
	<polygon id="polygon21265" fill="#B19100" points="209.911,27.317 213.442,21.002 219.757,24.398 	"/>
	<polygon id="polygon21267" fill="#B19100" points="225.121,23.243 229.06,17.132 235.171,20.866 	"/>
	<polygon id="polygon21269" fill="#B19100" points="240.536,20.12 244.813,14.144 250.789,18.218 	"/>
	<polygon id="polygon21271" fill="#B19100" points="256.153,17.879 260.771,12.107 266.543,16.588 	"/>
	<polygon id="polygon21273" fill="#B19100" points="271.907,16.588 276.728,11.021 282.161,15.842 	"/>
	<path id="path21275" fill="#B19100" d="M198.978,494.631l-0.747,1.29c-3.191-1.629-4.278-0.95-6.858,3.531l-8.963,15.754
		c-2.377,4.481-2.377,5.975,0.747,7.808l-0.747,1.29l-11.136-6.111c-3.327-2.037-6.654-4.074-9.099-8.896
		c-2.241-4.82-1.494-10.05,1.086-14.667c5.433-9.846,15.278-11.543,24.717-6.179L198.978,494.631z M187.435,497.212l0.204-0.408
		l0.204-0.407l0.204-0.34l0.204-0.407l0.136-0.339l0.136-0.34l0.136-0.271l0.136-0.34l0.068-0.272l0.136-0.271l0.068-0.272v-0.271
		l0.068-0.272v-0.203v-0.272v-0.204v-0.203l-0.068-0.204l-0.068-0.204l-0.068-0.203l-0.136-0.204l-0.068-0.136l-0.136-0.204
		l-0.204-0.203l-0.136-0.136l-0.204-0.204l-0.204-0.136l-0.204-0.203l-0.271-0.137l-0.271-0.203l-0.272-0.136l-0.339-0.204
		c-8.149-4.617-14.463,0.543-18.538,7.81c-4.074,7.266-4.889,14.667,3.531,19.148c3.463,2.037,4.482,1.426,6.858-2.784
		L187.435,497.212z"/>
	<path id="path21279" fill="#B19100" d="M142.143,471.068l1.086,0.679c-3.734,4.686-0.747,7.47,2.241,9.507l1.494,1.154l6.655-8.42
		c2.241-2.92,2.444-4.074-0.951-6.654c-5.908-4.617-8.148-3.871-15.414-2.241l-0.543-1.086l8.013-4.821l19.692,15.346l-0.951,1.154
		c-2.988-2.24-4.074-1.697-7.266,2.377l-11.272,14.328c-2.988,4.074-3.395,5.364-0.407,7.605l-0.951,1.291l-19.081-14.871
		l2.241-8.353l1.291,0.204c0,6.858,0.204,9.099,5.568,13.173c3.667,2.988,4.278,2.58,7.062-0.883l5.364-6.926l-1.494-1.223
		c-3.531-2.648-6.315-3.939-9.643,0l-0.951-0.95L142.143,471.068z"/>
	<path id="path21281" fill="#B19100" d="M125.031,451.376l0.339-0.339l0.339-0.272l0.272-0.34l0.271-0.272l0.271-0.271l0.271-0.272
		l0.204-0.272l0.204-0.271l0.204-0.203l0.204-0.272l0.136-0.204l0.136-0.271l0.136-0.204l0.068-0.203l0.068-0.204l0.068-0.204
		l0.068-0.203v-0.204v-0.203v-0.204v-0.204l-0.068-0.203l-0.068-0.272l-0.068-0.204l-0.136-0.204l-0.136-0.203l-0.136-0.204
		l-0.136-0.271l-0.204-0.203l-0.204-0.273l-0.204-0.203l-0.204-0.271l0.883-1.154l9.303,9.71l-1.087,1.086
		c-2.648-2.783-3.938-2.444-7.605,1.291l-13.038,12.63c-3.735,3.531-4.278,4.821-1.494,7.605l-1.086,0.95l-11.34-11.544
		c-3.735-3.87-5.229-9.506-0.747-13.716c5.229-5.025,11.34-1.494,15.958,3.327l2.784,2.987L125.031,451.376z M118.173,458.031
		l-1.29-1.29c-4.074-4.278-8.353-7.063-13.241-2.445c-3.667,3.6-2.716,7.47,0.611,10.797c2.92,3.191,4.414,1.901,7.198-0.747
		L118.173,458.031z"/>
	<path id="path21285" fill="#B19100" d="M76.548,435.012l15.618-21.525c1.087-1.494,3.531-4.821,3.871-6.518
		c0.407-1.291,0-2.173-0.543-3.328l1.155-0.882l7.944,11.136l-1.086,0.883c-1.154-1.087-2.444-3.87-4.481-2.377
		c-0.543,0.34-1.494,1.63-1.833,2.377l-3.531,4.821l6.858,9.71l1.698-0.611c1.426-0.339,5.161-1.493,6.315-2.173
		c1.834-1.357,0.747-3.531-0.407-5.024l1.29-0.951l6.926,9.642l-1.358,0.95c-2.173-3.327-6.111-2.037-9.439-1.154l-25.464,8.013
		L76.548,435.012z M82.523,434.672l15.754-4.821l-6.111-8.556L82.523,434.672z"/>
	<path id="path21289" fill="#B19100" d="M75.801,398.479l7.809-3.939c4.481-2.377,5.229-3.531,3.531-6.654l1.494-0.747l5.976,11.68
		l-1.358,0.746c-1.629-3.327-2.92-3.327-7.605-0.95l-16.161,8.217c-3.327,1.833-5.704,2.783-3.667,6.858l-1.494,0.747l-6.179-12.29
		c-2.581-4.821-4.074-11.883,1.901-14.803c4.278-2.241,9.099,0.135,11.543,3.87l6.994-10.593c1.901-2.988,3.191-3.871,1.29-7.266
		l1.358-0.68l3.531,6.858l-10.457,15.958L75.801,398.479z M74.511,399.227l-1.086-2.241c-1.834-4.278-6.315-7.809-11.136-5.433
		c-4.142,2.241-4.278,6.927-2.445,10.594c1.901,3.53,3.191,2.784,6.315,1.29L74.511,399.227z"/>
	<path id="path21293" fill="#B19100" d="M67.449,356.311l0.475-0.135l0.408-0.204l0.407-0.136l0.339-0.136l0.408-0.136l0.271-0.137
		l0.339-0.135l0.272-0.137l0.271-0.203l0.271-0.136l0.204-0.136l0.204-0.136l0.204-0.136l0.204-0.204l0.136-0.136l0.136-0.203
		l0.136-0.204l0.068-0.136l0.068-0.204l0.068-0.204l0.068-0.271l0.068-0.203v-0.204v-0.271v-0.271l-0.068-0.272l-0.068-0.272v-0.339
		l-0.136-0.339l-0.068-0.34l-0.068-0.34l-0.136-0.407l1.494-0.34l4.414,13.581l-1.426,0.543c-1.291-4.074-2.648-4.277-7.605-2.784
		l-18.402,5.907c-2.241,0.748-5.229,1.154-4.142,4.074c1.358,4.482,5.976,7.063,10.457,7.81l-0.204,1.29l-9.099-0.543l-8.148-25.397
		l6.994-5.771l0.951,0.951c-3.124,3.123-5.364,7.944-3.871,12.426c0.883,2.988,3.327,1.63,5.568,0.883L67.449,356.311z"/>
	<path id="path21295" fill="#B19100" d="M58.757,301.513h0.204h0.272l0.407-0.067l0.408-0.068l0.407-0.068l0.339-0.067l0.408-0.067
		l0.271-0.068l0.339-0.068l0.272-0.067l0.271-0.067l0.271-0.137l0.271-0.067l0.204-0.136l0.204-0.068l0.136-0.136l0.204-0.136
		l0.136-0.136l0.136-0.136l0.136-0.203l0.136-0.137l0.068-0.203l0.068-0.204L64.393,299l0.068-0.203l0.068-0.204v-0.271v-0.272
		l0.068-0.271v-0.272l-0.068-0.339v-0.271v-0.407l1.426-0.137l1.494,13.377l-1.494,0.137c-0.339-3.667-1.629-4.278-6.858-3.667
		l-22.272,2.376v0.204l31.372,8.148l0.204,1.698l-29.131,14.667v0.204l22.612-2.445c5.025-0.543,6.111-1.29,5.772-5.025l1.698-0.203
		l1.086,10.797l-1.494,0.203c-0.543-3.734-1.629-4.277-6.858-3.734l-17.995,2.037c-5.229,0.543-6.315,1.291-5.976,5.025
		l-1.494,0.203l-1.086-10.049l25.804-12.971l-28.044-7.266l-1.154-10.049l1.698-0.137c0.407,3.667,1.697,4.278,6.654,3.667
		L58.757,301.513z"/>
	<path id="path21297" fill="#B19100" d="M56.109,268.104v1.358c-5.908-0.408-6.451,3.463-6.247,7.198l-0.204,1.833l10.729,0.543
		c3.735,0.272,4.685-0.136,4.889-4.414c0.339-7.605-1.494-9.099-7.13-13.92l0.611-1.086l8.556,3.871l-1.154,24.853l-1.494-0.204
		c0.204-3.667-0.883-4.21-6.111-4.617l-18.198-0.747c-5.229-0.136-6.315,0.407-6.519,4.142l-1.698-0.204l1.154-24.174l8.148-2.92
		l0.544,1.29c-5.5,3.735-7.198,5.161-7.606,12.019c-0.136,4.685,0.544,5.025,5.025,5.228l8.76,0.34v-1.833
		c0.339-4.414-0.34-7.401-5.433-8.013v-1.222L56.109,268.104z"/>
	<path id="path21299" fill="#B19100" d="M64.868,226.004l-16.908-3.531c-5.025-1.154-6.519-0.747-7.198,2.784l-1.494-0.204
		l2.173-10.593l1.494,0.408c-0.747,3.531,0.407,4.413,5.432,5.364l25.6,5.365l-0.339,1.494l-31.779,13.92l19.896,4.278
		c4.957,0.951,6.247,0.747,7.062-2.988l1.63,0.407l-2.241,10.593l-1.494-0.408c0.747-3.734-0.339-4.414-5.364-5.568l-17.791-3.667
		c-5.093-1.154-6.383-0.747-7.062,2.92l-1.697-0.339l1.697-7.809L64.868,226.004z"/>
	<path id="path21301" fill="#B19100" d="M75.801,197.009l0.476,0.204l0.407,0.136l0.339,0.204l0.408,0.136l0.339,0.136l0.339,0.136
		l0.34,0.068l0.339,0.136l0.271,0.068l0.272,0.068h0.271l0.271,0.068h0.271h0.272h0.204l0.204-0.068l0.204-0.068l0.204-0.068
		l0.204-0.068l0.204-0.136l0.204-0.136l0.136-0.136l0.204-0.204l0.204-0.204l0.136-0.204l0.136-0.204l0.204-0.271l0.136-0.271
		l0.136-0.271l0.204-0.34l0.136-0.339l0.136-0.408l1.29,0.747l-5.364,13.173l-1.494-0.747c1.698-3.871,0.747-4.821-4.074-6.858
		l-17.858-7.402c-2.173-0.951-4.414-2.648-5.704,0.34c-1.901,4.278,0,9.303,2.92,12.63l-0.883,0.951l-6.723-6.315l10.254-24.717
		l9.303,0.408v1.086c-4.482,0.407-9.303,2.784-11.204,7.062c-1.086,2.784,1.697,3.327,3.938,4.278L75.801,197.009z"/>
	<path id="path21303" fill="#B19100" d="M104.999,157.285l-0.543,0.679l-0.543,0.679l-0.611,0.611l-0.611,0.544l-0.611,0.543
		l-0.679,0.476l-0.679,0.407l-0.679,0.407l-0.679,0.272l-0.747,0.339l-0.679,0.204l-0.747,0.204l-0.747,0.204l-0.814,0.136
		l-0.747,0.068l-0.747,0.068H93.32l-0.747-0.068l-0.815-0.068l-0.747-0.068l-0.815-0.136l-0.747-0.204l-0.747-0.204l-0.815-0.204
		l-0.747-0.271l-0.747-0.339l-0.747-0.34l-0.747-0.339l-0.679-0.408l-0.747-0.407l-0.679-0.476l-0.679-0.475
		c-7.198-4.957-10.932-14.667-5.364-22.408c5.772-7.809,16.161-6.926,23.223-1.698C107.376,140.241,110.771,149.477,104.999,157.285
		z M85.104,154.705l0.476,0.339l0.475,0.339l0.476,0.34l0.543,0.339l0.543,0.339l0.543,0.272l0.611,0.339l0.611,0.339l0.611,0.272
		l0.611,0.272l0.679,0.271l0.611,0.272l0.679,0.204l0.679,0.204l0.611,0.204l0.679,0.136l0.679,0.136l0.679,0.136l0.679,0.068h0.611
		h0.679l0.611-0.068l0.611-0.068l0.611-0.136l0.611-0.204l0.543-0.204l0.271-0.136l0.339-0.136l0.204-0.136l0.271-0.204l0.271-0.204
		l0.271-0.136l0.272-0.272l0.204-0.204l0.271-0.271l0.204-0.204l0.204-0.271l0.204-0.34c4.685-6.451-2.241-13.716-7.198-17.248
		c-5.025-3.531-14.124-7.809-18.606-1.494C73.628,143.908,80.282,151.378,85.104,154.705z"/>
	<path id="path21307" fill="#B19100" d="M120.414,126.457l0.271,0.339l0.34,0.34l0.271,0.271l0.339,0.271l0.271,0.271l0.272,0.272
		l0.271,0.204l0.204,0.204l0.271,0.204l0.272,0.136l0.204,0.136l0.271,0.136l0.204,0.068l0.204,0.136l0.271,0.068h0.204l0.204,0.068
		h0.204h0.272l0.204-0.068l0.204-0.068l0.271-0.068l0.204-0.068l0.271-0.136l0.204-0.136l0.271-0.136l0.272-0.204l0.271-0.136
		l0.271-0.204l0.271-0.271l0.272-0.204l0.339-0.271l1.086,1.087l-10.185,9.643l-1.086-1.086c2.581-2.648,2.376-3.938-1.358-7.605
		l-12.427-13.173c-3.531-3.735-4.821-4.142-7.605-1.698l-1.086-1.086l17.79-16.908l7.809,3.666l-0.339,1.29
		c-6.723-1.087-9.303-1.087-14.532,3.938c-2.987,2.784-2.037,4.278,1.155,7.605l5.568,5.568l1.29-1.29
		c3.124-2.988,4.821-5.568,1.494-9.506l0.883-0.883l9.303,9.642l-0.951,0.951c-4.074-4.278-7.198-1.697-9.643,0.883l-1.494,1.291
		L120.414,126.457z"/>
	<path id="path21309" fill="#B19100" d="M160.137,80.214l-3.938-6.451c-2.58-4.481-3.667-5.229-6.858-3.191l-0.747-1.494
		l11.34-6.654l0.747,1.29c-3.191,1.833-3.191,3.395-0.34,7.605l9.235,15.618c2.648,4.414,3.938,5.161,7.062,3.124l0.815,1.29
		l-11.408,6.926l-0.747-1.358c3.191-1.834,2.988-3.123,0.408-7.605l-4.482-7.198l-12.223,7.402l4.278,7.266
		c2.784,4.414,3.871,5.161,7.062,3.123l0.679,1.494l-11.272,6.655l-0.747-1.291c3.123-1.833,2.988-3.123,0.34-7.605l-9.235-15.55
		c-2.852-4.482-3.938-5.229-7.062-3.191l-0.747-1.426l11.272-6.722l0.747,1.29c-3.124,1.834-2.92,3.327-0.34,7.605l3.871,6.519
		L160.137,80.214z"/>
	<path id="path21311" fill="#B19100" d="M198.774,68.195l-1.29,0.544c-2.241-5.568-5.976-4.278-9.303-2.581l-1.833,0.543
		l4.278,9.982c1.29,3.395,2.377,3.938,6.315,2.309c7.062-3.056,7.198-5.093,9.235-12.155h1.358l0.136,9.507l-23.02,9.438
		l-0.543-1.29c3.327-1.494,3.531-2.716,1.494-7.605l-6.926-16.84c-2.037-4.685-3.123-5.568-6.451-4.142l-0.543-1.426l22.477-9.303
		l5.907,6.111l-0.747,1.154c-5.908-3.599-7.945-4.482-14.26-1.901c-4.278,1.901-4.278,2.581-2.648,6.858l3.395,8.013l1.834-0.747
		c3.871-1.698,6.315-3.531,4.821-8.352l1.086-0.407L198.774,68.195z"/>
	<path id="path21313" fill="#B19100" d="M223.831,34.583l15.075,21.865c1.086,1.562,2.92,5.093,4.617,6.179
		c0.951,0.544,2.037,0.544,3.124,0.339l0.611,1.494l-13.241,3.734l-0.339-1.494c1.494-0.543,4.481-0.951,3.734-3.191
		c-0.204-0.679-1.154-1.969-1.494-2.784l-3.327-4.821l-11.544,3.191v1.833c-0.204,1.291-0.543,5.229-0.204,6.519
		c0.611,2.173,3.191,1.834,5.025,1.494l0.407,1.494l-11.544,3.124l-0.339-1.494c3.87-1.086,4.074-5.229,4.074-8.556l1.494-26.686
		L223.831,34.583z M222.134,40.355l-0.679,16.093l9.982-2.784L222.134,40.355z"/>
	<path id="path21317" fill="#B19100" d="M277.339,50.948l-1.698,8.895l-23.767,3.871l-0.204-1.494
		c3.735-0.543,4.074-1.833,3.396-6.994l-2.988-17.859c-0.747-5.025-1.698-6.315-5.433-5.568l-0.136-1.494l13.173-2.241l0.339,1.494
		c-3.87,0.543-4.278,2.037-3.531,7.062l3.191,18.742c0.543,4.074,1.494,5.229,5.908,4.481c6.111-1.154,8.216-3.531,10.389-9.303
		L277.339,50.948z"/>
	<path id="path21319" fill="#B19100" d="M298.321,52.578l-0.067,0.271v0.204v0.475v0.407v0.408v0.407l0.067,0.34v0.339v0.339
		l0.067,0.34l0.068,0.271l0.068,0.271l0.068,0.204l0.067,0.272l0.067,0.204l0.136,0.204l0.068,0.204l0.136,0.136l0.136,0.204
		l0.204,0.136l0.135,0.136l0.204,0.068l0.204,0.136l0.203,0.068l0.271,0.136l0.204,0.068l0.272,0.068l0.339,0.068h0.272l0.34,0.067
		h0.339l0.408,0.068h0.34v1.494l-14.328-0.407v-1.494c4.277,0,5.024-1.086,5.228-6.247l0.543-19.353
		c0.204-2.376,0.747-5.161-2.377-5.161c-4.685-0.204-8.759,3.123-10.796,7.062l-1.291-0.611l3.667-8.352l26.822,0.951l2.92,8.556
		l-1.086,0.543c-1.834-4.074-5.771-7.605-10.39-8.013c-3.191,0-2.784,2.784-2.784,5.228L298.321,52.578z"/>
	<path id="path21321" fill="#B19100" d="M342.866,47.757l1.494-7.402c0.95-5.025,0.543-6.315-2.988-7.062l0.408-1.494l12.969,2.444
		l-0.339,1.63c-3.734-0.747-4.482,0.407-5.568,5.364l-3.531,17.859c-0.95,4.957-0.611,6.315,3.124,7.062l-0.204,1.494l-13.173-2.648
		l0.407-1.494c3.531,0.815,4.482-0.339,5.364-5.364l1.698-8.352l-14.124-2.784l-1.698,8.352c-1.086,5.025-0.543,6.315,2.987,7.062
		l-0.339,1.494l-13.038-2.377l0.408-1.698c3.53,0.747,4.413-0.204,5.364-5.364l3.531-17.859c1.086-5.024,0.746-6.315-2.988-7.062
		l0.408-1.494l12.969,2.648l-0.339,1.494c-3.531-0.747-4.482,0.339-5.433,5.364l-1.494,7.402L342.866,47.757z"/>
	<path id="path21327" fill="#B19100" d="M385.374,62.627v-0.951l0.067-0.407v-0.476v-0.407v-0.476l0.068-0.475v-0.408l0.068-0.475
		l0.067-0.407l0.136-0.476l0.068-0.407l0.067-0.204l0.068-0.204l0.068-0.204l0.067-0.271l0.136-0.204l0.067-0.204l0.068-0.204
		l0.136-0.204c2.241-4.481,6.858-5.908,11.34-3.734c3.124,1.494,5.568,5.229,3.87,8.556c-2.037,3.939-8.148,3.667-12.086,3.667
		c0.407,5.568,0.543,11,1.901,16.161c2.919-1.494,5.567-3.667,6.994-6.654c1.357-2.445-0.34-3.667-2.581-4.821l0.747-1.087
		l10.594,5.161l-0.544,1.29c-3.327-1.494-4.074-0.747-6.519,1.494c-2.377,2.241-5.161,4.617-8.353,6.179
		c0.34,1.63,1.697,3.667,3.191,4.414c1.834,0.883,3.871,0.543,5.704,0.34l0.204,1.154c-2.988,1.086-6.52,1.494-9.439,0.136
		c-2.241-1.086-2.988-2.784-3.938-4.957c-3.327,0.136-6.315-0.204-9.303-1.698c-4.618-2.173-14.057-5.025-6.112-12.97
		c3.396-3.327,6.858-5.024,11.001-5.364L385.374,62.627z M377.633,68.195l-0.203,0.408l-0.204,0.407l-0.136,0.408l-0.136,0.475
		l-0.136,0.408l-0.068,0.407l-0.067,0.476l-0.068,0.475v0.407v0.476v0.407l0.068,0.476l0.067,0.475l0.068,0.407l0.136,0.476
		l0.067,0.407l0.137,0.408l0.203,0.407l0.136,0.408l0.204,0.407l0.203,0.407l0.272,0.408l0.271,0.339l0.272,0.408l0.271,0.339
		l0.272,0.339l0.34,0.272l0.339,0.272l0.407,0.339l0.34,0.204l0.407,0.272l0.408,0.204c1.833,0.747,3.87,1.29,5.772,0.747
		c-1.29-5.568-1.901-11.34-2.037-17.315C382.047,63.714,379.059,65.208,377.633,68.195z M398.412,59.436l0.067-0.204l0.136-0.204
		l0.068-0.204l0.067-0.204l0.068-0.271l0.067-0.204v-0.204l0.068-0.272v-0.204l0.067-0.271v-0.204v-0.204l-0.067-0.271v-0.204
		v-0.204l-0.068-0.272l-0.067-0.204l-0.068-0.204l-0.067-0.204l-0.068-0.204l-0.067-0.204l-0.136-0.204l-0.137-0.204l-0.136-0.204
		l-0.136-0.204l-0.136-0.136l-0.136-0.204l-0.203-0.136l-0.204-0.136l-0.136-0.136l-0.271-0.136l-0.204-0.136
		c-2.377-1.154-4.821,0.136-5.772,2.376c-1.087,2.037-1.426,5.025-1.29,7.266C392.844,62.831,396.714,62.627,398.412,59.436z"/>
	<path id="path21329" fill="#B19100" d="M462.852,116.272l5.025-5.772c3.531-3.735,3.87-5.025,1.087-7.401l0.95-1.358l10.05,8.963
		l-1.154,1.087c-2.784-2.58-4.074-2.037-7.401,1.901l-12.087,13.513c-3.531,3.938-3.734,5.229-0.951,7.809l-1.086,1.086
		l-9.846-8.895l0.95-1.086c2.784,2.376,4.074,2.037,7.401-1.901l5.772-6.315l-10.797-9.643l-5.704,6.315
		c-3.396,3.938-3.734,5.229-1.018,7.605l-1.086,1.154l-9.847-8.76l1.154-1.086c2.58,2.377,3.87,2.037,7.401-1.901l12.087-13.716
		c3.327-3.735,3.734-5.161,0.951-7.605l0.883-1.087l10.05,8.692l-1.087,1.29c-2.648-2.376-4.074-2.037-7.47,1.901l-5.024,5.568
		L462.852,116.272z"/>
	<path id="path21331" fill="#B19100" d="M498.162,146.692l0.136-0.136l0.204-0.136l0.34-0.272l0.339-0.204l0.34-0.271l0.272-0.271
		l0.271-0.204l0.272-0.204l0.204-0.271l0.203-0.204l0.204-0.204l0.204-0.204l0.136-0.204l0.136-0.204l0.136-0.204l0.067-0.204
		l0.136-0.204v-0.204l0.068-0.204l0.067-0.136v-0.204v-0.204l-0.067-0.204v-0.204l-0.068-0.204l-0.067-0.204l-0.068-0.272
		l-0.136-0.204l-0.136-0.204l-0.136-0.271l-0.136-0.204l-0.136-0.272l-0.204-0.271l1.29-0.883l6.315,8.488l-1.29,0.951
		c-2.241-2.988-3.531-2.784-7.81,0.204l-11.543,8.556c-6.654,4.821-12.019,4.074-16.841-2.648
		c-4.277-5.704-3.938-11.679,1.834-15.957l12.63-9.099c4.074-2.988,4.821-4.278,2.784-7.062l1.29-0.883l7.605,10.525l-1.086,0.951
		c-2.445-3.124-3.735-2.784-7.81,0.204l-10.593,7.605c-5.025,3.531-8.691,7.809-4.481,13.716c4.481,6.315,9.71,3.531,14.871-0.136
		L498.162,146.692z"/>
	<path id="path21333" fill="#B19100" d="M506.65,202.237l-0.204,0.068l-0.204,0.136l-0.203,0.068l-0.203,0.136l-0.204,0.068
		l-0.204,0.136l-0.203,0.068l-0.204,0.068l-0.34,0.204l-0.339,0.204l-0.272,0.136l-0.272,0.204l-0.271,0.204l-0.203,0.136
		l-0.271,0.204l-0.204,0.136l-0.136,0.204l-0.204,0.204l-0.136,0.136l-0.067,0.204l-0.136,0.204l-0.068,0.136l-0.068,0.204v0.204
		l-0.067,0.204v0.204v0.204v0.271l0.067,0.204l0.068,0.272l0.068,0.204l0.067,0.271l0.136,0.271l0.136,0.272l0.136,0.339
		l0.136,0.271l-1.493,0.543l-5.568-12.019l1.29-0.747c1.698,3.531,2.987,3.531,7.605,1.494l20.438-9.506v-0.204l-32.458,2.241
		l-0.746-1.494l23.019-23.155v-0.204l-20.643,9.439c-4.617,2.241-5.568,3.395-3.87,6.723l-1.494,0.543l-4.481-9.846l1.29-0.543
		c1.697,3.327,2.987,3.531,7.605,1.29l16.568-7.605c4.617-2.241,5.568-3.192,3.87-6.723l1.494-0.544l4.074,9.1l-20.235,20.439
		l28.791-2.037l4.278,9.303l-1.29,0.543c-1.698-3.327-2.988-3.531-7.605-1.29L506.65,202.237z"/>
	<path id="path21335" fill="#B19100" d="M541.756,223.423l-22.068,14.803c-1.697,1.154-5.024,3.327-5.976,4.821
		c-0.747,1.154-0.747,2.241-0.543,3.395l-1.494,0.339l-3.531-13.173l1.494-0.407c0.544,1.494,0.747,4.481,3.124,3.938
		c0.815-0.408,2.105-1.154,2.648-1.698l5.024-3.327l-3.191-11.34l-1.833-0.204c-1.494,0-5.229-0.34-6.52-0.136
		c-2.376,0.747-2.037,3.124-1.493,5.025l-1.494,0.34l-3.124-11.476l1.494-0.407c1.086,3.871,5.161,4.074,8.488,4.278l26.754,1.291
		L541.756,223.423z M535.984,221.726l-16.5-0.951l2.784,10.253L535.984,221.726z"/>
	<path id="path21339" fill="#B19100" d="M523.559,275.913l17.451-1.698c5.024-0.339,6.314-1.086,5.975-4.753l1.427-0.204
		l0.95,10.728l-1.494,0.204c-0.339-3.734-1.629-4.278-6.654-3.734l-26.007,2.444l-0.204-1.494l26.211-22.884l-20.235,2.105
		c-5.024,0.543-6.314,1.086-5.975,4.957v-0.136l-1.426,0.136l-1.154-10.729l1.697-0.204c0.34,3.735,1.494,4.278,6.655,3.871
		l18.198-1.766c5.024-0.611,6.111-1.358,5.771-5.025h1.63l0.747,7.945L523.559,275.913z"/>
	<path id="path21341" fill="#B19100" d="M537.683,327.316l-0.544-1.494c3.871-1.629,8.353-4.617,8.896-9.234
		c0.544-3.531-1.833-6.52-5.229-6.859c-4.074-0.61-6.315,3.531-7.605,6.451c-2.58,5.568-4.821,11.34-12.019,10.39
		c-5.975-0.747-9.303-5.704-8.556-11.476c0.339-2.784,2.037-5.229,2.24-7.063c0.136-0.95-0.407-2.24-0.95-2.987l9.303-2.241
		l0.543,1.494c-4.074,2.444-9.099,5.976-9.643,10.797c-0.407,3.531,1.494,7.063,5.365,7.605
		c10.593,1.289,7.605-18.199,20.031-16.705c5.772,0.747,8.76,5.161,8.013,10.933c-0.204,1.494-0.544,2.241-1.154,3.531
		c-0.543,1.154-0.679,1.494-0.883,2.444c0,0.883,0,1.834,0.543,2.377L537.683,327.316z"/>
	<path id="path21343" fill="#B19100" d="M515.749,354.07l0.407-1.29c5.772,1.697,7.063-2.037,7.809-5.568l0.543-1.833l-10.39-2.988
		c-3.53-0.95-4.684-0.746-5.771,3.328c-2.037,7.4-0.543,9.099,3.871,15.21l-0.747,0.95l-7.605-5.771l6.723-23.97l1.494,0.407
		c-1.155,3.531,0,4.481,4.82,5.908l17.587,4.889c4.89,1.29,6.315,0.883,7.266-2.648l1.494,0.543l-6.519,23.427l-8.352,0.951
		l-0.339-1.29c6.315-2.445,8.352-3.531,9.982-10.051c1.358-4.685,0.747-5.024-3.666-6.314l-8.353-2.24l-0.543,1.833
		c-1.154,4.142-1.154,7.266,3.463,8.963l-0.34,1.087L515.749,354.07z"/>
	<path id="path21345" fill="#B19100" d="M512.219,380.824l-7.945-3.531c-4.685-2.037-6.111-1.833-7.605,1.494l-1.358-0.746
		l5.229-12.088l1.493,0.543c-1.493,3.397-0.543,4.482,4.074,6.52l16.501,7.266c3.531,1.63,5.976,2.92,7.809-1.29l1.358,0.543
		l-5.433,12.63c-2.24,4.957-6.654,10.594-12.766,7.945c-4.277-2.037-5.568-7.198-4.277-11.477l-12.631,1.291
		c-3.53,0.34-5.024,0.203-6.519,3.734l-1.29-0.747l3.123-7.061l18.945-2.037L512.219,380.824z M513.712,381.367l-1.086,2.241
		c-2.037,4.074-2.037,9.847,2.784,12.087c4.277,1.63,8.148-1.154,9.846-4.821c1.494-3.53,0.204-4.278-3.191-5.771L513.712,381.367z"
		/>
	<path id="path21349" fill="#B19100" d="M478.47,406.968l28.181,7.673c2.037,0.543,3.531,1.086,4.821,0.543
		c1.154-0.543,2.104-1.901,2.783-2.987l1.358,0.747l-8.013,11.883l-1.29-0.951c0.883-1.29,2.241-3.123,0.543-4.277
		c-0.95-0.543-2.987-1.087-3.87-1.29l-19.353-5.161l10.389,14.057c0.951,1.154,2.988,3.938,4.143,4.685
		c1.833,1.29,2.92-0.747,4.074-2.037l1.29,0.883l-6.519,9.711l-1.29-0.951c0.543-1.086,1.29-2.037,1.086-3.327
		c-0.136-2.037-2.376-5.228-3.666-6.723l-15.415-21.118L478.47,406.968z"/>
	<path id="path21351" fill="#B19100" d="M465.637,436.913l-0.204-0.204l-0.136-0.136l-0.204-0.136l-0.136-0.136l-0.203-0.136
		l-0.137-0.136l-0.339-0.271l-0.272-0.204l-0.34-0.203l-0.272-0.204l-0.271-0.204l-0.272-0.136l-0.204-0.136l-0.271-0.136
		l-0.204-0.067l-0.271-0.136h-0.203l-0.204-0.068l-0.204-0.068h-0.203h-0.204l-0.203,0.068h-0.204l-0.204,0.068l-0.203,0.067
		l-0.204,0.136l-0.203,0.068l-0.204,0.136l-0.136,0.136l-0.204,0.203l-0.203,0.136l-0.204,0.204l-0.272,0.271l-0.204,0.204
		l-0.203,0.271l-1.29-0.951l8.691-10.186l1.154,0.883c-2.444,2.784-1.901,4.074,2.037,7.47l13.92,11.68
		c3.871,3.327,5.161,3.734,7.605,0.747l1.29,1.086l-8.691,10.254l-1.154-1.154c2.444-2.784,1.833-4.074-2.037-7.401L465.637,436.913
		z"/>
	<path id="path21353" fill="#B19100" d="M449.136,479.014l0.543-1.087c4.074,0.543,10.186,0.543,13.377-2.58
		c5.568-5.229,1.29-12.834-2.987-17.315c-4.617-4.821-13.377-8.896-19.15-3.531c-3.53,3.531-3.53,8.217-2.376,12.834l-1.154,0.203
		c-2.038-5.636-1.494-11.883,2.987-16.161c6.518-6.315,15.958-5.024,21.934,1.291c2.919,3.191,4.82,7.062,5.567,11.34
		c0.951,4.277,0.204,9.099-3.192,12.426c-1.087,1.087-2.173,1.63-3.327,2.037c-0.883,0.544-1.833,0.883-2.58,1.698
		c-0.747,0.679-1.154,1.629-1.494,2.783L449.136,479.014z"/>
	<path id="path21355" fill="#B19100" d="M415.455,486.279l1.154-0.747c3.531,4.821,6.858,2.58,9.643,0.339l1.63-1.086l-6.247-8.76
		c-2.241-2.92-3.191-3.463-6.723-1.086c-6.111,4.413-5.907,6.857-6.315,14.26l-1.086,0.407l-2.444-9.303l20.1-14.464l0.95,1.154
		c-2.987,2.173-2.852,3.531,0.136,7.741l10.797,14.667c2.988,4.074,4.278,4.89,7.266,2.58l0.883,1.358l-19.692,14.26l-7.401-4.617
		l0.543-1.154c6.52,1.901,8.692,2.444,14.26-1.63c3.938-2.784,3.6-3.531,0.951-7.266l-4.957-7.063l-1.697,1.154
		c-3.531,2.581-5.433,4.957-2.784,9.235l-0.951,0.747L415.455,486.279z"/>
	<path id="path21357" fill="#B19100" d="M388.905,519.145l0.95-1.154c3.734,2.037,8.692,4.074,12.834,1.901
		c3.124-1.698,4.277-5.229,2.58-8.42c-1.833-3.464-6.518-2.92-9.846-2.174c-5.907,1.087-12.087,2.377-15.414-4.074
		c-2.784-5.228-0.544-10.796,4.481-13.58c2.58-1.29,5.364-1.29,7.063-2.241c0.883-0.543,1.63-1.63,1.833-2.58l7.266,6.518
		l-0.951,1.087c-4.277-1.834-10.049-3.871-14.327-1.494c-3.124,1.697-4.821,5.229-3.124,8.76c5.228,9.438,19.285-4.278,25.261,6.654
		c2.58,5.229,0.747,10.185-4.278,12.97c-1.29,0.747-2.24,0.747-3.734,1.154c-1.086,0.204-1.494,0.204-2.377,0.543
		c-0.747,0.34-1.493,1.087-1.697,1.834L388.905,519.145z"/>
	<path id="path21359" fill="#B19100" d="M260.975,522.268l0.068-0.475l0.136-0.408l0.067-0.407l0.068-0.407l0.068-0.407l0.068-0.34
		v-0.34l0.068-0.339v-0.34v-0.271v-0.271v-0.271v-0.272l-0.068-0.204l-0.068-0.271l-0.068-0.204l-0.068-0.203l-0.067-0.204
		l-0.136-0.136l-0.068-0.136l-0.136-0.204l-0.136-0.136l-0.204-0.136l-0.136-0.136l-0.204-0.067l-0.204-0.136l-0.204-0.068
		l-0.272-0.136l-0.271-0.068l-0.272-0.067l-0.272-0.136l-0.271-0.068l0.136-1.426l10.457,2.173l-0.204,1.494
		c-3.734-0.747-4.685,0.407-5.568,5.433l-2.988,14.056c-1.698,8.013-6.315,11.136-14.328,9.507
		c-6.858-1.494-10.729-6.111-9.235-13.174l3.124-15.414c1.154-4.821,0.747-6.314-2.581-7.061l0.34-1.494l12.833,2.784l-0.339,1.493
		c-3.735-0.746-4.686,0.34-5.568,5.365l-2.784,12.63c-1.358,6.111-1.358,11.68,5.907,13.173c7.47,1.698,9.506-3.87,10.797-9.981
		L260.975,522.268z"/>
	<path id="path21361" fill="#B19100" d="M296.623,522.812l-1.289,0.543c-2.445-3.463-5.976-7.605-10.594-7.401
		c-3.53,0-6.111,2.784-6.111,6.111c0,4.074,4.414,5.568,7.605,6.518c5.977,1.833,11.883,3.327,12.087,10.593
		c0,5.908-4.482,10.05-10.253,10.05c-2.987,0.136-5.568-1.154-7.401-1.154c-0.951,0-2.037,0.747-2.784,1.29l-3.531-8.896
		l1.494-0.747c2.784,3.735,7.061,8.148,11.883,8.013c3.531,0,6.858-2.444,6.858-6.314c-0.204-10.797-19.149-5.025-19.285-17.451
		c-0.204-5.772,3.87-9.507,9.642-9.643c1.494,0,2.173,0.34,3.667,0.679c1.154,0.407,1.494,0.611,2.444,0.611s1.833-0.407,2.377-0.95
		L296.623,522.812z"/>
	<path id="path21363" fill="#B19100" d="M320.391,511.132l11.34,23.97c0.95,1.834,2.58,5.568,3.938,6.654
		c0.883,0.747,2.036,0.951,3.123,0.951l0.204,1.494l-13.581,1.629l-0.204-1.493c1.494-0.34,4.482-0.136,4.278-2.581
		c-0.136-0.746-0.747-2.24-1.086-2.987l-2.581-5.364l-11.747,1.494l-0.34,1.697c-0.407,1.494-1.29,5.16-1.086,6.451
		c0.136,2.444,2.58,2.444,4.617,2.24l0.203,1.494l-11.882,1.494l-0.272-1.698c3.939-0.339,4.889-4.413,5.433-7.808l5.567-25.94
		L320.391,511.132z M318.014,516.496l-3.531,16.161l10.39-1.29L318.014,516.496z"/>
	<path id="path21367" fill="#B19100" d="M357.397,520.231h0.136h0.204l0.203-0.067h0.136l0.204-0.068h0.204l0.136-0.067l0.203-0.068
		l0.136-0.067l0.204-0.068l0.136-0.067l0.136-0.136l0.136-0.068l0.136-0.068l0.136-0.136l0.136-0.136l0.137-0.067l0.136-0.136
		l0.067-0.136l0.136-0.136l0.068-0.136l0.136-0.204l0.067-0.136l0.068-0.136l0.067-0.204l0.068-0.136v-0.203l0.068-0.137
		l0.067-0.203v-0.136v-0.204V516.7c0-2.037-1.63-3.735-3.667-3.735c-2.104,0-3.734,1.698-3.734,3.735
		S355.293,520.231,357.397,520.231z"/>
	<path id="path21369" fill="#B19100" d="M357.397,520.231h0.136h0.204l0.203-0.067h0.136l0.204-0.068h0.204l0.136-0.067l0.203-0.068
		l0.136-0.067l0.204-0.068l0.136-0.067l0.136-0.136l0.136-0.068l0.136-0.068l0.136-0.136l0.136-0.136l0.137-0.067l0.136-0.136
		l0.067-0.136l0.136-0.136l0.068-0.136l0.136-0.204l0.067-0.136l0.068-0.136l0.067-0.204l0.068-0.136v-0.203l0.068-0.137
		l0.067-0.203v-0.136v-0.204V516.7c0-2.037-1.63-3.735-3.667-3.735c-2.104,0-3.734,1.698-3.734,3.735
		S355.293,520.231,357.397,520.231z"/>
	<path id="path21371" fill="#B19100" d="M212.898,520.231h0.204h0.136l0.204-0.067h0.204l0.136-0.068h0.204l0.204-0.067l0.136-0.068
		l0.136-0.067l0.204-0.068l0.136-0.067l0.136-0.136l0.136-0.068l0.136-0.068l0.136-0.136l0.136-0.136l0.136-0.067l0.136-0.136
		l0.136-0.136l0.068-0.136l0.068-0.136l0.136-0.204l0.068-0.136l0.068-0.136l0.068-0.204l0.068-0.136l0.068-0.203v-0.137
		l0.068-0.203v-0.136v-0.204V516.7c0-2.037-1.63-3.735-3.667-3.735c-2.037,0-3.531,1.698-3.531,3.735
		S210.861,520.231,212.898,520.231z"/>
</g>
</svg>
