<svg xmlns="http://www.w3.org/2000/svg" xml:space="preserve" viewBox="0 0 300 255"><path fill="#0066B2" d="M257.137 126.283c0 64.623-53.234 117.808-117.92 117.808-64.685 0-117.921-53.185-117.921-117.808 0-64.62 53.236-117.805 117.921-117.805 64.683 0 117.92 53.186 117.92 117.805"/><path fill="#FFF" d="M165.816 188.285c50.238 20.67 41.672-31.59 14.775-71.745-15.215-22.723-35.063-41.648-47.582-50.783-41.672-30.411-67.088-11.812-37.83 47.83 9.477 19.32 21.65 32.357 31.162 44.649 7.258 9.381 21.403 14.081 16.421 18.532-5.615 5.024-19.211-17.122-19.211-17.122-10.047-12.107-19.616-25.032-29.479-42.758-22.537-40.504-19.285-81.84 21.501-63.828 34.613 15.286 67.677 58.164 80.974 88.612 6.164 14.114 22.759 69.641-30.435 47.204"/><path fill="#EC1C24" d="M9.148 161.208c22.167-14.763 43.177-24.296 78.939-36.105 50.247-16.594 88.072-27.753 134.472-51.079 22.596-11.358 55.989-33.35 69.451-54.622-3.854 7.88-15.565 23.626-20.983 30.411-62.953 78.832-197.059 74.365-260.996 112.217"/><path fill="#FFF" d="M41.3 103.588c20.188.158 18.296-.04 18.532.197.356 0 16.195 27.28 16.195 27.515 0 .12-.119-9.69-.119-21.965 0-1.417-3.899-5.55-3.781-5.55 5.792 0 13.358.118 13.358.118-2.835 3.307-3.402 3.034-3.427 5.081-.082 6.572-.155 18.718 0 32.359.021 2.042 1.535 2.836 4.018 6.375h-18.56c-6.03-10.038-17.076-28.868-17.024-28.815.086.088-.238 11.811.117 21.261.119 3.12 1.538 4.133 4.139 6.966 0 0 2.995-.08-14.542.118 5.32-2.835 4.614-6.378 4.611-6.495-.192-13.051-.039-24.211-.039-31.416 0-1.181-.08-1.062-3.744-5.55M104.694 123.742c1.7-5.912 3.156-11.198 3.843-14.644.121-.592-1.299-2.716-3.544-4.843l-.16-.326c10.832.033 22.146.091 22.146.091 2.956 7.204 9.694 27.399 14.777 39.801 1.345 3.278 3.664 3.896 3.664 3.896-9.222-.118-26.334-.042-26.242-.118 4.609-4.13 4.018-4.13 2.008-10.156h-14.422c-2.957 6.852.92 10.067 1.417 10.04-3.283.17-14.422 0-14.422 0 6.029-4.251 5.675-5.553 5.675-5.553 1.658-5.891 3.579-12.343 5.26-18.188l5.913.002-2.543 8.147h11.469l-6.384-16.298-2.542 8.149h-5.913M203.759 124.333c1.701-5.911 3.156-11.197 3.847-14.643.116-.592-1.298-2.719-3.545-4.843l-.158-.329c10.833.034 22.145.093 22.145.093 2.956 7.205 9.692 27.396 14.776 39.8 1.348 3.281 3.668 3.896 3.668 3.896-9.222-.114-26.334-.039-26.244-.118 4.61-4.135 4.017-4.135 2.008-10.155h-14.423c-2.954 6.852.922 10.063 1.418 10.037-3.28.169-14.422 0-14.422 0 6.029-4.25 5.675-5.549 5.675-5.549 1.654-5.892 3.575-12.346 5.255-18.189l5.914.002-2.541 8.147h11.465l-6.381-16.298s-1.27 4.072-2.544 8.148h-5.913M185.145 114.651c-.236-8.388 0-11.104 0-11.104-3.661 2.953-1.815 2.578-10.993 1.062-26.482-4.37-28.491 20.312-14.067 25.865 12.083 4.649 16.356 5.561 14.54 9.919-.59 1.419-11.585 6.614-22.934-3.895l.234 14.643c1.418-1.461 5.322-4.135 5.322-4.135.119 0 12.298 5.368 23.288-.234 16.906-8.624 8.469-22.573-9.575-28.109-15.014-4.605-.829-15.353 14.069-3.896"/><path fill="#EC1C24" d="M292.25 19.824c-17.971 53.313-89.964 94.476-150.565 133.784-36.563 23.713-72.858 51.011-97.848 74.237-6.589 6.126 1.346-2.287-1.18.296 34.872-40.153 74.986-64.066 97.149-79.126 37.493-25.468 58.814-31.885 123.484-91.462"/><path fill="#FFF" d="M165.816 188.285c50.238 20.67 41.672-31.59 14.775-71.745-15.215-22.723-33.988-40.745-47.582-50.783-15.88-11.724-17.436-12.695-17.436-12.695 35.464 16.828 67.677 58.164 80.974 88.612 6.164 14.114 22.759 69.641-30.435 47.204M140.843 19.181c0 .524-.435.958-.963.958s-.958-.434-.958-.958c0-.527.431-.96.958-.96.528 0 .963.434.963.96M147.491 33.721a1.19 1.19 0 0 1-1.184 1.183 1.19 1.19 0 0 1-1.182-1.183c0-.647.534-1.18 1.182-1.18.65.001 1.184.533 1.184 1.18M164.782 57.489a1.19 1.19 0 0 1-1.186 1.181 1.19 1.19 0 0 1-1.181-1.181c0-.648.534-1.181 1.181-1.181a1.19 1.19 0 0 1 1.186 1.181M137.001 41.914a.966.966 0 0 1-.962.961.965.965 0 0 1-.96-.961c0-.526.434-.958.96-.958.527 0 .962.432.962.958M147.342 47.377a.963.963 0 0 1-.958.959.965.965 0 0 1-.961-.959c0-.526.434-.96.961-.96.526 0 .958.434.958.96M133.896 32.098c0 .647-.533 1.18-1.184 1.18a1.19 1.19 0 0 1-1.183-1.18c0-.647.535-1.18 1.183-1.18.651 0 1.184.533 1.184 1.18M118.233 41.62a.965.965 0 0 1-.961.959.965.965 0 0 1-.961-.959c0-.526.434-.959.961-.959.526 0 .961.434.961.959M121.04 43.539a.964.964 0 0 1-.959.958.964.964 0 0 1-.962-.958c0-.528.434-.959.962-.959.526 0 .959.433.959.959M123.849 45.458a.964.964 0 0 1-.961.959.963.963 0 0 1-.96-.959c0-.528.433-.961.96-.961.526 0 .961.435.961.961M119.563 49.148a.963.963 0 0 1-.959.959.963.963 0 0 1-.96-.959c0-.527.434-.959.96-.959.524 0 .959.433.959.959M97.25 64.796a.965.965 0 0 1-.96.959.965.965 0 0 1-.959-.959c0-.526.434-.959.959-.959.526 0 .96.434.96.959M101.389 69.816a.965.965 0 0 1-.962.958.964.964 0 0 1-.96-.958c0-.525.434-.96.96-.96.527 0 .962.435.962.96M98.135 150.863a.966.966 0 0 1-.958.961.966.966 0 0 1-.958-.961c0-.526.432-.959.958-.959s.958.433.958.959M98.728 173.227a1.19 1.19 0 0 1-1.183 1.183 1.186 1.186 0 0 1-1.182-1.183c0-.646.533-1.181 1.182-1.181.648 0 1.183.533 1.183 1.181M86.018 184.669a.965.965 0 0 1-.959.959.965.965 0 0 1-.961-.959c0-.525.434-.959.961-.959a.964.964 0 0 1 .959.959M70.797 189.321c0 .645-.533 1.18-1.18 1.18a1.19 1.19 0 0 1-1.184-1.18 1.19 1.19 0 0 1 1.184-1.183c.648.002 1.18.534 1.18 1.183M67.696 178.984a1.19 1.19 0 0 1-1.183 1.18 1.186 1.186 0 0 1-1.182-1.18c0-.646.534-1.184 1.182-1.184.647.002 1.183.54 1.183 1.184M65.923 185.555c0 .527-.434.96-.962.96a.965.965 0 0 1-.959-.96c0-.524.434-.958.959-.958.526 0 .962.432.962.958M54.545 180.093a.965.965 0 0 1-.961.959.963.963 0 0 1-.96-.959c0-.525.432-.958.96-.958.527 0 .961.43.961.958M94.294 198.546a.965.965 0 0 1-.961.958.964.964 0 0 1-.959-.958c0-.526.434-.96.959-.96a.964.964 0 0 1 .961.96M106.264 189.763c0 .649-.534 1.18-1.182 1.18a1.184 1.184 0 0 1-1.182-1.18 1.19 1.19 0 0 1 1.182-1.183 1.19 1.19 0 0 1 1.182 1.183M107.593 201.054a.967.967 0 0 1-.961.963.966.966 0 0 1-.959-.963c0-.523.434-.959.959-.959.527 0 .961.434.961.959M156.803 190.28a.965.965 0 0 1-.959.957.964.964 0 0 1-.961-.957.96.96 0 0 1 1.92 0M133.896 198.399a.966.966 0 0 1-.961.957.967.967 0 0 1-.962-.957.97.97 0 0 1 .962-.963c.527 0 .961.436.961.963M195.518 210.064a.964.964 0 0 1-.96.958.966.966 0 0 1-.96-.958c0-.524.435-.961.96-.961a.965.965 0 0 1 .96.961"/><path fill="#FFF" d="M200.543 164.667c0 .646-.534 1.18-1.182 1.18a1.19 1.19 0 0 1-1.186-1.18c0-.648.535-1.185 1.186-1.185a1.19 1.19 0 0 1 1.182 1.185M191.081 171.088a.959.959 0 0 1-1.916 0c0-.526.432-.961.961-.961a.963.963 0 0 1 .955.961M200.396 172.933c0 .649-.537 1.186-1.185 1.186a1.194 1.194 0 0 1-1.186-1.186c0-.646.538-1.18 1.186-1.18a1.188 1.188 0 0 1 1.185 1.18M191.081 184.371a.96.96 0 0 1-.955.961.963.963 0 0 1-.961-.961c0-.522.432-.958.961-.958.523 0 .955.436.955.958M215.17 158.245a.964.964 0 0 1-.958.959.967.967 0 0 1-.962-.959.96.96 0 0 1 1.92 0M217.534 164.075c0 .646-.532 1.183-1.181 1.183a1.192 1.192 0 0 1-1.185-1.183 1.19 1.19 0 0 1 1.185-1.181 1.188 1.188 0 0 1 1.181 1.181M234.088 171.015c0 .649-.537 1.18-1.185 1.18a1.184 1.184 0 0 1-1.181-1.18c0-.646.532-1.181 1.181-1.181a1.19 1.19 0 0 1 1.185 1.181M217.24 183.341a.965.965 0 0 1-.962.958.964.964 0 0 1-.96-.958c0-.526.435-.959.96-.959.527 0 .962.432.962.959M227.879 173.302a.965.965 0 0 1-.959.959.964.964 0 0 1-.96-.959c0-.525.433-.959.96-.959a.963.963 0 0 1 .959.959M225.959 188.801a.967.967 0 0 1-.961.962.967.967 0 0 1-.962-.962c0-.522.436-.959.962-.959.525 0 .961.435.961.959M230.431 163.042c0 .81-.669 1.476-1.48 1.476a1.482 1.482 0 0 1-1.478-1.476c0-.809.664-1.476 1.478-1.476.813 0 1.48.667 1.48 1.476"/><path fill="#FFF" d="m228.951 158.537-.443 4.062-4.027.443 4.065.44.444 4.21.441-4.21 3.992-.512-4.029-.371-.443-4.062M220.086 188.729c0 .81-.669 1.476-1.479 1.476s-1.478-.666-1.478-1.476c0-.811.668-1.479 1.478-1.479.81 0 1.479.667 1.479 1.479"/><path fill="#FFF" d="m218.605 184.226-.439 4.059-4.027.444 4.059.444.444 4.205.446-4.205 3.991-.519-4.029-.369-.445-4.059M109.849 66.79c0 .81-.669 1.476-1.481 1.476-.81 0-1.478-.667-1.478-1.476 0-.809.668-1.476 1.478-1.476a1.485 1.485 0 0 1 1.481 1.476"/><path fill="#FFF" d="m108.368 62.288-.442 4.059-4.026.443 4.061.442.444 4.208.444-4.208 3.99-.516-4.027-.369-.444-4.059M164.818 31.066c0 .808-.669 1.476-1.479 1.476a1.488 1.488 0 0 1-1.478-1.476c0-.81.671-1.478 1.478-1.478a1.486 1.486 0 0 1 1.479 1.478"/><path fill="#FFF" d="m163.339 26.563-.442 4.059-4.025.444 4.061.441.446 4.208.442-4.208 3.99-.517-4.026-.368-.446-4.059M98.024 212.35c0 .812-.665 1.478-1.476 1.478a1.483 1.483 0 0 1-1.477-1.478c0-.811.665-1.477 1.477-1.477a1.482 1.482 0 0 1 1.476 1.477"/><path fill="#FFF" d="m96.548 207.848-.444 4.059-4.026.443 4.063.441.444 4.209.442-4.209 3.992-.515-4.029-.369-.442-4.059"/><path fill="#EC1C24" d="M24.14 151.908c-6.454 3.158-12.235 6.277-17.14 9.324l2.983 1.082c4.29-2.64 9.441-5.396 14.866-7.824M58.212 211.564a647.582 647.582 0 0 0-18.113 16.405l-.271 4.069c5.601-5.77 12.478-11.999 20.419-18.609"/></svg>