<svg viewBox="0 0 576 576" xmlns="http://www.w3.org/2000/svg" xmlns:xlink="http://www.w3.org/1999/xlink"><linearGradient id="a"><stop offset="0" stop-color="#e7d298"/><stop offset="1" stop-color="#c4a006"/></linearGradient><radialGradient id="b" cx="134.135" cy="73.116" gradientUnits="userSpaceOnUse" r="523.52" xlink:href="#a"/><radialGradient id="c" cx="134.132" cy="73.136" gradientUnits="userSpaceOnUse" r="523.481" xlink:href="#a"/><radialGradient id="d" cx="134.135" cy="73.116" gradientUnits="userSpaceOnUse" r="523.521" xlink:href="#a"/><radialGradient id="e" cx="134.133" cy="73.136" gradientUnits="userSpaceOnUse" r="523.481" xlink:href="#a"/><radialGradient id="f" cx="134.133" cy="73.143" gradientUnits="userSpaceOnUse" r="523.461" xlink:href="#a"/><radialGradient id="g" cx="134.132" cy="73.136" gradientUnits="userSpaceOnUse" r="523.48" xlink:href="#a"/><radialGradient id="h" cx="134.133" cy="73.144" gradientUnits="userSpaceOnUse" r="523.459" xlink:href="#a"/><radialGradient id="i" cx="134.133" cy="73.143" gradientUnits="userSpaceOnUse" r="523.462" xlink:href="#a"/><radialGradient id="j" cx="134.132" cy="73.136" gradientUnits="userSpaceOnUse" r="523.482" xlink:href="#a"/><radialGradient id="k" cx="134.145" cy="73.118" gradientUnits="userSpaceOnUse" r="523.489" xlink:href="#a"/><radialGradient id="l" cx="134.132" cy="73.136" gradientUnits="userSpaceOnUse" r="523.483" xlink:href="#a"/><radialGradient id="m" cx="134.134" cy="73.118" gradientUnits="userSpaceOnUse" r="523.498" xlink:href="#a"/><radialGradient id="n" cx="134.145" cy="73.121" gradientUnits="userSpaceOnUse" r="523.486" xlink:href="#a"/><radialGradient id="o" cx="134.135" cy="73.119" gradientUnits="userSpaceOnUse" r="523.493" xlink:href="#a"/><radialGradient id="p" cx="134.132" cy="73.112" gradientUnits="userSpaceOnUse" r="523.503" xlink:href="#a"/><radialGradient id="q" cx="134.136" cy="73.118" gradientUnits="userSpaceOnUse" r="523.496" xlink:href="#a"/><radialGradient id="r" cx="134.132" cy="73.113" gradientUnits="userSpaceOnUse" r="523.502" xlink:href="#a"/><radialGradient id="s" cx="134.149" cy="73.144" gradientUnits="userSpaceOnUse" r="523.462" xlink:href="#a"/><radialGradient id="t" cx="134.131" cy="73.112" gradientUnits="userSpaceOnUse" r="523.501" xlink:href="#a"/><radialGradient id="u" cx="134.148" cy="73.143" gradientUnits="userSpaceOnUse" r="523.461" xlink:href="#a"/><radialGradient id="v" cx="134.114" cy="73.131" gradientUnits="userSpaceOnUse" r="523.501" xlink:href="#a"/><radialGradient id="w" cx="134.148" cy="73.144" gradientUnits="userSpaceOnUse" r="523.462" xlink:href="#a"/><radialGradient id="x" cx="134.112" cy="73.132" gradientUnits="userSpaceOnUse" r="523.503" xlink:href="#a"/><linearGradient id="y"><stop offset="0" stop-color="#efe0ba"/><stop offset="1" stop-color="#c4a006"/></linearGradient><radialGradient id="z" cx="134.134" cy="73.137" gradientUnits="userSpaceOnUse" r="523.481" xlink:href="#y"/><radialGradient id="A" cx="134.131" cy="73.125" gradientUnits="userSpaceOnUse" r="523.497" xlink:href="#y"/><radialGradient id="B" cx="134.134" cy="73.137" gradientUnits="userSpaceOnUse" r="523.48" xlink:href="#y"/><radialGradient id="C" cx="134.133" cy="73.146" gradientUnits="userSpaceOnUse" r="523.456" xlink:href="#a"/><radialGradient id="D" cx="134.134" cy="73.139" gradientUnits="userSpaceOnUse" r="523.476" xlink:href="#y"/><radialGradient id="E" cx="134.133" cy="73.143" gradientUnits="userSpaceOnUse" r="523.46" xlink:href="#a"/><radialGradient id="F" cx="134.134" cy="73.136" gradientUnits="userSpaceOnUse" r="523.481" xlink:href="#y"/><radialGradient id="G" cx="134.132" cy="73.132" gradientUnits="userSpaceOnUse" r="523.486" xlink:href="#a"/><radialGradient id="H" cx="134.134" cy="73.132" gradientUnits="userSpaceOnUse" r="523.487" xlink:href="#y"/><radialGradient id="I" cx="134.133" cy="73.134" gradientUnits="userSpaceOnUse" r="523.482" xlink:href="#a"/><radialGradient id="J" cx="134.135" cy="73.134" gradientUnits="userSpaceOnUse" r="523.484" xlink:href="#y"/><radialGradient id="K" cx="134.145" cy="73.198" gradientUnits="userSpaceOnUse" r="523.375" xlink:href="#a"/><radialGradient id="L" cx="134.144" cy="73.192" gradientUnits="userSpaceOnUse" r="523.395" xlink:href="#a"/><radialGradient id="M" cx="134.146" cy="73.192" gradientUnits="userSpaceOnUse" r="523.394" xlink:href="#y"/><radialGradient id="N" cx="134.146" cy="73.116" gradientUnits="userSpaceOnUse" r="523.489" xlink:href="#a"/><radialGradient id="O" cx="134.136" cy="73.133" gradientUnits="userSpaceOnUse" r="523.484" xlink:href="#y"/><radialGradient id="P" cx="134.145" cy="73.059" gradientUnits="userSpaceOnUse" r="523.561" xlink:href="#a"/><radialGradient id="Q" cx="134.134" cy="73.077" gradientUnits="userSpaceOnUse" r="523.555" xlink:href="#y"/><radialGradient id="R" cx="134.135" cy="73.117" gradientUnits="userSpaceOnUse" r="523.496" xlink:href="#a"/><radialGradient id="S" cx="134.135" cy="73.136" gradientUnits="userSpaceOnUse" r="523.48" xlink:href="#y"/><radialGradient id="T" cx="134.135" cy="73.114" gradientUnits="userSpaceOnUse" r="523.499" xlink:href="#a"/><radialGradient id="U" cx="134.135" cy="73.133" gradientUnits="userSpaceOnUse" r="523.483" xlink:href="#y"/><radialGradient id="V" cx="134.129" cy="73.112" gradientUnits="userSpaceOnUse" r="523.504" xlink:href="#a"/><radialGradient id="W" cx="134.131" cy="73.137" gradientUnits="userSpaceOnUse" r="523.482" xlink:href="#y"/><radialGradient id="X" cx="134.132" cy="73.114" gradientUnits="userSpaceOnUse" r="523.501" xlink:href="#a"/><radialGradient id="Y" cx="134.134" cy="73.138" gradientUnits="userSpaceOnUse" r="523.479" xlink:href="#y"/><radialGradient id="Z" cx="134.151" cy="73.146" gradientUnits="userSpaceOnUse" r="523.456" xlink:href="#a"/><radialGradient id="aa" cx="134.136" cy="73.138" gradientUnits="userSpaceOnUse" r="523.477" xlink:href="#y"/><radialGradient id="ab" cx="134.134" cy="73.135" gradientUnits="userSpaceOnUse" r="523.485" xlink:href="#a"/><radialGradient id="ac" cx="134.134" cy="73.129" gradientUnits="userSpaceOnUse" r="523.488" xlink:href="#a"/><radialGradient id="ad" cx="134.136" cy="73.128" gradientUnits="userSpaceOnUse" r="523.5" xlink:href="#a"/><radialGradient id="ae" cx="134.148" cy="73.145" gradientUnits="userSpaceOnUse" r="523.461" xlink:href="#a"/><radialGradient id="af" cx="134.114" cy="73.131" gradientUnits="userSpaceOnUse" r="523.505" xlink:href="#a"/><radialGradient id="ag" cx="134.143" cy="73.125" gradientUnits="userSpaceOnUse" r="523.468" xlink:href="#a"/><radialGradient id="ah" cx="134.137" cy="73.129" gradientUnits="userSpaceOnUse" r="523.483" xlink:href="#a"/><radialGradient id="ai" cx="134.103" cy="73.101" gradientUnits="userSpaceOnUse" r="523.57" xlink:href="#a"/><radialGradient id="aj" cx="134.094" cy="73.104" gradientUnits="userSpaceOnUse" r="523.593" xlink:href="#a"/><radialGradient id="ak" cx="134.128" cy="73.132" gradientUnits="userSpaceOnUse" r="523.504" xlink:href="#a"/><radialGradient id="al" cx="134.135" cy="73.141" gradientUnits="userSpaceOnUse" r="523.471" xlink:href="#y"/><radialGradient id="am" cx="134.136" cy="73.154" gradientUnits="userSpaceOnUse" r="523.41" xlink:href="#y"/><radialGradient id="an" cx="134.136" cy="73.143" gradientUnits="userSpaceOnUse" r="523.472" xlink:href="#y"/><radialGradient id="ao" cx="134.129" cy="73.149" gradientUnits="userSpaceOnUse" r="523.474" xlink:href="#y"/><radialGradient id="ap" cx="134.134" cy="73.136" gradientUnits="userSpaceOnUse" r="523.482" xlink:href="#y"/><radialGradient id="aq" cx="134.134" cy="73.136" gradientUnits="userSpaceOnUse" r="523.48" xlink:href="#y"/><radialGradient id="ar" cx="134.133" cy="73.133" gradientUnits="userSpaceOnUse" r="523.49" xlink:href="#a"/><radialGradient id="as" cx="134.135" cy="73.134" gradientUnits="userSpaceOnUse" r="523.483" xlink:href="#y"/><radialGradient id="at" cx="134.134" cy="73.128" gradientUnits="userSpaceOnUse" r="523.49" xlink:href="#a"/><radialGradient id="au" cx="134.135" cy="73.136" gradientUnits="userSpaceOnUse" r="523.481" xlink:href="#y"/><radialGradient id="av" cx="134.135" cy="73.129" gradientUnits="userSpaceOnUse" r="523.498" xlink:href="#a"/><radialGradient id="aw" cx="134.134" cy="73.135" gradientUnits="userSpaceOnUse" r="523.484" xlink:href="#y"/><radialGradient id="ax" cx="134.136" cy="73.13" gradientUnits="userSpaceOnUse" r="523.494" xlink:href="#a"/><radialGradient id="ay" cx="134.134" cy="73.137" gradientUnits="userSpaceOnUse" r="523.478" xlink:href="#y"/><radialGradient id="az" cx="134.134" cy="73.129" gradientUnits="userSpaceOnUse" r="523.489" xlink:href="#a"/><radialGradient id="aA" cx="134.136" cy="73.129" gradientUnits="userSpaceOnUse" r="523.497" xlink:href="#a"/><radialGradient id="aB" cx="134.135" cy="73.114" gradientUnits="userSpaceOnUse" r="523.527" xlink:href="#a"/><radialGradient id="aC" cx="134.134" cy="73.134" gradientUnits="userSpaceOnUse" r="523.485" xlink:href="#y"/><radialGradient id="aD" cx="134.133" cy="73.137" gradientUnits="userSpaceOnUse" r="523.478" xlink:href="#a"/><radialGradient id="aE" cx="134.135" cy="73.137" gradientUnits="userSpaceOnUse" r="523.479" xlink:href="#y"/><radialGradient id="aF" cx="134.139" cy="73.098" gradientUnits="userSpaceOnUse" r="523.558" xlink:href="#a"/><radialGradient id="aG" cx="134.137" cy="73.118" gradientUnits="userSpaceOnUse" r="523.517" xlink:href="#a"/><radialGradient id="aH" cx="134.139" cy="73.119" gradientUnits="userSpaceOnUse" r="523.518" xlink:href="#y"/><radialGradient id="aI" cx="134.151" cy="73.142" gradientUnits="userSpaceOnUse" r="523.46" xlink:href="#a"/><radialGradient id="aJ" cx="134.136" cy="73.134" gradientUnits="userSpaceOnUse" r="523.481" xlink:href="#y"/><radialGradient id="aK" cx="134.109" cy="73.132" gradientUnits="userSpaceOnUse" r="523.506" xlink:href="#a"/><radialGradient id="aL" cx="134.13" cy="73.137" gradientUnits="userSpaceOnUse" r="523.484" xlink:href="#y"/><radialGradient id="aM" cx="134.11" cy="73.13" gradientUnits="userSpaceOnUse" r="523.51" xlink:href="#a"/><radialGradient id="aN" cx="134.131" cy="73.134" gradientUnits="userSpaceOnUse" r="523.486" xlink:href="#y"/><radialGradient id="aO" cx="134.144" cy="73.125" gradientUnits="userSpaceOnUse" r="523.466" xlink:href="#a"/><radialGradient id="aP" cx="134.15" cy="73.124" gradientUnits="userSpaceOnUse" r="523.459" xlink:href="#a"/><radialGradient id="aQ" cx="134.14" cy="73.135" gradientUnits="userSpaceOnUse" r="523.473" xlink:href="#y"/><radialGradient id="aR" cx="134.062" cy="73.153" gradientUnits="userSpaceOnUse" r="523.611" xlink:href="#a"/><radialGradient id="aS" cx="134.059" cy="73.16" gradientUnits="userSpaceOnUse" r="523.608" xlink:href="#y"/><radialGradient id="aT" cx="134.135" cy="73.13" gradientUnits="userSpaceOnUse" r="523.485" xlink:href="#a"/><radialGradient id="aU" cx="134.133" cy="73.137" gradientUnits="userSpaceOnUse" r="523.481" xlink:href="#y"/><radialGradient id="aV" cx="134.138" cy="73.129" gradientUnits="userSpaceOnUse" r="523.481" xlink:href="#a"/><radialGradient id="aW" cx="134.136" cy="73.137" gradientUnits="userSpaceOnUse" r="523.477" xlink:href="#y"/><radialGradient id="aX" cx="134.132" cy="73.112" gradientUnits="userSpaceOnUse" r="523.495" xlink:href="#a"/><radialGradient id="aY" cx="134.124" cy="73.116" gradientUnits="userSpaceOnUse" r="523.512" xlink:href="#a"/><radialGradient id="aZ" cx="134.121" cy="73.123" gradientUnits="userSpaceOnUse" r="523.509" xlink:href="#y"/><radialGradient id="a0" cx="134.129" cy="73.133" gradientUnits="userSpaceOnUse" r="523.501" xlink:href="#a"/><radialGradient id="a1" cx="134.136" cy="73.137" gradientUnits="userSpaceOnUse" r="523.476" xlink:href="#y"/><radialGradient id="a2" cx="134.135" cy="73.131" gradientUnits="userSpaceOnUse" r="523.493" xlink:href="#a"/><radialGradient id="a3" cx="134.141" cy="73.135" gradientUnits="userSpaceOnUse" r="523.469" xlink:href="#y"/><radialGradient id="a4" cx="134.13" cy="73.129" gradientUnits="userSpaceOnUse" r="523.504" xlink:href="#a"/><radialGradient id="a5" cx="134.136" cy="73.133" gradientUnits="userSpaceOnUse" r="523.478" xlink:href="#y"/><radialGradient id="a6" cx="134.125" cy="73.124" gradientUnits="userSpaceOnUse" r="523.51" xlink:href="#a"/><radialGradient id="a7" cx="134.116" cy="73.127" gradientUnits="userSpaceOnUse" r="523.533" xlink:href="#a"/><radialGradient id="a8" cx="134.122" cy="73.131" gradientUnits="userSpaceOnUse" r="523.507" xlink:href="#y"/><radialGradient id="a9" cx="134.127" cy="73.13" gradientUnits="userSpaceOnUse" r="523.511" xlink:href="#a"/><radialGradient id="ba" cx="134.128" cy="73.131" gradientUnits="userSpaceOnUse" r="523.507" xlink:href="#a"/><radialGradient id="bb" cx="134.135" cy="73.137" gradientUnits="userSpaceOnUse" r="523.48" xlink:href="#y"/><radialGradient id="bc" cx="134.155" cy="73.139" gradientUnits="userSpaceOnUse" r="523.411" xlink:href="#a"/><radialGradient id="bd" cx="134.148" cy="73.135" gradientUnits="userSpaceOnUse" r="523.434" xlink:href="#a"/><radialGradient id="be" cx="134.155" cy="73.14" gradientUnits="userSpaceOnUse" r="523.407" xlink:href="#y"/><radialGradient id="bf" cx="215.98" cy="223.069" gradientUnits="userSpaceOnUse" r="252.482"><stop offset="0" stop-color="#0fb3e8"/><stop offset=".651" stop-color="#006faf"/><stop offset="1" stop-color="#005699"/></radialGradient><linearGradient id="bg"><stop offset="0" stop-color="#cdd5e9"/><stop offset=".105" stop-color="#c0cbe3"/><stop offset=".502" stop-color="#96abd1"/><stop offset=".814" stop-color="#7e99c6"/><stop offset="1" stop-color="#7693c2"/></linearGradient><radialGradient id="bh" cx="222.048" cy="222.005" gradientUnits="userSpaceOnUse" r="280.105" xlink:href="#bg"/><radialGradient id="bi" cx="222.048" cy="222" gradientUnits="userSpaceOnUse" r="280.109" xlink:href="#bg"/><radialGradient id="bj" cx="222.052" cy="222.006" gradientUnits="userSpaceOnUse" r="280.098" xlink:href="#bg"/><radialGradient id="bk" cx="222.048" cy="222.005" gradientUnits="userSpaceOnUse" r="280.106" xlink:href="#bg"/><radialGradient id="bl" cx="222.057" cy="222.013" gradientUnits="userSpaceOnUse" r="280.097" xlink:href="#bg"/><radialGradient id="bm" cx="222.048" cy="226.989" gradientUnits="userSpaceOnUse" r="277.669" xlink:href="#bg"/><radialGradient id="bn" cx="222.048" cy="222.006" gradientUnits="userSpaceOnUse" r="280.106" xlink:href="#bg"/><radialGradient id="bo" cx="288" cy="288" fx="248.304" fy="185.323" gradientUnits="userSpaceOnUse" r="179.699"><stop offset="0" stop-color="#0fb3e8"/><stop offset=".393" stop-color="#5d88a1"/><stop offset=".813" stop-color="#454c52"/><stop offset="1"/></radialGradient><path d="m375.703 457.733c1.758 5.457 3.117 12.483 8.752 14.905l3.463.944c7.02-1.832 13.174-5.755 18.954-9.502 5.851-4.742 13.377-10.943 15.145-17.896.197-5.157-3.853-8.541-7.611-11.607-13.256-9.317-27.503-17.013-42.463-22.827l-.707.477c-.977 15.318 2.155 30.243 4.467 45.506zm94.256-112.02c5.098 2.616 11.041 6.628 16.725 4.363l3.113-1.792c3.105-5.294 4.713-11.201 6.006-16.968.063-.48.136-.957.184-1.44.789-7.679 2.197-18.473-1.766-25.131-3.496-3.778-8.768-3.311-13.6-2.829-1.84.322-3.673.676-5.501 1.047a285.803 285.803 0 0 1 -30.753 23.361c8.014 6.977 16.889 12.983 25.592 19.389zm-36.295 65.867c3.711 4.368 7.662 10.354 13.783 10.42l3.566-.452c5.393-4.084 9.398-9.566 13.083-14.887.118-.211.245-.413.36-.626 3.67-6.795 9.098-16.233 7.988-23.896-1.787-4.832-6.834-6.415-11.471-7.82-15.688-3.5-31.672-5.147-47.602-4.823-.402.619-.806 1.238-1.217 1.851 4.952 14.48 13.54 27.051 21.51 40.233zm-293.907-80.086c-4.428 4.178-8.418 9.116-12.715 13.936-1.385 4.663-9.541 9.067-4.164 14.023 11.602 1.987 23.077 2.635 34.763 1.831a148.744 148.744 0 0 1 -11.539-26.021 283.892 283.892 0 0 1 -6.345-3.769zm240.593 74.11c6.798 4.041 14.861 6.267 22.91 9.097 4.855-.51 12.041 5.336 14.566-1.521-2.654-11.667-6.514-22.671-11.854-33.308a150.37 150.37 0 0 1 -25.622 25.732zm-109.678 30.918c1.973 7.619 6.051 14.838 9.727 22.468 3.784 3.067 4.735 12.288 11.369 9.222 6.367-10.103 11.412-20.598 15.15-31.872a151.127 151.127 0 0 1 -18.924 1.188 151.46 151.46 0 0 1 -17.322-1.006zm-100.053-55.885c-3.897 6.724-6.107 14.614-8.878 22.52.507 4.85-5.331 12.04 1.526 14.562 11.526-2.62 22.412-6.426 32.943-11.676a150.42 150.42 0 0 1 -25.591-25.406zm58.94 89.066c-2.621 5.096-6.623 11.031-4.353 16.717l1.78 3.11c6.691 3.925 14.367 5.455 21.499 6.988 7.436.768 16.875 1.589 22.907-2.002 3.789-3.5 3.311-8.763 2.838-13.596-2.776-15.867-7.392-31.321-13.806-45.94-.698-.131-1.396-.261-2.089-.4-11.395 10.095-19.688 22.773-28.776 35.123zm-131.562-166.902c-5.702-.475-12.721-1.899-17.106 2.373l-2.199 2.836c-1.15 8.362.752 16.721 2.122 24.43 2.063 6.731 4.881 14.464 9.961 18.259 4.684 2.155 9.367-.291 13.643-2.58a202.994 202.994 0 0 0 27.918-21.332 285.81 285.81 0 0 1 -30.621-23.087c-1.24-.296-2.479-.595-3.718-.899zm20.286 71.907c-5.453 1.747-12.482 3.112-14.9 8.741l-.937 3.462c2.03 7.787 6.634 14.512 10.714 20.841 4.634 5.691 10.534 12.492 17.096 14.154 5.152.206 8.545-3.848 11.614-7.6 9.211-13.11 16.834-27.214 22.622-42.002-.48-.702-.952-1.41-1.421-2.121-15.058-.841-29.757 2.237-44.788 4.525z" fill="none"/><path d="m153.792 339.522c20.714 53.922 72.981 92.2 134.201 92.2 61.216 0 113.486-38.276 134.204-92.195-39.985 21.408-85.67 33.561-134.198 33.561-48.531 0-94.219-12.155-134.207-33.566zm150.315 138.769c-.475 5.705-1.904 12.726 2.373 17.109l2.832 2.197c7.265 1.002 14.528-.302 21.369-1.563 7.252-2.147 16.692-4.998 21.018-10.79 2.168-4.676-.295-9.37-2.576-13.643-8.661-13.63-18.861-26.158-30.415-37.239-.462.097-.925.189-1.388.281-6.721 13.736-9.539 28.696-13.213 43.648z" fill="none"/><path d="m164.861 433.556c-4.372 3.709-10.341 7.666-10.419 13.793l.447 3.55c4.93 6.504 11.868 10.979 18.121 15.324 6.255 3.328 13.792 6.877 20.122 5.952 4.838-1.784 6.417-6.822 7.814-11.473 3.523-15.752 5.171-31.813 4.829-47.803-.363-.239-.729-.475-1.089-.717-14.303 4.989-26.763 13.487-39.825 21.374zm253.859-72.926c7.745 1.066 15.938.068 24.347-.405 4.289-2.319 13.166.333 12.865-6.98-5.713-8.068-12.021-15.403-19.12-22.105a282.966 282.966 0 0 1 -6.919 4.129 148.831 148.831 0 0 1 -11.173 25.361zm-203.676 82.175c2.325 4.29-.327 13.159 6.985 12.869 9.693-6.867 18.337-14.598 26.089-23.533a148.672 148.672 0 0 1 -33.462-13.815c-1.093 7.778-.087 16.021.388 24.479zm131.382 6.166c4.68 1.399 9.08 9.547 14.027 4.172 2.028-11.8 2.665-23.458 1.805-35.334a148.578 148.578 0 0 1 -33.461 14.081c4.738 6.301 11.298 11.43 17.629 17.081z" fill="none"/><path d="m78.217 322.913c.37 1.747.786 3.501 1.318 5.25.399 1.34.821 2.784 1.278 4.276-1.37-7.709-3.271-16.067-2.122-24.43l2.199-2.836c4.385-4.272 11.404-2.848 17.106-2.373 1.239.305 2.479.603 3.717.898a286.443 286.443 0 0 1 -37.522-39.308c-.138.316-.278.644-.416.955-8.763 13.272-22.361 16.586-36.838 16.116-.054 4.263-.059 9.376-.054 12.914 16.213-.942 32.955 4.621 40.402 21.231a229.49 229.49 0 0 1 4.195 11.921 125.188 125.188 0 0 0 -.484-3.83z" fill="url(#b)"/><path d="m108.028 401.046c1.005 1.458 2.063 2.923 3.214 4.34.612.754 1.252 1.549 1.918 2.366-4.08-6.329-8.684-13.054-10.714-20.841l.937-3.462c2.417-5.629 9.447-6.994 14.9-8.741 15.031-2.288 29.73-5.366 44.788-4.525a149.469 149.469 0 0 1 -5.431-8.898c-11.686.804-23.161.156-34.763-1.831-5.377-4.956 2.779-9.36 4.164-14.023 4.297-4.819 8.288-9.758 12.715-13.936a285.049 285.049 0 0 1 -7.422-4.708 202.994 202.994 0 0 1 -27.918 21.332c-4.275 2.289-8.959 4.735-13.643 2.58-5.08-3.795-7.898-11.527-9.961-18.259.16.902.315 1.797.455 2.68l-7.005 2.058c-.818-3.261-1.766-6.47-2.783-9.65.996 8.982 1.041 17.9.851 25.662-3.017 15.628-14.307 23.896-27.868 28.996a849.358 849.358 0 0 0 4.889 11.957c14.628-7.081 32.216-8.343 45.452 4.149a219.04 219.04 0 0 1 9.049 10.137 121.396 121.396 0 0 0 -2.205-3.905z" fill="url(#c)"/><path d="m81.268 335.119c-.14-.883-.294-1.777-.455-2.68-.457-1.492-.879-2.937-1.278-4.276-.532-1.749-.948-3.503-1.318-5.25l-7.221.784c.182 1.276.342 2.554.484 3.83 1.017 3.18 1.964 6.389 2.783 9.65z" fill="url(#d)"/><path d="m81.268 335.119c-.14-.883-.294-1.777-.455-2.68-.457-1.492-.879-2.937-1.278-4.276-.532-1.749-.948-3.503-1.318-5.25l-7.221.784c.182 1.276.342 2.554.484 3.83 1.017 3.18 1.964 6.389 2.783 9.65z" fill="url(#e)"/><path d="m164.602 461.412c1.505.97 3.031 1.913 4.645 2.779 1.18.638 2.445 1.33 3.762 2.031-6.253-4.345-13.191-8.82-18.121-15.324l-.447-3.55c.078-6.127 6.047-10.084 10.419-13.793 13.062-7.887 25.523-16.385 39.825-21.373a149.864 149.864 0 0 1 -8.475-6.141c-10.531 5.25-21.417 9.056-32.943 11.676-6.856-2.522-1.019-9.712-1.526-14.562 2.77-7.905 4.98-15.796 8.878-22.52a150.04 150.04 0 0 1 -6.127-8.333c-5.788 14.788-13.411 28.892-22.622 42.002-3.069 3.753-6.462 7.807-11.614 7.6-6.562-1.662-12.462-8.463-17.096-14.154a171.975 171.975 0 0 1 2.038 3.224l-5.689 4.578c-1.814-2.446-3.715-4.806-5.656-7.125 4.216 7.755 7.587 15.773 10.323 22.848 3.191 15.589-4.082 27.544-14.66 37.448 2.98 3.05 6.591 6.666 9.098 9.17 10.799-12.136 26.572-20.038 43.578-13.559a228.529 228.529 0 0 1 11.239 5.378 123.045 123.045 0 0 0 -3.385-2.639z" fill="url(#f)"/><path d="m115.198 410.976a166.97 166.97 0 0 0 -2.038-3.224c-.666-.817-1.306-1.612-1.918-2.366-1.151-1.417-2.209-2.882-3.214-4.34l-6.38 3.478a126.51 126.51 0 0 1 2.205 3.905c1.941 2.319 3.842 4.679 5.656 7.125z" fill="url(#g)"/><path d="m115.198 410.976a166.97 166.97 0 0 0 -2.038-3.224c-.666-.817-1.306-1.612-1.918-2.366-1.151-1.417-2.209-2.882-3.214-4.34l-6.38 3.478a126.51 126.51 0 0 1 2.205 3.905c1.941 2.319 3.842 4.679 5.656 7.125z" fill="url(#h)"/><path d="m240.925 495.482c1.751.326 3.526.617 5.343.807.711.072 1.457.15 2.216.229-7.131-1.533-14.808-3.063-21.499-6.988l-1.78-3.11c-2.27-5.685 1.732-11.621 4.353-16.717 9.088-12.351 17.381-25.028 28.775-35.123a147.913 147.913 0 0 1 -10.217-2.44c-7.751 8.936-16.395 16.666-26.089 23.533-7.311.29-4.66-8.579-6.985-12.869-.475-8.458-1.481-16.7-.388-24.48a149.502 149.502 0 0 1 -8.881-5.426c.342 15.989-1.305 32.051-4.829 47.803-1.397 4.65-2.976 9.688-7.814 11.473-6.33.925-13.867-2.624-20.122-5.952.977.679 1.94 1.355 2.874 2.035l-3.498 6.399c-2.94-1.761-5.932-3.389-8.955-4.943 6.921 5.575 13.148 11.743 18.419 17.276 8.917 13.173 6.779 27.003.796 40.196 3.919 1.7 8.641 3.646 11.913 5.01 5.334-15.357 16.885-28.694 35.077-29.212 4.648.129 9.292.365 13.936.787a126.827 126.827 0 0 0 -4.689-1.313z" fill="url(#g)"/><path d="m175.883 468.258c-.934-.68-1.896-1.356-2.874-2.035-1.317-.701-2.582-1.394-3.762-2.031-1.615-.866-3.14-1.81-4.645-2.779l-4.557 5.663c1.147.859 2.273 1.743 3.385 2.639 3.023 1.555 6.015 3.183 8.955 4.943z" fill="url(#i)"/><path d="m175.883 468.258c-.934-.68-1.896-1.356-2.874-2.035-1.317-.701-2.582-1.394-3.762-2.031-1.615-.866-3.14-1.81-4.645-2.779l-4.557 5.663c1.147.859 2.273 1.743 3.385 2.639 3.023 1.555 6.015 3.183 8.955 4.943z" fill="url(#j)"/><path d="m323.916 497.799c1.744-.37 3.5-.784 5.252-1.315l1.514-.449c-6.841 1.262-14.104 2.565-21.369 1.563l-2.832-2.197c-4.277-4.384-2.848-11.404-2.373-17.109 3.674-14.952 6.491-29.912 13.213-43.647a148.982 148.982 0 0 1 -10.402 1.695c-3.738 11.274-8.783 21.77-15.15 31.872-6.634 3.066-7.585-6.154-11.369-9.222-3.676-7.63-7.753-14.849-9.727-22.468a149.99 149.99 0 0 1 -10.248-1.541c6.415 14.619 11.03 30.073 13.806 45.94.473 4.833.951 10.096-2.838 13.596-6.031 3.591-15.471 2.77-22.907 2.002 1.542.331 3.061.663 4.536 1.019l-.782 7.255c-2.89-.426-5.779-.758-8.668-1.02 8.321 2.481 16.237 5.707 23.072 8.734 13.279 8.773 16.591 22.372 16.12 36.85 4.271.058 9.374.058 12.922.058-.949-16.228 4.615-32.965 21.221-40.406a222.532 222.532 0 0 1 13.328-4.632c-1.846.18-3.694.386-5.541.649z" fill="url(#k)"/><path d="m253.021 497.537a190.17 190.17 0 0 0 -4.536-1.019c-.759-.079-1.505-.157-2.216-.229-1.817-.189-3.592-.48-5.343-.807l-2.044 6.977c1.576.404 3.137.85 4.689 1.313 2.889.263 5.778.595 8.668 1.02z" fill="url(#l)"/><path d="m253.021 497.537a190.17 190.17 0 0 0 -4.536-1.019c-.759-.079-1.505-.157-2.216-.229-1.817-.189-3.592-.48-5.343-.807l-2.044 6.977c1.576.404 3.137.85 4.689 1.313 2.889.263 5.778.595 8.668 1.02z" fill="url(#k)"/><path d="m401.146 468.416c1.465-1.004 2.936-2.06 4.35-3.218l1.376-1.117c-5.78 3.747-11.934 7.67-18.954 9.502l-3.463-.944c-5.635-2.422-6.994-9.448-8.752-14.905-2.313-15.264-5.444-30.189-4.467-45.506a149.122 149.122 0 0 1 -8.979 5.581c.86 11.876.224 23.534-1.805 35.334-4.947 5.375-9.348-2.772-14.027-4.172-6.331-5.65-12.891-10.779-17.629-17.081a148.14 148.14 0 0 1 -10.089 2.473c11.554 11.081 21.754 23.609 30.415 37.239 2.281 4.272 4.744 8.967 2.576 13.643-4.325 5.792-13.766 8.644-21.018 10.79 1.955-.36 3.878-.717 5.754-1.016l2.047 7.012c-2.786.697-5.526 1.499-8.248 2.346 8.402-.822 16.692-.859 23.965-.69 15.625 3.019 23.881 14.314 28.99 27.876 3.961-1.575 8.689-3.542 11.955-4.898-7.076-14.631-8.346-32.218 4.15-45.455a223.543 223.543 0 0 1 10.324-9.193 127.03 127.03 0 0 0 -4.982 2.782z" fill="url(#m)"/><path d="m336.435 495.019c-1.876.299-3.799.655-5.754 1.016l-1.514.449c-1.752.531-3.508.945-5.252 1.315l.777 7.227c1.847-.264 3.695-.47 5.541-.649 2.722-.847 5.462-1.648 8.248-2.346z" fill="url(#n)"/><path d="m336.435 495.019c-1.876.299-3.799.655-5.754 1.016l-1.514.449c-1.752.531-3.508.945-5.252 1.315l.777 7.227c1.847-.264 3.695-.47 5.541-.649 2.722-.847 5.462-1.648 8.248-2.346z" fill="url(#o)"/><path d="m461.678 410.671a80.992 80.992 0 0 0 2.419-4.01c-3.685 5.321-7.69 10.803-13.083 14.887l-3.567.452c-6.121-.065-10.072-6.052-13.783-10.42-7.97-13.182-16.558-25.753-21.508-40.233a149.675 149.675 0 0 1 -6.184 8.525c5.34 10.637 9.199 21.641 11.854 33.308-2.525 6.857-9.711 1.012-14.566 1.521-8.049-2.83-16.112-5.056-22.91-9.097a150.578 150.578 0 0 1 -8.406 6.147c14.96 5.814 29.207 13.51 42.463 22.827 3.758 3.066 7.809 6.45 7.611 11.607-1.769 6.952-9.295 13.153-15.145 17.896 1.732-1.122 3.433-2.23 5.11-3.26l4.57 5.691c-2.38 1.77-4.675 3.619-6.934 5.504 7.41-3.948 15.01-7.138 21.764-9.75 15.58-3.188 27.543 4.082 37.447 14.655 3.051-2.973 6.672-6.593 9.178-9.092-12.143-10.804-20.045-26.571-13.568-43.582 2.119-4.73 4.371-9.4 6.829-13.983a128.169 128.169 0 0 0 -3.942 4.955z" fill="url(#p)"/><path d="m411.982 460.821c-1.678 1.03-3.378 2.138-5.11 3.26l-1.376 1.117c-1.414 1.158-2.885 2.214-4.35 3.218l3.49 6.383c1.642-.973 3.31-1.891 4.982-2.782 2.259-1.885 4.554-3.734 6.934-5.504z" fill="url(#q)"/><path d="m411.982 460.821c-1.678 1.03-3.378 2.138-5.11 3.26l-1.376 1.117c-1.414 1.158-2.885 2.214-4.35 3.218l3.49 6.383c1.642-.973 3.31-1.891 4.982-2.782 2.259-1.885 4.554-3.734 6.934-5.504z" fill="url(#r)"/><path d="m495.195 335.22c.232-1.286.436-2.591.607-3.903-1.293 5.767-2.9 11.674-6.006 16.968l-3.113 1.792c-5.684 2.265-11.627-1.747-16.725-4.363-8.703-6.406-17.578-12.412-25.592-19.389a282.257 282.257 0 0 1 -7.556 4.814c7.099 6.702 13.407 14.037 19.12 22.105.301 7.314-8.576 4.661-12.865 6.98-8.409.474-16.602 1.472-24.347.405a149.492 149.492 0 0 1 -5.347 8.866c15.93-.324 31.914 1.323 47.602 4.823 4.637 1.405 9.684 2.988 11.471 7.82 1.109 7.663-4.318 17.101-7.988 23.896-.115.213-.242.415-.36.626 1.448-2.091 2.848-4.158 4.261-6.104l6.4 3.503a151.208 151.208 0 0 0 -3.489 6.205c5.23-6.289 10.872-11.979 15.985-16.845 13.174-8.918 26.992-6.775 40.201-.803a1012.17 1012.17 0 0 0 4.994-11.918c-15.346-5.317-28.682-16.869-29.215-35.056.142-5.109.419-10.214.926-15.316-.723 2.283-1.4 4.601-2 6.943z" fill="url(#s)"/><path d="m468.357 400.557c-1.413 1.946-2.813 4.014-4.261 6.104a80.992 80.992 0 0 1 -2.419 4.01l5.649 4.549a129.138 129.138 0 0 1 3.942-4.955 152.396 152.396 0 0 1 3.489-6.205z" fill="url(#t)"/><path d="m468.357 400.557c-1.413 1.946-2.813 4.014-4.261 6.104a80.992 80.992 0 0 1 -2.419 4.01l5.649 4.549a129.138 129.138 0 0 1 3.942-4.955 152.396 152.396 0 0 1 3.489-6.205z" fill="url(#u)"/><path d="m511.659 264.576a286.522 286.522 0 0 1 -36.539 38.387c1.828-.371 3.661-.725 5.501-1.047 4.832-.481 10.103-.949 13.6 2.829 3.963 6.658 2.555 17.452 1.766 25.131-.048.483-.121.96-.184 1.44.694-3.1 1.301-6.159 1.996-9.06l7.252.777a154.798 154.798 0 0 0 -.891 7.293c2.376-7.501 5.301-14.608 8.061-20.825 8.764-13.273 22.352-16.594 36.828-16.121.07-4.269.07-9.374.07-12.921-14.345.842-29.08-3.419-37.46-15.883z" fill="url(#v)"/><path d="m497.799 322.257c-.695 2.9-1.302 5.96-1.996 9.06a83.29 83.29 0 0 1 -.607 3.903l6.965 2.051c.6-2.343 1.277-4.66 2-6.943a152.2 152.2 0 0 1 .891-7.293z" fill="url(#w)"/><path d="m497.799 322.257c-.695 2.9-1.302 5.96-1.996 9.06a83.29 83.29 0 0 1 -.607 3.903l6.965 2.051c.6-2.343 1.277-4.66 2-6.943a152.2 152.2 0 0 1 .891-7.293z" fill="url(#x)"/><path d="m422.198 339.526c-20.719 53.919-72.988 92.195-134.204 92.195-61.22 0-113.487-38.278-134.201-92.2a282.795 282.795 0 0 1 -7.691-4.258 148.744 148.744 0 0 0 11.539 26.021c.678-.047 1.353-.079 2.032-.136l-.609-1.203c.145.074.29.132.431.218.309 1.169.636 2.332 1.136 3.54a27.095 27.095 0 0 0 3.853 6.558c-.471-.034-.941-.052-1.412-.078.469.711.941 1.419 1.421 2.121.164-.42.343-.834.504-1.255a3.443 3.443 0 0 0 -.441-.932l.476-.251c1.136 3.425 3.145 6.796 6.279 9.932.024.028.054.043.069.065 0 .004.01.027.01.043-.079-.075-.155-.16-.232-.217-.189.308-.355.634-.537.947a150.377 150.377 0 0 0 25.591 25.405c.565-.282 1.135-.55 1.699-.841l-1.017-.883c.155.017.32.017.477.039.733.956 1.48 1.912 2.393 2.836a27.151 27.151 0 0 0 5.616 4.303 3.61 3.61 0 0 0 -.38-.287l.34-.415c2.36 2.728 5.507 5.071 9.607 6.766.03.016.058.016.092.028.005.006.012.019.018.03-.097-.03-.202-.072-.298-.096-.043.266-.063.536-.1.803a148.56 148.56 0 0 0 33.462 13.815c.374-.431.757-.851 1.126-1.287l-1.287-.428c.155-.045.305-.105.458-.144 1.044.604 2.096 1.203 3.303 1.693a27.25 27.25 0 0 0 7.377 1.923c-.258.224-.506.455-.761.682.694.14 1.392.27 2.089.4-.144-.328-.276-.662-.422-.989-.341-.189 10.554 1.74 10.454 1.747.063.263.148.521.216.783a151.006 151.006 0 0 0 17.322 1.005c6.411 0 12.726-.405 18.924-1.188.163-.491.338-.976.496-1.47 0 0 7.982-.31 10.264-.969-.123.246-.236.496-.357.743.463-.092.926-.185 1.388-.281-.234-.224-.46-.457-.694-.68a3.221 3.221 0 0 0 -1.025.061l-.063-.543c3.598.263 7.482-.307 11.576-2.003.037-.007.053-.033.088-.037.012 0 .029 0 .041.004-.092.048-.207.091-.289.141.145.199.308.387.455.584a148.643 148.643 0 0 0 33.461-14.081c-.035-.483-.056-.965-.096-1.449l-1.219.598c.076-.146.142-.292.229-.43 1.174-.309 2.332-.64 3.527-1.136a26.777 26.777 0 0 0 6.576-3.862c-.017.233-.023.465-.039.698.236-.158.472-.317.707-.477-.265-.103-.525-.216-.789-.317-.361.11-.666.273-.924.444l-.256-.468c3.422-1.138 6.797-3.142 9.918-6.267.037-.041.049-.06.07-.089h.037c-.07.089-.148.154-.201.237.18.11.37.205.551.313a150.412 150.412 0 0 0 25.623-25.732c-.224-.444-.434-.894-.662-1.337l-.887 1.022c.014-.158.023-.32.045-.484.955-.735 1.908-1.482 2.818-2.396a26.882 26.882 0 0 0 4.604-6.088c.084.255.179.504.266.758.411-.612.814-1.232 1.217-1.851-.406.009-.813.003-1.219.014a3.395 3.395 0 0 0 -.682.751l-.418-.332c2.727-2.352 5.07-5.507 6.772-9.593.018-.041.018-.061.021-.103.014-.009.031-.009.039-.017a6.92 6.92 0 0 0 -.105.296c.311.05.626.074.938.117a148.65 148.65 0 0 0 11.173-25.362 274.488 274.488 0 0 1 -7.697 4.263z" fill="url(#z)"/><path d="m205.697 411.827c-.34.114-.674.238-1.012.355.361.242.727.478 1.089.717-.007-.334-.002-.668-.011-1.002-.02-.026-.044-.044-.066-.07z" fill="url(#A)"/><path d="m160.63 363.703c-.501-1.208-.827-2.371-1.136-3.54-.141-.086-.286-.144-.431-.218l.609 1.203c-.679.057-1.354.089-2.032.136a149.997 149.997 0 0 0 5.431 8.898c.471.026.941.044 1.412.078a27.133 27.133 0 0 1 -3.853-6.557z" fill="url(#g)"/><path d="m160.63 363.703c-.501-1.208-.827-2.371-1.136-3.54-.141-.086-.286-.144-.431-.218l.609 1.203c-.679.057-1.354.089-2.032.136a149.997 149.997 0 0 0 5.431 8.898c.471.026.941.044 1.412.078a27.133 27.133 0 0 1 -3.853-6.557z" fill="url(#B)"/><path d="m205.377 411.496a27.116 27.116 0 0 1 -5.616-4.303c-.912-.924-1.66-1.88-2.393-2.836-.157-.022-.322-.022-.477-.039l1.017.883c-.564.291-1.133.559-1.699.841a150.364 150.364 0 0 0 8.475 6.141c.338-.117.672-.241 1.012-.355a3.067 3.067 0 0 0 -.319-.332z" fill="url(#C)"/><path d="m205.377 411.496a27.116 27.116 0 0 1 -5.616-4.303c-.912-.924-1.66-1.88-2.393-2.836-.157-.022-.322-.022-.477-.039l1.017.883c-.564.291-1.133.559-1.699.841a150.364 150.364 0 0 0 8.475 6.141c.338-.117.672-.241 1.012-.355a3.067 3.067 0 0 0 -.319-.332z" fill="url(#D)"/><path d="m171.389 379.906c0-.016-.01-.039-.01-.043-.016-.023-.045-.037-.069-.065-3.134-3.136-5.143-6.507-6.279-9.932l-.476.251c.176.263.333.566.441.932-.161.421-.34.835-.504 1.255a150.04 150.04 0 0 0 6.127 8.333c.182-.314.348-.639.537-.947.078.056.154.141.233.216z" fill="url(#E)"/><path d="m171.389 379.906c0-.016-.01-.039-.01-.043-.016-.023-.045-.037-.069-.065-3.134-3.136-5.143-6.507-6.279-9.932l-.476.251c.176.263.333.566.441.932-.161.421-.34.835-.504 1.255a150.04 150.04 0 0 0 6.127 8.333c.182-.314.348-.639.537-.947.078.056.154.141.233.216z" fill="url(#F)"/><path d="m251.718 431.976c-1.207-.49-2.259-1.09-3.303-1.693-.153.038-.303.099-.458.144l1.287.428c-.37.436-.752.856-1.126 1.287 3.36.928 6.766 1.745 10.217 2.44.255-.227.503-.458.761-.682a27.334 27.334 0 0 1 -7.378-1.924z" fill="url(#G)"/><path d="m251.718 431.976c-1.207-.49-2.259-1.09-3.303-1.693-.153.038-.303.099-.458.144l1.287.428c-.37.436-.752.856-1.126 1.287 3.36.928 6.766 1.745 10.217 2.44.255-.227.503-.458.761-.682a27.334 27.334 0 0 1 -7.378-1.924z" fill="url(#H)"/><path d="m215.053 417.618a.091.091 0 0 0 -.018-.03c-.034-.013-.063-.013-.092-.028-4.1-1.694-7.247-4.038-9.607-6.766l-.34.415c.128.084.256.179.38.287.156.091.311.193.468.279l-.147.052c.021.025.045.044.067.07.009.334.003.668.011 1.002a149.502 149.502 0 0 0 8.881 5.426c.037-.267.057-.537.1-.803.096.024.2.066.297.096z" fill="url(#I)"/><path d="m215.053 417.618a.091.091 0 0 0 -.018-.03c-.034-.013-.063-.013-.092-.028-4.1-1.694-7.247-4.038-9.607-6.766l-.34.415c.128.084.256.179.38.287.156.091.311.193.468.279l-.147.052c.021.025.045.044.067.07.009.334.003.668.011 1.002a149.502 149.502 0 0 0 8.881 5.426c.037-.267.057-.537.1-.803.096.024.2.066.297.096z" fill="url(#J)"/><path d="m205.697 411.827.147-.052c-.156-.086-.312-.188-.468-.279.111.096.217.21.321.331z" fill="url(#K)"/><path d="m205.697 411.827.147-.052c-.156-.086-.312-.188-.468-.279.111.096.217.21.321.331z" fill="url(#L)"/><path d="m205.697 411.827.147-.052c-.156-.086-.312-.188-.468-.279.111.096.217.21.321.331z" fill="url(#M)"/><path d="m307.414 434.869c-.158.494-.333.979-.496 1.47a149.382 149.382 0 0 0 10.402-1.695c.121-.247.234-.497.357-.743-2.281.659-10.263.968-10.263.968z" fill="url(#N)"/><path d="m307.414 434.869c-.158.494-.333.979-.496 1.47a149.382 149.382 0 0 0 10.402-1.695c.121-.247.234-.497.357-.743-2.281.659-10.263.968-10.263.968z" fill="url(#O)"/><path d="m260.002 433.991c.145.327.278.661.422.989 3.378.629 6.795 1.142 10.248 1.541-.068-.262-.153-.521-.216-.783.1-.007-10.795-1.936-10.454-1.747z" fill="url(#P)"/><path d="m260.002 433.991c.145.327.278.661.422.989 3.378.629 6.795 1.142 10.248 1.541-.068-.262-.153-.521-.216-.783.1-.007-10.795-1.936-10.454-1.747z" fill="url(#Q)"/><path d="m364.699 415.392c-1.195.496-2.353.827-3.527 1.136-.086.138-.152.284-.229.43l1.219-.598c.04.484.061.966.096 1.449a149.122 149.122 0 0 0 8.979-5.581c.016-.233.022-.465.039-.698a26.802 26.802 0 0 1 -6.577 3.862z" fill="url(#R)"/><path d="m364.699 415.392c-1.195.496-2.353.827-3.527 1.136-.086.138-.152.284-.229.43l1.219-.598c.04.484.061.966.096 1.449a149.122 149.122 0 0 0 8.979-5.581c.016-.233.022-.465.039-.698a26.802 26.802 0 0 1 -6.577 3.862z" fill="url(#S)"/><path d="m328.631 431.165c-.012-.004-.029-.004-.041-.004-.035.004-.051.03-.088.037-4.094 1.696-7.979 2.266-11.576 2.003l.063.543a3.196 3.196 0 0 1 1.025-.061c.234.223.46.456.694.68a147.694 147.694 0 0 0 10.089-2.473c-.148-.197-.311-.385-.455-.584.082-.05.197-.093.289-.141z" fill="url(#T)"/><path d="m328.631 431.165c-.012-.004-.029-.004-.041-.004-.035.004-.051.03-.088.037-4.094 1.696-7.979 2.266-11.576 2.003l.063.543a3.196 3.196 0 0 1 1.025-.061c.234.223.46.456.694.68a147.694 147.694 0 0 0 10.089-2.473c-.148-.197-.311-.385-.455-.584.082-.05.197-.093.289-.141z" fill="url(#U)"/><path d="m407.287 376.677c-.91.914-1.863 1.661-2.818 2.396-.021.164-.031.326-.045.484l.887-1.022c.229.443.439.892.662 1.337a150.525 150.525 0 0 0 6.184-8.525c-.087-.254-.182-.503-.266-.758a26.882 26.882 0 0 1 -4.604 6.088z" fill="url(#V)"/><path d="m407.287 376.677c-.91.914-1.863 1.661-2.818 2.396-.021.164-.031.326-.045.484l.887-1.022c.229.443.439.892.662 1.337a150.525 150.525 0 0 0 6.184-8.525c-.087-.254-.182-.503-.266-.758a26.882 26.882 0 0 1 -4.604 6.088z" fill="url(#W)"/><path d="m380 405.055h-.037c-.022.029-.033.048-.07.089-3.121 3.125-6.496 5.129-9.918 6.267l.256.468c.258-.172.563-.334.924-.444.265.102.524.215.789.317a149.707 149.707 0 0 0 8.406-6.147c-.181-.107-.371-.202-.551-.313.053-.083.131-.148.201-.237z" fill="url(#X)"/><path d="m380 405.055h-.037c-.022.029-.033.048-.07.089-3.121 3.125-6.496 5.129-9.918 6.267l.256.468c.258-.172.563-.334.924-.444.265.102.524.215.789.317a149.707 149.707 0 0 0 8.406-6.147c-.181-.107-.371-.202-.551-.313.053-.083.131-.148.201-.237z" fill="url(#Y)"/><path d="m417.887 360.217c-.008.008-.025.008-.039.017-.004.041-.004.061-.021.103-1.701 4.086-4.045 7.241-6.772 9.593l.418.332c.17-.257.395-.516.682-.751.406-.011.813-.005 1.219-.014a149.492 149.492 0 0 0 5.347-8.866c-.313-.043-.628-.067-.938-.117a4.48 4.48 0 0 1 .104-.297z" fill="url(#Z)"/><path d="m417.887 360.217c-.008.008-.025.008-.039.017-.004.041-.004.061-.021.103-1.701 4.086-4.045 7.241-6.772 9.593l.418.332c.17-.257.395-.516.682-.751.406-.011.813-.005 1.219-.014a149.492 149.492 0 0 0 5.347-8.866c-.313-.043-.628-.067-.938-.117a4.48 4.48 0 0 1 .104-.297z" fill="url(#aa)"/><path d="m133.196 214.295c-4.283 2.319-13.164-.32-12.86 6.974 6.901 9.757 14.678 18.455 23.685 26.242a148.55 148.55 0 0 1 14.05-33.566c-7.902-1.165-16.275-.132-24.875.35zm279.699-56.596c-11.738 2.666-22.815 6.559-33.516 11.952a150.357 150.357 0 0 1 25.904 25.601c4.065-6.826 6.301-14.915 9.127-22.99-.506-4.863 5.342-12.039-1.515-14.563zm8.828-29.62-.457-3.566c-5.461-7.216-13.397-11.94-20.134-16.744-5.753-2.92-12.26-5.572-17.831-4.762-4.836 1.79-6.42 6.832-7.822 11.479-3.586 16.082-5.244 32.485-4.805 48.803.047.062.102.108.151.163 14.584-4.94 27.216-13.584 40.478-21.602 4.375-3.706 10.345-7.653 10.42-13.771zm-277.838 199.903a52.458 52.458 0 0 0 -4.128 3.512 290.077 290.077 0 0 0 6.344 3.77 147.238 147.238 0 0 1 -2.216-7.282zm217.504-170.389c0-.008-.008-.012-.012-.025.098.025.209.077.297.107 1.283-8.028.199-16.538-.285-25.291-2.328-4.289.326-13.163-6.969-12.862-9.984 7.063-18.846 15.028-26.768 24.28a148.743 148.743 0 0 1 41.444 18.563c-2.06-1.863-4.575-3.483-7.604-4.733-.039-.025-.06-.025-.103-.039zm87.32 72.157c1.387-4.678 9.539-9.068 4.16-14.03-11.676-1.994-23.218-2.643-34.974-1.823a148.571 148.571 0 0 1 13.987 33.278c6.184-4.722 11.241-11.18 16.827-17.425zm36.268-5.272c-4.682-2.152-9.371.285-13.641 2.587-13.537 8.591-25.982 18.715-36.986 30.166.122.584.237 1.169.353 1.756 13.638 6.601 28.468 9.4 43.284 13.056 5.721.466 12.73 1.895 17.115-2.378l2.193-2.841c1.021-7.337-.324-14.67-1.592-21.565-2.147-7.218-4.999-16.504-10.726-20.781zm-27.51-24.006c5.451-1.753 12.486-3.117 14.904-8.739l.945-3.469c-2.159-8.274-7.227-15.342-11.477-22.021-4.443-5.352-9.91-11.213-15.939-12.747-5.147-.187-8.545 3.86-11.607 7.614-9.323 13.271-17.023 27.546-22.835 42.525.305.445.608.891.908 1.339 15.164.896 29.97-2.197 45.101-4.502zm-299.437-37.376c2.637 11.636 6.492 22.629 11.819 33.255a150.394 150.394 0 0 1 25.539-25.751c-6.787-4.003-14.798-6.227-22.803-9.025-4.848.504-12.038-5.339-14.555 1.521zm72.568-36.427c-4.665-1.387-9.074-9.532-14.036-4.16-2.002 11.713-2.648 23.3-1.806 35.111a148.573 148.573 0 0 1 33.529-13.804c-4.746-6.326-11.329-11.471-17.687-17.147zm-88.424 38.017c-3.7-4.37-7.654-10.341-13.768-10.42l-3.566.456c-6.599 4.991-11.113 12.058-15.507 18.38-3.19 6.087-6.388 13.234-5.511 19.281 1.777 4.839 6.831 6.413 11.476 7.817 15.91 3.552 32.14 5.205 48.296 4.824l.09-.137c-4.964-14.465-13.545-27.031-21.51-40.201zm59.139-46.777c-1.746-5.462-3.119-12.484-8.73-14.906l-3.464-.93c-7.864 2.043-14.626 6.703-21.002 10.809-5.711 4.651-12.613 10.595-14.284 17.202-.21 5.148 3.855 8.542 7.607 11.618 13.206 9.268 27.416 16.938 42.316 22.751.68-.465 1.367-.921 2.055-1.375.912-15.188-2.188-30.013-4.498-45.169zm228.58 217.359a282.966 282.966 0 0 0 6.919-4.129 139.93 139.93 0 0 0 -4.463-4.036 149.28 149.28 0 0 1 -2.456 8.165zm-156.833-237.552c.467-5.717 1.896-12.742-2.374-17.114l-2.84-2.203c-8.44-1.167-16.866.775-24.63 2.151-6.647 2.058-14.168 4.866-17.893 9.848-2.15 4.684.298 9.369 2.581 13.647 8.695 13.682 18.937 26.251 30.538 37.357.5-.1 1.001-.193 1.503-.288 6.644-13.671 9.452-28.54 13.115-43.398zm12.334 10.069c-6.346 10.063-11.371 20.512-15.114 31.74a150.985 150.985 0 0 1 17.713-1.049c6.276 0 12.459.392 18.533 1.143-1.958-7.665-6.07-14.933-9.767-22.613-3.792-3.083-4.732-12.286-11.365-9.221zm61.477-2.294c2.627-5.095 6.631-11.038 4.363-16.721l-1.791-3.112c-4.294-2.521-8.997-4.052-13.703-5.232-1.596-.281-3.204-.543-4.854-.714-7.678-.784-18.473-2.199-25.129 1.765-3.779 3.497-3.309 8.77-2.822 13.592 2.786 15.969 7.429 31.505 13.911 46.199 2.15.42 4.284.887 6.399 1.398a27.534 27.534 0 0 0 -5.9-1.369c11.794-10.202 20.241-23.178 29.526-35.806zm87.866 211.34c3.005 3.405 6.237 6.54 9.63 9.493a285.933 285.933 0 0 0 30.753-23.361c-13.835 2.806-27.309 7.025-40.147 12.64-.077.41-.156.819-.236 1.228z" fill="none"/><path d="m287.994 144.28c-79.38 0-143.723 64.335-143.723 143.72 0 18.158 3.376 35.526 9.521 51.522 39.988 21.411 85.676 33.566 134.208 33.566 48.528 0 94.213-12.153 134.198-33.561 6.147-15.996 9.525-33.366 9.525-51.526 0-79.386-64.352-143.721-143.729-143.721zm-181.695 84.524c-5.094-2.624-11.03-6.616-16.717-4.357l-3.115 1.788c-3.533 6.024-5.125 12.841-6.524 19.343-.794 7.629-2.024 18.029 1.826 24.509 3.505 3.789 8.77 3.317 13.595 2.838 15.853-2.773 31.284-7.375 45.899-13.787.092-.474.179-.95.276-1.423-10.114-11.458-22.844-19.78-35.24-28.911zm330.215 76.585c7.51-1.995 14.635-6.015 22.172-9.641 3.082-3.792 12.299-4.736 9.236-11.371-10.016-6.306-20.403-11.306-31.555-15.047a150.966 150.966 0 0 1 1.158 18.669c0 5.884-.351 11.685-1.011 17.39zm-296.894-35.982c-7.555 1.991-14.74 6.033-22.32 9.689-3.076 3.779-12.288 4.74-9.212 11.372 9.954 6.279 20.301 11.266 31.403 14.99a151.089 151.089 0 0 1 -1.02-17.458 150.727 150.727 0 0 1 1.149-18.593zm1.843 48.495c-.145-.715-.278-1.435-.413-2.152-12.432-5.977-25.843-8.827-39.337-12.051a285.943 285.943 0 0 0 30.621 23.087 193.741 193.741 0 0 0 9.129-8.884z" fill="none"/><path d="m174.702 107.852c-1.482 1.012-2.937 2.059-4.351 3.218-.712.579-1.463 1.185-2.234 1.813 6.376-4.106 13.138-8.767 21.002-10.809l3.464.93c5.611 2.421 6.984 9.444 8.73 14.906 2.311 15.157 5.41 29.981 4.498 45.17a149.677 149.677 0 0 1 8.946-5.458c-.842-11.811-.196-23.398 1.806-35.111 4.962-5.372 9.371 2.772 14.036 4.16 6.359 5.676 12.941 10.821 17.688 17.147 3.34-.917 6.726-1.726 10.155-2.414-11.601-11.107-21.843-23.675-30.538-37.357-2.282-4.279-4.73-8.963-2.581-13.647 3.725-4.981 11.246-7.79 17.893-9.848-.835.148-1.666.291-2.485.422l-2.048-7.007c3.37-.846 6.685-1.824 9.968-2.881-9.034 1.012-18.01 1.062-25.824.874-15.621-3.019-23.885-14.314-29-27.865-3.959 1.573-8.68 3.532-11.941 4.882 7.077 14.632 8.335 32.217-4.149 45.456a226.616 226.616 0 0 1 -10.336 9.206 125.73 125.73 0 0 0 3.809-2.153z" fill="#e1c982"/><path d="m114.592 163.857c-.974 1.495-1.915 3.024-2.781 4.63-.774 1.433-1.626 2.987-2.478 4.614 4.394-6.323 8.908-13.389 15.507-18.38l3.566-.456c6.114.079 10.069 6.05 13.768 10.42 7.965 13.171 16.546 25.737 21.511 40.201a149.954 149.954 0 0 1 6.165-8.535c-5.327-10.626-9.183-21.619-11.819-33.255 2.517-6.86 9.707-1.017 14.556-1.52 8.005 2.798 16.016 5.021 22.803 9.025a149.277 149.277 0 0 1 8.367-6.146c-14.9-5.813-29.11-13.483-42.316-22.751-3.751-3.076-7.817-6.47-7.607-11.618 1.671-6.607 8.573-12.551 14.284-17.202a161.197 161.197 0 0 1 -3.072 1.939l-4.58-5.681c2.38-1.767 4.676-3.618 6.935-5.504-7.778 4.237-15.829 7.618-22.936 10.359-15.586 3.195-27.542-4.08-37.45-14.649a925.806 925.806 0 0 0 -9.172 9.098c12.136 10.8 20.036 26.566 13.563 43.577a236.41 236.41 0 0 1 -5.014 10.538 124.65 124.65 0 0 0 2.539-3.262z" fill="#e1c982"/><path d="m165.045 114.822a166.352 166.352 0 0 0 3.072-1.939c.771-.628 1.522-1.234 2.234-1.813 1.414-1.159 2.869-2.205 4.351-3.218l-3.493-6.368c-1.258.744-2.53 1.457-3.809 2.153-2.259 1.887-4.555 3.737-6.935 5.504z" fill="url(#ab)"/><path d="m165.045 114.822a166.352 166.352 0 0 0 3.072-1.939c.771-.628 1.522-1.234 2.234-1.813 1.414-1.159 2.869-2.205 4.351-3.218l-3.493-6.368c-1.258.744-2.53 1.457-3.809 2.153-2.259 1.887-4.555 3.737-6.935 5.504zm-75.463 109.625c5.687-2.259 11.623 1.733 16.717 4.357 12.396 9.131 25.125 17.454 35.241 28.911.709-3.446 1.54-6.848 2.481-10.204-9.007-7.787-16.784-16.485-23.685-26.242-.304-7.294 8.577-4.655 12.86-6.974 8.6-.482 16.973-1.516 24.875-.35a149.382 149.382 0 0 1 5.523-8.922c-16.156.381-32.387-1.272-48.296-4.824-4.646-1.404-9.699-2.979-11.476-7.817-.877-6.047 2.321-13.194 5.511-19.281-.615.886-1.229 1.757-1.845 2.606l-6.406-3.493a159.622 159.622 0 0 0 5.31-9.655c-5.602 6.97-11.81 13.241-17.384 18.544-13.172 8.911-27.004 6.769-40.201.795-1.684 3.92-3.641 8.641-4.996 11.912 15.35 5.336 28.686 16.877 29.211 35.07-.137 4.828-.387 9.653-.84 14.477a126.5 126.5 0 0 0 1.647-5.784l6.979 2.04c-.329 1.754-.618 3.532-.802 5.349l-.064.615c1.398-6.502 2.991-13.319 6.524-19.343z" fill="#e1c982"/><path d="m107.488 175.708a157.2 157.2 0 0 0 1.845-2.606c.852-1.626 1.704-3.181 2.478-4.614.866-1.606 1.807-3.135 2.781-4.63l-5.661-4.559a122.998 122.998 0 0 1 -2.539 3.262 159.073 159.073 0 0 1 -5.31 9.655z" fill="url(#ac)"/><path d="m107.488 175.708a157.2 157.2 0 0 0 1.845-2.606c.852-1.626 1.704-3.181 2.478-4.614.866-1.606 1.807-3.135 2.781-4.63l-5.661-4.559a122.998 122.998 0 0 1 -2.539 3.262 159.073 159.073 0 0 1 -5.31 9.655zm-5.774 127.991c13.494 3.224 26.905 6.073 39.337 12.051a149.97 149.97 0 0 1 -1.561-10.292c-11.102-3.725-21.449-8.711-31.403-14.99-3.076-6.631 6.136-7.593 9.212-11.372 7.58-3.656 14.765-7.698 22.32-9.689a148.9 148.9 0 0 1 1.645-10.27c-14.615 6.412-30.046 11.014-45.899 13.787-4.826.479-10.09.95-13.595-2.838-3.85-6.479-2.621-16.88-1.826-24.509-.492 2.286-.96 4.533-1.479 6.693l-7.255-.785c.401-2.708.719-5.418.973-8.128-2.32 7.542-5.218 14.712-7.992 21.034a286.453 286.453 0 0 0 37.523 39.308z" fill="#e1c982"/><path d="m80.81 239.614-6.979-2.04a126.5 126.5 0 0 1 -1.647 5.784c-.254 2.71-.572 5.42-.973 8.128l7.255.785c.519-2.16.987-4.407 1.479-6.693l.064-.615c.182-1.817.472-3.595.801-5.349z" fill="url(#ad)"/><path d="m80.81 239.614-6.979-2.04a126.5 126.5 0 0 1 -1.647 5.784c-.254 2.71-.572 5.42-.973 8.128l7.255.785c.519-2.16.987-4.407 1.479-6.693l.064-.615c.182-1.817.472-3.595.801-5.349z" fill="#e1c982"/><path d="m141.463 317.902a194.691 194.691 0 0 1 -9.128 8.884c2.45 1.603 4.92 3.179 7.422 4.708a52.458 52.458 0 0 1 4.128-3.512 148.235 148.235 0 0 1 -2.422-10.08z" fill="url(#g)"/><path d="m434.737 316.831a148.607 148.607 0 0 1 -2.389 10.271 141.026 141.026 0 0 1 4.463 4.036 284.79 284.79 0 0 0 7.556-4.814c-3.392-2.953-6.625-6.088-9.63-9.493z" fill="url(#ae)"/><path d="m504.109 246.013c.181 1.823.385 3.648.647 5.472l-7.227.774c-.369-1.743-.781-3.5-1.303-5.243-.17-.567-.346-1.158-.523-1.757 1.268 6.895 2.612 14.228 1.592 21.565l-2.193 2.841c-4.385 4.272-11.395 2.843-17.115 2.378-14.816-3.656-29.647-6.455-43.284-13.056.671 3.409 1.23 6.857 1.665 10.344 11.151 3.741 21.539 8.741 31.555 15.047 3.063 6.634-6.154 7.579-9.236 11.371-7.537 3.626-14.662 7.646-22.172 9.641a149.719 149.719 0 0 1 -1.541 10.214c12.839-5.614 26.313-9.834 40.147-12.64a286.462 286.462 0 0 0 36.539-38.387 35.926 35.926 0 0 1 -2.962-5.337 225.58 225.58 0 0 1 -4.589-13.227z" fill="#e1c982"/><path d="m468.135 174.361c-1.018-1.458-2.061-2.927-3.211-4.339-.961-1.181-1.992-2.465-3.084-3.779 4.25 6.679 9.317 13.747 11.477 22.021l-.945 3.469c-2.418 5.623-9.453 6.987-14.904 8.739-15.131 2.305-29.936 5.398-45.101 4.501a150.012 150.012 0 0 1 5.529 8.923c11.756-.819 23.298-.171 34.974 1.823 5.379 4.962-2.773 9.352-4.16 14.03-5.586 6.245-10.643 12.703-16.826 17.424a149.145 149.145 0 0 1 2.467 10.057c11.004-11.45 23.449-21.575 36.986-30.166 4.27-2.303 8.959-4.739 13.641-2.587 5.728 4.277 8.579 13.563 10.727 20.782a218.943 218.943 0 0 1 -.973-5.547l7.002-2.05c.708 2.82 1.521 5.594 2.377 8.35-.833-8.424-.874-16.741-.689-24.023 3.014-15.63 14.303-23.898 27.857-28.995-1.574-3.973-3.527-8.685-4.889-11.968-14.615 7.09-32.207 8.356-45.445-4.137a235.78 235.78 0 0 1 -8.23-9.169 119.66 119.66 0 0 0 1.805 3.164z" fill="#e1c982"/><path d="m494.73 239.713c.285 1.81.626 3.663.973 5.547.178.6.353 1.19.523 1.757.521 1.743.934 3.499 1.303 5.243l7.227-.774c-.262-1.824-.466-3.65-.647-5.472-.856-2.756-1.669-5.53-2.377-8.35z" fill="url(#af)"/><path d="m494.73 239.713c.285 1.81.626 3.663.973 5.547.178.6.353 1.19.523 1.757.521 1.743.934 3.499 1.303 5.243l7.227-.774c-.262-1.824-.466-3.65-.647-5.472-.856-2.756-1.669-5.53-2.377-8.35zm-82.902-125.935a73.626 73.626 0 0 0 -4.629-2.781c-1.854-1.002-3.909-2.133-6.067-3.228 6.737 4.804 14.673 9.528 20.134 16.744l.457 3.566c-.074 6.118-6.045 10.065-10.42 13.772-13.262 8.017-25.894 16.661-40.478 21.602.041.045.08.09.122.131a150.23 150.23 0 0 1 8.432 6.067c10.7-5.393 21.777-9.286 33.516-11.952 6.858 2.524 1.01 9.7 1.516 14.562-2.826 8.076-5.062 16.164-9.127 22.99a150.64 150.64 0 0 1 6.175 8.383c5.811-14.979 13.512-29.253 22.835-42.525 3.063-3.754 6.461-7.801 11.607-7.614 6.029 1.534 11.496 7.396 15.939 12.747a142.87 142.87 0 0 1 -1.279-2.043l5.684-4.577c2.067 2.787 4.238 5.472 6.469 8.099-4.409-7.977-7.907-16.276-10.723-23.572-3.184-15.598 4.084-27.553 14.654-37.46-2.982-3.058-6.598-6.673-9.104-9.185-10.797 12.148-26.566 20.048-43.58 13.572a239.739 239.739 0 0 1 -9.66-4.575c.692.544 1.382 1.089 2.088 1.619z" fill="#e1c982"/><path d="m460.56 164.2c.414.677.844 1.358 1.279 2.043 1.092 1.314 2.123 2.599 3.084 3.779 1.15 1.413 2.193 2.881 3.211 4.339l6.383-3.476a122.539 122.539 0 0 1 -1.805-3.164c-2.23-2.626-4.401-5.311-6.469-8.099z" fill="url(#ag)"/><path d="m460.56 164.2c.414.677.844 1.358 1.279 2.043 1.092 1.314 2.123 2.599 3.084 3.779 1.15 1.413 2.193 2.881 3.211 4.339l6.383-3.476a122.539 122.539 0 0 1 -1.805-3.164c-2.23-2.626-4.401-5.311-6.469-8.099zm-124.322-83.69c-.165-.03-.333-.055-.498-.084 4.706 1.18 9.409 2.71 13.703 5.232l1.791 3.112c2.268 5.683-1.736 11.626-4.363 16.721-9.285 12.628-17.732 25.604-29.525 35.807 1.905.223 3.874.661 5.9 1.369 1.478.357 2.946.735 4.406 1.136 7.922-9.252 16.783-17.217 26.768-24.28 7.295-.301 4.641 8.573 6.969 12.862.484 8.753 1.568 17.263.285 25.291-.088-.031-.199-.083-.297-.107.004.013.012.017.012.025.043.014.064.014.103.039 3.029 1.25 5.545 2.87 7.604 4.733.563.364 1.121.734 1.679 1.105.017-.005.033-.012.05-.018-.05-.055-.104-.1-.151-.163-.439-16.318 1.219-32.721 4.805-48.803 1.402-4.647 2.986-9.69 7.822-11.479 5.571-.81 12.078 1.842 17.831 4.762-.286-.205-.574-.409-.856-.614l3.506-6.398c3.445 2.063 6.96 3.957 10.52 5.745-7.444-5.839-14.122-12.423-19.719-18.299-8.912-13.185-6.777-27.006-.797-40.202-3.92-1.69-8.645-3.645-11.918-5.002-5.33 15.349-16.877 28.682-35.066 29.212-5.545-.16-11.09-.465-16.634-1.06 2.663.87 5.374 1.681 8.12 2.387z" fill="#e1c982"/><path d="m400.275 107.156c.282.205.57.409.856.614 2.158 1.095 4.213 2.226 6.067 3.228a73.626 73.626 0 0 1 4.629 2.781l4.561-5.657c-.706-.529-1.396-1.075-2.088-1.619-3.56-1.788-7.074-3.682-10.52-5.745z" fill="url(#ah)"/><path d="m400.275 107.156c.282.205.57.409.856.614 2.158 1.095 4.213 2.226 6.067 3.228a73.626 73.626 0 0 1 4.629 2.781l4.561-5.657c-.706-.529-1.396-1.075-2.088-1.619-3.56-1.788-7.074-3.682-10.52-5.745z" fill="#e1c982"/><path d="m370.825 163.453-.05.018.172.113c-.042-.041-.081-.087-.122-.131z" fill="url(#ai)"/><path d="m370.825 163.453-.05.018.172.113c-.042-.041-.081-.087-.122-.131z" fill="url(#aj)"/><path d="m253.116 77.85c-1.749.366-3.499.78-5.252 1.305-1.451.434-3.024.893-4.648 1.396 7.764-1.376 16.19-3.318 24.63-2.151l2.84 2.203c4.271 4.372 2.841 11.396 2.374 17.114-3.662 14.858-6.471 29.727-13.116 43.398a149.394 149.394 0 0 1 10.337-1.589c3.743-11.229 8.768-21.677 15.114-31.74 6.633-3.065 7.573 6.138 11.366 9.221 3.696 7.68 7.809 14.947 9.767 22.613 3.479.43 6.92.984 10.32 1.65-6.482-14.694-11.125-30.23-13.911-46.199-.486-4.823-.957-10.095 2.822-13.592 6.656-3.964 17.451-2.549 25.129-1.765 1.649.171 3.258.433 4.854.714-4.206-1.054-8.413-1.829-12.33-2.768l.787-7.262c1.99.295 3.979.544 5.97.757-7.061-2.306-13.758-5.067-19.646-7.671-13.285-8.764-16.6-22.357-16.127-36.836-4.266-.058-9.374-.063-12.922-.058.948 16.218-4.619 32.957-21.214 40.404a233.057 233.057 0 0 1 -11.608 4.093c1.227-.138 2.455-.291 3.681-.465z" fill="#e1c982"/><path d="m240.73 80.972c.819-.13 1.65-.274 2.485-.422 1.624-.502 3.197-.962 4.648-1.396a63.387 63.387 0 0 1 5.252-1.305l-.785-7.23c-1.226.175-2.454.328-3.681.465-3.284 1.057-6.599 2.035-9.968 2.881z" fill="url(#ab)"/><path d="m240.73 80.972c.819-.13 1.65-.274 2.485-.422 1.624-.502 3.197-.962 4.648-1.396a63.387 63.387 0 0 1 5.252-1.305l-.785-7.23c-1.226.175-2.454.328-3.681.465-3.284 1.057-6.599 2.035-9.968 2.881z" fill="#e1c982"/><path d="m323.41 77.658c3.917.939 8.124 1.714 12.33 2.768.165.029.333.054.498.084l2.049-6.971a132.134 132.134 0 0 1 -8.12-2.387c-1.99-.213-3.979-.461-5.97-.757z" fill="url(#ak)"/><path d="m323.41 77.658c3.917.939 8.124 1.714 12.33 2.768.165.029.333.054.498.084l2.049-6.971a132.134 132.134 0 0 1 -8.12-2.387c-1.99-.213-3.979-.461-5.97-.757z" fill="#e1c982"/><path d="m142.341 317.006a3.47 3.47 0 0 0 -.007-.639c-.425-.213-.855-.412-1.284-.617.135.718.268 1.438.413 2.152.29-.301.591-.592.878-.896z" fill="url(#al)"/><path d="m163.685 204.886-.09.137.137-.001z" fill="url(#am)"/><path d="m411.391 204.919c.325.023.65.035.976.054-.3-.448-.603-.894-.908-1.339-.095.243-.198.483-.292.727.056.207.137.389.224.558z" fill="url(#an)"/><path d="m259.53 141.975c.143-.285.274-.574.414-.86-.501.095-1.003.188-1.503.288.193.184.378.376.572.56.182.018.353.02.517.012z" fill="url(#ao)"/><path d="m141.329 304.761c.099.132.211.243.31.372-.161 1.189-.306 2.402-.306 3.702 0 2.598.363 4.973.952 7.163-.002-.006-.002-.014-.003-.02l.532-.051c-.261 3.589.311 7.477 2.004 11.563a.189.189 0 0 0 .043.09c0 .021-.014.032-.014.041-.045-.09-.081-.197-.132-.287-.284.206-.552.435-.831.648a148.281 148.281 0 0 0 2.216 7.281 282.795 282.795 0 0 0 7.691 4.258c-6.145-15.995-9.521-33.363-9.521-51.522 0-79.385 64.343-143.72 143.723-143.72 79.377 0 143.729 64.335 143.729 143.72 0 18.16-3.378 35.53-9.525 51.526a282.996 282.996 0 0 0 7.694-4.259 147.282 147.282 0 0 0 2.456-8.165c-.41-.355-.809-.719-1.224-1.07l-.438 1.289c-.045-.16-.098-.306-.141-.464.6-1.047 1.203-2.099 1.697-3.298a26.909 26.909 0 0 0 1.916-7.374c.189.219.386.429.577.646.08-.409.159-.818.235-1.229-.425.186-.855.357-1.279.546a3.06 3.06 0 0 0 -.346.969l-.52-.153c1.631-3.222 2.592-7.039 2.592-11.463 0-.037-.008-.063-.012-.105a.06.06 0 0 0 .02-.018c.012.095.012.214.012.308.36-.086.715-.2 1.074-.296a151.24 151.24 0 0 0 1.012-17.389c0-6.323-.397-12.553-1.158-18.669-.598-.2-1.189-.413-1.791-.606l.092 1.356c-.109-.135-.209-.249-.311-.373.166-1.201.301-2.4.301-3.699 0-2.763-.395-5.256-1.051-7.548.363.182.73.35 1.095.526-.115-.586-.23-1.172-.353-1.756-.305.317-.621.625-.924.944-.045.375-.021.723.045 1.022l-.525.058c.254-3.599-.32-7.49-2.008-11.574-.014-.043-.037-.056-.06-.093.008-.006.012-.022.021-.037.051.091.098.201.133.286.291-.21.565-.445.852-.663a148.637 148.637 0 0 0 -13.987-33.278c-.602.042-1.202.069-1.806.119l.6 1.226c-.148-.087-.289-.145-.432-.23-.299-1.17-.633-2.331-1.121-3.528a27.375 27.375 0 0 0 -3.574-6.173l-.422.227c-1.143-3.416-3.156-6.792-6.291-9.914-.016-.041-.049-.045-.076-.072v-.039c.076.07.162.158.24.215.095-.155.177-.32.27-.476a150.464 150.464 0 0 0 -25.904-25.601c-.372.188-.748.362-1.119.554l1.014.898c-.156-.024-.316-.035-.484-.055-.734-.957-1.483-1.904-2.395-2.819a27.009 27.009 0 0 0 -5.136-4.036l-.171.203c-.199-.231-.413-.455-.624-.68-.048-.027-.096-.059-.144-.086l.049-.017a23.845 23.845 0 0 0 -1.272-1.248 148.814 148.814 0 0 0 -41.444-18.563c-.152.178-.309.348-.461.526l1.295.437c-.166.048-.316.104-.469.141-1.047-.611-2.102-1.195-3.301-1.692a27.598 27.598 0 0 0 -1.471-.548 148.404 148.404 0 0 0 -6.399-1.398c.107.243.205.491.314.733.34.189.666.292.973.348l-.152.511c-3.223-1.615-7.041-2.58-11.459-2.58-.051-.004-.076.007-.111.013 0-.013-.012-.017-.02-.021.105-.016.221-.016.311-.019-.051-.213-.121-.422-.175-.634a151.142 151.142 0 0 0 -18.533-1.143c-5.995 0-11.903.363-17.713 1.049-.178.535-.369 1.062-.542 1.601l1.358-.094c-.126.094-.251.214-.373.309-1.208-.169-2.403-.304-3.698-.304-2.534 0-4.842.35-6.974.905l.054.499c-3.6-.258-7.48.306-11.583 2.006-.034.012-.05.029-.086.042-.009-.008-.021-.008-.034-.013.092-.045.202-.088.291-.137-.129-.178-.276-.346-.408-.523a148.619 148.619 0 0 0 -33.529 13.804c.04.559.065 1.116.112 1.677l1.21-.609c-.078.143-.14.289-.217.438-1.172.301-2.339.626-3.542 1.127a27.026 27.026 0 0 0 -6.566 3.858c.025-.345.037-.689.057-1.033-.688.454-1.375.91-2.055 1.375.312.122.62.255.932.375.365-.118.675-.269.931-.443l.259.468c-3.427 1.138-6.794 3.148-9.934 6.288-.026.013-.035.045-.06.067h-.038c.071-.071.15-.153.214-.228-.219-.134-.45-.25-.671-.381a150.394 150.394 0 0 0 -25.539 25.751c.232.461.448.926.685 1.385l.893-1.022c-.021.159-.027.323-.048.483-.952.735-1.909 1.482-2.831 2.398a27.304 27.304 0 0 0 -3.741 4.665l.407.329c-2.732 2.359-5.079 5.502-6.773 9.604-.018.025-.018.059-.026.093-.016.009-.029.009-.038.013.03-.098.077-.201.105-.304-.136-.021-.275-.03-.412-.05a148.55 148.55 0 0 0 -14.05 33.566c.376.325.742.66 1.122.982l.431-1.287c.042.15.105.303.146.452-.601 1.05-1.2 2.106-1.699 3.314a27.002 27.002 0 0 0 -1.916 7.374c-.186-.214-.379-.419-.566-.632-.097.473-.184.949-.276 1.423.345-.151.695-.29 1.039-.443.184-.332.286-.663.342-.969l.516.155c-1.617 3.221-2.578 7.027-2.578 11.461 0 .033.004.061.012.095a.095.095 0 0 0 -.032.031c-.004-.105 0-.217-.013-.317-.312.075-.62.175-.931.257a151.106 151.106 0 0 0 -1.149 18.593c0 5.906.354 11.73 1.02 17.458.645.216 1.281.444 1.931.652z" fill="url(#ap)"/><path d="m205.753 164.112a27.045 27.045 0 0 1 6.566-3.858c1.202-.5 2.369-.826 3.542-1.127.077-.149.139-.295.217-.438l-1.21.609c-.047-.561-.072-1.118-.112-1.677a149.36 149.36 0 0 0 -8.946 5.458c-.02.344-.032.688-.057 1.033z" fill="url(#ab)"/><path d="m205.753 164.112a27.045 27.045 0 0 1 6.566-3.858c1.202-.5 2.369-.826 3.542-1.127.077-.149.139-.295.217-.438l-1.21.609c-.047-.561-.072-1.118-.112-1.677a149.36 149.36 0 0 0 -8.946 5.458c-.02.344-.032.688-.057 1.033z" fill="url(#aq)"/><path d="m259.53 141.975a3.488 3.488 0 0 1 -.517-.012c-.193-.184-.379-.376-.572-.56-3.43.688-6.815 1.496-10.155 2.414.132.177.279.345.408.523-.09.048-.199.092-.291.137.013.005.025.005.034.013.037-.013.052-.03.086-.042 4.103-1.7 7.983-2.264 11.583-2.006l-.054-.499c-.19.049-.388.09-.575.143z" fill="url(#ar)"/><path d="m259.53 141.975a3.488 3.488 0 0 1 -.517-.012c-.193-.184-.379-.376-.572-.56-3.43.688-6.815 1.496-10.155 2.414.132.177.279.345.408.523-.09.048-.199.092-.291.137.013.005.025.005.034.013.037-.013.052-.03.086-.042 4.103-1.7 7.983-2.264 11.583-2.006l-.054-.499c-.19.049-.388.09-.575.143z" fill="url(#as)"/><path d="m163.732 205.022c.124-.003.248-.001.372-.004.298-.242.521-.503.688-.771l.016.013a27.255 27.255 0 0 1 3.741-4.665c.922-.916 1.878-1.663 2.831-2.398.021-.16.027-.324.048-.483l-.893 1.022c-.237-.459-.454-.924-.685-1.385a150.311 150.311 0 0 0 -6.165 8.535z" fill="url(#at)"/><path d="m163.732 205.022c.124-.003.248-.001.372-.004.298-.242.521-.503.688-.771l.016.013a27.255 27.255 0 0 1 3.741-4.665c.922-.916 1.878-1.663 2.831-2.398.021-.16.027-.324.048-.483l-.893 1.022c-.237-.459-.454-.924-.685-1.385a150.311 150.311 0 0 0 -6.165 8.535z" fill="url(#au)"/><path d="m196.06 170.981a4.555 4.555 0 0 1 -.214.228h.038c.025-.023.034-.055.06-.067 3.14-3.141 6.507-5.15 9.934-6.288l-.259-.468a3.63 3.63 0 0 1 -.931.443c-.313-.12-.62-.253-.932-.375a150.655 150.655 0 0 0 -8.367 6.146c.221.131.452.247.671.381z" fill="url(#ac)"/><path d="m196.06 170.981a4.555 4.555 0 0 1 -.214.228h.038c.025-.023.034-.055.06-.067 3.14-3.141 6.507-5.15 9.934-6.288l-.259-.468a3.63 3.63 0 0 1 -.931.443c-.313-.12-.62-.253-.932-.375a150.655 150.655 0 0 0 -8.367 6.146c.221.131.452.247.671.381z" fill="url(#B)"/><path d="m142.106 258.347a27.002 27.002 0 0 1 1.916-7.374c.498-1.208 1.098-2.264 1.699-3.314-.041-.149-.104-.302-.146-.452l-.431 1.287c-.381-.322-.746-.657-1.122-.982a148.766 148.766 0 0 0 -2.481 10.204c.186.211.379.416.565.631z" fill="url(#av)"/><path d="m142.106 258.347a27.002 27.002 0 0 1 1.916-7.374c.498-1.208 1.098-2.264 1.699-3.314-.041-.149-.104-.302-.146-.452l-.431 1.287c-.381-.322-.746-.657-1.122-.982a148.766 148.766 0 0 0 -2.481 10.204c.186.211.379.416.565.631z" fill="url(#aw)"/><path d="m163.732 205.022-.137.001a149.382 149.382 0 0 0 -5.523 8.922c.137.02.276.029.412.05-.029.103-.075.206-.105.304.009-.004.021-.004.038-.013.008-.034.008-.068.026-.093 1.694-4.102 4.04-7.246 6.773-9.604l-.407-.329c-.299.47-.584.942-.846 1.416-.074-.22-.156-.436-.231-.654z" fill="url(#ax)"/><path d="m163.732 205.022-.137.001a149.382 149.382 0 0 0 -5.523 8.922c.137.02.276.029.412.05-.029.103-.075.206-.105.304.009-.004.021-.004.038-.013.008-.034.008-.068.026-.093 1.694-4.102 4.04-7.246 6.773-9.604l-.407-.329c-.299.47-.584.942-.846 1.416-.074-.22-.156-.436-.231-.654z" fill="url(#ay)"/><path d="m164.104 205.018c-.124.003-.247.001-.372.004.075.219.157.435.23.654.262-.474.547-.946.846-1.416l-.016-.013a3.128 3.128 0 0 1 -.688.771z" fill="url(#az)"/><path d="m164.104 205.018c-.124.003-.247.001-.372.004.075.219.157.435.23.654.262-.474.547-.946.846-1.416l-.016-.013a3.128 3.128 0 0 1 -.688.771z" fill="url(#aA)"/><path d="m164.104 205.018c-.124.003-.247.001-.372.004.075.219.157.435.23.654.262-.474.547-.946.846-1.416l-.016-.013a3.128 3.128 0 0 1 -.688.771z" fill="url(#F)"/><path d="m140.563 269.467c.005-.012.02-.023.032-.031a.387.387 0 0 1 -.012-.095c0-4.434.961-8.24 2.578-11.461l-.516-.155a3.146 3.146 0 0 1 -.342.969c-.344.153-.694.292-1.039.443a149.411 149.411 0 0 0 -1.645 10.27c.311-.082.619-.183.931-.257.013.1.009.211.013.317z" fill="url(#b)"/><path d="m140.563 269.467c.005-.012.02-.023.032-.031a.387.387 0 0 1 -.012-.095c0-4.434.961-8.24 2.578-11.461l-.516-.155a3.146 3.146 0 0 1 -.342.969c-.344.153-.694.292-1.039.443a149.411 149.411 0 0 0 -1.645 10.27c.311-.082.619-.183.931-.257.013.1.009.211.013.317z" fill="url(#F)"/><path d="m142.285 315.998a27.385 27.385 0 0 1 -.952-7.163c0-1.3.145-2.514.306-3.702-.098-.129-.211-.24-.31-.372l.092 1.35c-.65-.208-1.287-.437-1.931-.652.403 3.469.924 6.9 1.561 10.292.428.205.858.404 1.284.617a3.84 3.84 0 0 0 -.05-.37z" fill="url(#aB)"/><path d="m142.285 315.998a27.385 27.385 0 0 1 -.952-7.163c0-1.3.145-2.514.306-3.702-.098-.129-.211-.24-.31-.372l.092 1.35c-.65-.208-1.287-.437-1.931-.652.403 3.469.924 6.9 1.561 10.292.428.205.858.404 1.284.617a3.84 3.84 0 0 0 -.05-.37z" fill="url(#aC)"/><path d="m144.848 327.621c0-.009.014-.02.014-.041a.189.189 0 0 1 -.043-.09c-1.693-4.086-2.265-7.975-2.004-11.563l-.532.051c.001.007.001.015.003.02.035.13.061.265.098.393a1.047 1.047 0 0 0 -.048-.023c.019.202.026.411.007.639-.288.304-.588.595-.878.896a148.373 148.373 0 0 0 2.421 10.08c.279-.213.547-.442.831-.648.05.089.086.196.131.286z" fill="url(#aD)"/><path d="m144.848 327.621c0-.009.014-.02.014-.041a.189.189 0 0 1 -.043-.09c-1.693-4.086-2.265-7.975-2.004-11.563l-.532.051c.001.007.001.015.003.02.035.13.061.265.098.393a1.047 1.047 0 0 0 -.048-.023c.019.202.026.411.007.639-.288.304-.588.595-.878.896a148.373 148.373 0 0 0 2.421 10.08c.279-.213.547-.442.831-.648.05.089.086.196.131.286z" fill="url(#aE)"/><path d="m142.285 315.998c.023.118.038.243.049.369l.048.023c-.035-.127-.062-.262-.097-.392z" fill="url(#aF)"/><path d="m142.285 315.998c.023.118.038.243.049.369l.048.023c-.035-.127-.062-.262-.097-.392z" fill="url(#aG)"/><path d="m142.285 315.998c.023.118.038.243.049.369l.048.023c-.035-.127-.062-.262-.097-.392z" fill="url(#aH)"/><path d="m432.244 323.56c-.494 1.199-1.098 2.251-1.697 3.298.043.158.096.304.141.464l.438-1.289c.415.352.813.716 1.224 1.07a148.742 148.742 0 0 0 2.389-10.271c-.191-.217-.388-.427-.577-.646a26.988 26.988 0 0 1 -1.918 7.374z" fill="url(#aI)"/><path d="m432.244 323.56c-.494 1.199-1.098 2.251-1.697 3.298.043.158.096.304.141.464l.438-1.289c.415.352.813.716 1.224 1.07a148.742 148.742 0 0 0 2.389-10.271c-.191-.217-.388-.427-.577-.646a26.988 26.988 0 0 1 -1.918 7.374z" fill="url(#aJ)"/><path d="m435.428 305.377c-.004.007-.008.011-.02.018.004.043.012.068.012.105 0 4.424-.961 8.241-2.592 11.463l.52.153a3.06 3.06 0 0 1 .346-.969c.424-.188.854-.36 1.279-.546a149.625 149.625 0 0 0 1.541-10.214c-.359.096-.714.21-1.074.296-.001-.092-.001-.211-.012-.306z" fill="url(#aK)"/><path d="m435.428 305.377c-.004.007-.008.011-.02.018.004.043.012.068.012.105 0 4.424-.961 8.241-2.592 11.463l.52.153a3.06 3.06 0 0 1 .346-.969c.424-.188.854-.36 1.279-.546a149.625 149.625 0 0 0 1.541-10.214c-.359.096-.714.21-1.074.296-.001-.092-.001-.211-.012-.306z" fill="url(#aL)"/><path d="m434.658 266.009c0 1.298-.135 2.497-.301 3.699.102.124.201.238.311.373l-.092-1.356c.602.193 1.193.406 1.791.606a149.151 149.151 0 0 0 -1.665-10.344c-.364-.176-.731-.344-1.095-.526a27.142 27.142 0 0 1 1.051 7.548z" fill="url(#aM)"/><path d="m434.658 266.009c0 1.298-.135 2.497-.301 3.699.102.124.201.238.311.373l-.092-1.356c.602.193 1.193.406 1.791.606a149.151 149.151 0 0 0 -1.665-10.344c-.364-.176-.731-.344-1.095-.526a27.142 27.142 0 0 1 1.051 7.548z" fill="url(#aN)"/><path d="m411.391 204.919c.068.132.14.258.211.37l-.039.021a27.397 27.397 0 0 1 3.574 6.173c.488 1.197.822 2.358 1.121 3.528.143.086.283.143.432.23l-.6-1.226c.604-.05 1.203-.077 1.806-.119a149.69 149.69 0 0 0 -5.529-8.923c-.326-.019-.651-.031-.976-.054z" fill="url(#aO)"/><path d="m411.391 204.919c.068.132.14.258.211.37l-.039.021a27.397 27.397 0 0 1 3.574 6.173c.488 1.197.822 2.358 1.121 3.528.143.086.283.143.432.23l-.6-1.226c.604-.05 1.203-.077 1.806-.119a149.69 149.69 0 0 0 -5.529-8.923c-.326-.019-.651-.031-.976-.054z" fill="url(#F)"/><path d="m431.031 247.837a2.768 2.768 0 0 0 -.133-.286c-.01.014-.014.031-.021.037.023.038.047.05.06.093 1.688 4.084 2.262 7.975 2.008 11.574l.525-.058c-.066-.3-.09-.647-.045-1.022.303-.319.619-.626.924-.944a149.145 149.145 0 0 0 -2.467-10.057c-.285.219-.56.453-.851.663z" fill="url(#aP)"/><path d="m431.031 247.837a2.768 2.768 0 0 0 -.133-.286c-.01.014-.014.031-.021.037.023.038.047.05.06.093 1.688 4.084 2.262 7.975 2.008 11.574l.525-.058c-.066-.3-.09-.647-.045-1.022.303-.319.619-.626.924-.944a149.145 149.145 0 0 0 -2.467-10.057c-.285.219-.56.453-.851.663z" fill="url(#aQ)"/><path d="m370.32 163.63c.048.027.096.059.144.086l-.095-.103z" fill="url(#aR)"/><path d="m370.32 163.63c.048.027.096.059.144.086l-.095-.103z" fill="url(#aS)"/><path d="m411.391 204.919a2.86 2.86 0 0 1 -.225-.559c.094-.244.197-.483.292-.727a150.64 150.64 0 0 0 -6.175-8.383c-.093.156-.175.321-.27.476-.078-.057-.164-.145-.24-.215v.039c.027.027.061.031.076.072 3.135 3.121 5.148 6.498 6.291 9.914l.422-.227c-.1-.13-.193-.27-.295-.397.042.004.083.005.124.007z" fill="url(#aT)"/><path d="m411.391 204.919a2.86 2.86 0 0 1 -.225-.559c.094-.244.197-.483.292-.727a150.64 150.64 0 0 0 -6.175-8.383c-.093.156-.175.321-.27.476-.078-.057-.164-.145-.24-.215v.039c.027.027.061.031.076.072 3.135 3.121 5.148 6.498 6.291 9.914l.422-.227c-.1-.13-.193-.27-.295-.397.042.004.083.005.124.007z" fill="url(#aU)"/><path d="m371.43 163.99-.171.203a27.04 27.04 0 0 1 5.136 4.036c.912.915 1.66 1.863 2.395 2.819.168.02.328.031.484.055l-1.014-.898c.371-.191.747-.366 1.119-.554a149.865 149.865 0 0 0 -8.432-6.067c.157.152.32.29.483.406z" fill="url(#aV)"/><path d="m371.43 163.99-.171.203a27.04 27.04 0 0 1 5.136 4.036c.912.915 1.66 1.863 2.395 2.819.168.02.328.031.484.055l-1.014-.898c.371-.191.747-.366 1.119-.554a149.865 149.865 0 0 0 -8.432-6.067c.157.152.32.29.483.406z" fill="url(#aW)"/><path d="m411.391 204.919-.123-.007c.102.127.195.267.295.397l.039-.021a4.183 4.183 0 0 1 -.211-.369z" fill="url(#aX)"/><path d="m411.391 204.919-.123-.007c.102.127.195.267.295.397l.039-.021a4.183 4.183 0 0 1 -.211-.369z" fill="url(#aY)"/><path d="m411.391 204.919-.123-.007c.102.127.195.267.295.397l.039-.021a4.183 4.183 0 0 1 -.211-.369z" fill="url(#aZ)"/><path d="m324.717 143.215c1.199.497 2.254 1.082 3.301 1.692.152-.037.303-.093.469-.141l-1.295-.437c.151-.179.309-.349.461-.526-1.46-.4-2.929-.779-4.406-1.136.487.17.975.343 1.47.548z" fill="url(#a0)"/><path d="m324.717 143.215c1.199.497 2.254 1.082 3.301 1.692.152-.037.303-.093.469-.141l-1.295-.437c.151-.179.309-.349.461-.526-1.46-.4-2.929-.779-4.406-1.136.487.17.975.343 1.47.548z" fill="url(#a1)"/><path d="m371.088 164.396.171-.203c-.265-.161-.529-.327-.795-.477.211.225.425.449.624.68z" fill="url(#a2)"/><path d="m371.088 164.396.171-.203c-.265-.161-.529-.327-.795-.477.211.225.425.449.624.68z" fill="url(#a3)"/><path d="m369.097 162.365c.446.404.868.822 1.272 1.248.137-.045.27-.096.406-.143-.557-.371-1.116-.74-1.678-1.105z" fill="url(#a4)"/><path d="m369.097 162.365c.446.404.868.822 1.272 1.248.137-.045.27-.096.406-.143-.557-.371-1.116-.74-1.678-1.105z" fill="url(#a5)"/><path d="m370.947 163.584-.172-.113c-.137.046-.27.097-.406.143l.095.103c.266.15.53.316.795.477l.171-.203a4.345 4.345 0 0 1 -.483-.407z" fill="url(#a6)"/><path d="m370.947 163.584-.172-.113c-.137.046-.27.097-.406.143l.095.103c.266.15.53.316.795.477l.171-.203a4.345 4.345 0 0 1 -.483-.407z" fill="url(#a7)"/><path d="m370.947 163.584-.172-.113c-.137.046-.27.097-.406.143l.095.103c.266.15.53.316.795.477l.171-.203a4.345 4.345 0 0 1 -.483-.407z" fill="url(#a8)"/><path d="m306.701 140.253c-.09.004-.205.004-.311.019.008.004.02.008.02.021.035-.006.061-.017.111-.013 4.418 0 8.236.965 11.459 2.58l.152-.511a3.131 3.131 0 0 1 -.973-.348c-.108-.243-.206-.49-.314-.733-3.4-.665-6.841-1.219-10.32-1.65.055.214.125.423.176.635z" fill="url(#a9)"/><path d="m306.701 140.253c-.09.004-.205.004-.311.019.008.004.02.008.02.021.035-.006.061-.017.111-.013 4.418 0 8.236.965 11.459 2.58l.152-.511a3.131 3.131 0 0 1 -.973-.348c-.108-.243-.206-.49-.314-.733-3.4-.665-6.841-1.219-10.32-1.65.055.214.125.423.176.635z" fill="url(#ap)"/><path d="m259.53 141.975c.182-.009.355-.032.518-.069l.004.037a27.453 27.453 0 0 1 6.974-.905c1.295 0 2.49.134 3.698.304.122-.095.247-.215.373-.309l-1.358.094c.172-.539.363-1.065.542-1.601a150 150 0 0 0 -10.337 1.589c-.14.286-.272.575-.414.86z" fill="url(#ba)"/><path d="m259.53 141.975c.182-.009.355-.032.518-.069l.004.037a27.453 27.453 0 0 1 6.974-.905c1.295 0 2.49.134 3.698.304.122-.095.247-.215.373-.309l-1.358.094c.172-.539.363-1.065.542-1.601a150 150 0 0 0 -10.337 1.589c-.14.286-.272.575-.414.86z" fill="url(#bb)"/><path d="m259.53 141.975-.053.11c.187-.053.385-.093.575-.143l-.004-.037a2.916 2.916 0 0 1 -.518.07z" fill="url(#bc)"/><path d="m259.53 141.975-.053.11c.187-.053.385-.093.575-.143l-.004-.037a2.916 2.916 0 0 1 -.518.07z" fill="url(#bd)"/><path d="m259.53 141.975-.053.11c.187-.053.385-.093.575-.143l-.004-.037a2.916 2.916 0 0 1 -.518.07z" fill="url(#be)"/><path d="m466.178 287.994c0 98.403-79.777 178.182-178.184 178.182-98.392 0-178.167-79.779-178.167-178.182 0-98.401 79.775-178.171 178.167-178.171 98.406 0 178.184 79.769 178.184 178.171z" fill="#fff" stroke="#c4a006" stroke-width=".954"/><path d="m354.102 205.275c3.995-.523 7.99-6.541 7.99-6.541s5.993-8.634 19.475-7.849c13.483.785 16.73 5.233 17.478 8.111.75 2.878 5.244 3.663 10.737 3.401s8.488 4.186 8.488 4.186 4.745.785 8.24 1.57 0-3.14-.5-4.709c-.5-1.57-1.247-4.186-.748-6.541.498-2.354 9.487 2.093 13.232 2.878s2.497-3.14 2.497-3.14l2.497-.523-7.518-11.569c-.167-.233-.336-.463-.504-.695l-1.217 1.275-3.496-6.279-2.996-.262-2.248 2.878-2.246-2.616-3.496-1.047-4.743-3.663-3.745-4.448-1.748-1.046 1.748 4.709 4.494 4.186s1.747 3.663 1.747 4.71-4.243-.523-5.243-.785c-.998-.262-5.742-4.448-5.742-4.448l-4.244-4.448-5.992-4.448s-11.985-7.588-13.483-7.588-12.234-3.663-12.234-3.663l3.745 3.663 8.239 4.709s7.74 2.617 10.736 3.925c2.997 1.308 4.994 3.663 4.994 3.663l-1.498.785 2.246 5.756-4.743-5.232s-6.991-4.448-11.235-4.448c-4.245 0-9.987-3.663-11.485-4.186s-6.243-4.186-6.243-2.616-4.493 1.57-8.737 3.401c-4.245 1.832-.5 6.541-.5 6.541l-2.996 3.401-1.249 4.71 1.747 5.756 1 5.232-.75 5.495s-.25 1.831-3.745 2.093c-3.495.261-5.991 3.401-6.241 4.71-.011.059-.04.103-.067.149.438.218 1.575.305 1.313.614a7.36 7.36 0 0 0 -.77 1.078c.008-.002.015-.007.022-.01 1.746-.523 5.741-.262 9.737-.785zm-16.842-4.74c-.213-.127-1.432-1.282-1.688-1.747-.574-1.082-1.162-2.214-1.543-3.792.435-6.032-1.893-10.292-4.488-13.84-.402-.554-1.289-1.168-2.115-1.025l-4.229-4.812c-1.305.27-2.339.604-2.751 1.016-1.482 1.482-4.198 2.471-4.198 2.471s3.21 3.46 5.186 5.931 2.47 11.368 2.47 11.368l4.939 2.472s1.728 4.201 2.717 4.448c.988.247 5.434-.742 6.668-.742.893 0 3.332 1.549 4.616 2.407.455.013.811-.069.955-.313-.017-.008-.039-.015-.054-.024z" fill="none"/><path d="m435.498 183.821-.031.033c.168.232.337.462.504.695zm-91.7 20.557c-.144.244-.5.326-.955.313.49.328.817.558.817.558l-3.582.827 1.789 4.431s.743-3.887 2.475-4.438c.229-.388.484-.749.77-1.078.261-.308-.877-.395-1.314-.613z" fill="none"/><path d="m342.843 204.691c-1.395-.04-3.722-.986-3.722-.986l.957 2.371 3.582-.827s-.327-.23-.817-.558z" fill="none"/><path d="m467.698 288.004c0 99.245-80.451 179.696-179.696 179.696-99.241 0-179.7-80.451-179.7-179.696 0-99.25 80.459-179.704 179.7-179.704 99.245 0 179.696 80.454 179.696 179.704z" fill="url(#bf)"/><g stroke="#dbe0ee" stroke-width=".15"><path d="m201.465 281.789c3.999.629 6.573-1.433 9.392-2.587l5.313-2.769c1.438-.778 3.401-.177 4.189.87 1.82.76 3.398-.344 4.182-1.446.861-1.215 2.228-1.964 3.496-3.117 1.174-.118 2.685-.122 3.86-.472 4.616.985 8.023 3.078 10.976 6.014 5.355 1.926 9.59 5.326 14.443 8.131 4.735 1.405 9.318 3.105 12.055 6.332.928 3.053 3.881 4.021 7.512 4.039 2.888.018 5.772-.086 8.327.365 2.284 1.02 3.993 2.758 6.794 3.777 1.606.052 3.597.273 5.983.793 2.898 1.866 6.168 4.219 8.314 7.58.305.475.193 2.475-.135 2.917-3.512 4.739-5.121 11.256-6.768 17.925-.779 3.18-1.832 6.241-3.371 8.66-1.225 1.923-3.363 2.881-5.195 4.19-2.765 1.98-6.154 3.396-8.083 5.765-2.762 6.642-4.723 13.43-6.496 20.698-.419 1.751-2.515 2.595-4.693 2.46-4.588.691-7.308 3.576-8.245 7.859-.558 2.524-2.398 3.847-4.746 4.611-1.671.525-2.593 2.011-2.672 3.919-.1 2.133-.473 3.715-1.548 4.811-.58.59-1.085 1.418-.697 3.082 1.507 2.337 3.166 5.276 3.77 9.245-1.084 2.827 1.259 4.541 2.603 5.95.941.974 1.627 2.862.941 4.475-.847.581-1.853.842-2.946 1.008-2.581.385-5.339.204-7.485-.441-2.499-.742-3.655-3.071-4.645-5.44-1.469-3.531-3.389-6.797-4.344-10.859.039-4.383-2.526-6.43-3.585-9.564-1.582-4.724-2.344-9.973-2.355-15.857-.545-3.189-2.135-5.427-3.738-7.508-1.062-1.355-2.055-2.639-2.815-4.431.744-4.637-.577-8.521-2.414-11.806l-1.005-9.083c-1.588-2.84-4.653-4.028-7.192-5.729-2.015-1.353-4.447-2.248-6.771-3.304-3.166-2.33-4.442-6.392-5.897-10.321-.993-2.682-2.647-4.727-3.94-7.096-.37-3.367.435-5.839.578-8.815.056-1.529.164-3.383.25-4.892 1.322-1.694 2.579-3.236 2.989-5.449.582-3.166-.392-5.667-2.081-7.092-.67-.564-1.555-.778-2.575-.864-4.896-.373-8.222-2.438-11.441-4.389-1.026-.629-2.213-1.048-2.958-1.922-3.475-4.176-8.19-7.018-13.992-8.435-4.706-2.995-10.724-4.003-15.661-6.403-3.559-1.733-5.232-5.461-6.512-9.725-.693-2.293-1.92-4.265-4.417-4.917-3.132-2.191-5.15-5.72-5.557-10.743-.796-2.651-2.539-4.312-3.531-6.691-.453-1.09-.372-2.282-.025-3.348 1.543-4.627.97-10.914-.854-14.923-.123-1.301-.233-2.568-.052-3.859.659-4.565 1.478-8.445 3.726-11.359.817-1.045.933-3.23.512-4.672-1.121-3.873.614-7.41 3.075-9.107 1.335-.93 2.092-2.661 1.67-4.322 1.18-2.463 2.02-4.727 3.822-6.052.352-1.883 1.534-3.158 2.294-4.652 3.506-6.863 8.992-12.352 14.508-17.207 4.219-3.717 8.247-7.099 12.812-10.466l8.473-6.548 12.353-7.563c4.304-2.435 8.686-4.687 13.461-6.588.745-.294 1.52-.35 2.484-.28.896 2.366 2.558 4.163 3.82 6.658 1.033-.044 2.452-.249 3.565.059 1.242.357 2.179 1.265 3.121 1.724.573.278 1.443-.174 1.673.391.487 1.267 1.563 2.239 2.614 3.175 1.915 1.707 3.759 3.619 6.14 5.209 2.432-.021 4.689.757 5.283 2.316.285.756.41 1.202.421 1.384.502 5.302-.866 9.095-2.689 12.1-.352.585-1.021.742-1.696.613-2.139-.41-3.27-2.119-4.105-3.852-.709-1.49-1.161-3.354-2.499-4.249-.701-.474-1.563-.603-2.307-.705-1.342-.176-2.32 1.045-2.6 2.115-.188.693-.215 1.331-.823 1.895-1.165 1.064-3.205 1.105-4.464 2.083-.887.68-1.371 1.992-1.233 3.28-1.043 4.05-4.976 6.366-9.735 5.359-2.778-.584-6.324.282-8.148 1.93-.417 1.312.186 2.633-.169 3.868-.139.507-1.068 1.868-1.188 2.375-.184.756.612 1.169 1.188 1.401 1.111.442 2.214 1.064 3.545 1.449l2.868 3.516c.396.421 1.226.792 1.643.576 2.907-1.522 6.393-2.443 8.767-4.662 2.207-2.055 3.251-5.341 4.427-8.48.177-.453.734-1.005 1.076-.953 2.724.348 5.843.213 8.001-.222 3.313.661 5.245 2.64 5.975 5.44.536 2.12.149 4.928.773 6.916 1.144 1.617 2.574 2.872 4.097 4.319.912.348 2.235.469 2.874 1.404 1.784 2.639 1.564 7.831-1.199 9.299a13.925 13.925 0 0 1 -4.26 1.442c-1.651-.471-3.481-1.316-5.729-2.075-3.025.751-5.993 2.166-8.174 4.344-.327.315-.656 1.23.075 1.44 1.46.425 2.573-.392 3.8-.856a5.387 5.387 0 0 1 3.518-.129c.495.146.883.681.909 1.316.075 1.986-.995 3.537-1.882 4.861-2.232 3.347-5.981 5.322-9.99 7.051-3.275 3.338-4.829 8.627-6.731 13.32-3.233 4.227-8.085 6.837-13.322 9.105-1.297.566-2.441 2.558-1.54 4.314.897 1.728 1.87 3.423 2.461 5.617 0 1.055.177 2.238-.142 3.083-.22.571-.8 1.147-1.294 1.156-2.756.056-3.925-2.036-5.252-3.649-1.451-1.751-2.819-3.658-5.02-4.701-4.316-1.003-7.914.687-10.85 2.378-1.88.498-4.233.616-5.63 1.881-.591.539-.585 1.416-.653 2.185-.239 2.993-.833 5.629-2.081 7.772-.554.968-.433 2.346-.514 3.595l.046 3.852c.372.967.531 1.965 1.236 2.562.605.516 1.855.93 2.659.274 1.819-1.504 3.08-3.841 5.862-4.475.953.303 1.94.411 2.81.278 1.665.253 2.249 1.525 2.749 2.599.874 1.881.141 4.059-.471 5.722-.188.507-.261 1.286.102 1.497.929.523 1.897.073 2.805-.057 1.888-.25 2.4 1.254 3.49 1.942" fill="url(#bh)"/><path d="m309.691 446.548c4.41-.67 7.941.546 11.287 1.121 2.42-.791 4.063-1.747 6.291-2.183 7.598.082 13.092 2.402 18.672 4.498 2.943 1.082 5.383 2.572 8.328 4.214a261.54 261.54 0 0 1 -8.242 3.617c-13.059 5.494-28.685 8.63-45.875 9.867-29.622 2.156-56.072-3.014-77.38-11.358-1.776-.691-3.803-1.184-5.479-2.318 2.319-3.255 5.556-5.537 10.562-6.003l7.878-1.226c5.21-.187 9.013 1.285 13.145 2.267 2.266 0 4.599.106 6.45.622 5.092-.516 7.652-3.736 10.378-6.634 1.011-1.076 1.798-2.314 2.12-4.184.663-3.732 3.224-5.958 6.24-7.503.285-.141 1.099.051.75 1.003-.426 1.194-1.544 2.869-1.974 4.739-.253 1.093.167 2.048.684 2.708 1.349 1.776 1.666 4.846 2.19 6.653 2.39 2.788 5.217 4.539 9.234 4.681 2.625.105 4.742.962 7.172 1.257.665.082 1.491.193 1.939-.223z" fill="url(#bi)"/><path d="m273.165 138.114c.364-1.148.392-2.141.877-2.86.744-1.089 1.366-2.843.696-4.482-.149-.376-.812-1.501-1.215-1.771-1.36-.96-3.22-1.678-4.117-3.221.097-1.686 1.161-2.865 1.755-4.313-2.52-1.585-5.085-3.175-5.986-6.11-.114-.371-.531-.747-1.071-.516-.668-.604.12-1.425.242-2.184-.678.391-1.377.2-1.969.275-.142.02-.41.363-.431.365-2.766.428-5.599.663-7.97 1.004-1.295.814-2.513.684-3.837.511-.444-.06-.862-.006-1.208.377-1.876 2.163-2.795 5.228-3.698 8.363-.072.218-.295 1.112.42.74.55.399.66 1.162 1.286 1.378.424.139 1.844 0 2.294.08.387.084 1.172 0 1.066.553-.198.977-.569 1.88-1.135 2.504-1.334 1.482-1.631 4.18-.924 6.46.389 1.239.793 2.718.252 4.065-.355.924-.413 1.983-.02 2.953.517 1.28 1.554 2.22 2.209 3.383 1.056 1.809 2.138 3.763 4.002 4.566l9.9 3.125c.428.135 1.071-.228 1.317-.625.833-1.393 1.711-3.032 2.746-4.446.003 0 2.768-4.643 4.519-10.174z" fill="url(#bj)"/><path d="m205.139 248.87c-1.723-.288-3.639-.876-5.426-.286-.124.038-.504.153-.609.214-1.829 1.014-3.333 2.443-4.124 4.397.526 1.694 2.237 2.436 4.02 2.384l12.942-1.87c3.197.538 5.806 1.534 8.751 2.269.554.14 1.238-.073 1.882-.204.564-.116 1.273-.568 1.183-1.19-.239-1.618-1.149-2.815-2.315-3.635-2.571-.764-5.652-1.135-8.345-2.105z" fill="url(#bk)"/><path d="m278.65 144.515c.217-.129.989-.321 1.164-.275 2.108.537 3.897 1.363 5.502 2.343.64.39 1.243 1.443.509 2.06-.766.645-1.711 1.104-2.875 1.651h-3.442c-1.693-.562-2.962-1.263-3.841-2.268 0-.001 1.134-2.413 2.983-3.511z" fill="url(#bl)"/><path d="m467.41 271.568c-.645-8.608-2.23-16.869-3.766-24.885a328.346 328.346 0 0 0 -11.01-33.496c-3.766-8.074-9.147-17.069-9.147-17.069l-2.497.523s1.248 3.925-2.497 3.14-12.734-5.232-13.232-2.878c-.499 2.355.248 4.971.748 6.541s3.995 5.494.5 4.709-8.24-1.57-8.24-1.57-2.995-4.448-8.488-4.186-9.987-.523-10.737-3.401c-.748-2.878-3.994-7.326-17.478-8.111-13.481-.785-19.475 7.849-19.475 7.849s-3.995 6.018-7.99 6.541-7.99.262-9.737.785c-.008.002-.015.007-.022.01-1.571 2.651-1.933 6.594-2.367 10.45-1.535 3.299-3.494 6.202-3.314 11.148-.619 4.296-1.211 8.726-1.879 12.8-.561 3.346-.309 7.362-.234 11 .086 4.858 2.705 7.37 6.143 9.106l2.436 2.515c1.342 1.82 2.123 4.178 3.42 5.981 2.504 3.479 4.91 7.074 10.258 7.542 3.875.36 7.23-.372 10.807-1.428 3.635.019 6.85-.982 9.713-2.405 3.904-1.153 6.814-3.348 11.727-3.381.715-.008 1.381.419 2.029.723 3.375 1.598 4.303 5.724 5.375 9.626.385 3.784 1.848 6.535 3.945 8.647 1.811 4.225 2.398 9.59 3.59 14.466.709 2.919 1.881 7.392-.156 9.806-.949 1.142-1.59 2.652-1.418 4.835l4.941 11.853c.147 3.426-1.139 5.972-1.713 8.32.295 5.87.961 10.967 1.938 15.561-.225 3.677-1.576 6.105-2.221 9.297-.246 1.196.1 2.188 1.074 2.701 6.412-.41 12.469-1.317 19.207-1.768 1.424-.097 2.693-.474 3.699-1.218 1.609-3.42 3.4-6.882 6.619-8.799.781-2.776 1.836-5.203 3.568-7.094 1.594-1.733 3.803-2.844 5.43-4.587 1.145-3.874 1.48-8.431 2.92-11.785 1.574-3.67 15.637-16.892 15.637-16.892 2.419-12.513 2.974-27.427 1.894-41.522z" fill="url(#bm)"/><path d="m323.162 125.18 6.422 2.471 3.21 1.236 4.692 1.977 1.728-1.235-3.211-2.719-7.409-6.178-4.938-.741-4.693-3.213-3.704-1.978 2.718-.247 6.421 3.213 9.878 3.46 4.939.494 2.964 2.471 3.457.248-1.481 1.976 5.68 4.943-3.211 1.482s-4.444-1.482-4.197 0c.247 1.483-7.409 1.236-7.409 1.236l-2.223-1.73-.742-1.73-3.704-.988-2.469.988 6.915 6.92-2.717 3.459.741 3.954-1.234 3.707-1.977 2.965-2.223 2.966s-2.717-.494-5.186 1.977c-2.471 2.471 1.234 2.471 7.408 4.201s12.842 12.356 12.842 12.356-5.185 1.236-7.161 1.236c-1.426 0-6.703.26-10.092.961l-5.029 3.68c-1 .167 3.167 4.834 4.5 6.5 1.11 1.388 1.25 3.002 1.5 5 .334 2.667.333 4.473.496 4.697 1.622 2.217 5.096.697 4.933 2.959.381 1.578 2.138 3.111 2.712 4.192.256.465 4.473-.374 4.686-.247l6.751 2.251c.015.009.037.016.054.024.027-.046.057-.091.067-.149.25-1.309 2.746-4.448 6.241-4.71s3.745-2.093 3.745-2.093l.75-5.495-1-5.232-1.747-5.756 1.249-4.71 2.996-3.401s-3.745-4.709.5-6.541c4.244-1.831 8.737-1.831 8.737-3.401s4.745 2.093 6.243 2.616 7.24 4.186 11.485 4.186c4.244 0 11.235 4.448 11.235 4.448l4.743 5.232-2.246-5.756 1.498-.785s-1.997-2.355-4.994-3.663c-2.996-1.308-10.736-3.925-10.736-3.925l-8.239-4.709-3.745-3.663s10.736 3.663 12.234 3.663 13.483 7.588 13.483 7.588l5.992 4.448 4.244 4.448s4.744 4.186 5.742 4.448c1 .262 5.243 1.832 5.243.785 0-1.046-1.747-4.71-1.747-4.71l-4.494-4.186-1.748-4.709 1.748 1.046 3.745 4.448 4.743 3.663 3.496 1.047 2.246 2.616 2.248-2.878 2.996.262 3.496 6.279 1.217-1.275c-6.647-9.164-13.938-17.653-22.404-25.013-.986-.851-1.728-2.236-3.1-2.634 0 0-12.924-11.195-13.371-11.604-1.631-1.485-3.49-3.034-5.506-4.402-22.271-15.089-48.142-26.802-81.334-30.673-.586-.064-1.047.323-1.231.747-.246.557.273 1.026.283 1.169.234 3.451-.332 6.103-1.43 8.407-.123.256 0 .852.193 1.214.714 1.236 1.521 2.383 2.33 3.528 2.371 1.398 4.921 2.645 6.349 3.304 3.213 1.487 6.918-2.713 6.918-2.713z" fill="url(#bn)"/><path d="m396.836 179.326-5.229.523.523 2.879 7.059 1.831.524-2.093zm-22.811-1.621 4.446 5.755 3.66 1.047-.262-3.14-4.706-4.97-2.353-.262zm-4.873-7.82 3.138 3.924h1.831l-2.877-4.448z" fill="#90a6ce"/><path d="m317.867 154.214 5.351-3.473 4.092-1.562-1.416-1.909-.945-1.39-3.304-.521-4.093-1.736-2.992-1.562-1.888-.174-.787-2.778h-2.99l-2.519-1.389-1.259 1.736 2.832 2.084.946 2.257 1.258 1.215 2.362-.521 2.833.348 1.258 1.91-2.36-.348 2.046 1.91v1.736l2.361.868z" fill="#99add2"/><path d="m308.938 145.559 2.35 1.512 2.182 1.68.84 1.848-3.526 2.184-3.189-.168v-2.688l-1.679-.84-.504-1.344 1.008-.336v-1.344z" fill="#99add2"/><path d="m231.021 253.691v2.685l-6.04 1.342 4.698 1.343h7.382l5.37 2.013-3.356-5.369-2.685-3.356z" fill="#bcc8e1"/></g><path d="m124.38 343.258c10.639-1.24 15.61-2.488 15.61-14.193v-84.089c-9.931-12.232-12.772-12.777-15.075-12.777v-4.433h37.431l61.559 75.758h.349v-53.755c0-10.644-2.128-16.503-16.494-17.57v-4.433h38.138v4.433c-12.77 1.606-13.843 5.684-13.843 14.192v104.493h-4.957l-78.943-96.148h-.359v70.964c0 12.771 3.73 16.135 16.857 17.559v4.439h-40.273zm206.109-79.837c-3.195-12.412-13.84-32.815-34.768-32.815-9.225 0-18.987 5.322-18.987 16.854 0 9.576 3.371 13.478 18.28 20.928l26.072 12.951c6.027 3.018 19.52 13.313 19.52 32.647 0 15.609-11.361 37.082-43.994 37.082-16.861 0-24.844-6.037-30.337-6.037-3.734 0-4.62 3.195-5.326 6.037h-5.137v-43.822h5.137c3.551 17.916 13.839 37.967 36.37 37.967 21.289 0 22.176-17.562 22.176-19.875 0-11.887-8.34-16.139-19.869-21.647l-11.886-5.672c-30.343-14.548-30.343-29.805-30.343-37.964 0-10.821 5.503-34.94 39.215-34.94 14.193 0 22.521 5.849 27.674 5.849 4.076 0 4.959-2.661 5.848-6.031h5.326v38.489h-4.971zm20.557-35.656h100.574v35.656h-4.25c-3.902-18.446-8.693-29.617-39.211-29.617-9.578 0-12.768.707-12.768 8.336v41.152c21.998.355 24.662-12.236 27.146-26.427h4.428v59.96h-4.428c-1.949-14.549-4.785-27.498-27.146-27.498v41.328c0 11.715 7.098 12.068 19.518 12.602v4.439h-63.863v-4.439c10.115-1.063 15.605-1.598 15.605-12.602v-85.862c0-11.702-7.275-12.052-15.605-12.597z" fill="#fff" stroke="#005699" stroke-width="2"/><path d="m288.002 106.353c100.324 0 181.65 81.325 181.65 181.647 0 100.32-81.326 181.647-181.65 181.647-100.323 0-181.65-81.326-181.65-181.647.001-100.322 81.328-181.647 181.65-181.647m0 2.25c-24.22 0-47.714 4.743-69.83 14.097-21.362 9.036-40.548 21.971-57.025 38.447s-29.412 35.662-38.448 57.024c-9.354 22.116-14.097 45.61-14.097 69.83s4.743 47.713 14.097 69.828c9.036 21.362 21.971 40.548 38.448 57.024s35.663 29.411 57.025 38.447c22.116 9.353 45.61 14.097 69.83 14.097s47.714-4.743 69.831-14.097c21.362-9.036 40.549-21.972 57.024-38.447 16.477-16.477 29.412-35.662 38.448-57.024 9.353-22.115 14.097-45.608 14.097-69.828s-4.743-47.714-14.097-69.83c-9.036-21.362-21.972-40.548-38.448-57.024s-35.662-29.412-57.024-38.447c-22.116-9.355-45.61-14.097-69.831-14.097z" fill="#c4a006"/><ellipse cx="288" cy="288" fill="url(#bo)" opacity=".27" rx="179.698" ry="179.701"/></svg>