<?xml version="1.0" encoding="utf-8"?>
<!-- Generator: Adobe Illustrator 24.1.1, SVG Export Plug-In . SVG Version: 6.00 Build 0)  -->
<svg version="1.1" id="Layer_1" xmlns="http://www.w3.org/2000/svg" xmlns:xlink="http://www.w3.org/1999/xlink" x="0px" y="0px"
	 viewBox="0 0 612 792" enable-background="new 0 0 612 792" xml:space="preserve">
<g>
	<path fill="#FFFFFF" stroke="#003976" stroke-width="3" d="M177.5,396.75c0-70.831,57.419-128.25,128.25-128.25
		c70.831,0,128.25,57.419,128.25,128.25S376.581,525,305.75,525C234.919,525,177.5,467.581,177.5,396.75L177.5,396.75z"/>
	<polygon points="204.607,463.095 202.873,460.262 211.143,450.547 198.631,453.329 196.869,450.45 209.652,436.264 
		212.344,440.663 203.357,449.93 216.234,447.02 217.94,449.807 209.287,459.724 221.647,455.865 223.338,458.629 204.607,463.095 	
		"/>
	<path d="M222.389,469.951l-1.386,2.454l-2.846-3.25l5.708-2.128l0.091,0.131l-1.583,2.803l3.757,2.652l3.794-7.232l-1.814-2.072
		c-6.079,2.525-12.346,4.712-18.743,6.546l0.031,0.117l1.867,2.133l4.873-2.222l3.895,4.448l-2.792,4.598l3.486,3.981l5.386-10.286
		L222.389,469.951L222.389,469.951z"/>
	<path d="M229.25,490.192c-2.629-1.081-4.605-3.381-5.7-5.92c0.996-0.746,2.027-1.534,2.879-2.404l0.451,0.387
		c-1.424,2.407,0.391,5.599,3.097,5.928c1.584,0.185,2.791-1.305,2.525-2.779l-1.908-4.41c-1.144-2.938,0.145-5.851,2.913-7.212
		c1.728-0.688,3.637-0.509,5.221,0.423c1.874,1.216,3.332,3,4.122,5.064l-2.651,1.888l-0.41-0.352
		c0.794-1.88,0.124-3.628-1.645-4.718c-1.473-0.979-2.934-0.311-3.526,1.209c-0.026,0.404-0.015,0.805,0.055,1.221
		c1.244,2.738,3.671,6.42,1.599,9.374C234.639,490.295,232,491.091,229.25,490.192L229.25,490.192z"/>
	<polygon points="247.595,502.886 252.164,495.548 245.647,491.713 241.451,499.27 237.215,496.778 246.501,480.999 
		250.783,483.518 246.825,489.712 253.295,493.519 256.853,487.153 261.019,489.605 251.952,505.012 251.761,505.338 
		247.595,502.886 	"/>
	<polygon points="258.424,508.132 265.196,491.182 269.76,493.005 262.987,509.955 258.424,508.132 	"/>
	<polygon points="282.089,515.578 274.695,500.977 271.974,513.069 269.302,512.406 273.708,494.64 277.14,495.492 284.35,509.825 
		286.941,498.034 289.522,498.618 285.128,516.332 282.089,515.578 	"/>
	<path d="M293.156,515.19c-3.494-3.97-3.068-10.165,0.876-13.688c0.849-0.625,1.774-1.165,2.745-1.566
		c1.188-0.416,2.366-0.669,3.585-0.704c2.807-0.345,5.889,0.57,8.266,1.984c-0.464,0.973-0.851,2.005-1.129,3.043
		c-0.165,0.044-0.35-0.021-0.509-0.085c-1.325-2.703-4.479-3.785-7.359-2.66c-3.901,1.903-4.736,6.802-3.644,10.681
		c0.49,1.301,1.175,2.505,2.29,3.302c1.529,0.66,2.776,1.059,4.493,0.838l0.746-0.253l0.39-6.495l4.582,0.275l-0.45,7.492
		C303.045,518.515,297.172,519.028,293.156,515.19L293.156,515.19z"/>
	<polygon points="321.6,500.967 323.531,516.782 318.787,517.362 316.856,501.547 312.117,502.397 311.803,499.824 325.875,498.106 
		326.19,500.679 321.6,500.967 	"/>
	<path d="M341.78,498.012c-1.458-1.28-3.381-1.904-5.361-1.072c-2.683,1.104-3.387,4.059-3.025,6.715
		c0.752,3.468,2.103,7.233,5.883,8.051c1.024,0.025,1.959-0.149,2.883-0.544c3.37-1.625,3.072-6.56,1.957-9.465
		C343.719,500.323,342.882,498.98,341.78,498.012l1.567-3.178c2.048,0.747,3.8,2.177,4.837,4.289
		c1.76,3.809,1.503,8.038-1.427,11.194c-0.86,0.97-1.947,1.754-3.144,2.178l-3.262,1.056l-2.739,0.275
		c-6.672-0.214-11.1-8.401-7.706-14.184c1.567-2.626,4.604-4.601,7.616-5.185c1.98-0.408,4.018-0.281,5.826,0.378L341.78,498.012
		L341.78,498.012z"/>
	<polygon points="368.483,500.431 353.177,494.62 359.315,505.392 356.892,506.704 348.177,490.601 351.288,488.917 
		366.277,494.654 360.246,484.192 362.548,482.884 371.238,498.94 368.483,500.431 	"/>
	<path d="M378.75,498.196l-0.703,0.184l-2.905-6.849c-0.397-1.083-0.371-2.276,0.779-2.856c1.486-0.76,2.73,0.335,2.885,1.864
		C378.828,493.072,378.83,495.621,378.75,498.196L378.75,498.196z"/>
	<path d="M387.622,465.696c3.394,0.905,6.242,4.02,6.832,7.491c0.273,2.221-1.482,4.129-2.985,5.467l-10.773-9.501l1.929-2.187
		c0.62-0.785,1.565-1.284,2.564-1.519C386.015,465.395,386.834,465.485,387.622,465.696l0.824-4.018
		c-2.26,0.015-4.49,1.013-6.213,2.711l-6.144,6.966l13.649,12.038l5.34-6.055c0.804-0.911,1.41-1.925,1.914-3.028
		c1.963-4.389-0.675-9.236-4.55-11.537c-1.275-0.759-2.641-1.104-3.997-1.095L387.622,465.696L387.622,465.696z"/>
	<path d="M402.175,467.775c-1.607,0.121-2.996-0.86-2.835-2.631c0.086-0.402,0.169-0.707,0.387-1.016
		c0.094-0.132,0.231-0.233,0.325-0.366c1.691-1.318,3.836-0.33,3.967,1.778C403.87,466.593,403.262,467.453,402.175,467.775
		L402.175,467.775z"/>
	<path d="M403.185,439.241l-0.3,0.575c-3.645-0.135-5.793,3.982-4.833,7.162c1.199,3.305,5.145,5.547,8.487,5.738
		c3.453,0.035,6.239-2.561,6.361-6.121c-0.033-0.87-0.103-1.729-0.294-2.529l0.414-0.21l1.888,1.868
		c-0.335,5.428-4.248,11.06-10.036,11.238c-4.466-0.137-8.7-3.169-9.577-7.616c-0.28-1.973-0.066-3.902,0.715-5.748
		c1.033-2.506,2.558-4.786,4.855-6.328L403.185,439.241L403.185,439.241z"/>
	<path d="M416.849,441.287c-1.53,0.505-3.115-0.112-3.387-1.87c-0.014-0.411-0.007-0.727,0.131-1.079
		c0.059-0.151,0.168-0.282,0.227-0.433c1.324-1.687,3.645-1.246,4.279,0.769C418.209,439.73,417.827,440.711,416.849,441.287
		L416.849,441.287z"/>
	<path d="M205.593,408.816c1.246,2.555,1.195,5.587,0.325,8.211c-1.24-0.104-2.534-0.201-3.749-0.117l-0.08-0.589
		c2.663-0.852,3.429-4.444,1.625-6.487c-1.061-1.191-2.953-0.879-3.733,0.398l-1.505,4.564c-1.097,2.955-3.996,4.276-6.969,3.453
		c-1.748-0.634-3.056-2.037-3.62-3.786c-0.592-2.153-0.496-4.455,0.285-6.523l3.235,0.351l0.073,0.535
		c-1.843,0.877-2.504,2.629-1.907,4.618c0.45,1.71,1.986,2.182,3.438,1.44c0.288-0.285,0.546-0.592,0.77-0.949
		c0.89-2.873,1.524-7.236,5.034-8.067C201.636,405.158,204.136,406.317,205.593,408.816L205.593,408.816z"/>
	<path d="M205.542,385.367l-12.161,0.358l11.797,6.003l-0.114,1.994l-12.29,4.487l11.927,1.846l-0.156,2.722
		c-6.067-1.24-12.053-2.476-18.124-3.662l0.202-3.531l12.503-4.421l-11.857-5.898l0.208-3.639l18.349-1.22L205.542,385.367
		L205.542,385.367z"/>
	<polygon points="207.067,376.889 189.296,372.739 190.413,367.954 208.184,372.105 207.067,376.889 	"/>
	<polygon points="197.008,354.754 211.963,360.233 210.319,364.719 195.364,359.24 193.965,363.845 191.532,362.954 
		196.406,349.646 198.84,350.538 197.008,354.754 	"/>
	<polygon points="220.118,343.985 212.733,339.494 208.967,346.05 216.568,350.166 214.121,354.428 198.245,345.311 
		200.719,341.002 206.954,344.894 210.692,338.385 204.289,334.894 206.696,330.703 222.197,339.605 222.525,339.793 
		220.118,343.985 	"/>
	<path d="M229.261,331.396c-1.037,2.647-3.303,4.661-5.824,5.799c-0.763-0.983-1.568-2.001-2.451-2.839l0.379-0.457
		c2.43,1.384,5.592-0.484,5.875-3.195c0.158-1.587-1.352-2.769-2.82-2.478l-4.378,1.982c-2.918,1.193-5.853-0.047-7.26-2.791
		c-0.716-1.716-0.57-3.628,0.336-5.228c1.184-1.894,2.943-3.382,4.995-4.206l1.932,2.619l-0.345,0.416
		c-1.893-0.762-3.63-0.063-4.69,1.723c-0.954,1.489-0.262,2.939,1.268,3.505c0.404,0.02,0.805,0.001,1.22-0.076
		c2.717-1.289,6.358-3.778,9.347-1.756C229.275,326.007,230.115,328.632,229.261,331.396L229.261,331.396z"/>
	<path d="M232.403,319.25c1.468,1.105,3.174,1.734,5.176,1.341c0.95-0.382,1.741-0.911,2.432-1.64
		c2.452-2.826,0.227-7.241-1.948-9.468c-2.108-2.566-6.336-4.041-8.952-1.324c-2.027,2.075-1.505,5.068-0.122,7.364
		C229.965,316.888,231.088,318.261,232.403,319.25l-2.004,3.826c-3.821-1.553-6.743-5.517-6.201-9.859
		c0.401-3.032,2.409-6.048,4.944-7.775c3.534-2.47,8.274-2.811,11.64,0.068c3.123,2.803,4.56,6.789,3.118,10.847
		c-0.407,1.231-1.094,2.381-2.027,3.244l-2.579,2.261l-2.407,1.336c-2.16,0.849-4.452,0.706-6.488-0.121L232.403,319.25
		L232.403,319.25z"/>
	<polygon points="260.962,306.804 245.589,301.184 251.859,311.878 249.453,313.219 240.541,297.229 243.631,295.507 
		258.685,301.056 252.527,290.672 254.812,289.337 263.698,305.279 260.962,306.804 	"/>
	<polygon points="268.084,303.701 261.699,286.6 266.303,284.881 272.688,301.981 268.084,303.701 	"/>
	<path d="M284.658,286.423l-3.505,2.938l1.552,2.489l-4.216,0.944l0.864-6.032l0.158-0.035l1.642,2.634L284.658,286.423
		l-3.851-5.769l-2.688,0.602c-0.693,6.547-1.773,13.097-3.225,19.592l0.117,0.029l2.767-0.619l0.381-5.342l5.771-1.291l2.701,4.653
		l5.164-1.156L284.658,286.423L284.658,286.423z"/>
	<polygon points="308.034,296.321 297.033,284.201 297.615,296.583 294.862,296.653 294.401,278.352 297.937,278.263 
		308.689,290.174 308.062,278.116 310.706,277.996 311.165,296.242 308.034,296.321 	"/>
	<polygon points="323.177,297.92 326.834,280.04 331.648,281.025 327.991,298.905 323.177,297.92 	"/>
	<polygon points="344.596,304.114 338.754,288.824 334.795,300.57 332.205,299.634 338.428,282.419 341.755,283.622 
		347.441,298.625 351.24,287.165 353.746,288.014 347.541,305.179 344.596,304.114 	"/>
	<path d="M357.175,310.411c-2.787-0.559-5.166-2.438-6.726-4.721c0.835-0.923,1.696-1.893,2.367-2.909l0.516,0.293
		c-0.938,2.634,1.454,5.421,4.172,5.226c1.59-0.121,2.49-1.815,1.947-3.21l-2.716-3.964c-1.684-2.664-0.976-5.771,1.481-7.635
		c1.564-1.005,3.472-1.194,5.205-0.583c2.071,0.835,3.843,2.307,5.014,4.183l-2.241,2.36l-0.469-0.266
		c0.42-1.997-0.572-3.585-2.516-4.317c-1.633-0.679-2.94,0.255-3.23,1.86c0.051,0.401,0.139,0.793,0.288,1.188
		c1.744,2.45,4.83,5.6,3.361,8.895C362.484,309.483,360.046,310.769,357.175,310.411L357.175,310.411z"/>
	<polygon points="378.496,305.882 368.808,318.524 365.016,315.617 374.703,302.976 370.725,300.267 372.302,298.21 
		383.551,306.831 381.974,308.888 378.496,305.882 	"/>
	<polygon points="374.059,323.113 386.799,310.047 390.316,313.477 377.577,326.543 374.059,323.113 	"/>
	<polygon points="397.835,325.493 385.445,335.503 382.442,331.786 394.832,321.776 391.602,318.208 393.618,316.58 
		402.525,327.604 400.509,329.233 397.835,325.493 	"/>
	<path d="M402.103,350.623c-2.591,1.235-5.592,0.776-7.687-1.198c-2.411-2.633-4.253-6.556-2.488-9.993
		c0.465-0.764,1.043-1.438,1.716-1.947l11.128-6.81l1.751,3.384l0.717,0.927l-10.8,6.186c-3.695,1.805-1.633,7.687,2.235,7.649
		c0.603-0.034,1.239-0.118,1.831-0.333l10.894-6.24l1.222,2.35l0.349,0.391L402.103,350.623L402.103,350.623z"/>
	<polygon points="415.664,358.039 400.762,363.675 399.071,359.205 413.973,353.569 412.02,349.169 414.445,348.252 419.46,361.512 
		417.035,362.429 415.664,358.039 	"/>
	<polygon points="402.671,369.846 420.362,365.355 421.571,370.117 403.881,374.609 402.671,369.846 	"/>
	<path d="M412.738,391.652c-2.391-0.338-4.711-1.452-5.318-3.834c-0.205-0.984-0.189-1.935,0.039-2.934
		c1.553-3.544,5.512-4.121,9.062-4.169c2.676,0.173,5.433,1.45,5.983,4.299c0.742,3.699-2.881,6.333-6.192,6.602
		C415.257,391.793,413.988,391.828,412.738,391.652l-1.713,3.915c2.11,0.97,4.558,1.128,7.001,0.548
		c4.286-1.125,6.708-5.214,6.693-9.527c0.026-3.069-1.308-6.439-3.571-8.497c-4.996-4.477-13.902-1.762-15.437,4.738l-0.275,2.74
		l0.388,3.408c0.177,1.258,0.731,2.479,1.51,3.515c1.009,1.406,2.274,2.423,3.691,3.074L412.738,391.652L412.738,391.652z"/>
	<polygon points="405.262,412.926 418.762,403.666 406.413,402.566 406.717,399.828 424.914,401.85 424.524,405.366 
		411.265,414.408 423.299,415.418 423.06,418.055 404.917,416.039 405.262,412.926 	"/>
	<path fill="#003976" d="M214.147,396.75c0-50.591,41.011-91.602,91.602-91.602c50.591,0,91.602,41.011,91.602,91.602
		c0,50.591-41.011,91.602-91.602,91.602C255.159,488.352,214.147,447.341,214.147,396.75L214.147,396.75z"/>
	<path fill="#FFD520" d="M332.5,359.255c0,0-0.486-4.091-0.692-8.83s3.476-8.757,6.103-11.127c2.627-2.37,4.55-6.002,4.687-9.581
		c0.254-6.671-4.586-12.62-11.385-16.122c2.576,4.635,4.173,11.332-0.05,15.195c-2.625,2.401-5.923,5.718-9.786,6.955
		c-3.863,1.237-8.318,7.277-8.06,15.93l-7.807-36.842l-7.247,36.516c0,0-3.387-2.605-6.884-5.81
		c-3.497-3.205-3.734-8.65-3.552-12.183c0.182-3.533-1.026-7.461-3.461-10.089c-4.537-4.896-12.166-5.681-19.45-3.349
		c5.099,1.456,10.964,5.062,10.71,10.78c-0.158,3.554-0.145,8.232-2.002,11.838c-1.857,3.606-0.586,11.082,5.716,17.018
		l-31.421-20.475l20.546,30.89c0,0-4.388,0.498-9.127,0.705c-4.739,0.206-8.757-3.476-11.127-6.103
		c-2.37-2.627-6.002-4.55-9.581-4.686c-6.67-0.254-12.619,4.586-16.121,11.385c4.636-2.576,11.332-4.174,15.195,0.05
		c2.401,2.625,5.718,5.923,6.955,9.786c1.237,3.863,7.573,8.305,16.226,8.047l-36.546,7.795l36.22,7.26c0,0-2.901,3.4-6.106,6.897
		c-3.205,3.497-8.65,3.734-12.183,3.552c-3.533-0.182-7.461,1.027-10.089,3.461c-4.896,4.537-5.681,12.166-3.349,19.45
		c1.457-5.1,5.062-10.964,10.78-10.71c3.554,0.158,8.232,0.145,11.838,2.002c3.606,1.857,11.378,0.573,17.315-5.729l-20.179,31.408
		l30.594-20.533c0,0,0.202,4.401,0.409,9.14c0.206,4.739-3.476,8.757-6.103,11.127c-2.627,2.37-4.55,6.002-4.687,9.581
		c-0.254,6.671,4.586,12.62,11.385,16.122c-2.576-4.636-4.173-11.332,0.05-15.196c2.625-2.401,5.923-5.718,9.786-6.955
		c3.863-1.237,8.601-7.586,8.343-16.24l8.091,36.533l6.964-36.207c0,0,3.104,2.914,6.601,6.119c3.497,3.205,3.734,8.65,3.552,12.183
		c-0.182,3.533,1.027,7.461,3.461,10.089c4.537,4.896,12.166,5.681,19.45,3.349c-5.099-1.456-10.964-5.062-10.709-10.78
		c0.158-3.554,0.145-8.232,2.002-11.838c1.857-3.606,0.869-11.391-5.433-17.328l31.704,20.167l-20.829-30.581
		c0,0,4.105-0.189,8.843-0.396c4.739-0.206,8.757,3.476,11.127,6.103c2.37,2.627,6.002,4.55,9.581,4.687
		c6.671,0.254,12.62-4.586,16.122-11.385c-4.635,2.576-11.332,4.173-15.195-0.05c-2.401-2.625-5.718-5.923-6.955-9.786
		c-1.237-3.863-7.29-8.614-15.943-8.356l36.829-8.104l-36.504-6.951c0,0,2.618-3.091,5.823-6.588
		c3.205-3.497,8.65-3.734,12.184-3.552c3.533,0.182,7.461-1.027,10.088-3.461c4.897-4.537,5.681-12.166,3.349-19.45
		c-1.456,5.099-5.062,10.964-10.78,10.71c-3.554-0.158-8.232-0.145-11.838-2.002c-3.606-1.857-11.095-0.882-17.032,5.42
		l20.463-31.718L332.5,359.255L332.5,359.255z"/>
</g>
</svg>
