<svg viewBox="0 0 612 792" xmlns="http://www.w3.org/2000/svg"><path d="m177.5 396.75c0-70.831 57.419-128.25 128.25-128.25s128.25 57.419 128.25 128.25-57.419 128.25-128.25 128.25-128.25-57.419-128.25-128.25z" fill="#fff" stroke="#003976" stroke-width="3"/><path d="m204.607 463.095-1.734-2.833 8.27-9.715-12.512 2.782-1.762-2.879 12.783-14.186 2.692 4.399-8.987 9.267 12.877-2.91 1.706 2.787-8.653 9.917 12.36-3.859 1.691 2.764zm17.782 6.856-1.386 2.454-2.846-3.25 5.708-2.128.091.131-1.583 2.803 3.757 2.652 3.794-7.232-1.814-2.072a173.65 173.65 0 0 1 -18.743 6.546l.031.117 1.867 2.133 4.873-2.222 3.895 4.448-2.792 4.598 3.486 3.981 5.386-10.286zm6.861 20.241c-2.629-1.081-4.605-3.381-5.7-5.92.996-.746 2.027-1.534 2.879-2.404l.451.387c-1.424 2.407.391 5.599 3.097 5.928 1.584.185 2.791-1.305 2.525-2.779l-1.908-4.41c-1.144-2.938.145-5.851 2.913-7.212 1.728-.688 3.637-.509 5.221.423 1.874 1.216 3.332 3 4.122 5.064l-2.651 1.888-.41-.352c.794-1.88.124-3.628-1.645-4.718-1.473-.979-2.934-.311-3.526 1.209a5.24 5.24 0 0 0 .055 1.221c1.244 2.738 3.671 6.42 1.599 9.374-1.633 2.404-4.272 3.2-7.022 2.301zm18.345 12.694 4.569-7.338-6.517-3.835-4.196 7.557-4.236-2.492 9.286-15.779 4.282 2.519-3.958 6.194 6.47 3.807 3.558-6.366 4.166 2.452-9.067 15.407-.191.326zm10.829 5.246 6.772-16.95 4.564 1.823-6.773 16.95zm23.665 7.446-7.394-14.601-2.721 12.092-2.672-.663 4.406-17.766 3.432.852 7.21 14.333 2.591-11.791 2.581.584-4.394 17.714zm11.067-.388c-3.494-3.97-3.068-10.165.876-13.688a13.102 13.102 0 0 1 2.745-1.566c1.188-.416 2.366-.669 3.585-.704 2.807-.345 5.889.57 8.266 1.984a17.862 17.862 0 0 0 -1.129 3.043c-.165.044-.35-.021-.509-.085-1.325-2.703-4.479-3.785-7.359-2.66-3.901 1.903-4.736 6.802-3.644 10.681.49 1.301 1.175 2.505 2.29 3.302 1.529.66 2.776 1.059 4.493.838l.746-.253.39-6.495 4.582.275-.45 7.492c-4.993 1.161-10.866 1.674-14.882-2.164zm28.444-14.223 1.931 15.815-4.744.58-1.931-15.815-4.739.85-.314-2.573 14.072-1.718.315 2.573zm20.18-2.955c-1.458-1.28-3.381-1.904-5.361-1.072-2.683 1.104-3.387 4.059-3.025 6.715.752 3.468 2.103 7.233 5.883 8.051a6.734 6.734 0 0 0 2.883-.544c3.37-1.625 3.072-6.56 1.957-9.465a7.969 7.969 0 0 0 -2.337-3.685l1.567-3.178c2.048.747 3.8 2.177 4.837 4.289 1.76 3.809 1.503 8.038-1.427 11.194-.86.97-1.947 1.754-3.144 2.178l-3.262 1.056-2.739.275c-6.672-.214-11.1-8.401-7.706-14.184 1.567-2.626 4.604-4.601 7.616-5.185 1.98-.408 4.018-.281 5.826.378zm26.703 2.419-15.306-5.811 6.138 10.772-2.423 1.312-8.715-16.103 3.111-1.684 14.989 5.737-6.031-10.462 2.302-1.308 8.69 16.056zm10.267-2.235-.703.184-2.905-6.849c-.397-1.083-.371-2.276.779-2.856 1.486-.76 2.73.335 2.885 1.864.022 2.533.024 5.082-.056 7.657zm8.872-32.5c3.394.905 6.242 4.02 6.832 7.491.273 2.221-1.482 4.129-2.985 5.467l-10.773-9.501 1.929-2.187c.62-.785 1.565-1.284 2.564-1.519a7.56 7.56 0 0 1 2.433.249l.824-4.018c-2.26.015-4.49 1.013-6.213 2.711l-6.144 6.966 13.649 12.038 5.34-6.055c.804-.911 1.41-1.925 1.914-3.028 1.963-4.389-.675-9.236-4.55-11.537a7.651 7.651 0 0 0 -3.997-1.095zm14.553 2.079c-1.607.121-2.996-.86-2.835-2.631.086-.402.169-.707.387-1.016.094-.132.231-.233.325-.366 1.691-1.318 3.836-.33 3.967 1.778-.149 1.053-.757 1.913-1.844 2.235zm1.01-28.534-.3.575c-3.645-.135-5.793 3.982-4.833 7.162 1.199 3.305 5.145 5.547 8.487 5.738 3.453.035 6.239-2.561 6.361-6.121-.033-.87-.103-1.729-.294-2.529l.414-.21 1.888 1.868c-.335 5.428-4.248 11.06-10.036 11.238-4.466-.137-8.7-3.169-9.577-7.616-.28-1.973-.066-3.902.715-5.748 1.033-2.506 2.558-4.786 4.855-6.328zm13.664 2.046c-1.53.505-3.115-.112-3.387-1.87-.014-.411-.007-.727.131-1.079.059-.151.168-.282.227-.433 1.324-1.687 3.645-1.246 4.279.769.11 1.056-.272 2.037-1.25 2.613zm-211.256-32.471c1.246 2.555 1.195 5.587.325 8.211-1.24-.104-2.534-.201-3.749-.117l-.08-.589c2.663-.852 3.429-4.444 1.625-6.487-1.061-1.191-2.953-.879-3.733.398l-1.505 4.564c-1.097 2.955-3.996 4.276-6.969 3.453-1.748-.634-3.056-2.037-3.62-3.786a10.59 10.59 0 0 1 .285-6.523l3.235.351.073.535c-1.843.877-2.504 2.629-1.907 4.618.45 1.71 1.986 2.182 3.438 1.44.288-.285.546-.592.77-.949.89-2.873 1.524-7.236 5.034-8.067 2.821-.71 5.321.449 6.778 2.948zm-.051-23.449-12.161.358 11.797 6.003-.114 1.994-12.29 4.487 11.927 1.846-.156 2.722c-6.067-1.24-12.053-2.476-18.124-3.662l.202-3.531 12.503-4.421-11.857-5.898.208-3.639 18.349-1.22zm1.525-8.478-17.771-4.15 1.117-4.785 17.771 4.151zm-10.059-22.135 14.955 5.479-1.644 4.486-14.955-5.479-1.399 4.605-2.433-.891 4.874-13.308 2.434.892zm23.11-10.769-7.385-4.491-3.766 6.556 7.601 4.116-2.447 4.262-15.876-9.117 2.474-4.309 6.235 3.892 3.738-6.509-6.403-3.491 2.407-4.191 15.501 8.902.328.188zm9.143-12.589c-1.037 2.647-3.303 4.661-5.824 5.799-.763-.983-1.568-2.001-2.451-2.839l.379-.457c2.43 1.384 5.592-.484 5.875-3.195.158-1.587-1.352-2.769-2.82-2.478l-4.378 1.982c-2.918 1.193-5.853-.047-7.26-2.791-.716-1.716-.57-3.628.336-5.228a10.576 10.576 0 0 1 4.995-4.206l1.932 2.619-.345.416c-1.893-.762-3.63-.063-4.69 1.723-.954 1.489-.262 2.939 1.268 3.505.404.02.805.001 1.22-.076 2.717-1.289 6.358-3.778 9.347-1.756 2.43 1.593 3.27 4.218 2.416 6.982zm3.142-12.146c1.468 1.105 3.174 1.734 5.176 1.341a6.712 6.712 0 0 0 2.432-1.64c2.452-2.826.227-7.241-1.948-9.468-2.108-2.566-6.336-4.041-8.952-1.324-2.027 2.075-1.505 5.068-.122 7.364.976 1.365 2.099 2.738 3.414 3.727l-2.004 3.826c-3.821-1.553-6.743-5.517-6.201-9.859.401-3.032 2.409-6.048 4.944-7.775 3.534-2.47 8.274-2.811 11.64.068 3.123 2.803 4.56 6.789 3.118 10.847-.407 1.231-1.094 2.381-2.027 3.244l-2.579 2.261-2.407 1.336c-2.16.849-4.452.706-6.488-.121zm28.559-12.446-15.373-5.62 6.27 10.694-2.406 1.341-8.912-15.99 3.09-1.722 15.054 5.549-6.158-10.384 2.285-1.335 8.886 15.942zm7.122-3.103-6.385-17.101 4.604-1.719 6.385 17.1zm16.574-17.278-3.505 2.938 1.552 2.489-4.216.944.864-6.032.158-.035 1.642 2.634 3.505-2.938-3.851-5.769-2.688.602a173.657 173.657 0 0 1 -3.225 19.592l.117.029 2.767-.619.381-5.342 5.771-1.291 2.701 4.653 5.164-1.156zm23.376 9.898-11.001-12.12.582 12.382-2.753.07-.461-18.301 3.536-.089 10.752 11.911-.627-12.058 2.644-.12.459 18.246zm15.143 1.599 3.657-17.88 4.814.985-3.657 17.88zm21.419 6.194-5.842-15.29-3.959 11.746-2.59-.936 6.223-17.215 3.327 1.203 5.686 15.003 3.799-11.46 2.506.849-6.205 17.165zm12.579 6.297c-2.787-.559-5.166-2.438-6.726-4.721.835-.923 1.696-1.893 2.367-2.909l.516.293c-.938 2.634 1.454 5.421 4.172 5.226 1.59-.121 2.49-1.815 1.947-3.21l-2.716-3.964c-1.684-2.664-.976-5.771 1.481-7.635 1.564-1.005 3.472-1.194 5.205-.583a10.588 10.588 0 0 1 5.014 4.183l-2.241 2.36-.469-.266c.42-1.997-.572-3.585-2.516-4.317-1.633-.679-2.94.255-3.23 1.86.051.401.139.793.288 1.188 1.744 2.45 4.83 5.6 3.361 8.895-1.144 2.672-3.582 3.958-6.453 3.6zm21.321-4.529-9.688 12.642-3.792-2.907 9.687-12.641-3.978-2.709 1.577-2.057 11.249 8.621-1.577 2.057zm-4.437 17.231 12.74-13.066 3.517 3.43-12.739 13.066zm23.776 2.38-12.39 10.01-3.003-3.717 12.39-10.01-3.23-3.568 2.016-1.628 8.907 11.024-2.016 1.629zm4.268 25.13c-2.591 1.235-5.592.776-7.687-1.198-2.411-2.633-4.253-6.556-2.488-9.993.465-.764 1.043-1.438 1.716-1.947l11.128-6.81 1.751 3.384.717.927-10.8 6.186c-3.695 1.805-1.633 7.687 2.235 7.649.603-.034 1.239-.118 1.831-.333l10.894-6.24 1.222 2.35.349.391zm13.561 7.416-14.902 5.636-1.691-4.47 14.902-5.636-1.953-4.4 2.425-.917 5.015 13.26-2.425.917zm-12.993 11.807 17.691-4.491 1.209 4.762-17.69 4.492zm10.067 21.806c-2.391-.338-4.711-1.452-5.318-3.834a6.713 6.713 0 0 1 .039-2.934c1.553-3.544 5.512-4.121 9.062-4.169 2.676.173 5.433 1.45 5.983 4.299.742 3.699-2.881 6.333-6.192 6.602a12.044 12.044 0 0 1 -3.574.036l-1.713 3.915c2.11.97 4.558 1.128 7.001.548 4.286-1.125 6.708-5.214 6.693-9.527.026-3.069-1.308-6.439-3.571-8.497-4.996-4.477-13.902-1.762-15.437 4.738l-.275 2.74.388 3.408c.177 1.258.731 2.479 1.51 3.515 1.009 1.406 2.274 2.423 3.691 3.074zm-7.476 21.274 13.5-9.26-12.349-1.1.304-2.738 18.197 2.022-.39 3.516-13.259 9.042 12.034 1.01-.239 2.637-18.143-2.016z"/><path d="m214.147 396.75c0-50.591 41.011-91.602 91.602-91.602s91.602 41.011 91.602 91.602-41.011 91.602-91.602 91.602c-50.59 0-91.602-41.011-91.602-91.602z" fill="#003976"/><path d="m332.5 359.255s-.486-4.091-.692-8.83 3.476-8.757 6.103-11.127 4.55-6.002 4.687-9.581c.254-6.671-4.586-12.62-11.385-16.122 2.576 4.635 4.173 11.332-.05 15.195-2.625 2.401-5.923 5.718-9.786 6.955s-8.318 7.277-8.06 15.93l-7.807-36.842-7.247 36.516s-3.387-2.605-6.884-5.81-3.734-8.65-3.552-12.183-1.026-7.461-3.461-10.089c-4.537-4.896-12.166-5.681-19.45-3.349 5.099 1.456 10.964 5.062 10.71 10.78-.158 3.554-.145 8.232-2.002 11.838s-.586 11.082 5.716 17.018l-31.421-20.475 20.546 30.89s-4.388.498-9.127.705c-4.739.206-8.757-3.476-11.127-6.103s-6.002-4.55-9.581-4.686c-6.67-.254-12.619 4.586-16.121 11.385 4.636-2.576 11.332-4.174 15.195.05 2.401 2.625 5.718 5.923 6.955 9.786s7.573 8.305 16.226 8.047l-36.546 7.795 36.22 7.26s-2.901 3.4-6.106 6.897-8.65 3.734-12.183 3.552-7.461 1.027-10.089 3.461c-4.896 4.537-5.681 12.166-3.349 19.45 1.457-5.1 5.062-10.964 10.78-10.71 3.554.158 8.232.145 11.838 2.002s11.378.573 17.315-5.729l-20.179 31.408 30.594-20.533s.202 4.401.409 9.14c.206 4.739-3.476 8.757-6.103 11.127s-4.55 6.002-4.687 9.581c-.254 6.671 4.586 12.62 11.385 16.122-2.576-4.636-4.173-11.332.05-15.196 2.625-2.401 5.923-5.718 9.786-6.955s8.601-7.586 8.343-16.24l8.091 36.533 6.964-36.207s3.104 2.914 6.601 6.119 3.734 8.65 3.552 12.183 1.027 7.461 3.461 10.089c4.537 4.896 12.166 5.681 19.45 3.349-5.099-1.456-10.964-5.062-10.709-10.78.158-3.554.145-8.232 2.002-11.838s.869-11.391-5.433-17.328l31.704 20.167-20.829-30.581s4.105-.189 8.843-.396c4.739-.206 8.757 3.476 11.127 6.103s6.002 4.55 9.581 4.687c6.671.254 12.62-4.586 16.122-11.385-4.635 2.576-11.332 4.173-15.195-.05-2.401-2.625-5.718-5.923-6.955-9.786s-7.29-8.614-15.943-8.356l36.829-8.104-36.504-6.951s2.618-3.091 5.823-6.588 8.65-3.734 12.184-3.552c3.533.182 7.461-1.027 10.088-3.461 4.897-4.537 5.681-12.166 3.349-19.45-1.456 5.099-5.062 10.964-10.78 10.71-3.554-.158-8.232-.145-11.838-2.002s-11.095-.882-17.032 5.42l20.463-31.718z" fill="#ffd520"/></svg>