<svg width="26" height="26" viewBox="0 0 26 26" fill="none" xmlns="http://www.w3.org/2000/svg">
<path id="White-2" d="M24.565 0H1.43497C0.641987 0 0 0.641987 0 1.43497V24.565C0 25.357 0.641987 26 1.43497 26H13.888V15.9308H10.4998V12.0068H13.888V9.11252C13.888 5.75451 15.9386 3.92596 18.9352 3.92596C20.3702 3.92596 21.6035 4.03312 21.963 4.08086V7.59084H19.885C18.2562 7.59084 17.9406 8.36629 17.9406 9.50219V12.0078H21.8266L21.321 15.9318H17.9415V26.001H24.567C25.359 26.001 26.0019 25.358 26.0019 24.566V1.43497C26.0019 0.641987 25.359 0 24.567 0H24.565Z" fill="white"/>
</svg>
