<svg width="33" height="22" viewBox="0 0 33 22" fill="none" xmlns="http://www.w3.org/2000/svg">
<path d="M32.6705 4.74622C32.6705 4.74622 32.348 2.59068 31.3585 1.64138C30.1037 0.395646 28.697 0.389215 28.0519 0.316333C23.4342 0 16.5073 0 16.5073 0H16.4931C16.4931 0 9.56578 0 4.94782 0.316333C4.30265 0.389215 2.89665 0.39534 1.6412 1.64138C0.651955 2.59068 0.330178 4.74622 0.330178 4.74622C0.330178 4.74622 0 7.2775 0 9.80877V12.1817C0 14.713 0.330178 17.2443 0.330178 17.2443C0.330178 17.2443 0.652279 19.3998 1.64152 20.3491C2.89697 21.5949 4.54592 21.5557 5.28026 21.6861C7.92039 21.9262 16.5002 22.0003 16.5002 22.0003C16.5002 22.0003 23.4342 21.9905 28.0522 21.6739C28.6974 21.601 30.1037 21.5949 31.3588 20.3488C32.348 19.3995 32.6708 17.244 32.6708 17.244C32.6708 17.244 33.0003 14.7127 33.0003 12.1814V9.80847C33.0003 7.27719 32.6708 4.74591 32.6708 4.74591L32.6705 4.74622ZM13.0931 15.0572L13.0914 6.26848L22.0082 10.6782L13.0931 15.0572Z" fill="white"/>
</svg>
