<svg width="26" height="22" viewBox="0 0 26 22" fill="none" xmlns="http://www.w3.org/2000/svg">
<path d="M26 2.50834C25.0433 2.93426 24.0153 3.22037 22.9371 3.35042C24.038 2.68879 24.8844 1.64026 25.2817 0.391776C24.2505 1.00464 23.1089 1.45006 21.8945 1.68903C20.9216 0.650251 19.5353 0 18.0014 0C15.0552 0 12.6668 2.39455 12.6668 5.34832C12.6668 5.76773 12.7138 6.17576 12.8046 6.56754C8.37156 6.3432 4.44116 4.21525 1.80954 0.978628C1.35067 1.76868 1.08799 2.68716 1.08799 3.66742C1.08799 5.52226 2.03006 7.15927 3.4618 8.11839C2.58784 8.09075 1.76414 7.85016 1.04584 7.45025C1.04584 7.47301 1.04584 7.49577 1.04584 7.5169C1.04584 10.1082 2.88456 12.2702 5.32485 12.7612C4.87733 12.8831 4.40549 12.9481 3.91905 12.9481C3.5753 12.9481 3.24128 12.914 2.91537 12.8522C3.59476 14.9769 5.56483 16.5229 7.8981 16.5668C6.07234 18.0006 3.77312 18.8557 1.27284 18.8557C0.841534 18.8557 0.418335 18.8296 0 18.7809C2.36084 20.2976 5.16433 21.1836 8.17699 21.1836C17.9884 21.1836 23.3538 13.0343 23.3538 5.96768C23.3538 5.73522 23.3489 5.50438 23.3376 5.27516C24.3802 4.52087 25.2833 3.57963 26 2.50672V2.50834Z" fill="white"/>
</svg>
